<?xml version="1.0" encoding="utf-8"?>
<!-- Generator: Adobe Illustrator 27.5.0, SVG Export Plug-In . SVG Version: 6.00 Build 0)  -->
<svg version="1.1" id="Layer_1" xmlns="http://www.w3.org/2000/svg" xmlns:xlink="http://www.w3.org/1999/xlink" x="0px" y="0px"
	 viewBox="0 0 183.053 321.27" style="enable-background:new 0 0 183.053 321.27;" xml:space="preserve">
<g>
	<g>
		<path style="fill:#FFFFFF;" d="M165.992,137.201c0,0,10.752-6.641,8.354-15.033c-2.397-8.388-28.158-16.734-48.94-19.055
			c-20.781-2.32-78.944-1.371-104.8,8.941c0,0-21.246,8.059-8.269,20.773c12.978,12.715,57.018,18.693,93.549,16.951
			C142.419,148.035,165.992,137.201,165.992,137.201z"/>
		<path style="fill:#E0E0E0;" d="M174.346,122.168c-1.61-5.632-13.754-11.246-27.851-15.029c-0.167,12.324-0.744,24.641-1.56,36.943
			c13.378-3.354,21.056-6.881,21.056-6.881S176.744,130.561,174.346,122.168z"/>
		<path style="fill:#E0E0E0;" d="M25.776,110.242c-1.836,0.569-3.566,1.173-5.17,1.813c0,0-21.246,8.059-8.269,20.773
			c3.589,3.514,9.551,6.514,17.07,8.979C28.284,131.273,27.18,120.738,25.776,110.242z"/>
		<g>
			<g>
				<path style="fill:#FFFFFF;" d="M91.465,100.846c-47.885,0-86.688,11.625-86.688,25.967c0,14.34,38.804,25.977,86.688,25.977
					c47.874,0,86.678-11.637,86.678-25.977C178.143,112.471,139.339,100.846,91.465,100.846z M91.465,148.932
					c-44.326,0-80.256-10.207-80.256-22.787c0-12.59,35.93-22.791,80.256-22.791c44.318,0,80.249,10.201,80.249,22.791
					C171.714,138.725,135.783,148.932,91.465,148.932z"/>
				<path style="fill:#878787;" d="M91.465,152.988c-23.175,0-44.966-2.705-61.358-7.619c-16.463-4.935-25.53-11.523-25.53-18.557
					c0-7.031,9.067-13.621,25.53-18.553c16.391-4.91,38.182-7.615,61.358-7.615c23.173,0,44.96,2.705,61.349,7.615
					c16.463,4.932,25.53,11.521,25.53,18.553c0,7.033-9.067,13.622-25.53,18.557C136.423,150.283,114.635,152.988,91.465,152.988z
					 M91.465,101.044c-47.69,0-86.49,11.561-86.49,25.769c0,14.215,38.8,25.776,86.49,25.776c47.685,0,86.479-11.562,86.479-25.776
					C177.944,112.604,139.149,101.044,91.465,101.044z M91.465,149.131c-21.454,0-41.628-2.373-56.804-6.684
					c-15.252-4.33-23.651-10.121-23.651-16.303c0-6.187,8.399-11.979,23.651-16.309c15.174-4.309,35.348-6.684,56.804-6.684
					c21.453,0,41.626,2.375,56.799,6.684c15.251,4.33,23.651,10.122,23.651,16.309c0,6.182-8.4,11.973-23.651,16.303
					C133.088,146.758,112.916,149.131,91.465,149.131z M91.465,103.553c-44.143,0-80.056,10.135-80.056,22.592
					c0,12.454,35.913,22.588,80.056,22.588c44.139,0,80.05-10.134,80.05-22.588C171.515,113.688,135.604,103.553,91.465,103.553z"/>
			</g>
			<g>
				<path style="fill:#FFFFFF;" d="M91.598,99.629c-47.884,0-86.688,11.627-86.688,25.969c0,14.341,38.804,25.976,86.688,25.976
					c47.875,0,86.678-11.635,86.678-25.976C178.276,111.256,139.473,99.629,91.598,99.629z M91.598,147.716
					c-44.325,0-80.255-10.206-80.255-22.788c0-12.59,35.93-22.789,80.255-22.789c44.319,0,80.249,10.199,80.249,22.789
					C171.847,137.51,135.916,147.716,91.598,147.716z"/>
				<path style="fill:#878787;" d="M91.598,151.773c-23.175,0-44.965-2.706-61.358-7.619c-16.464-4.934-25.53-11.524-25.53-18.557
					c0-7.031,9.066-13.621,25.53-18.554c16.39-4.909,38.181-7.614,61.358-7.614c23.173,0,44.96,2.705,61.349,7.614
					c16.463,4.933,25.529,11.522,25.529,18.554c0,7.032-9.066,13.623-25.529,18.557C136.556,149.067,114.769,151.773,91.598,151.773
					z M91.598,99.83c-47.69,0-86.489,11.559-86.489,25.768c0,14.213,38.798,25.775,86.489,25.775
					c47.685,0,86.479-11.563,86.479-25.775C178.077,111.389,139.282,99.83,91.598,99.83z M91.598,147.917
					c-21.455,0-41.626-2.375-56.804-6.685c-15.252-4.332-23.651-10.121-23.651-16.305c0-6.185,8.399-11.976,23.651-16.308
					c15.174-4.31,35.348-6.682,56.804-6.682c21.454,0,41.625,2.372,56.799,6.682c15.252,4.331,23.65,10.122,23.65,16.308
					c0,6.184-8.398,11.973-23.65,16.305C133.22,145.542,113.049,147.917,91.598,147.917z M91.598,102.338
					c-44.144,0-80.056,10.135-80.056,22.59c0,12.455,35.913,22.59,80.056,22.59c44.141,0,80.05-10.135,80.05-22.59
					C171.648,112.473,135.738,102.338,91.598,102.338z"/>
			</g>
		</g>
	</g>
	<path style="fill:#D5D7D8;" d="M166.979,290.48c0,12.567-34.194,22.757-76.37,22.757c-42.18,0-76.372-10.189-76.372-22.757
		s34.192-22.756,76.372-22.756C132.785,267.725,166.979,277.913,166.979,290.48z"/>
	<g>
		<g>
			<g>
				<path style="fill:#FFFFFF;" d="M156.565,140.527c-6.162,2.078-12.574,3.563-18.926,4.922
					c-7.254,1.551-14.573,2.793-21.937,3.688c-20.376,2.471-41.06,2.694-61.404-0.188c-8.753-1.24-17.611-2.705-25.928-5.802
					c-5.783-2.152-11.521-5.022-16.032-9.282l19.279,152.432c0,9.903,26.795,17.933,59.849,17.933
					c33.046,0,59.832-8.029,59.832-17.933l19.395-153.282C166.647,136.398,161.659,138.81,156.565,140.527z"/>
				<path style="fill:#878787;" d="M170.469,133.202l-19.37,153.095c0,9.778-26.751,17.732-59.633,17.732
					c-32.89,0-59.649-7.954-59.65-17.757l-19.25-152.196c-0.154-0.143-0.305-0.291-0.457-0.438l19.31,152.658
					c0,4.886,6.275,9.457,17.671,12.872c11.321,3.392,26.372,5.261,42.376,5.261c16,0,31.047-1.869,42.366-5.261
					c11.393-3.415,17.666-7.985,17.666-12.846l19.421-153.495C170.77,132.953,170.619,133.078,170.469,133.202z"/>
			</g>
		</g>
	</g>
	<g>
		<path style="fill:#BC8871;" d="M165.979,162.807c-3.292,0.806-6.775,2.033-9.599,4.16c-3.067,2.314-19.91,4.333-23.21,4.751
			c-5.106,1.824-24.055,4.598-29.043,4.125c-5.878-0.561-9.527,1.291-15.391,0.629c-5.997-0.674-11.379-0.009-17.254,1.191
			c-5.015,1.022-10.077,1.517-15.129,0.405c-4.652-1.023-8.987-2.885-13.302-4.855c-2.774-1.27-5.526-2.719-8.557-3.259
			c-2.174-0.392-4.526-0.536-6.599-1.346c-4.388-1.715-6.694-6.094-11.342-7.018l16.215,124.791
			c0,9.904,25.644,15.946,58.699,15.946c33.046,0,58.203-6.325,58.203-16.227C149.669,286.102,166.546,162.667,165.979,162.807z"/>
		<path style="fill:#A5592D;" d="M91.466,302.527c-16.4,0-31.243-1.514-41.794-4.266c-11.189-2.916-17.103-7.024-17.103-11.88
			L16.317,161.34l0.274,0.055c2.612,0.52,4.528,2.135,6.382,3.695c1.503,1.266,3.055,2.574,4.995,3.331
			c1.476,0.579,3.125,0.817,4.719,1.048c0.607,0.089,1.237,0.18,1.84,0.288c2.589,0.462,4.994,1.588,7.321,2.678
			c0.428,0.199,0.857,0.4,1.285,0.596c4.109,1.879,8.519,3.8,13.261,4.843c1.92,0.422,3.887,0.628,6.017,0.628
			c2.704,0,5.573-0.329,9.03-1.034c4.957-1.013,8.802-1.464,12.473-1.464c1.64,0,3.225,0.089,4.844,0.271
			c0.857,0.097,1.697,0.144,2.566,0.144c1.856,0,3.559-0.222,5.206-0.438c1.678-0.219,3.413-0.444,5.335-0.444
			c0.773,0,1.518,0.035,2.28,0.107c0.369,0.035,0.826,0.053,1.363,0.053c6.404,0,22.909-2.492,27.595-4.167l0.043-0.009l0.531-0.067
			c13.071-1.638,20.667-3.202,22.582-4.645c2.418-1.822,5.582-3.194,9.672-4.197l0.049-0.006h0.09l0.063,0.07
			c0.133,0.151,0.353,0.406-7.932,62.008c-4.09,30.404-8.291,61.139-8.335,61.445c0.004,4.851-5.826,9.009-16.854,11.992
			C122.507,300.963,107.751,302.527,91.466,302.527z M16.786,161.846l16.18,124.512c0.001,9.297,24.056,15.771,58.5,15.771
			c34.153,0,58.004-6.591,58.004-16.026c5.613-41.07,16.069-118.327,16.32-123.043c-3.922,0.982-6.963,2.314-9.291,4.068
			c-1.97,1.487-9.632,3.076-22.772,4.723l-0.51,0.064c-4.74,1.684-21.287,4.183-27.71,4.183c-0.549,0-1.02-0.018-1.4-0.055
			c-0.75-0.071-1.484-0.105-2.243-0.105c-1.896,0-3.618,0.225-5.282,0.441c-1.66,0.216-3.375,0.439-5.259,0.439
			c-0.885,0-1.739-0.047-2.609-0.145c-1.605-0.183-3.175-0.27-4.8-0.27c-3.642,0-7.464,0.449-12.394,1.456
			c-3.483,0.711-6.378,1.041-9.109,1.041c-2.158,0-4.155-0.208-6.102-0.636c-4.78-1.052-9.211-2.982-13.342-4.869
			c-0.43-0.196-0.859-0.397-1.288-0.599c-2.303-1.079-4.684-2.193-7.221-2.645c-0.599-0.108-1.225-0.2-1.829-0.288
			c-1.615-0.232-3.288-0.476-4.808-1.07c-2-0.78-3.579-2.11-5.106-3.396C20.888,163.855,19.156,162.396,16.786,161.846z"/>
	</g>
	<path style="opacity:0.4;fill:#BF8261;" d="M28.214,202.394c3.228-0.23,6.646,0.046,9.351,2.033
		c2.694,1.977,4.951,4.502,7.304,6.863c2.34,2.35,4.772,4.754,7.751,6.289c3.396,1.747,6.906,2.27,10.61,2.964
		c5.918,1.108,10.621,2.979,15.002,7.198c5.971,5.746,14.76,11.514,23.552,9.454c5.843-1.369,9.691-5.834,13.694-9.967
		c3.977-4.11,8.191-7.583,13.916-8.811c8.559-1.837,18.474-1.234,26.025-6.261c1.559-1.036,3.132-2.363,4.752-3.69
		c3.3-24.694,6.04-45.72,5.806-45.66c-3.292,0.806-6.775,2.033-9.599,4.16c-3.067,2.314-19.91,4.333-23.21,4.751
		c-5.106,1.824-24.055,4.598-29.043,4.125c-5.878-0.561-9.527,1.291-15.391,0.629c-5.997-0.674-11.379-0.009-17.254,1.191
		c-5.015,1.022-10.077,1.517-15.129,0.405c-4.652-1.023-8.987-2.885-13.302-4.855c-2.774-1.27-5.526-2.719-8.557-3.259
		c-2.174-0.392-4.526-0.536-6.599-1.346c-4.388-1.715-6.694-6.094-11.342-7.018l5.679,41.394
		C24.211,202.825,26.185,202.536,28.214,202.394z"/>
	<path style="opacity:0.4;fill:#BF8261;" d="M150.557,265.567c-3.686,0.724-7.446,1.37-11.001,2.614
		c-3.498,1.225-6.711,3.001-9.936,4.803c-5.331,2.979-11.013,6.164-17.286,6.308c-8.148,0.182-16.471-2.999-23.618,2.436
		c-5.288,4.017-9.922,7.587-16.902,7.77c-7.372,0.192-14.53-1.985-21.536-4.04c-4.261-1.248-6.834-3.089-8.899-7.014
		c-1.444-2.746-2.896-5.34-5.251-7.435c-1.629-1.449-4.253-3.612-5.998-4.921l2.637,20.293c0,9.904,25.644,15.946,58.699,15.946
		c33.046,0,58.203-6.325,58.203-16.227c0,0,1.157-8.46,2.854-20.938C151.869,265.303,151.214,265.439,150.557,265.567z"/>
	<g>
		<g>
			<g>
				<g>
					<path style="fill:#8E453C;" d="M113.413,201.428c-0.617-3.46-3.211-6.953-6.823-7.522c-3.619-0.571-6.923,1.967-10.068,3.371
						c-2.09,0.929-4.273,1.712-6.514,2.182c-5.557,1.163-11.261,1.425-15.657,5.471c-3.088,2.839-4.121,7.459-2.039,11.205
						c2.261,4.065,7.871,6.146,12.134,6.832c4.771,0.766,9.627,0.378,14.131-1.448c3.28-1.331,6.562-3.233,9.19-5.618
						c3.471-3.148,5.843-7.371,5.863-11.992C113.631,203.093,113.563,202.265,113.413,201.428z"/>
					<path style="fill:#591D00;" d="M113.192,201.466c-0.572-3.215-3.041-6.77-6.637-7.339c-2.666-0.42-5.175,0.902-7.601,2.183
						c-0.808,0.424-1.57,0.825-2.341,1.171c-2.345,1.044-4.491,1.762-6.558,2.195c-1.045,0.22-2.109,0.405-3.137,0.59
						c-4.572,0.816-8.891,1.582-12.417,4.828c-2.063,1.898-3.2,4.642-3.038,7.343c0.074,1.271,0.428,2.477,1.042,3.588
						c2.163,3.885,7.602,6.021,11.975,6.722c4.909,0.786,9.754,0.289,14.009-1.436c3.523-1.426,6.677-3.358,9.124-5.575
						c3.716-3.372,5.773-7.574,5.793-11.83c0.002-0.281-0.007-0.568-0.025-0.854C113.349,202.523,113.287,201.991,113.192,201.466z"
						/>
				</g>
				<path style="opacity:0.4;fill:#8E453C;" d="M96.522,197.276c-2.09,0.929-4.273,1.712-6.514,2.182
					c-5.557,1.163-11.261,1.425-15.657,5.471c-3.088,2.839-4.121,7.459-2.039,11.205c2.261,4.065,7.871,6.146,12.134,6.832
					c4.771,0.766,9.627,0.378,14.131-1.448c3.28-1.331,6.562-3.233,9.19-5.618c3.471-3.148,5.843-7.371,5.863-11.992
					c0.001-0.814-0.067-1.643-0.217-2.479c-0.617-3.46-3.211-6.953-6.823-7.522C102.971,193.334,99.667,195.872,96.522,197.276z
					 M110.803,199.811c1.914,3.092,1.068,7.501-0.463,10.539c-1.131,2.248-3.041,4.455-5.005,6.01
					c-2.637,2.086-5.856,3.221-9.112,3.898c-3.462,0.719-7.111,1.255-10.593,0.343c-1.942-0.513-4.508-1.638-5.938-3.097
					c-1.506-1.54-2.416-3.643-2.069-5.803c0.389-2.412,2.585-4.084,4.659-5.035c2.538-1.164,5.44-1.433,8.162-1.869
					c3.356-0.535,6.501-1.63,9.357-3.503C102.813,199.32,108.018,195.319,110.803,199.811z"/>
				<path style="opacity:0.4;fill:#8E453C;" d="M106.066,193.851c-1.9,0.212-3.65,1.004-4.654,2.541
					c-0.792,1.219-1.327,2.522-2.364,3.585c-0.974,0.997-2.12,1.832-3.414,2.36c-3.021,1.23-6.194,1.352-9.264,0.262
					c-0.97-0.343-2.49,0.339-3.368,0.672c-1.222,0.465-2.495,0.843-3.685,1.386c-2.099,0.957-4.23,2.359-5.226,4.533
					c-0.998,2.179-1.08,4.84,0.169,6.946c1.328,2.246,3.573,3.821,5.88,4.954c3.35,1.644,7.004,2.234,10.677,2.187
					c-2.114,0.14-4.251,0.03-6.373-0.311c-4.263-0.686-9.873-2.767-12.134-6.832c-2.082-3.746-1.049-8.366,2.039-11.205
					c4.396-4.046,10.1-4.308,15.657-5.471c2.241-0.47,4.423-1.253,6.514-2.182C99.516,195.942,102.651,193.585,106.066,193.851z"/>
				<g>
					<path style="fill:#D3D9B6;" d="M99.883,196.992c-0.042,0.977-1.409,1.804-2.098,2.298c-0.9,0.641-1.951,1.132-2.978,1.524
						c-0.584,0.224-1.186,0.417-1.785,0.587c-0.942,0.267-1.854,0.471-2.829,0.551c-0.599,0.051-3.795,0.189-2.784-1.228
						c0.51-0.717,1.623-0.835,2.415-1.016c1.957-0.445,3.778-1.046,5.604-1.885c0.423-0.193,0.836-0.408,1.248-0.623
						c0.575-0.297,1.135-0.685,1.778-0.817C98.932,196.283,99.912,196.277,99.883,196.992z"/>
					<path style="fill:#CA9F75;" d="M87.226,200.59c0.488-0.677,1.424-0.866,2.179-1.022c0.128-0.022,0.251-0.049,0.369-0.077
						c1.982-0.452,3.804-1.063,5.563-1.871c0.399-0.182,0.78-0.377,1.238-0.615c0.135-0.072,0.27-0.148,0.406-0.223
						c0.444-0.25,0.904-0.51,1.428-0.617c0.093-0.022,0.928-0.181,1.404,0.186c0.204,0.152,0.304,0.374,0.295,0.651
						c-0.042,0.981-1.185,1.769-1.941,2.294c-0.091,0.063-0.175,0.12-0.253,0.176c-0.801,0.575-1.791,1.082-3.029,1.553
						c-0.551,0.21-1.159,0.409-1.8,0.593c-1.106,0.314-1.992,0.486-2.873,0.557c-0.233,0.022-2.276,0.169-2.97-0.43
						c-0.152-0.138-0.238-0.304-0.251-0.487l0,0C86.978,201.051,87.056,200.832,87.226,200.59z M99.542,196.701
						c-0.216-0.162-0.688-0.175-1.043-0.1c-0.455,0.094-0.886,0.337-1.3,0.569c-0.14,0.078-0.279,0.155-0.417,0.229
						c-0.463,0.24-0.854,0.439-1.259,0.628c-1.787,0.82-3.636,1.441-5.649,1.9c-0.119,0.026-0.25,0.054-0.38,0.081
						c-0.713,0.144-1.519,0.307-1.903,0.846c-0.106,0.146-0.162,0.278-0.154,0.377l0,0c0.002,0.038,0.014,0.101,0.097,0.173
						c0.42,0.364,1.808,0.394,2.64,0.325c0.854-0.069,1.711-0.237,2.791-0.545c0.627-0.178,1.22-0.372,1.763-0.578
						c1.199-0.455,2.157-0.947,2.927-1.498c0.079-0.056,0.164-0.117,0.259-0.179c0.686-0.475,1.715-1.188,1.75-1.946
						c0-0.018-0.005-0.035,0-0.051C99.653,196.832,99.616,196.762,99.542,196.701z"/>
				</g>
				<path style="opacity:0.4;fill:#D3D9B6;" d="M99.721,196.568c-0.799,0.6-1.535,1.268-2.414,1.768
					c-1.183,0.673-2.477,1.182-3.775,1.598c-1.328,0.423-2.672,0.74-4.052,0.956c-0.735,0.115-1.494,0.233-2.235,0.174
					c0.028-0.107,0.074-0.215,0.165-0.341c0.51-0.717,1.623-0.835,2.415-1.016c1.957-0.445,3.778-1.046,5.604-1.885
					c0.423-0.193,0.836-0.408,1.248-0.623c0.575-0.297,1.135-0.685,1.778-0.817C98.809,196.308,99.428,196.288,99.721,196.568z"/>
				<path style="opacity:0.6;fill:#8E453C;" d="M100.079,217.114c3.076-1.191,5.8-2.941,8.149-5.162
					c-2.168,2.845-4.688,5.041-8.181,6.407c-3.939,1.538-9.084,2.673-13.251,1.344C91.289,219.421,95.937,218.723,100.079,217.114z"
					/>
			</g>
			<g>
				<g>
					<g>
						<path style="fill:#8E453C;" d="M113.413,201.428c-0.617-3.46-3.211-6.953-6.823-7.522c-3.619-0.571-6.923,1.967-10.068,3.371
							c-2.09,0.929-4.273,1.712-6.514,2.182c-5.557,1.163-11.261,1.425-15.657,5.471c-3.088,2.839-4.121,7.459-2.039,11.205
							c2.261,4.065,7.871,6.146,12.134,6.832c4.771,0.766,9.627,0.378,14.131-1.448c3.28-1.331,6.562-3.233,9.19-5.618
							c3.471-3.148,5.843-7.371,5.863-11.992C113.631,203.093,113.563,202.265,113.413,201.428z"/>
						<path style="fill:#5F2D25;" d="M74.064,204.618c3.667-3.37,8.278-4.194,12.739-4.989c1.041-0.184,2.081-0.372,3.118-0.586
							c2.021-0.423,4.125-1.129,6.43-2.152c0.751-0.338,1.503-0.733,2.3-1.153c2.522-1.329,5.129-2.704,8.006-2.249
							c3.895,0.613,6.557,4.421,7.172,7.863c0.151,0.849,0.226,1.707,0.221,2.559c-0.02,4.395-2.213,8.865-6.001,12.302
							c-2.503,2.271-5.726,4.242-9.317,5.697c-4.362,1.77-9.327,2.28-14.354,1.474c-2.192-0.351-9.576-1.898-12.436-7.046
							c-1.371-2.459-1.514-5.419-0.395-8.123C72.109,206.861,72.981,205.615,74.064,204.618z M113.207,203.904
							c0.002-0.797-0.069-1.605-0.21-2.403c-0.563-3.146-2.967-6.626-6.474-7.176c-2.599-0.412-5.079,0.896-7.479,2.159
							c-0.774,0.407-1.574,0.83-2.352,1.178c-2.358,1.051-4.518,1.773-6.598,2.207c-1.046,0.22-2.097,0.406-3.142,0.593
							c-4.542,0.809-8.834,1.572-12.317,4.776c-0.995,0.918-1.793,2.057-2.308,3.301c-1.018,2.462-0.888,5.155,0.354,7.389
							c2.125,3.822,7.504,5.929,11.831,6.623c4.872,0.781,9.68,0.287,13.902-1.424c3.499-1.418,6.633-3.336,9.064-5.539
							c2.078-1.886,3.684-4.11,4.644-6.432C112.835,207.44,113.202,205.674,113.207,203.904z"/>
					</g>
				</g>
				<path style="opacity:0.4;fill:#8E453C;" d="M96.522,197.276c-2.09,0.929-4.273,1.712-6.514,2.182
					c-5.557,1.163-11.261,1.425-15.657,5.471c-3.088,2.839-4.121,7.459-2.039,11.205c2.261,4.065,7.871,6.146,12.134,6.832
					c4.771,0.766,9.627,0.378,14.131-1.448c3.28-1.331,6.562-3.233,9.19-5.618c3.471-3.148,5.843-7.371,5.863-11.992
					c0.001-0.814-0.067-1.643-0.217-2.479c-0.617-3.46-3.211-6.953-6.823-7.522C102.971,193.334,99.667,195.872,96.522,197.276z
					 M110.803,199.811c1.914,3.092,1.068,7.501-0.463,10.539c-1.131,2.248-3.041,4.455-5.005,6.01
					c-2.637,2.086-5.856,3.221-9.112,3.898c-3.462,0.719-7.111,1.255-10.593,0.343c-1.942-0.513-4.508-1.638-5.938-3.097
					c-1.506-1.54-2.416-3.643-2.069-5.803c0.389-2.412,2.585-4.084,4.659-5.035c2.538-1.164,5.44-1.433,8.162-1.869
					c3.356-0.535,6.501-1.63,9.357-3.503C102.813,199.32,108.018,195.319,110.803,199.811z"/>
				<path style="opacity:0.4;fill:#8E453C;" d="M106.066,193.851c-1.9,0.212-3.65,1.004-4.654,2.541
					c-0.792,1.219-1.327,2.522-2.364,3.585c-0.974,0.997-2.12,1.832-3.414,2.36c-3.021,1.23-6.194,1.352-9.264,0.262
					c-0.97-0.343-2.49,0.339-3.368,0.672c-1.222,0.465-2.495,0.843-3.685,1.386c-2.099,0.957-4.23,2.359-5.226,4.533
					c-0.998,2.179-1.08,4.84,0.169,6.946c1.328,2.246,3.573,3.821,5.88,4.954c3.35,1.644,7.004,2.234,10.677,2.187
					c-2.114,0.14-4.251,0.03-6.373-0.311c-4.263-0.686-9.873-2.767-12.134-6.832c-2.082-3.746-1.049-8.366,2.039-11.205
					c4.396-4.046,10.1-4.308,15.657-5.471c2.241-0.47,4.423-1.253,6.514-2.182C99.516,195.942,102.651,193.585,106.066,193.851z"/>
				<g>
					<path style="fill:#D3D9B6;" d="M99.883,196.992c-0.042,0.977-1.409,1.804-2.098,2.298c-0.9,0.641-1.951,1.132-2.978,1.524
						c-0.584,0.224-1.186,0.417-1.785,0.587c-0.942,0.267-1.854,0.471-2.829,0.551c-0.599,0.051-3.795,0.189-2.784-1.228
						c0.51-0.717,1.623-0.835,2.415-1.016c1.957-0.445,3.778-1.046,5.604-1.885c0.423-0.193,0.836-0.408,1.248-0.623
						c0.575-0.297,1.135-0.685,1.778-0.817C98.932,196.283,99.912,196.277,99.883,196.992z"/>
					<path style="fill:#CA9F75;" d="M87.226,200.59c0.488-0.677,1.424-0.866,2.179-1.022c0.128-0.022,0.251-0.049,0.369-0.077
						c1.982-0.452,3.804-1.063,5.563-1.871c0.399-0.182,0.78-0.377,1.238-0.615c0.135-0.072,0.27-0.148,0.406-0.223
						c0.444-0.25,0.904-0.51,1.428-0.617c0.093-0.022,0.928-0.181,1.404,0.186c0.204,0.152,0.304,0.374,0.295,0.651
						c-0.042,0.981-1.185,1.769-1.941,2.294c-0.091,0.063-0.175,0.12-0.253,0.176c-0.801,0.575-1.791,1.082-3.029,1.553
						c-0.551,0.21-1.159,0.409-1.8,0.593c-1.106,0.314-1.992,0.486-2.873,0.557c-0.233,0.022-2.276,0.169-2.97-0.43
						c-0.152-0.138-0.238-0.304-0.251-0.487l0,0C86.978,201.051,87.056,200.832,87.226,200.59z M99.542,196.701
						c-0.216-0.162-0.688-0.175-1.043-0.1c-0.455,0.094-0.886,0.337-1.3,0.569c-0.14,0.078-0.279,0.155-0.417,0.229
						c-0.463,0.24-0.854,0.439-1.259,0.628c-1.787,0.82-3.636,1.441-5.649,1.9c-0.119,0.026-0.25,0.054-0.38,0.081
						c-0.713,0.144-1.519,0.307-1.903,0.846c-0.106,0.146-0.162,0.278-0.154,0.377l0,0c0.002,0.038,0.014,0.101,0.097,0.173
						c0.42,0.364,1.808,0.394,2.64,0.325c0.854-0.069,1.711-0.237,2.791-0.545c0.627-0.178,1.22-0.372,1.763-0.578
						c1.199-0.455,2.157-0.947,2.927-1.498c0.079-0.056,0.164-0.117,0.259-0.179c0.686-0.475,1.715-1.188,1.75-1.946
						c0-0.018-0.005-0.035,0-0.051C99.653,196.832,99.616,196.762,99.542,196.701z"/>
				</g>
				<path style="opacity:0.4;fill:#D3D9B6;" d="M99.721,196.568c-0.799,0.6-1.535,1.268-2.414,1.768
					c-1.183,0.673-2.477,1.182-3.775,1.598c-1.328,0.423-2.672,0.74-4.052,0.956c-0.735,0.115-1.494,0.233-2.235,0.174
					c0.028-0.107,0.074-0.215,0.165-0.341c0.51-0.717,1.623-0.835,2.415-1.016c1.957-0.445,3.778-1.046,5.604-1.885
					c0.423-0.193,0.836-0.408,1.248-0.623c0.575-0.297,1.135-0.685,1.778-0.817C98.809,196.308,99.428,196.288,99.721,196.568z"/>
				<path style="opacity:0.6;fill:#8E453C;" d="M100.079,217.114c3.076-1.191,5.8-2.941,8.149-5.162
					c-2.168,2.845-4.688,5.041-8.181,6.407c-3.939,1.538-9.084,2.673-13.251,1.344C91.289,219.421,95.937,218.723,100.079,217.114z"
					/>
			</g>
		</g>
	</g>
	<g>
		<g>
			<g>
				<path style="fill:#BF8261;" d="M160.463,168.895c0.683-0.646,1.361-1.298,2.04-1.931c2.005-1.856,4.066-3.906,4.066-6.836
					c0-11.784-33.627-21.328-75.104-21.328c-41.485,0-75.108,9.544-75.108,21.328c0,0.49,0.08,0.977,0.195,1.462
					c1.255,5.231,5.692,7.209,10.52,8.246c4.505,0.97,8.913,2.324,13.343,3.584c4.046,1.151,7.882,2.235,11.566,4.314
					c16.074,9.058,35.335,10.515,53.309,7.986c6.771-0.956,13.463-2.437,20.045-4.277c6.852-1.914,13.934-2.737,20.726-4.901
					c3.051-0.971,6.286-1.752,9.07-3.387C157.093,172.006,158.801,170.468,160.463,168.895z"/>
				<path style="fill:#A5592D;" d="M89.914,187.026h-0.002c-14.498,0-27.293-3.067-38.029-9.118
					c-3.635-2.05-7.42-3.127-11.428-4.266l-0.096-0.028c-0.878-0.25-1.754-0.503-2.631-0.756c-3.487-1.008-7.093-2.05-10.699-2.827
					c-4.249-0.913-9.303-2.693-10.671-8.394c-0.137-0.58-0.201-1.059-0.201-1.509c0-5.796,7.864-11.221,22.142-15.275
					c14.202-4.033,33.084-6.254,53.166-6.254c20.08,0,38.959,2.221,53.16,6.254c14.28,4.055,22.143,9.479,22.143,15.275
					c0,2.914-1.954,4.966-4.129,6.982c-0.452,0.423-0.902,0.851-1.355,1.28l-0.684,0.649c-1.604,1.517-3.34,3.097-5.371,4.287
					c-2.249,1.32-4.8,2.092-7.269,2.839c-0.617,0.186-1.232,0.372-1.84,0.566c-3.754,1.195-7.657,1.994-11.43,2.768
					c-3.066,0.628-6.235,1.278-9.303,2.135c-7.053,1.971-13.618,3.372-20.072,4.281C100.084,186.653,94.902,187.026,89.914,187.026z
					 M91.466,138.998c-41.305,0-74.909,9.481-74.909,21.131c0,0.418,0.059,0.869,0.189,1.416c1.316,5.484,6.231,7.207,10.368,8.097
					c3.62,0.778,7.232,1.823,10.726,2.832c0.876,0.254,1.752,0.506,2.63,0.756l0.096,0.028c4.031,1.146,7.838,2.23,11.515,4.302
					c10.674,6.018,23.404,9.068,37.831,9.069h0.003c4.971,0,10.133-0.373,15.347-1.108c6.436-0.905,12.986-2.304,20.019-4.269
					c3.082-0.86,6.26-1.511,9.332-2.142c3.764-0.771,7.654-1.569,11.389-2.757c0.609-0.194,1.227-0.38,1.845-0.568
					c2.446-0.739,4.976-1.505,7.183-2.801c1.996-1.169,3.712-2.733,5.297-4.233l0.684-0.648c0.454-0.432,0.906-0.86,1.359-1.282
					c2.108-1.955,4.001-3.938,4.001-6.69C166.369,148.479,132.768,138.998,91.466,138.998z"/>
			</g>
		</g>
		<g>
			<path style="fill:#935B5A;" d="M113.538,154.646c-0.776-0.34-1.147-0.846-1.755-1.41c-1.408-1.307-3.099-2.128-4.975-2.541
				c-3.314-0.727-6.754-0.826-10.14-0.883c-8.689-0.149-17.532,0.104-25.839,2.945c-1.26,0.432-2.689,1.18-4.045,1.25
				c-1.115,0.059-2.007-0.457-3.061-0.744c-3.371-0.915-6.779-0.898-10.213-0.817c3.936,1.526,7.533,3.702,11.046,6.125
				c0.545,0.378,0.207,1.188-0.446,1.058c-5.733-1.139-12.604-1.922-18.385-0.133c6.629,1.276,13.13,2.934,18.636,7.176
				c0.525,0.403,0.224,1.168-0.445,1.059c-3.745-0.613-7.424,2.521-9.951,5.357c4.252-0.967,8.101-3.85,12.359-4.924
				c5.132-1.294,10.428-2.018,15.731-1.985c5.416,0.031,10.858,0.595,16.137,1.844c2.433,0.577,4.898,1.15,7.163,2.239
				c2.352,1.13,4.604,2.451,6.997,3.493c-0.954-4.316-6.46-6.261-10.244-7.374c-0.66-0.195-0.472-1.071,0.154-1.139
				c3.992-0.413,8.499-1.146,12.314,0.554c2.859,1.275,4.774,3.705,7.269,5.458c-0.756-5.974-5.938-8.005-11.249-9.889
				c-0.45-0.158-0.605-0.801-0.138-1.059c6.9-3.805,14.817-4.668,22.551-3.896c-3.206-1.047-6.565-1.299-10.052-1.277
				C120.113,155.151,116.224,155.816,113.538,154.646z"/>
		</g>
		<g style="opacity:0.5;">
			<path style="fill:#BF8261;" d="M91.466,138.801c-41.485,0-75.108,9.544-75.108,21.328c0,0.49,0.08,0.977,0.195,1.462
				c1.255,5.231,5.692,7.209,10.52,8.246c4.505,0.97,8.913,2.324,13.343,3.584c4.046,1.151,7.882,2.235,11.566,4.314
				c16.074,9.058,35.335,10.515,53.309,7.986c6.771-0.956,13.463-2.437,20.045-4.277c6.852-1.914,13.934-2.737,20.726-4.901
				c3.051-0.971,6.286-1.752,9.07-3.387c1.963-1.149,3.671-2.688,5.333-4.26c0.683-0.646,1.361-1.298,2.04-1.931
				c2.005-1.856,4.066-3.906,4.066-6.836C166.57,148.345,132.943,138.801,91.466,138.801z M138.233,170.245
				c-6.765,4.845-14.971,7.582-23.278,7.978c-6.215,0.296-14.207,0.277-19.099-4.172c-0.372-0.339-0.135-0.88,0.272-1.035
				c4.959-1.859,10.382-1.886,15.409-0.317c-1.849-6.348-10.799-8.725-16.574-9.553c-5.493-0.786-11.288-0.573-16.65,0.906
				c-3.855,1.066-8.724,2.483-11.522,5.632c2.94-0.906,6.046-1.761,9.079-1.796c4.042-0.046,7.925,0.896,11.913,1.394
				c0.779,0.096,0.816,1.188,0,1.238c-7.954,0.478-15.256,4.533-20.449,10.493c-0.239,0.274-0.628,0.199-0.876,0
				c-1.379-1.111-1.853-2.614-2.88-3.993c-1.577-2.115-3.336-4.088-5.325-5.826c-3.869-3.384-8.351-6.408-13.338-7.813
				c-0.542-0.155-0.635-1.109,0-1.194c5.91-0.813,12.01,0.007,17.56,2.178c-5.601-9.833-19.215-10.038-29.308-9.008
				c-0.669,0.067-0.766-0.841-0.311-1.154c6.816-4.722,13.94-8.386,22.004-10.417c6.648-1.675,13.736-3.268,20.557-1.715
				c0.443,0.102,0.613,0.73,0.274,1.035c-2.532,2.265-5.756,3.857-7.622,6.656c6.421-4.207,13.88-6.605,21.66-5.914
				c5.168,0.457,10.332,1.448,14.763,3.918c11.63-3.584,24.993-2.448,34.974,4.578c0.596,0.42,0.217,1.24-0.476,1.133
				c-5.732-0.898-11.72-1.428-17.393,0.146c-2.676,0.742-6.225,1.666-8.117,3.934c5.542-1.663,11.391-4.037,17.012-1.652
				c0.436,0.184,0.373,0.865,0,1.068c-3.459,1.887-7.609,2.734-10.374,5.54c4.004-1.469,8.049-2.717,12.303-3.29
				c3.019-0.404,7.514-0.891,10.337,0.646C147.908,162.672,140.71,168.472,138.233,170.245z"/>
		</g>
		<path style="opacity:0.4;fill:#5E2C00;" d="M61.066,163.769c-10.08-7.06-22.563-9.181-33.91-3.952
			c-0.099,0.047-0.32,0.413-0.092,0.368c5.508-1.103,10.949-2.649,16.616-1.875c5.815,0.797,11.788,3.308,16.978,5.963
			C60.889,164.392,61.291,163.925,61.066,163.769z"/>
		<path style="opacity:0.4;fill:#5E2C00;" d="M100.99,168.867c-5.308-2.86-11.764-4.396-17.801-4.047
			c-3.686,0.215-7.288,0.899-10.879,1.715c-0.599,0.135-4.964,1.918-5.117,1.796c-0.155-0.125-0.399,0.211-0.286,0.352
			c0.045,0.058,0.094,0.116,0.139,0.175c0.042,0.051,0.141,0.009,0.183-0.016c2.155-1.323,5.511-1.478,7.951-1.906
			c2.857-0.501,5.761-0.744,8.657-0.866c5.856-0.247,11.127,2.521,16.784,3.341C100.817,169.439,101.238,169.001,100.99,168.867z"/>
		<path style="opacity:0.4;fill:#5E2C00;" d="M154.621,159.776c-4.042-2.868-10.258-2.681-15.011-3.108
			c-1.347-0.121-2.746-0.02-4.132,0.173c-2.453-1.261-4.747-3.025-7.618-3.218c-1.765-0.118-3.56-0.062-5.279,0.412
			c-0.552,0.148-5.708,1.341-5.657,1.97c-0.023-0.265-0.398,0.042-0.41,0.198c-0.002,0.051-0.006,0.104-0.013,0.157
			c-0.008,0.116,0.067,0.192,0.185,0.15c3.248-1.167,7.106-1.824,10.547-1.521c2.418,0.214,4.882,1.295,7.244,2.003
			c-0.927,0.157-1.841,0.343-2.725,0.519c-2.438,0.486-4.532,1.999-6.927,2.459c-0.104,0.021-0.361,0.313-0.162,0.358
			c1.083,0.249,2.476-0.401,3.438-0.783c2.957-1.177,6.73-1.406,9.892-1.521c5.394-0.191,10.9,1.313,16.09,2.537
			C154.39,160.636,154.946,160.008,154.621,159.776z"/>
		<path style="opacity:0.4;fill:#5E2C00;" d="M94.111,140.891c-2.919-0.107-5.849,0.32-8.68,1c-0.827,0.2-8.897,2.246-8.84,2.979
			c-0.022-0.264-0.396,0.04-0.408,0.195c-0.003,0.054-0.008,0.107-0.011,0.16c-0.006,0.079,0.03,0.18,0.131,0.162
			c5.166-0.984,9.987-2.759,15.308-3.04c2.989-0.159,5.998,1.039,8.964,1.362c2.838,0.31,5.416,1.047,8.115,1.927
			C108.947,145.719,104.804,141.291,94.111,140.891z"/>
		<g>
			<path style="fill:#935B5A;" d="M66.938,153.885c-3.747-1.594-7.49-1.594-11.219-0.803c7.457,0.997,14.336,4.102,19.74,9.621
				C75.585,158.791,70.041,155.208,66.938,153.885z"/>
			<path style="fill:#935B5A;" d="M105.258,160c-3.563-0.209-11.433-0.858-14.65,2.105c4.689-1.14,9.597-0.549,14.35,0.058
				c2.729,0.351,5.569,0.805,8.161,1.752c2.063,0.754,3.786,1.965,5.682,2.985C118.698,161.942,109.047,160.217,105.258,160z"/>
			<path style="fill:#935B5A;" d="M79.383,153.645c4.103-0.434,8.322-0.016,12.419,0.09c4.518,0.117,9.09,0.047,13.5,1.063
				c-3.703-2.996-9.776-3.019-14.21-3.023C87.798,151.771,82.757,151.796,79.383,153.645z"/>
		</g>
	</g>
	<g>
		<g>
			<path style="fill:#CC9B6C;" d="M135.131,164.374c-3.582-3.694-10.008-0.793-12.784,2.499c-0.149,0.146-0.289,0.288-0.412,0.424
				c-1.116,1.234-0.995,2.792,0.064,3.959c1.31,1.44,4.311,1.28,5.978,0.878c2.238-0.541,4.575-1.554,6.108-3.345
				C134.921,167.811,136.332,165.614,135.131,164.374z"/>
			<path style="fill:#A5592D;" d="M125.567,172.612L125.567,172.612c-1.188,0-2.798-0.212-3.715-1.221
				c-1.184-1.305-1.209-2.963-0.065-4.23c0.125-0.139,0.267-0.282,0.419-0.432c1.788-2.121,5.344-4.282,8.656-4.282
				c1.777,0,3.263,0.602,4.412,1.787c1.164,1.203,0.168,3.274-1.038,4.684c-1.703,1.988-4.319,2.951-6.213,3.408
				C127.582,172.435,126.676,172.612,125.567,172.612z M130.862,162.848c-3.19,0-6.622,2.09-8.363,4.153
				c-0.16,0.158-0.296,0.297-0.417,0.43c-0.996,1.101-0.97,2.551,0.064,3.691c0.821,0.903,2.313,1.092,3.421,1.092
				c0.779,0,1.641-0.1,2.362-0.274c1.837-0.444,4.371-1.374,6.002-3.28c0.884-1.031,2.099-3.066,1.056-4.145
				C133.916,163.408,132.527,162.848,130.862,162.848z"/>
		</g>
		<g>
			<path style="fill:#CC9B6C;" d="M53.4,162.095c-2.551-0.383-6.285-0.371-8.084,1.829c-2.996,3.669,3.028,7.976,6.029,8.936
				c3.079,0.985,9.776-0.463,9.789-4.672C61.141,164.844,57.394,162.695,53.4,162.095z"/>
			<path style="fill:#A5592D;" d="M53.543,173.356c-0.002,0,0,0-0.002,0c-0.85,0-1.631-0.105-2.256-0.308
				c-2.344-0.75-6.02-3.229-6.822-5.934c-0.355-1.198-0.12-2.314,0.697-3.318c1.415-1.729,3.924-2.092,5.781-2.092
				c0.803,0,1.641,0.064,2.49,0.192c3.939,0.593,7.91,2.767,7.901,6.29C61.323,171.752,56.771,173.356,53.543,173.356z
				 M50.94,162.105c-1.77,0-4.155,0.337-5.47,1.945c-0.731,0.895-0.94,1.888-0.625,2.951c0.751,2.54,4.357,4.963,6.561,5.668
				c0.585,0.188,1.324,0.287,2.134,0.287c3.063,0,7.384-1.48,7.391-4.769c0.008-3.285-3.792-5.328-7.561-5.895
				C52.541,162.168,51.724,162.105,50.94,162.105z"/>
		</g>
		<g>
			<path style="fill:#CC9B6C;" d="M71.071,168.412c-2.051,0.564-4.863,1.815-5.483,4.075c-1.037,3.765,4.94,5.005,7.524,4.727
				c2.652-0.285,7.216-3.609,5.823-6.782C77.826,167.904,74.285,167.534,71.071,168.412z"/>
			<path style="fill:#A5592D;" d="M72.352,177.451L72.352,177.451c-2.245,0-5.231-0.749-6.485-2.393
				c-0.582-0.765-0.741-1.646-0.471-2.625c0.714-2.608,4.172-3.816,5.624-4.214c1.046-0.287,2.12-0.438,3.106-0.438
				c2.493,0,4.265,0.913,4.992,2.568c0.45,1.024,0.345,2.155-0.303,3.273c-1.175,2.029-3.886,3.597-5.681,3.789
				C72.896,177.439,72.633,177.451,72.352,177.451z M74.126,168.182c-0.952,0-1.988,0.146-3.001,0.423
				c-1.386,0.381-4.683,1.526-5.344,3.935c-0.235,0.851-0.099,1.617,0.404,2.275c1.25,1.641,4.373,2.235,6.167,2.236l0,0
				c0.268,0,0.516-0.013,0.739-0.036c1.698-0.182,4.265-1.668,5.378-3.593c0.591-1.018,0.684-1.996,0.284-2.912
				C77.862,168.484,75.471,168.182,74.126,168.182z"/>
		</g>
		<g>
			<path style="fill:#CC9B6C;" d="M112.747,157.285c-1.697,0.462-4.022,1.5-4.536,3.368c-0.857,3.114,4.085,4.141,6.222,3.91
				c2.191-0.235,5.967-2.983,4.817-5.612C118.331,156.865,115.403,156.559,112.747,157.285z"/>
			<path style="fill:#A5592D;" d="M113.802,164.794L113.802,164.794c-1.865,0-4.345-0.622-5.389-1.992
				c-0.488-0.642-0.621-1.382-0.395-2.202c0.599-2.177,3.47-3.178,4.676-3.508c0.868-0.238,1.761-0.363,2.578-0.363
				c2.075,0,3.552,0.762,4.162,2.143c0.375,0.859,0.287,1.807-0.256,2.742c-0.979,1.686-3.232,2.989-4.722,3.148
				C114.256,164.784,114.038,164.794,113.802,164.794z M115.272,157.129c-0.783,0-1.638,0.121-2.473,0.35
				c-1.14,0.311-3.851,1.248-4.395,3.228c-0.191,0.693-0.081,1.317,0.327,1.854c1.027,1.347,3.594,1.835,5.071,1.835l0,0
				c0.221,0,0.426-0.01,0.609-0.029c1.395-0.149,3.504-1.371,4.421-2.953c0.482-0.832,0.562-1.633,0.235-2.38
				C118.338,157.375,116.376,157.129,115.272,157.129z"/>
		</g>
		<path style="fill:#CC9B6C;" d="M125.426,165.738c-0.729,0.345-1.274,0.87-1.794,1.431c-0.449,0.384-0.873,0.816-1.207,1.278
			c-0.137,0.189-0.302,0.477-0.181,0.715c0.106,0.215,0.409,0.174,0.572,0.053c0.486-0.359,0.878-0.793,1.314-1.211
			c0.44-0.419,0.995-0.666,1.448-1.064c0.242-0.217,0.466-0.567,0.425-0.906C125.969,165.752,125.678,165.62,125.426,165.738z"/>
		<path style="fill:#CC9B6C;" d="M111.652,159.348c-0.624-0.695-1.665,1.047-1.903,1.416c-0.12,0.188-0.202,0.604,0.097,0.68
			c0.192,0.052,0.379-0.05,0.529-0.195c0.218-0.176,0.432-0.396,0.608-0.619c0.005,0,0.006,0.001,0.011,0.001
			c0.324-0.007,0.583-0.356,0.691-0.622c0.015-0.035,0.027-0.069,0.041-0.102C111.808,159.709,111.795,159.502,111.652,159.348z"/>
		<path style="fill:#CC9B6C;" d="M69.605,170.403c-0.39-0.16-0.883,0.037-1.277,0.314c-0.616,0.295-1.184,1.235-1.4,1.673
			c-0.246,0.497-0.163,1.196,0.548,1.148c0.573-0.038,1.011-0.332,1.431-0.7C69.423,172.379,70.776,170.881,69.605,170.403z"/>
		<path style="fill:#CC9B6C;" d="M47.514,164.289c-0.44-0.301-0.965-0.256-1.358,0.093c-0.491,0.432-0.533,0.987-0.364,1.585
			c0.008,0.026,0.022,0.05,0.029,0.077c0.102,0.778,0.647,1.554,1.237,2.084c0.003,0.006,0.006,0.009,0.009,0.013
			c0.166,0.204,0.455,0.535,0.759,0.499c0.761,0.238,1.324-0.565,1.307-1.349C49.109,166.19,48.411,164.904,47.514,164.289z"/>
	</g>
	<g>
		<g>
			<path style="fill:#CB8566;" d="M62.632,225.242c-0.793-2.331-2.196-3.589-4.583-4.189c-1.233-0.311-2.424-0.525-3.474-0.143
				c-0.719-0.096-1.443-0.007-2.071,0.379c-1.512,0.924-1.847,2.892-1.99,4.5c-0.317,3.581,1.547,8.535,5.889,8.354
				C61.272,233.941,64.249,229.992,62.632,225.242z"/>
			<path style="fill:#955128;" d="M56.173,234.349L56.173,234.349c-1.458,0-2.762-0.587-3.776-1.692
				c-1.491-1.63-2.308-4.332-2.083-6.885c0.158-1.767,0.53-3.701,2.085-4.652c0.604-0.371,1.336-0.513,2.153-0.413
				c0.387-0.135,0.806-0.2,1.279-0.2c0.763,0,1.573,0.179,2.266,0.355c2.461,0.616,3.917,1.948,4.723,4.316
				c0.778,2.285,0.552,4.498-0.635,6.232c-1.207,1.762-3.312,2.832-5.776,2.934C56.331,234.347,56.252,234.349,56.173,234.349z
				 M54.056,221.075c-0.546,0-1.032,0.129-1.447,0.384c-1.406,0.86-1.747,2.681-1.896,4.349c-0.177,2.005,0.366,4.816,1.98,6.578
				c0.948,1.038,2.12,1.563,3.479,1.563c0.082-0.011,0.147-0.001,0.223-0.005c2.336-0.097,4.327-1.104,5.463-2.761
				c1.114-1.627,1.322-3.714,0.586-5.876c-0.769-2.256-2.097-3.47-4.442-4.058c-0.669-0.17-1.45-0.344-2.168-0.344
				c-0.443,0-0.833,0.063-1.189,0.193l-0.045,0.018l-0.05-0.008C54.381,221.087,54.214,221.075,54.056,221.075z"/>
		</g>
		<g>
			<path style="fill:#CB8566;" d="M125.721,233.412c-1.517-0.52-4.085,0.861-4.798,2.529c-0.51,0.665-0.914,1.339-1.12,1.79
				c-0.376,0.821-0.276,1.837,0.705,2.153c1.414,0.454,2.762-0.285,3.922-1.051C125.848,237.902,128.485,234.355,125.721,233.412z"
				/>
			<path style="fill:#955128;" d="M121.397,240.224L121.397,240.224c-0.324,0-0.643-0.049-0.949-0.148
				c-0.431-0.139-0.747-0.412-0.913-0.791c-0.207-0.468-0.176-1.063,0.085-1.634c0.232-0.51,0.663-1.202,1.129-1.812
				c0.639-1.461,2.617-2.737,4.249-2.737c0.288,0,0.551,0.041,0.787,0.121c0.989,0.337,1.269,0.979,1.331,1.459
				c0.202,1.59-1.57,3.658-2.578,4.32C123.576,239.637,122.529,240.224,121.397,240.224z M124.999,233.5
				c-1.474,0-3.33,1.202-3.893,2.52l-0.025,0.042c-0.543,0.706-0.922,1.368-1.096,1.752c-0.212,0.462-0.243,0.951-0.086,1.309
				c0.121,0.274,0.347,0.466,0.67,0.571c0.267,0.085,0.545,0.13,0.828,0.13c1.026,0,2.01-0.556,2.922-1.157
				c0.943-0.622,2.573-2.588,2.401-3.938c-0.069-0.539-0.416-0.909-1.063-1.128C125.463,233.535,125.241,233.5,124.999,233.5z"/>
		</g>
		<g>
			<path style="fill:#CB8566;" d="M122.516,254.069c-2.164-1.781-7.213-1.104-9.406,1.188c-1.245,0.773-2.317,1.628-2.933,2.241
				c-1.12,1.111-1.584,2.833-0.172,3.958c2.035,1.611,4.694,1.23,7.063,0.692C119.961,261.493,126.461,257.313,122.516,254.069z"/>
			<path style="fill:#955128;" d="M113.686,262.811L113.686,262.811c-1.541,0-2.786-0.393-3.806-1.201
				c-0.583-0.464-0.912-1.067-0.949-1.744c-0.047-0.852,0.355-1.765,1.105-2.509c0.689-0.689,1.817-1.553,2.946-2.258
				c1.318-1.363,3.688-2.243,6.045-2.243c1.502,0,2.787,0.378,3.615,1.059c1.086,0.893,1.5,1.92,1.232,3.054
				c-0.622,2.625-4.793,4.929-6.762,5.375C116.09,262.575,114.884,262.811,113.686,262.811z M119.028,253.257
				c-2.23,0-4.55,0.858-5.774,2.138l-0.038,0.032c-1.33,0.827-2.369,1.686-2.897,2.213c-0.66,0.653-1.029,1.479-0.989,2.204
				c0.031,0.568,0.301,1.059,0.799,1.455c0.946,0.748,2.109,1.113,3.557,1.113l0,0c1.158,0,2.337-0.23,3.338-0.457
				c1.96-0.444,5.9-2.712,6.462-5.079c0.23-0.972-0.138-1.864-1.098-2.651C121.631,253.6,120.438,253.257,119.028,253.257z"/>
		</g>
		<g>
			<path style="fill:#CB8566;" d="M153.239,196.578c1.463-1.482,2.566-3.3,1.774-5.375c-0.737-1.932-3.309-2.918-5.139-3.261
				c-1.126-0.213-2.177-0.055-3.109,0.376c-1.59-0.003-3.109,0.613-3.501,2.021c-0.575,2.056-0.038,4.775,0.819,6.676
				c0.852,1.886,1.924,3.265,4.113,2.984C150.148,199.752,151.935,197.903,153.239,196.578z"/>
			<path style="fill:#955128;" d="M147.65,200.236L147.65,200.236c-2.051,0-3.047-1.586-3.749-3.138
				c-0.778-1.729-1.462-4.549-0.829-6.813c0.371-1.33,1.768-2.158,3.65-2.168c1.002-0.452,2.091-0.579,3.188-0.373
				c1.011,0.19,4.376,0.997,5.289,3.386c0.693,1.817,0.098,3.645-1.819,5.589l-0.081,0.08c-1.307,1.33-3.099,3.147-5.079,3.399
				C148.027,200.224,147.834,200.236,147.65,200.236z M146.766,188.518c-1.354,0-2.923,0.492-3.31,1.876
				c-0.564,2.024-0.001,4.742,0.81,6.539c0.683,1.508,1.564,2.904,3.384,2.904l0,0c0.167,0,0.342-0.012,0.521-0.035
				c1.842-0.233,3.577-1.995,4.845-3.281l0.08-0.081c1.796-1.821,2.362-3.511,1.731-5.166c-0.668-1.745-3.015-2.764-4.989-3.135
				c-1.032-0.195-2.05-0.071-2.989,0.36L146.766,188.518z"/>
		</g>
		<g>
			<path style="fill:#CB8566;" d="M141.93,208.833c0.787-0.794,1.377-1.772,0.955-2.889c-0.397-1.035-1.779-1.563-2.761-1.748
				c-0.604-0.114-1.168-0.03-1.67,0.201c-0.854-0.002-1.669,0.328-1.88,1.085c-0.307,1.104-0.02,2.563,0.441,3.586
				c0.459,1.013,1.032,1.754,2.208,1.604C140.27,210.538,141.23,209.546,141.93,208.833z"/>
			<path style="fill:#955128;" d="M138.931,210.89L138.931,210.89c-1.154,0-1.709-0.879-2.098-1.739
				c-0.425-0.942-0.797-2.48-0.452-3.722c0.209-0.751,0.986-1.221,2.029-1.23c0.552-0.244,1.148-0.311,1.749-0.199
				c0.555,0.105,2.402,0.549,2.912,1.874c0.386,1.017,0.059,2.03-0.999,3.101l-0.035,0.036c-0.713,0.727-1.689,1.72-2.789,1.859
				C139.138,210.884,139.032,210.89,138.931,210.89z M138.454,204.596c-0.692,0-1.495,0.249-1.688,0.941
				c-0.298,1.063,0.002,2.499,0.431,3.45c0.485,1.067,0.986,1.504,1.734,1.504l0,0c0.084,0,0.173-0.006,0.267-0.018
				c0.961-0.122,1.88-1.059,2.554-1.744l0.036-0.037c0.936-0.946,1.235-1.822,0.909-2.676c-0.344-0.9-1.574-1.429-2.612-1.624
				c-0.535-0.102-1.061-0.038-1.548,0.186l-0.04,0.02L138.454,204.596z"/>
		</g>
		<g>
			<path style="fill:#CB8566;" d="M115.733,224.003c1.469-1.487,2.578-3.314,1.784-5.398c-0.743-1.937-3.322-2.926-5.163-3.273
				c-1.129-0.213-2.185-0.056-3.123,0.377c-1.596-0.004-3.118,0.614-3.515,2.031c-0.577,2.063-0.036,4.794,0.822,6.703
				c0.859,1.891,1.936,3.276,4.132,2.998C112.629,227.192,114.424,225.334,115.733,224.003z"/>
			<path style="fill:#955128;" d="M110.126,227.677L110.126,227.677c-2.062,0-3.062-1.593-3.769-3.15
				c-0.781-1.736-1.468-4.569-0.833-6.841c0.374-1.335,1.776-2.169,3.663-2.177c1.006-0.453,2.099-0.582,3.205-0.374
				c1.014,0.19,4.393,1,5.312,3.397c0.696,1.826,0.097,3.661-1.829,5.612l-0.074,0.075c-1.315,1.337-3.115,3.167-5.106,3.42
				C110.5,227.663,110.309,227.677,110.126,227.677z M109.232,215.909c-1.359,0-2.933,0.494-3.322,1.884
				c-0.605,2.168,0.06,4.893,0.812,6.568c0.688,1.514,1.576,2.916,3.405,2.917l0,0c0.165,0,0.34-0.013,0.519-0.034
				c1.853-0.235,3.598-2.009,4.871-3.304l0.076-0.077c1.804-1.828,2.373-3.524,1.739-5.188c-0.672-1.751-3.03-2.775-5.013-3.148
				c-1.038-0.194-2.061-0.071-3.002,0.363L109.232,215.909z"/>
		</g>
		<g>
			<path style="fill:#CB8566;" d="M67.291,275.204c-1.052-0.359-2.83,0.598-3.325,1.751c-0.352,0.461-0.632,0.929-0.774,1.243
				c-0.261,0.567-0.192,1.271,0.49,1.488c0.979,0.316,1.912-0.195,2.715-0.727C67.377,278.314,69.204,275.856,67.291,275.204z"/>
			<path style="fill:#955128;" d="M64.298,279.984L64.298,279.984c-0.231,0-0.459-0.037-0.678-0.107
				c-0.316-0.102-0.548-0.302-0.671-0.582c-0.149-0.338-0.127-0.77,0.062-1.182c0.159-0.354,0.458-0.834,0.781-1.26
				c0.457-1.029,1.851-1.926,2.999-1.926c0.205,0,0.395,0.03,0.564,0.087c0.714,0.244,0.917,0.71,0.962,1.06
				c0.143,1.127-1.103,2.586-1.811,3.051C65.835,279.571,65.102,279.984,64.298,279.984z M66.791,275.327
				c-0.999,0-2.258,0.814-2.641,1.706l-0.026,0.044c-0.373,0.487-0.633,0.941-0.751,1.202c-0.139,0.304-0.161,0.624-0.058,0.856
				c0.076,0.173,0.22,0.296,0.427,0.361c0.18,0.059,0.367,0.088,0.556,0.088c0.696,0,1.367-0.382,1.987-0.793
				c0.643-0.424,1.752-1.757,1.636-2.669c-0.044-0.347-0.272-0.586-0.695-0.728C67.098,275.349,66.952,275.327,66.791,275.327z"/>
		</g>
		<g>
			<path style="fill:#CB8566;" d="M48.493,284.565c-1.5-1.233-4.996-0.763-6.516,0.82c-0.861,0.538-1.605,1.13-2.032,1.554
				c-0.776,0.771-1.098,1.965-0.116,2.74c1.407,1.118,3.249,0.853,4.89,0.481C46.722,289.705,51.225,286.81,48.493,284.565z"/>
			<path style="fill:#955128;" d="M42.375,290.681L42.375,290.681c-1.081-0.001-1.954-0.276-2.671-0.846
				c-0.419-0.332-0.655-0.765-0.683-1.254c-0.033-0.605,0.252-1.257,0.784-1.784c0.479-0.478,1.262-1.078,2.045-1.568
				c0.927-0.951,2.581-1.565,4.227-1.565c1.055,0,1.957,0.267,2.542,0.748c0.961,0.789,1.006,1.617,0.874,2.175
				c-0.437,1.843-3.354,3.456-4.73,3.769C44.05,290.516,43.208,290.681,42.375,290.681z M46.078,284.063
				c-1.528,0-3.117,0.587-3.956,1.461l-0.038,0.031c-0.917,0.572-1.633,1.162-1.997,1.525c-0.444,0.44-0.693,0.994-0.666,1.478
				c0.021,0.377,0.2,0.699,0.532,0.964c0.643,0.512,1.434,0.759,2.422,0.759l0,0c0.795,0,1.608-0.159,2.301-0.316
				c1.343-0.305,4.046-1.854,4.428-3.472c0.155-0.648-0.094-1.244-0.738-1.774C47.852,284.295,47.04,284.063,46.078,284.063z"/>
		</g>
		<g>
			<path style="fill:#CB8566;" d="M43.794,257.947c1.02-1.029,1.784-2.296,1.236-3.74c-0.515-1.341-2.302-2.027-3.577-2.265
				c-0.78-0.149-1.513-0.039-2.162,0.261c-1.106-0.003-2.162,0.426-2.436,1.406c-0.398,1.428-0.026,3.319,0.571,4.643
				c0.593,1.308,1.339,2.268,2.863,2.078C41.643,260.154,42.89,258.869,43.794,257.947z"/>
			<path style="fill:#955128;" d="M39.914,260.554c-1.465,0-2.171-1.123-2.668-2.222c-0.546-1.209-1.023-3.184-0.581-4.776
				c0.266-0.95,1.253-1.543,2.583-1.555c0.708-0.315,1.474-0.402,2.244-0.255c0.709,0.132,3.076,0.698,3.727,2.39
				c0.491,1.293,0.071,2.584-1.282,3.951l-0.03,0.032c-0.922,0.94-2.185,2.228-3.591,2.409
				C40.174,260.546,40.042,260.554,39.914,260.554z M39.291,252.401c-0.917,0-1.981,0.331-2.241,1.262
				c-0.389,1.393,0.001,3.267,0.56,4.507c0.709,1.566,1.441,2.113,2.654,1.962c1.269-0.163,2.474-1.393,3.355-2.292l0.031-0.031
				c1.234-1.245,1.623-2.399,1.193-3.529c-0.457-1.19-2.07-1.887-3.426-2.142c-0.704-0.134-1.4-0.05-2.043,0.245L39.291,252.401z"/>
		</g>
		<g>
			<path style="fill:#CB8566;" d="M103.491,293.406c1.082-1.095,1.893-2.436,1.312-3.966c-0.546-1.423-2.441-2.15-3.794-2.403
				c-0.826-0.157-1.603-0.042-2.292,0.275c-1.173-0.003-2.292,0.451-2.581,1.491c-0.422,1.517-0.028,3.52,0.604,4.925
				c0.631,1.391,1.42,2.407,3.034,2.202C101.212,295.746,102.531,294.383,103.491,293.406z"/>
			<path style="fill:#955128;" d="M99.375,296.157L99.375,296.157c-1.544,0-2.29-1.186-2.817-2.347
				c-0.577-1.281-1.085-3.375-0.615-5.059c0.28-1.003,1.326-1.629,2.73-1.637c0.748-0.335,1.561-0.429,2.374-0.273
				c0.751,0.139,3.255,0.736,3.943,2.528c0.517,1.362,0.073,2.728-1.356,4.177l-0.052,0.053c-0.971,0.987-2.302,2.34-3.781,2.529
				C99.654,296.147,99.511,296.157,99.375,296.157z M98.716,287.513c-0.981,0-2.111,0.354-2.388,1.345
				c-0.412,1.482,0.002,3.472,0.595,4.789c0.68,1.498,1.39,2.109,2.452,2.109l0,0c0.119,0,0.244-0.008,0.374-0.023
				c1.343-0.172,2.617-1.467,3.548-2.414l0.052-0.053c1.309-1.326,1.724-2.554,1.268-3.754c-0.487-1.27-2.202-2.01-3.644-2.278
				c-0.749-0.144-1.488-0.053-2.172,0.262L98.716,287.513z"/>
		</g>
		<g>
			<path style="fill:#CB8566;" d="M90.363,256.066c0.775-0.783,1.358-1.748,0.94-2.845c-0.391-1.02-1.748-1.542-2.72-1.724
				c-0.592-0.112-1.149-0.029-1.643,0.197c-0.842-0.001-1.644,0.323-1.852,1.069c-0.302,1.088-0.02,2.526,0.432,3.531
				c0.452,0.997,1.02,1.726,2.178,1.579C88.727,257.744,89.673,256.767,90.363,256.066z"/>
			<path style="fill:#955128;" d="M87.411,258.094L87.411,258.094c-1.142,0-1.688-0.867-2.072-1.716
				c-0.417-0.928-0.784-2.443-0.443-3.667c0.207-0.739,0.971-1.203,1.999-1.213c0.544-0.242,1.135-0.309,1.724-0.197
				c0.547,0.103,2.369,0.538,2.871,1.849c0.381,1.002,0.059,2.002-0.985,3.058l-0.041,0.042c-0.702,0.712-1.663,1.688-2.74,1.824
				C87.614,258.087,87.511,258.094,87.411,258.094z M86.939,251.895c-0.332,0-1.421,0.066-1.66,0.923
				c-0.292,1.049,0.003,2.46,0.423,3.395c0.476,1.051,0.971,1.48,1.708,1.48l0,0c0.084,0,0.171-0.006,0.262-0.018
				c0.94-0.119,1.845-1.038,2.506-1.708l0.042-0.042c0.922-0.935,1.215-1.795,0.896-2.634c-0.341-0.888-1.552-1.408-2.571-1.6
				c-0.526-0.1-1.045-0.037-1.523,0.184L86.939,251.895z"/>
		</g>
		<g>
			<path style="fill:#CB8566;" d="M29.128,177.689c0.774-0.785,1.355-1.748,0.94-2.847c-0.392-1.021-1.75-1.542-2.721-1.723
				c-0.596-0.111-1.15-0.028-1.644,0.196c-0.842,0-1.645,0.325-1.853,1.07c-0.301,1.088-0.019,2.524,0.435,3.533
				c0.451,0.994,1.018,1.726,2.175,1.579C27.492,179.366,28.438,178.391,29.128,177.689z"/>
			<path style="fill:#955128;" d="M26.172,179.717c-1.138,0-1.686-0.866-2.071-1.714c-0.417-0.928-0.783-2.446-0.443-3.669
				c0.206-0.741,0.971-1.205,2.002-1.216c0.542-0.239,1.131-0.305,1.725-0.195c0.546,0.103,2.365,0.538,2.87,1.849
				c0.38,1.003,0.057,2.003-0.984,3.058l-0.037,0.038c-0.702,0.713-1.665,1.69-2.749,1.829
				C26.376,179.71,26.272,179.717,26.172,179.717z M25.703,173.518c-0.332,0-1.421,0.067-1.661,0.924
				c-0.292,1.049,0.002,2.461,0.424,3.395c0.532,1.171,1.071,1.577,1.968,1.465c0.945-0.122,1.852-1.043,2.514-1.715l0.037-0.038
				c0.92-0.933,1.213-1.795,0.896-2.634c-0.342-0.889-1.552-1.408-2.571-1.6c-0.527-0.099-1.045-0.036-1.525,0.184L25.703,173.518z"
				/>
		</g>
		<g>
			<path style="fill:#CB8566;" d="M140.998,285.346c0.776-0.785,1.357-1.749,0.94-2.847c-0.391-1.021-1.751-1.542-2.721-1.722
				c-0.593-0.113-1.148-0.03-1.645,0.195c-0.84,0-1.642,0.324-1.851,1.07c-0.303,1.089-0.019,2.525,0.433,3.532
				c0.453,0.994,1.021,1.727,2.178,1.579C139.36,287.023,140.308,286.046,140.998,285.346z"/>
			<path style="fill:#955128;" d="M138.044,287.373L138.044,287.373c-1.138,0-1.687-0.867-2.072-1.715
				c-0.417-0.929-0.784-2.447-0.443-3.668c0.207-0.742,0.971-1.205,2-1.217c0.545-0.238,1.135-0.307,1.725-0.193
				c0.545,0.102,2.369,0.535,2.871,1.848c0.381,1.002,0.058,2.003-0.985,3.059l-0.035,0.036c-0.703,0.714-1.667,1.692-2.748,1.83
				C138.248,287.365,138.144,287.373,138.044,287.373z M137.571,281.172c-0.33,0-1.418,0.068-1.658,0.925
				c-0.292,1.048,0.002,2.46,0.423,3.397c0.479,1.05,0.974,1.479,1.708,1.479l0,0c0.083,0,0.17-0.006,0.261-0.018
				c0.945-0.12,1.852-1.041,2.513-1.714l0.037-0.036c0.922-0.934,1.215-1.795,0.896-2.636c-0.34-0.888-1.551-1.407-2.572-1.598
				c-0.526-0.101-1.044-0.038-1.523,0.182L137.571,281.172z"/>
		</g>
		<g>
			<path style="fill:#CB8566;" d="M111.29,195.337c0.774-0.783,1.358-1.747,0.941-2.846c-0.392-1.02-1.75-1.541-2.722-1.723
				c-0.593-0.112-1.149-0.029-1.644,0.197c-0.841-0.002-1.643,0.323-1.853,1.07c-0.301,1.088-0.018,2.524,0.434,3.531
				c0.454,0.995,1.019,1.727,2.178,1.578C109.653,197.016,110.601,196.038,111.29,195.337z"/>
			<path style="fill:#955128;" d="M108.337,197.365L108.337,197.365c-1.138,0-1.686-0.866-2.072-1.716
				c-0.417-0.929-0.785-2.445-0.445-3.667c0.208-0.741,0.973-1.205,2.001-1.216c0.544-0.24,1.133-0.307,1.726-0.194
				c0.545,0.102,2.367,0.535,2.871,1.848c0.38,1.002,0.058,2.002-0.986,3.059l-0.036,0.036c-0.702,0.715-1.665,1.692-2.746,1.83
				C108.539,197.359,108.437,197.365,108.337,197.365z M107.865,191.164c-0.333,0-1.419,0.068-1.66,0.926
				c-0.29,1.047,0.003,2.46,0.424,3.396c0.479,1.051,0.973,1.48,1.708,1.48l0,0c0.083,0,0.17-0.005,0.261-0.018
				c0.944-0.12,1.85-1.04,2.513-1.712l0.036-0.038c0.922-0.934,1.214-1.796,0.895-2.636c-0.34-0.889-1.55-1.407-2.57-1.598
				c-0.527-0.1-1.044-0.037-1.524,0.182L107.865,191.164z"/>
		</g>
		<g>
			<path style="fill:#CB8566;" d="M33.798,222.561c0.643-0.651,1.126-1.449,0.78-2.358c-0.326-0.847-1.45-1.278-2.254-1.429
				c-0.494-0.094-0.953-0.023-1.363,0.165c-0.698-0.003-1.363,0.268-1.537,0.886c-0.25,0.901-0.015,2.093,0.36,2.928
				c0.375,0.824,0.846,1.43,1.804,1.309C32.443,223.954,33.227,223.143,33.798,222.561z"/>
			<path style="fill:#955128;" d="M31.354,224.277L31.354,224.277c-0.964,0-1.426-0.729-1.752-1.442
				c-0.348-0.775-0.653-2.042-0.37-3.065c0.176-0.627,0.82-1.019,1.685-1.031c0.456-0.199,0.948-0.254,1.444-0.16
				c0.456,0.084,1.98,0.448,2.403,1.553c0.322,0.844,0.052,1.685-0.824,2.569l-0.032,0.034c-0.586,0.595-1.387,1.409-2.294,1.524
				C31.524,224.273,31.437,224.277,31.354,224.277z M30.961,219.139c-0.271,0-1.152,0.054-1.344,0.74
				c-0.238,0.858,0.003,2.021,0.35,2.791c0.39,0.857,0.794,1.207,1.387,1.207l0,0c0.067,0,0.137-0.004,0.209-0.013
				c0.77-0.098,1.515-0.855,2.061-1.41l0.032-0.032c0.765-0.774,0.998-1.456,0.735-2.148c-0.277-0.724-1.268-1.147-2.104-1.302
				c-0.431-0.081-0.851-0.03-1.243,0.148L30.961,219.139z"/>
		</g>
		<g>
			<path style="fill:#CB8566;" d="M138.237,250.36c0.643-0.65,1.125-1.45,0.78-2.359c-0.324-0.846-1.451-1.278-2.254-1.429
				c-0.494-0.095-0.953-0.023-1.364,0.165c-0.697-0.003-1.363,0.267-1.536,0.886c-0.249,0.902-0.015,2.093,0.359,2.929
				c0.377,0.823,0.845,1.429,1.806,1.308C136.882,251.752,137.665,250.941,138.237,250.36z"/>
			<path style="fill:#955128;" d="M135.79,252.073c-0.961,0-1.424-0.725-1.749-1.439c-0.347-0.775-0.652-2.043-0.37-3.065
				c0.175-0.627,0.821-1.021,1.686-1.031c0.457-0.2,0.95-0.254,1.444-0.161c0.456,0.085,1.98,0.45,2.404,1.554
				c0.321,0.843,0.051,1.685-0.825,2.57l-0.029,0.031c-0.586,0.596-1.389,1.412-2.296,1.525
				C135.961,252.069,135.873,252.073,135.79,252.073z M135.398,246.936c-0.271,0-1.149,0.054-1.343,0.741
				c-0.237,0.859,0.005,2.021,0.35,2.793c0.362,0.793,0.762,1.296,1.598,1.191c0.77-0.099,1.515-0.855,2.059-1.41l0.032-0.031
				c0.753-0.764,0.995-1.467,0.735-2.148c-0.276-0.722-1.268-1.146-2.104-1.304c-0.43-0.082-0.85-0.029-1.243,0.149L135.398,246.936
				L135.398,246.936z"/>
		</g>
		<g>
			<path style="fill:#CB8566;" d="M76.534,216.442c0.803,1.261,1.897,2.322,3.473,2.104c1.467-0.207,2.571-1.847,3.104-3.071
				c0.327-0.752,0.385-1.513,0.238-2.231c0.254-1.114,0.066-2.271-0.854-2.774c-1.346-0.729-3.332-0.791-4.798-0.496
				c-1.455,0.295-2.592,0.823-2.747,2.397C74.811,213.773,75.817,215.318,76.534,216.442z"/>
			<path style="fill:#955128;" d="M79.601,218.773L79.601,218.773c-1.225,0-2.282-0.727-3.237-2.225l-0.04-0.063
				c-0.724-1.136-1.716-2.69-1.574-4.135c0.178-1.785,1.57-2.303,2.908-2.573c0.551-0.11,1.16-0.17,1.761-0.17
				c1.229,0,2.356,0.244,3.171,0.685c0.891,0.487,1.257,1.615,0.963,2.952c0.153,0.789,0.066,1.566-0.26,2.31
				c-0.609,1.405-1.786,2.982-3.256,3.19C79.89,218.765,79.743,218.773,79.601,218.773z M79.418,210.008
				c-0.574,0-1.157,0.056-1.683,0.161c-1.449,0.293-2.444,0.783-2.588,2.221c-0.128,1.307,0.82,2.794,1.512,3.88l0.042,0.066
				c0.873,1.373,1.822,2.039,2.897,2.039l0,0c0.124,0,0.252-0.008,0.381-0.025c1.305-0.186,2.378-1.647,2.946-2.955
				c0.297-0.681,0.374-1.391,0.225-2.111l-0.008-0.043l0.009-0.042c0.274-1.191-0.008-2.145-0.755-2.553
				C81.641,210.233,80.582,210.008,79.418,210.008z"/>
		</g>
		<g>
			<path style="fill:#CB8566;" d="M41.663,196.91c1.148,1.807,2.715,3.327,4.974,3.013c2.1-0.297,3.681-2.643,4.443-4.397
				c0.469-1.075,0.552-2.163,0.338-3.198c0.366-1.591,0.097-3.248-1.221-3.969c-1.928-1.044-4.77-1.132-6.871-0.708
				c-2.082,0.42-3.709,1.176-3.934,3.432C39.194,193.088,40.636,195.304,41.663,196.91z"/>
			<path style="fill:#955128;" d="M46.05,200.164L46.05,200.164c-1.72,0-3.21-1.028-4.556-3.145l-0.052-0.081
				c-1.034-1.619-2.449-3.834-2.249-5.876c0.249-2.501,2.208-3.226,4.093-3.607c0.784-0.158,1.651-0.242,2.507-0.242
				c1.745,0,3.343,0.346,4.498,0.972c1.243,0.678,1.751,2.266,1.332,4.146c0.222,1.118,0.1,2.219-0.361,3.276
				c-0.866,1.99-2.529,4.223-4.597,4.515C46.458,200.149,46.252,200.164,46.05,200.164z M45.793,187.612
				c-0.829,0-1.669,0.079-2.428,0.233c-1.829,0.369-3.551,1.02-3.774,3.256c-0.188,1.902,1.186,4.052,2.188,5.62l0.052,0.082
				c1.267,1.993,2.648,2.961,4.219,2.961l0,0c0.183,0,0.371-0.014,0.559-0.039c1.906-0.271,3.464-2.388,4.288-4.279
				c0.432-0.993,0.543-2.028,0.326-3.079l-0.009-0.041l0.01-0.044c0.401-1.743-0.018-3.145-1.122-3.748
				C49.004,187.939,47.473,187.612,45.793,187.612z"/>
		</g>
		<g>
			<path style="fill:#CB8566;" d="M147.739,229.872c0.583,0.917,1.375,1.688,2.522,1.529c1.063-0.153,1.864-1.34,2.25-2.229
				c0.237-0.546,0.278-1.098,0.171-1.621c0.186-0.806,0.051-1.647-0.619-2.011c-0.976-0.529-2.417-0.576-3.482-0.361
				c-1.054,0.213-1.879,0.596-1.994,1.741C146.487,227.935,147.22,229.06,147.739,229.872z"/>
			<path style="fill:#955128;" d="M149.964,231.622c-0.908,0-1.691-0.537-2.394-1.642l-0.03-0.045
				c-0.53-0.833-1.258-1.972-1.151-3.036c0.134-1.332,1.164-1.716,2.151-1.916c0.404-0.081,0.848-0.124,1.288-0.124
				c0.904,0,1.73,0.18,2.329,0.505c0.668,0.361,0.944,1.196,0.73,2.188c0.11,0.577,0.045,1.148-0.191,1.698
				c-0.218,0.501-1.035,2.151-2.407,2.35C150.178,231.613,150.07,231.622,149.964,231.622z M149.829,225.26
				c-0.413,0-0.831,0.039-1.208,0.115c-1.028,0.206-1.733,0.553-1.834,1.564c-0.092,0.928,0.592,1.998,1.091,2.78l0.029,0.047
				c0.697,1.092,1.43,1.56,2.326,1.438c0.926-0.133,1.69-1.177,2.096-2.11c0.21-0.487,0.263-0.992,0.158-1.502l-0.008-0.043
				l0.009-0.042c0.15-0.648,0.092-1.459-0.52-1.79C151.424,225.42,150.666,225.26,149.829,225.26z"/>
		</g>
	</g>
	<g style="opacity:0.4;">
		<g>
			<path style="fill:#76503C;" d="M143.044,231.032c-7.487,9.11-16.897,16.321-28.083,20.267
				c-11.732,4.138-24.55,5.181-36.812,3.084c-11.643-1.989-22.818-6.412-31.208-14.956c-7.928-8.071-13.21-18.275-17.157-28.784
				c-4.884-13.005-8.208-26.573-11.236-40.113c-1.499-6.694-2.865-13.416-4.122-20.158l17.191,135.926
				c0,9.903,26.795,17.933,59.849,17.933c33.046,0,59.832-8.029,59.832-17.933l13.126-103.728
				C160.702,200.042,154.378,217.236,143.044,231.032z"/>
		</g>
	</g>
	<g>
		<g>
			<path style="fill:#BF8261;" d="M106.997,181.372c-1.318-1.926-4.348-2.148-6.438-2.537c-2.88-0.535-5.52-0.637-8.456-0.637
				c-3.239,0-6.361,0.639-9.564,1.009c-2.905,0.337-5.652,1.067-8.193,2.531c-0.218,0.125-0.603,0.801-0.107,0.798
				c1.511-0.007,2.973,0.142,4.449,0.263c1.949,0.51,3.864,1.095,5.762,1.843c0.71,0.28,1.378,0.628,2.017,1.041
				c0.198,0.129,0.407,0.468,0.692,0.443c0.711-0.062,1.578-1.08,2.19-1.333c2.982-1.237,6.385-1.766,9.56-2.218
				c1.671-0.236,3.339-0.406,5.027-0.433c0.861-0.014,1.793,0.183,2.629-0.022C106.795,182.064,107.165,181.617,106.997,181.372z"/>
			<g>
				<g>
					<g>
						<path style="fill:#FDC796;" d="M91.558,45.456c-6.204-0.007-11.237,4.003-11.24,8.95l-0.153,127.167
							c2.46,0.184,4.881,0.806,7.118,1.836c4.948-1.547,10.168-2.493,15.343-2.363l0.15-126.612
							C102.783,49.484,97.76,45.465,91.558,45.456z"/>
						<path style="fill:#5E2C00;" d="M87.282,183.607c-0.029,0-0.057-0.005-0.084-0.018c-2.224-1.022-4.595-1.635-7.05-1.817
							c-0.104-0.008-0.186-0.095-0.186-0.199l0.155-127.167c0.002-5.045,5.128-9.151,11.424-9.151
							c3.06,0.005,5.924,0.958,8.079,2.683c2.166,1.733,3.357,4.041,3.353,6.496l-0.149,126.612c0,0.053-0.021,0.105-0.06,0.143
							c-0.039,0.037-0.092,0.059-0.145,0.057c-0.315-0.009-0.63-0.013-0.945-0.013c-4.484,0-9.305,0.797-14.333,2.367
							C87.322,183.605,87.301,183.607,87.282,183.607z M80.364,181.39c2.411,0.199,4.742,0.807,6.932,1.806
							c5.039-1.568,9.876-2.362,14.379-2.362c0.251,0,0.501,0.003,0.75,0.009l0.149-126.408c0.003-2.331-1.135-4.529-3.206-6.186
							c-2.081-1.668-4.857-2.589-7.813-2.592c-6.092,0-11.037,3.926-11.04,8.75L80.364,181.39z"/>
					</g>
					<g>
						<path style="fill:#FDC796;" d="M91.558,45.456c-6.204-0.007-11.237,4.003-11.24,8.95l-0.153,127.167
							c2.46,0.184,4.881,0.806,7.118,1.836c4.948-1.547,10.168-2.493,15.343-2.363l0.15-126.612
							C102.783,49.484,97.76,45.465,91.558,45.456z"/>
						<path style="fill:#9E5611;" d="M87.282,183.607c-0.029,0-0.057-0.005-0.084-0.018c-2.224-1.022-4.595-1.635-7.05-1.817
							c-0.104-0.008-0.186-0.095-0.186-0.199l0.155-127.167c0.002-5.045,5.128-9.151,11.424-9.151
							c3.06,0.005,5.924,0.958,8.079,2.683c2.166,1.733,3.357,4.041,3.353,6.496l-0.149,126.612c0,0.053-0.021,0.105-0.06,0.143
							c-0.039,0.037-0.092,0.059-0.145,0.057c-0.315-0.009-0.63-0.013-0.945-0.013c-4.484,0-9.305,0.797-14.333,2.367
							C87.322,183.605,87.301,183.607,87.282,183.607z M80.364,181.39c2.411,0.199,4.742,0.807,6.932,1.806
							c5.039-1.568,9.876-2.362,14.379-2.362c0.251,0,0.501,0.003,0.75,0.009l0.149-126.408c0.003-2.331-1.135-4.529-3.206-6.186
							c-2.081-1.668-4.857-2.589-7.813-2.592c-6.092,0-11.037,3.926-11.04,8.75L80.364,181.39z"/>
					</g>
					<path style="fill:#FDC796;" d="M99.678,110.557c-1.662,9.786-3.479,19.557-5.801,29.213
						c-1.327,5.516-2.555,11.451-5.536,16.371c-2.352,3.887-5.579,4.133-8.151,1.51l-0.026,23.923
						c2.46,0.184,4.881,0.806,7.118,1.836c4.948-1.547,10.168-2.493,15.343-2.363l0.106-88.919
						C101.738,98.275,100.718,104.42,99.678,110.557z"/>
					<g>
						<g>
							<path style="fill:#AE8561;" d="M91.558,45.456c-0.545,0.002-1.08,0.043-1.605,0.102c5.441,0.627,9.622,4.356,9.613,8.871
								l-0.153,126.669c1.071-0.06,2.142-0.081,3.211-0.053l0.15-126.612C102.783,49.484,97.76,45.465,91.558,45.456z"/>
							<path style="fill:#9E5611;" d="M99.413,181.299c-0.051,0-0.102-0.018-0.138-0.056c-0.04-0.037-0.063-0.09-0.063-0.145
								l0.154-126.671c0.008-4.322-4.05-8.051-9.436-8.67c-0.102-0.012-0.177-0.098-0.177-0.199s0.076-0.188,0.177-0.199
								c0.599-0.067,1.132-0.103,1.626-0.104c3.046,0.005,5.91,0.958,8.064,2.683c2.166,1.733,3.357,4.041,3.353,6.496
								l-0.149,126.612c0,0.053-0.021,0.105-0.06,0.143c-0.039,0.037-0.079,0.059-0.145,0.057c-1.041-0.028-2.094-0.01-3.197,0.054
								C99.42,181.299,99.416,181.299,99.413,181.299z M91.639,45.656c4.741,1.15,8.134,4.709,8.127,8.773l-0.154,126.458
								c0.969-0.05,1.896-0.065,2.813-0.046l0.149-126.408c0.003-2.331-1.135-4.529-3.206-6.186
								C97.306,46.596,94.563,45.676,91.639,45.656z"/>
						</g>
					</g>
					<g style="opacity:0.7;">
						<path style="fill:#FDC796;" d="M101.217,181.035c0.823-10.73,0.962-21.503,0.972-32.236c0.003-0.117-0.372-0.295-0.391-0.145
							c-0.847,6.926-0.595,13.938-0.893,20.886c-0.166,3.843-0.431,7.687-0.757,11.527
							C100.506,181.054,100.859,181.04,101.217,181.035z"/>
						<path style="fill:#FDC796;" d="M86.834,182.217c0.482-1.891,0.904-3.791,1.604-5.639c-0.037-1.444,0.796-1.779,2.51-1.006
							c0.124,0.905,0.262,1.811,0.414,2.714c0.205,1.297,0.328,2.601,0.427,3.909c0.295-0.067,0.591-0.125,0.888-0.188
							c-0.027-2.812,0.196-7.9-2.643-9.189c-0.101-0.046-0.299-0.106-0.41-0.047c-1.353,0.774-1.599,2.205-2.04,3.421
							c-0.793,2.145-1.347,4.349-1.903,6.549c0.31,0.11,0.61,0.243,0.914,0.369C86.676,182.811,86.759,182.515,86.834,182.217z"/>
						<path style="fill:#FDC796;" d="M85.133,170.766c-0.865,3.669-1.546,7.441-2.345,11.185c0.111,0.021,0.215,0.042,0.322,0.066
							c0.12-0.439,0.246-0.877,0.391-1.31c1.047-3.114,1.839-6.359,2.533-9.537c1.409-6.509,2.155-12.972,2.185-19.584
							c0.069-14.256-6.913-27.719-7.3-41.97c-0.005-0.192-0.63-0.5-0.666-0.242c-1.698,13.042,5.459,26.099,6.618,39.04
							C87.528,155.731,86.826,163.57,85.133,170.766z"/>
						<path style="fill:#FDC796;" d="M80.33,92.189c0.701,14.246,3.872,27.648,9.975,41.043c3.242,7.111,5.004,14.32,5.583,21.854
							c0.545,7.099,1.314,14.43-0.036,21.501c-0.031,0.173,0.435,0.416,0.48,0.22c3.016-12.878,1.741-26.905-2.879-39.418
							c-2.563-6.935-6.307-13.534-8.575-20.552c-2.582-8.005-3.156-16.295-4.002-24.495C80.855,92.157,80.321,91.926,80.33,92.189z"
							/>
						<path style="fill:#FDC796;" d="M81.48,51.441c-0.82,6.936,0.281,14.13,1.067,21.047c0.982,8.676,1.662,17.536,3.629,26.109
							c3.627,15.788,14.568,30.915,14.408,47.266c0,0.166,0.463,0.367,0.477,0.137c0.373-7.127-2.262-14.125-4.23-21.017
							c-2.245-7.874-5.935-15.382-8.625-23.149c-2.915-8.424-3.182-17.385-4.396-26.031c-1.121-8.003-1.834-16.062-1.632-24.108
							C82.184,51.482,81.511,51.172,81.48,51.441z"/>
						<path style="fill:#FDC796;" d="M83.775,48.283c-0.04-0.026-0.073-0.049-0.123-0.063l-0.001-0.001
							c-0.062-0.021-0.112-0.027-0.154-0.017c-0.021,0.002-0.03,0.018-0.039,0.03c-0.012,0.008-0.037,0.008-0.043,0.03
							c-1.845,11.755,3.687,24.124,5.65,35.679c2.107,12.395,6.435,24.363,11.61,36.152c0.055,0.127,0.437,0.247,0.361,0.041
							C92.624,96.69,87.34,72.659,83.937,48.453c-0.008-0.027-0.035-0.053-0.058-0.08c-0.01-0.012-0.012-0.021-0.026-0.033
							C83.828,48.32,83.805,48.303,83.775,48.283z"/>
						<path style="fill:#FDC796;" d="M91.418,46.973c0.477,4.75,0.006,9.551,0.526,14.322c0.682,6.234,1.311,12.469,2.461,18.668
							c2.242,12.098,5.731,24.03,8.283,36.09c0.023,0.12,0.396,0.274,0.367,0.102c-1.896-11.48-4.861-22.807-7.016-34.254
							c-1.165-6.185-1.619-12.406-2.364-18.625c-0.634-5.329-0.549-10.856-1.648-16.129C91.987,46.953,91.387,46.672,91.418,46.973z
							"/>
						<path style="fill:#FDC796;" d="M94.508,45.926c1.301,6.906,0.951,14.024,2.157,20.978c1.1,6.361,3.828,12.471,5.78,18.682
							c0.021,0.078,0.29,0.175,0.264,0.055c-1.517-6.688-3.897-13.185-5.099-19.928c-1.144-6.436-0.532-13.423-2.648-19.693
							C94.916,45.893,94.469,45.721,94.508,45.926z"/>
					</g>
				</g>
			</g>
		</g>
		<g>
			<path style="fill:#BF8261;" d="M71.179,140.957c-1.299-0.909-3.813-0.556-5.572-0.449c-2.426,0.148-4.606,0.509-7.017,0.977
				c-2.66,0.517-5.152,1.386-7.742,2.111c-2.347,0.658-4.521,1.521-6.443,2.777c-0.165,0.107-0.405,0.563,0.001,0.481
				c1.241-0.245,2.458-0.392,3.686-0.558c1.658-0.014,3.297,0.021,4.939,0.155c0.615,0.05,1.202,0.145,1.774,0.282
				c0.179,0.045,0.388,0.209,0.619,0.15c0.577-0.15,1.175-0.882,1.649-1.125c2.309-1.195,5.045-2.045,7.601-2.813
				c1.346-0.405,2.695-0.769,4.079-1.054c0.706-0.145,1.495-0.178,2.157-0.432C71.093,141.393,71.345,141.073,71.179,140.957z"/>
			<g>
				<g>
					<g>
						<path style="fill:#FDC796;" d="M36.966,8.398c-6.129,0.952-10.483,5.689-9.722,10.581l19.506,125.663
							c2.459-0.201,4.947,0.041,7.317,0.713c4.65-2.293,9.659-4.037,14.793-4.707L49.436,15.535
							C48.681,10.645,43.096,7.449,36.966,8.398z"/>
						<path style="fill:#5E2C00;" d="M54.068,145.555c-0.02,0-0.037-0.002-0.056-0.008c-2.34-0.662-4.812-0.904-7.246-0.705
							c-0.099,0.008-0.197-0.065-0.213-0.169L27.046,19.012c-0.377-2.428,0.45-4.89,2.329-6.935c1.868-2.032,4.552-3.407,7.56-3.875
							c0.728-0.113,1.462-0.171,2.185-0.171c5.423,0,9.844,3.143,10.513,7.473l19.425,125.113c0.009,0.053-0.005,0.107-0.038,0.15
							c-0.032,0.043-0.08,0.072-0.134,0.078c-4.716,0.618-9.672,2.194-14.731,4.688C54.128,145.547,54.097,145.555,54.068,145.555z
							 M48.433,144.374c1.903,0,3.79,0.258,5.614,0.767c5.002-2.457,9.908-4.025,14.584-4.664L49.239,15.565
							c-0.638-4.134-4.895-7.134-10.119-7.134c-0.703,0-1.417,0.055-2.123,0.164c-2.92,0.454-5.523,1.787-7.328,3.752
							c-1.795,1.953-2.586,4.297-2.227,6.601L46.92,144.43C47.421,144.393,47.929,144.374,48.433,144.374z"/>
					</g>
					<g>
						<path style="fill:#FDC796;" d="M36.966,8.398c-6.129,0.952-10.483,5.689-9.722,10.581l19.506,125.663
							c2.459-0.201,4.947,0.041,7.317,0.713c4.65-2.293,9.659-4.037,14.793-4.707L49.436,15.535
							C48.681,10.645,43.096,7.449,36.966,8.398z"/>
						<path style="fill:#9E5611;" d="M54.068,145.555c-0.02,0-0.037-0.002-0.056-0.008c-2.34-0.662-4.812-0.904-7.246-0.705
							c-0.099,0.008-0.197-0.065-0.213-0.169L27.046,19.012c-0.377-2.428,0.45-4.89,2.329-6.935c1.868-2.032,4.552-3.407,7.56-3.875
							c0.728-0.113,1.462-0.171,2.185-0.171c5.423,0,9.844,3.143,10.513,7.473l19.425,125.113c0.009,0.053-0.005,0.107-0.038,0.15
							c-0.032,0.043-0.08,0.072-0.134,0.078c-4.716,0.618-9.672,2.194-14.731,4.688C54.128,145.547,54.097,145.555,54.068,145.555z
							 M48.433,144.374c1.903,0,3.79,0.258,5.614,0.767c5.002-2.457,9.908-4.025,14.584-4.664L49.239,15.565
							c-0.638-4.134-4.895-7.134-10.119-7.134c-0.703,0-1.417,0.055-2.123,0.164c-2.92,0.454-5.523,1.787-7.328,3.752
							c-1.795,1.953-2.586,4.297-2.227,6.601L46.92,144.43C47.421,144.393,47.929,144.374,48.433,144.374z"/>
					</g>
					<path style="fill:#FDC796;" d="M55.053,71.461c-0.129,9.928-0.414,19.862-1.216,29.76c-0.458,5.653-0.753,11.709-2.938,17.031
						c-1.724,4.204-4.872,4.945-7.821,2.752l3.673,23.639c2.459-0.201,4.947,0.041,7.317,0.713c4.65-2.293,9.659-4.037,14.793-4.707
						L55.219,52.781C55.188,59.01,55.132,65.239,55.053,71.461z"/>
					<g>
						<g>
							<path style="fill:#AE8561;" d="M36.966,8.398c-0.54,0.088-1.061,0.21-1.569,0.35c5.473-0.219,10.179,2.817,10.869,7.278
								l19.43,125.171c1.048-0.227,2.104-0.412,3.165-0.549L49.436,15.535C48.681,10.645,43.096,7.449,36.966,8.398z"/>
							<path style="fill:#9E5611;" d="M65.696,141.396c-0.042,0-0.081-0.012-0.114-0.034c-0.044-0.032-0.075-0.079-0.084-0.134
								L46.068,16.057c-0.638-4.126-4.891-7.119-10.114-7.119c-0.182,0-0.367,0.003-0.549,0.01c-0.092,0.009-0.19-0.068-0.206-0.168
								c-0.015-0.101,0.046-0.197,0.144-0.224c0.584-0.159,1.104-0.276,1.592-0.354c0.728-0.113,1.462-0.171,2.185-0.171
								c5.423,0,9.844,3.143,10.513,7.473l19.425,125.113c0.009,0.053-0.005,0.107-0.038,0.15c-0.032,0.044-0.081,0.072-0.134,0.078
								c-1.017,0.132-2.077,0.315-3.15,0.547C65.724,141.395,65.71,141.396,65.696,141.396z M37.083,8.584
								c4.896,0.4,8.759,3.395,9.381,7.412L65.86,140.958c0.942-0.198,1.872-0.36,2.771-0.481L49.239,15.565
								c-0.638-4.134-4.895-7.134-10.119-7.134C38.445,8.432,37.76,8.482,37.083,8.584z"/>
						</g>
					</g>
					<g style="opacity:0.7;">
						<path style="fill:#FDC796;" d="M67.467,140.855c-0.845-10.728-2.372-21.393-4.022-31.998
							c-0.014-0.117-0.413-0.235-0.407-0.084c0.233,6.974,1.568,13.861,2.346,20.774c0.429,3.822,0.763,7.661,1.034,11.507
							C66.768,140.982,67.117,140.916,67.467,140.855z"/>
						<path style="fill:#FDC796;" d="M53.441,144.247c0.186-1.944,0.307-3.887,0.711-5.819c-0.259-1.421,0.513-1.881,2.326-1.38
							c0.263,0.872,0.538,1.745,0.829,2.616c0.403,1.248,0.727,2.519,1.026,3.793c0.281-0.109,0.564-0.214,0.846-0.322
							c-0.459-2.771-1.025-7.835-4.029-8.67c-0.108-0.029-0.314-0.059-0.413,0.018c-1.215,0.975-1.237,2.426-1.487,3.694
							c-0.451,2.24-0.658,4.505-0.867,6.765c0.324,0.062,0.642,0.145,0.96,0.225C53.378,144.858,53.412,144.554,53.441,144.247z"/>
						<path style="fill:#FDC796;" d="M49.991,133.195c-0.288,3.76-0.378,7.592-0.587,11.412c0.111,0.004,0.219,0.012,0.327,0.016
							c0.052-0.45,0.108-0.903,0.187-1.355c0.551-3.235,0.832-6.566,1.026-9.811c0.387-6.65,0.124-13.148-0.867-19.688
							c-2.137-14.095-11.116-26.316-13.703-40.336c-0.036-0.189-0.699-0.396-0.695-0.135c0.338,13.146,9.426,24.939,12.574,37.545
							C50.03,117.973,50.551,125.826,49.991,133.195z"/>
						<path style="fill:#FDC796;" d="M33.098,56.307c2.896,13.967,8.1,26.717,16.2,39.006c4.304,6.527,7.159,13.376,8.894,20.73
							c1.636,6.928,3.53,14.051,3.288,21.246c-0.004,0.177,0.494,0.345,0.509,0.145c0.989-13.19-2.439-26.852-8.939-38.498
							c-3.604-6.456-8.322-12.397-11.647-18.98c-3.788-7.51-5.636-15.612-7.742-23.582C33.613,56.193,33.048,56.048,33.098,56.307z"
							/>
						<path style="fill:#FDC796;" d="M27.935,15.869c0.262,6.981,2.461,13.918,4.307,20.631c2.311,8.418,4.353,17.066,7.623,25.233
							c6.023,15.04,19.173,28.292,21.541,44.472c0.027,0.164,0.515,0.291,0.492,0.061c-0.733-7.1-4.418-13.606-7.428-20.111
							c-3.436-7.431-8.241-14.277-12.1-21.535c-4.181-7.875-5.83-16.684-8.366-25.04c-2.344-7.733-4.295-15.586-5.341-23.566
							C28.638,15.801,27.924,15.599,27.935,15.869z"/>
						<path style="fill:#FDC796;" d="M29.716,12.397c-0.046-0.02-0.082-0.036-0.132-0.045c-0.003,0-0.003,0-0.003,0.002
							c-0.064-0.014-0.115-0.013-0.154,0.006c-0.021,0.004-0.025,0.021-0.034,0.035c-0.009,0.012-0.036,0.016-0.038,0.036
							C29.35,24.33,36.726,35.696,40.453,46.808c3.997,11.92,10.124,23.077,17.058,33.925c0.072,0.115,0.469,0.174,0.365-0.018
							C45.94,58.853,37.004,35.926,29.899,12.539c-0.012-0.025-0.041-0.047-0.068-0.071c-0.01-0.007-0.015-0.019-0.03-0.026
							C29.772,12.422,29.747,12.41,29.716,12.397z"/>
						<path style="fill:#FDC796;" d="M37.064,9.92c1.203,4.617,1.481,9.433,2.733,14.067c1.638,6.055,3.223,12.118,5.317,18.061
							c4.086,11.607,9.378,22.858,13.762,34.378c0.043,0.116,0.432,0.208,0.377,0.044c-3.648-11.05-8.328-21.779-12.226-32.757
							c-2.107-5.933-3.518-12.009-5.214-18.036c-1.451-5.168-2.223-10.643-4.123-15.682C37.623,9.814,36.986,9.628,37.064,9.92z"/>
						<path style="fill:#FDC796;" d="M39.955,8.408c2.353,6.621,3.106,13.708,5.372,20.393c2.071,6.113,5.711,11.729,8.598,17.564
							c0.034,0.074,0.315,0.126,0.27,0.013c-2.532-6.373-5.89-12.424-8.118-18.899c-2.125-6.181-2.601-13.181-5.66-19.05
							C40.353,8.312,39.885,8.209,39.955,8.408z"/>
					</g>
				</g>
			</g>
		</g>
		<g>
			<path style="fill:#BF8261;" d="M135.098,144.867c-1.129-1.331-3.9-1.656-5.802-2.031c-2.619-0.52-5.039-0.743-7.732-0.916
				c-2.974-0.191-5.866,0.036-8.822,0.088c-2.679,0.046-5.231,0.358-7.624,1.158c-0.208,0.07-0.588,0.485-0.134,0.514
				c1.388,0.084,2.722,0.268,4.074,0.434c1.767,0.447,3.5,0.941,5.21,1.539c0.64,0.225,1.239,0.49,1.808,0.797
				c0.177,0.096,0.353,0.33,0.616,0.33c0.656,0.001,1.495-0.608,2.067-0.736c2.788-0.627,5.935-0.77,8.868-0.874
				c1.544-0.055,3.081-0.065,4.632,0.018c0.791,0.041,1.64,0.225,2.415,0.142C134.884,145.305,135.242,145.035,135.098,144.867z"/>
			<g>
				<g>
					<g>
						<path style="fill:#FDC796;" d="M132.91,8.402c-6.177-0.571-11.556,2.961-12.01,7.889l-11.755,126.623
							c2.435,0.406,4.788,1.246,6.922,2.478c5.069-1.089,10.353-1.557,15.494-0.956l11.701-126.07
							C143.722,13.44,139.085,8.978,132.91,8.402z"/>
						<path style="fill:#5E2C00;" d="M116.066,145.592c-0.036,0-0.069-0.011-0.102-0.027c-2.12-1.223-4.426-2.048-6.853-2.454
							c-0.104-0.017-0.176-0.11-0.166-0.216L120.7,16.273c0.428-4.635,5.115-8.131,10.9-8.131c0.44,0,0.887,0.02,1.328,0.061
							c3.032,0.282,5.797,1.491,7.785,3.405c2.001,1.924,2.976,4.331,2.748,6.774l-11.701,126.071
							c-0.005,0.053-0.032,0.103-0.073,0.137c-0.042,0.035-0.095,0.051-0.149,0.043c-4.712-0.551-9.931-0.229-15.429,0.951
							C116.094,145.59,116.079,145.592,116.066,145.592z M109.36,142.748c2.382,0.419,4.647,1.236,6.739,2.432
							c5.433-1.161,10.596-1.486,15.281-0.965l11.681-125.868c0.218-2.32-0.714-4.612-2.626-6.45
							c-1.923-1.852-4.603-3.022-7.544-3.293c-0.43-0.041-0.864-0.063-1.292-0.063c-5.578,0-10.093,3.34-10.501,7.769
							L109.36,142.748z"/>
					</g>
					<g>
						<path style="fill:#FDC796;" d="M132.91,8.402c-6.177-0.571-11.556,2.961-12.01,7.889l-11.755,126.623
							c2.435,0.406,4.788,1.246,6.922,2.478c5.069-1.089,10.353-1.557,15.494-0.956l11.701-126.07
							C143.722,13.44,139.085,8.978,132.91,8.402z"/>
						<path style="fill:#9E5611;" d="M116.066,145.592c-0.036,0-0.069-0.011-0.102-0.027c-2.12-1.223-4.426-2.048-6.853-2.454
							c-0.104-0.017-0.176-0.11-0.166-0.216L120.7,16.273c0.428-4.635,5.115-8.131,10.9-8.131c0.44,0,0.887,0.02,1.328,0.061
							c3.032,0.282,5.797,1.491,7.785,3.405c2.001,1.924,2.976,4.331,2.748,6.774l-11.701,126.071
							c-0.005,0.053-0.032,0.103-0.073,0.137c-0.042,0.035-0.095,0.051-0.149,0.043c-4.712-0.551-9.931-0.229-15.429,0.951
							C116.094,145.59,116.079,145.592,116.066,145.592z M109.36,142.748c2.382,0.419,4.647,1.236,6.739,2.432
							c5.433-1.161,10.596-1.486,15.281-0.965l11.681-125.868c0.218-2.32-0.714-4.612-2.626-6.45
							c-1.923-1.852-4.603-3.022-7.544-3.293c-0.43-0.041-0.864-0.063-1.292-0.063c-5.578,0-10.093,3.34-10.501,7.769
							L109.36,142.748z"/>
					</g>
					<path style="fill:#FDC796;" d="M135.057,73.972c-2.547,9.596-5.25,19.161-8.442,28.563c-1.825,5.371-3.588,11.17-7.006,15.799
						c-2.698,3.656-5.933,3.605-8.256,0.76l-2.209,23.82c2.435,0.406,4.788,1.246,6.922,2.478
						c5.069-1.089,10.353-1.557,15.494-0.956l8.218-88.537C138.229,61.931,136.652,67.959,135.057,73.972z"/>
					<g>
						<g>
							<path style="fill:#AE8561;" d="M132.91,8.402c-0.545-0.049-1.079-0.056-1.608-0.045c5.362,1.123,9.184,5.217,8.765,9.713
								l-11.71,126.127c1.072,0.037,2.141,0.113,3.203,0.238l11.701-126.07C143.722,13.44,139.085,8.978,132.91,8.402z"/>
							<path style="fill:#9E5611;" d="M131.56,144.637c-0.007,0-0.015-0.001-0.023-0.002c-1.008-0.119-2.082-0.199-3.188-0.238
								c-0.054-0.001-0.106-0.026-0.142-0.066c-0.036-0.043-0.054-0.096-0.049-0.152l11.71-126.126
								c0.402-4.305-3.298-8.387-8.606-9.497c-0.099-0.021-0.167-0.113-0.158-0.213c0.009-0.102,0.093-0.181,0.195-0.184
								c0.569-0.012,1.125,0.001,1.629,0.046c3.033,0.282,5.798,1.491,7.786,3.405c2.001,1.924,2.976,4.331,2.748,6.774
								l-11.701,126.071c-0.005,0.053-0.032,0.104-0.073,0.137C131.651,144.621,131.606,144.637,131.56,144.637z M128.574,144.005
								c0.969,0.038,1.91,0.109,2.806,0.21l11.681-125.868c0.218-2.32-0.714-4.612-2.626-6.45c-1.906-1.834-4.554-2.998-7.465-3.287
								c4.616,1.578,7.671,5.432,7.294,9.479L128.574,144.005z"/>
						</g>
					</g>
					<g style="opacity:0.7;">
						<path style="fill:#FDC796;" d="M130.158,144.299c1.799-10.611,2.921-21.326,3.909-32.014c0.014-0.117-0.342-0.327-0.374-0.179
							c-1.475,6.817-1.864,13.824-2.794,20.718c-0.518,3.81-1.131,7.614-1.808,11.41
							C129.448,144.252,129.804,144.271,130.158,144.299z"/>
						<path style="fill:#FDC796;" d="M115.729,144.164c0.653-1.84,1.247-3.695,2.109-5.471c0.095-1.441,0.956-1.699,2.592-0.771
							c0.041,0.912,0.096,1.826,0.165,2.74c0.086,1.311,0.088,2.619,0.069,3.931c0.3-0.039,0.6-0.071,0.9-0.107
							c0.231-2.801,0.917-7.85-1.792-9.392c-0.096-0.054-0.289-0.133-0.404-0.082c-1.416,0.645-1.791,2.048-2.344,3.219
							c-0.984,2.062-1.737,4.208-2.492,6.349c0.299,0.138,0.587,0.297,0.877,0.45C115.518,144.741,115.626,144.453,115.729,144.164z
							"/>
						<path style="fill:#FDC796;" d="M115.079,132.604c-1.196,3.576-2.217,7.27-3.354,10.924c0.107,0.03,0.21,0.063,0.314,0.096
							c0.159-0.426,0.324-0.851,0.509-1.269c1.327-3.003,2.412-6.165,3.391-9.266c1.998-6.354,3.33-12.722,3.962-19.302
							c1.371-14.19-4.354-28.234-3.441-42.463c0.013-0.191-0.581-0.555-0.639-0.3c-2.881,12.831,3.053,26.485,3.028,39.479
							C118.836,117.852,117.421,125.595,115.079,132.604z"/>
						<path style="fill:#FDC796;" d="M117.466,53.916c-0.603,14.253,1.333,27.887,6.188,41.783
							c2.58,7.377,3.675,14.718,3.566,22.273c-0.105,7.117-0.008,14.487-1.998,21.406c-0.046,0.169,0.394,0.455,0.458,0.264
							c4.178-12.551,4.19-26.635,0.729-39.518c-1.92-7.141-5.045-14.053-6.665-21.247c-1.84-8.208-1.655-16.517-1.749-24.76
							C117.993,53.933,117.478,53.654,117.466,53.916z"/>
						<path style="fill:#FDC796;" d="M122.328,13.443c-1.449,6.831-1.011,14.098-0.858,21.059c0.188,8.728,0.055,17.612,1.233,26.33
							c2.171,16.053,11.687,32.115,10.036,48.385c-0.015,0.165,0.427,0.406,0.461,0.18c1.022-7.065-0.963-14.275-2.294-21.316
							c-1.518-8.045-4.508-15.859-6.479-23.84c-2.134-8.656-1.582-17.601-2.002-26.322c-0.385-8.074-0.361-16.164,0.574-24.158
							C123.026,13.549,122.384,13.178,122.328,13.443z"/>
						<path style="fill:#FDC796;" d="M124.901,10.51c-0.039-0.03-0.069-0.057-0.117-0.076h-0.002
							c-0.058-0.028-0.108-0.039-0.15-0.03c-0.022-0.001-0.031,0.015-0.041,0.026c-0.013,0.008-0.039,0.004-0.047,0.023
							c-2.91,11.539,1.47,24.363,2.371,36.047c0.967,12.535,4.187,24.85,8.263,37.063c0.044,0.131,0.412,0.283,0.358,0.072
							c-6.238-24.114-9.307-48.527-10.489-72.941c-0.005-0.029-0.029-0.057-0.049-0.086c-0.008-0.011-0.011-0.022-0.022-0.034
							C124.951,10.549,124.929,10.531,124.901,10.51z"/>
						<path style="fill:#FDC796;" d="M132.633,9.902c0.04,4.771-0.866,9.509-0.783,14.309c0.109,6.271,0.168,12.539,0.748,18.813
							c1.129,12.253,3.513,24.455,4.954,36.696c0.014,0.123,0.369,0.309,0.355,0.136c-0.838-11.606-2.758-23.155-3.86-34.751
							c-0.595-6.268-0.479-12.503-0.654-18.763c-0.145-5.366,0.443-10.862-0.17-16.213C133.201,9.936,132.628,9.6,132.633,9.902z"/>
						<path style="fill:#FDC796;" d="M135.806,9.141c0.663,6.996-0.334,14.053,0.232,21.088c0.516,6.435,2.675,12.768,4.051,19.131
							c0.016,0.08,0.274,0.2,0.259,0.078c-0.901-6.799-2.678-13.486-3.259-20.31c-0.553-6.513,0.694-13.415-0.839-19.854
							C136.214,9.145,135.785,8.932,135.806,9.141z"/>
					</g>
				</g>
			</g>
		</g>
	</g>
	<path style="fill:#C4C4C3;" d="M170.693,133.015c-3.914,3.272-8.707,5.634-13.626,7.339c-1.121,12.087-1.972,24.202-2.972,36.3
		c-1.409,17.047-3.115,34.149-5.468,51.097c-2.171,15.64-5.56,32.136-15.005,45.178c-4.244,5.858-9.485,10.524-16.09,13.569
		c-6.617,3.05-13.845,4.684-21.104,5.153c-13.938,0.902-28.293-1.8-38.772-11.605c-9.995-9.354-15.576-22.489-19.168-35.461
		c-2.016-7.275-3.42-14.69-4.748-22.116c-1.836-10.268-3.342-20.59-4.619-30.939c-2.059-16.688-3.571-33.431-5.121-50.17
		c-4.182-1.884-8.177-4.248-11.512-7.358c-0.127-0.12-0.254-0.24-0.379-0.362l19.31,152.658c0,4.886,6.275,9.457,17.671,12.872
		c11.321,3.392,26.372,5.261,42.376,5.261c16,0,31.047-1.869,42.366-5.261c11.393-3.415,17.666-7.985,17.666-12.846l19.421-153.495
		C170.846,132.892,170.77,132.953,170.693,133.015z"/>
	<g>
		<g>
			<path style="fill:#FFFFFF;" d="M171.699,126.486c-0.647,12.424-36.321,22.445-80.234,22.445
				c-43.921,0-79.593-10.021-80.241-22.445H4.791c-0.005,0.108-0.014,0.218-0.014,0.326c0,14.34,38.804,25.977,86.688,25.977
				c47.874,0,86.678-11.637,86.678-25.977c0-0.108-0.009-0.218-0.013-0.326H171.699z"/>
			<path style="fill:#878787;" d="M34.661,142.447c15.176,4.311,35.351,6.684,56.804,6.684c21.451,0,41.623-2.373,56.799-6.684
				c14.968-4.251,23.331-9.906,23.636-15.961h-0.401c-0.652,12.298-36.301,22.246-80.033,22.246
				c-43.736,0-79.388-9.948-80.041-22.246h-0.4C11.329,132.541,19.692,138.196,34.661,142.447z"/>
			<path style="fill:#878787;" d="M177.929,126.486c0.007,0.108,0.015,0.218,0.015,0.326c0,14.215-38.794,25.776-86.479,25.776
				c-47.69,0-86.49-11.562-86.49-25.776c0-0.108,0.01-0.218,0.015-0.326h-0.4c-0.004,0.108-0.013,0.218-0.013,0.326
				c0,7.033,9.067,13.622,25.53,18.557c16.392,4.914,38.184,7.619,61.358,7.619c23.171,0,44.958-2.705,61.349-7.619
				c16.463-4.935,25.53-11.523,25.53-18.557c0-0.108-0.01-0.218-0.014-0.326H177.929z"/>
		</g>
		<g>
			<path style="fill:#FFFFFF;" d="M171.656,126.486c-2.821,11.855-37.585,21.23-80.058,21.23c-42.48,0-77.243-9.374-80.065-21.23
				H4.966c1.565,13.93,39.742,25.087,86.632,25.087c46.88,0,85.058-11.157,86.623-25.087H171.656z"/>
			<path style="fill:#878787;" d="M34.793,141.232c15.178,4.31,35.35,6.685,56.804,6.685c21.451,0,41.622-2.375,56.799-6.685
				c13.962-3.965,22.176-9.154,23.467-14.746h-0.41c-2.847,11.73-37.572,21.031-79.855,21.031c-42.286,0-77.015-9.301-79.861-21.031
				h-0.41C12.617,132.078,20.831,137.268,34.793,141.232z"/>
			<path style="fill:#878787;" d="M178.02,126.486c-1.579,13.804-39.736,24.887-86.422,24.887
				c-46.691,0-84.854-11.083-86.433-24.887H4.764c0.732,6.697,9.708,12.943,25.476,17.668c16.393,4.913,38.184,7.619,61.358,7.619
				c23.171,0,44.958-2.706,61.349-7.619c15.768-4.725,24.744-10.972,25.475-17.668H178.02z"/>
		</g>
	</g>
	<polygon style="opacity:0.2;fill:#FEE1D3;" points="34.895,148.316 52.817,298.316 45.725,296.157 26.092,144.082 	"/>
	<polygon style="opacity:0.2;fill:#FEE1D3;" points="150.97,146.896 134.65,295.956 143.438,292.06 158.509,145.029 	"/>
</g>
</svg>
