<?xml version="1.0" encoding="utf-8"?>
<!-- Generator: Adobe Illustrator 27.5.0, SVG Export Plug-In . SVG Version: 6.00 Build 0)  -->
<svg version="1.1" id="_x30_" xmlns="http://www.w3.org/2000/svg" xmlns:xlink="http://www.w3.org/1999/xlink" x="0px" y="0px"
	 viewBox="0 0 450 450" style="enable-background:new 0 0 450 450;" xml:space="preserve">
<g id="_x31_0">
	<g>
		<g>
			<g>
				<g style="opacity:0.9;">
					<defs>
						<filter id="Adobe_OpacityMaskFilter" filterUnits="userSpaceOnUse" x="105.666" y="48.242" width="181.747" height="260.357">
							<feFlood  style="flood-color:white;flood-opacity:1" result="back"/>
							<feBlend  in="SourceGraphic" in2="back" mode="normal"/>
						</filter>
					</defs>
					<mask maskUnits="userSpaceOnUse" x="105.666" y="48.242" width="181.747" height="260.357" id="SVGID_1_">
						<g style="filter:url(#Adobe_OpacityMaskFilter);">
							<defs>
								
									<filter id="Adobe_OpacityMaskFilter_00000127017028651956030350000012863029482432151212_" filterUnits="userSpaceOnUse" x="-2896.475" y="623.081" width="181.747" height="260.357">
									<feFlood  style="flood-color:white;flood-opacity:1" result="back"/>
									<feBlend  in="SourceGraphic" in2="back" mode="normal"/>
								</filter>
							</defs>
							<mask maskUnits="userSpaceOnUse" x="-2896.475" y="623.081" width="181.747" height="260.357" id="SVGID_1_">
								<g style="filter:url(#Adobe_OpacityMaskFilter_00000127017028651956030350000012863029482432151212_);">
								</g>
							</mask>
							
								<linearGradient id="SVGID_00000124851143249789393060000011229944737327028653_" gradientUnits="userSpaceOnUse" x1="-2885.4729" y1="766.1236" x2="-2710.4829" y2="739.4075">
								<stop  offset="0" style="stop-color:#FFFFFF"/>
								<stop  offset="0.1409" style="stop-color:#D3D3D3"/>
								<stop  offset="0.3058" style="stop-color:#A6A6A6"/>
								<stop  offset="0.4335" style="stop-color:#8A8A8A"/>
								<stop  offset="0.5074" style="stop-color:#808080"/>
								<stop  offset="0.6055" style="stop-color:#838383"/>
								<stop  offset="0.6917" style="stop-color:#8E8E8E"/>
								<stop  offset="0.7734" style="stop-color:#A0A0A0"/>
								<stop  offset="0.8523" style="stop-color:#B9B9B9"/>
								<stop  offset="0.9286" style="stop-color:#D9D9D9"/>
								<stop  offset="1" style="stop-color:#FFFFFF"/>
							</linearGradient>
							<path style="mask:url(#SVGID_1_);fill:url(#SVGID_00000124851143249789393060000011229944737327028653_);" d="
								M-2714.728,695.757c-1.066-15.574-9.742-28.891-25.974-39.633c-0.869-0.575-1.759-1.142-2.67-1.702l-6.936-14.123
								c-21.436-13.165-42.737-23.589-81.885-12.609c-6.411,1.798-23.082,6.699-32.641,12.609
								c-0.48,0.297-5.144,15.319-5.621,15.628c-12.54,8.121-24.077,20.602-25.655,39.324l-0.22,0l-0.145,135.339
								c-0.038,13.239,8.501,26.514,25.69,36.789c34.953,20.895,92.44,21.476,128.399,1.298
								c18.276-10.255,27.474-23.899,27.513-37.581l0.142-133.243C-2714.73,697.785-2714.728,695.757-2714.728,695.757z"/>
						</g>
					</mask>
					
						<linearGradient id="SVGID_00000047029365332426658400000014607225135781225395_" gradientUnits="userSpaceOnUse" x1="116.6679" y1="191.2847" x2="291.658" y2="164.5686">
						<stop  offset="0" style="stop-color:#A6B2B7"/>
						<stop  offset="0.1884" style="stop-color:#AEBAC0"/>
						<stop  offset="0.5074" style="stop-color:#B8C4CA"/>
						<stop  offset="0.7187" style="stop-color:#BBC7CD"/>
						<stop  offset="0.904" style="stop-color:#C6D1D8"/>
						<stop  offset="1" style="stop-color:#CED9E1"/>
					</linearGradient>
					<path style="fill:url(#SVGID_00000047029365332426658400000014607225135781225395_);" d="M287.413,120.918
						c-1.066-15.573-9.742-28.891-25.975-39.633c-0.868-0.575-1.759-1.142-2.67-1.702l-6.936-14.123
						c-21.436-13.165-42.737-23.589-81.885-12.61c-6.411,1.798-23.082,6.699-32.641,12.61c-0.48,0.297-5.143,15.319-5.621,15.628
						c-12.54,8.122-24.077,20.602-25.655,39.324l-0.22,0l-0.145,135.339c-0.037,13.239,8.501,26.514,25.69,36.789
						c34.953,20.895,92.44,21.476,128.399,1.298c18.276-10.255,27.474-23.899,27.513-37.581l0.142-133.243
						C287.411,122.946,287.413,120.918,287.413,120.918z"/>
				</g>
				
					<linearGradient id="SVGID_00000137820348148247397820000014227038053193149826_" gradientUnits="userSpaceOnUse" x1="108.4433" y1="296.9936" x2="286.8001" y2="296.9936">
					<stop  offset="0" style="stop-color:#CC6C00"/>
					<stop  offset="1" style="stop-color:#E18600"/>
				</linearGradient>
				<path style="fill:url(#SVGID_00000137820348148247397820000014227038053193149826_);" d="M261.578,256.209
					c-34.953-20.894-92.44-21.475-128.4-1.297c-18.276,10.255-27.474,23.898-27.512,37.58c1.279,34.653,33.096,49.833,51.947,55.798
					c50.404,15.948,128.332-2.494,129.655-55.292C287.306,279.759,278.767,266.485,261.578,256.209z"/>
				
					<linearGradient id="SVGID_00000087378077592207572210000004847935174794197687_" gradientUnits="userSpaceOnUse" x1="108.4432" y1="251.2468" x2="286.8003" y2="251.2468">
					<stop  offset="0" style="stop-color:#E38400"/>
					<stop  offset="1" style="stop-color:#FCA800"/>
				</linearGradient>
				<path style="fill:url(#SVGID_00000087378077592207572210000004847935174794197687_);" d="M105.811,157.153l-0.145,135.339
					c-0.038,13.239,8.501,26.514,25.69,36.789c34.953,20.895,92.439,21.476,128.399,1.297c18.276-10.255,27.474-23.899,27.513-37.58
					l0.145-135.339L105.811,157.153z"/>
				<g>
					<path style="fill:#CF6800;" d="M200.943,111.516c-17.702-10.221-47.762-2.618-47.242,11.636c0.044,1.198,0.044,2.394,0,3.591
						c-0.521,14.3,29.596,21.825,47.242,11.637c9.573-5.527,7.965-11.632,8.096-15.228
						C209.193,118.951,206.496,114.722,200.943,111.516z"/>
					<path style="fill:#CF6800;" d="M165.012,135.476c-20.115-11.614-54.272-2.975-53.681,13.222c0.049,1.361,0.049,2.72,0,4.081
						c-0.592,16.249,33.63,24.799,53.681,13.223c10.878-6.281,9.051-13.218,9.2-17.304
						C174.386,143.924,171.322,139.119,165.012,135.476z"/>
					<path style="fill:#CF6800;" d="M271.608,129.578c-20.115-11.614-54.272-2.975-53.682,13.223c0.05,1.361,0.05,2.72,0,4.081
						c-0.592,16.249,33.63,24.799,53.682,13.223c10.878-6.281,9.051-13.218,9.2-17.303
						C280.982,138.026,277.918,133.221,271.608,129.578z"/>
					<path style="fill:#CF6800;" d="M218.132,149.66c-17.702-10.221-47.762-2.618-47.243,11.637c0.044,1.198,0.044,2.394,0,3.591
						c-0.521,14.3,29.596,21.824,47.243,11.636c9.573-5.527,7.965-11.632,8.096-15.228
						C226.381,157.095,223.685,152.866,218.132,149.66z"/>
					<path style="fill:#CF6800;" d="M205.94,181.607c-17.702-10.221-47.762-2.618-47.242,11.637c0.044,1.198,0.044,2.394,0,3.591
						c-0.521,14.3,29.596,21.824,47.242,11.636c9.573-5.527,7.965-11.632,8.096-15.228
						C214.189,189.042,211.493,184.813,205.94,181.607z"/>
					<path style="opacity:0.6;fill:#CF6800;" d="M177.99,192.684c-17.702-10.221-47.762-2.618-47.242,11.636
						c0.044,1.198,0.044,2.394,0,3.592c-0.521,14.3,29.596,21.824,47.242,11.636c9.573-5.527,7.965-11.632,8.096-15.228
						C186.24,200.119,183.543,195.89,177.99,192.684z"/>
					<path style="opacity:0.4;fill:#CF6800;" d="M225.863,232.089c-17.702-10.22-47.762-2.618-47.242,11.637
						c0.044,1.198,0.044,2.394,0,3.592c-0.521,14.3,29.596,21.825,47.242,11.636c9.573-5.527,7.965-11.632,8.096-15.228
						C234.112,239.525,231.416,235.296,225.863,232.089z"/>
					<path style="opacity:0.3;fill:#CF6800;" d="M162.879,255.949c-17.702-10.22-47.762-2.618-47.242,11.637
						c0.044,1.198,0.044,2.394,0,3.591c-0.521,14.3,29.596,21.824,47.242,11.637c9.573-5.527,7.965-11.632,8.097-15.228
						C171.128,263.385,168.432,259.155,162.879,255.949z"/>
					<path style="opacity:0.2;fill:#CF6800;" d="M262.325,286.698c-17.703-10.22-47.762-2.618-47.242,11.637
						c0.044,1.198,0.044,2.394,0,3.591c-0.521,14.3,29.596,21.824,47.242,11.637c9.573-5.527,7.965-11.632,8.096-15.228
						C270.574,294.134,267.878,289.904,262.325,286.698z"/>
					<path style="opacity:0.6;fill:#CF6800;" d="M267.697,195.825c-17.703-10.221-47.762-2.618-47.242,11.636
						c0.044,1.198,0.044,2.394,0,3.592c-0.521,14.3,29.596,21.824,47.242,11.636c9.573-5.527,7.965-11.632,8.096-15.228
						C275.946,203.26,273.25,199.031,267.697,195.825z"/>
					<path style="fill:#CF6800;" d="M267.357,167.107c-17.703-10.22-47.762-2.618-47.242,11.637c0.044,1.198,0.044,2.394,0,3.591
						c-0.521,14.3,29.596,21.824,47.242,11.637c9.573-5.527,7.965-11.632,8.096-15.228
						C275.606,174.542,272.91,170.313,267.357,167.107z"/>
				</g>
				
					<linearGradient id="SVGID_00000121269528869963250290000011786554209021654419_" gradientUnits="userSpaceOnUse" x1="105.7838" y1="157.1707" x2="287.4131" y2="157.1707">
					<stop  offset="0" style="stop-color:#FFC540"/>
					<stop  offset="1" style="stop-color:#FFE640"/>
				</linearGradient>
				
					<ellipse style="fill:url(#SVGID_00000121269528869963250290000011786554209021654419_);" cx="196.598" cy="157.171" rx="90.815" ry="52.084"/>
				<g>
					<g>
						<defs>
							
								<ellipse id="SVGID_00000144324163724465637520000017412392135132086664_" cx="196.598" cy="157.171" rx="90.815" ry="52.084"/>
						</defs>
						<clipPath id="SVGID_00000063593695817882762190000000390701594494678450_">
							<use xlink:href="#SVGID_00000144324163724465637520000017412392135132086664_"  style="overflow:visible;"/>
						</clipPath>
					</g>
					<g>
						<defs>
							
								<ellipse id="SVGID_00000103961832050310848120000013134673111388797618_" cx="196.598" cy="157.171" rx="90.815" ry="52.084"/>
						</defs>
						<clipPath id="SVGID_00000015352177622744648960000004095672377066643851_">
							<use xlink:href="#SVGID_00000103961832050310848120000013134673111388797618_"  style="overflow:visible;"/>
						</clipPath>
						<g style="clip-path:url(#SVGID_00000015352177622744648960000004095672377066643851_);">
							<path style="fill:#E38400;" d="M200.943,111.516c-17.702-10.221-47.762-2.618-47.242,11.636c0.044,1.198,0.044,2.394,0,3.591
								c-0.521,14.3,29.596,21.825,47.242,11.637c9.573-5.527,7.965-11.632,8.096-15.228
								C209.193,118.951,206.496,114.722,200.943,111.516z"/>
							<path style="fill:#E38400;" d="M165.012,135.476c-20.115-11.614-54.272-2.975-53.681,13.222c0.049,1.361,0.049,2.72,0,4.081
								c-0.592,16.249,33.63,24.799,53.681,13.223c10.878-6.281,9.051-13.218,9.2-17.304
								C174.386,143.924,171.322,139.119,165.012,135.476z"/>
							<path style="fill:#E38400;" d="M271.608,129.578c-20.115-11.614-54.272-2.975-53.682,13.223c0.05,1.361,0.05,2.72,0,4.081
								c-0.592,16.249,33.63,24.799,53.682,13.223c10.878-6.281,9.051-13.218,9.2-17.303
								C280.982,138.026,277.918,133.221,271.608,129.578z"/>
							<path style="fill:#E38400;" d="M218.132,149.66c-17.702-10.221-47.762-2.618-47.243,11.637c0.044,1.198,0.044,2.394,0,3.591
								c-0.521,14.3,29.596,21.824,47.243,11.636c9.573-5.527,7.965-11.632,8.096-15.228
								C226.381,157.095,223.685,152.866,218.132,149.66z"/>
							<path style="fill:#E38400;" d="M205.94,181.607c-17.702-10.221-47.762-2.618-47.242,11.637c0.044,1.198,0.044,2.394,0,3.591
								c-0.521,14.3,29.596,21.824,47.242,11.636c9.573-5.527,7.965-11.632,8.096-15.228
								C214.189,189.042,211.493,184.813,205.94,181.607z"/>
							<path style="fill:#E38400;" d="M267.357,167.107c-17.703-10.22-47.762-2.618-47.242,11.637c0.044,1.198,0.044,2.394,0,3.591
								c-0.521,14.3,29.596,21.824,47.242,11.637c9.573-5.527,7.965-11.632,8.096-15.228
								C275.606,174.542,272.91,170.313,267.357,167.107z"/>
						</g>
					</g>
					<g>
						<defs>
							
								<ellipse id="SVGID_00000111892093000721449360000015175211005514201747_" cx="196.598" cy="157.171" rx="90.815" ry="52.084"/>
						</defs>
						<clipPath id="SVGID_00000176025041608588768960000003991301069551036330_">
							<use xlink:href="#SVGID_00000111892093000721449360000015175211005514201747_"  style="overflow:visible;"/>
						</clipPath>
					</g>
				</g>
				<g>
					<g>
						
							<radialGradient id="SVGID_00000102518375276426196780000009403827808244626064_" cx="385.7888" cy="178.3119" r="19.5723" gradientTransform="matrix(1 -0.5774 1 0.5774 -382.7302 242.6139)" gradientUnits="userSpaceOnUse">
							<stop  offset="0.6129" style="stop-color:#FFFCE1"/>
							<stop  offset="0.664" style="stop-color:#FFFBDD"/>
							<stop  offset="0.7188" style="stop-color:#FFF7D0"/>
							<stop  offset="0.7753" style="stop-color:#FFF1BA"/>
							<stop  offset="0.8329" style="stop-color:#FFE99C"/>
							<stop  offset="0.8909" style="stop-color:#FFDE76"/>
							<stop  offset="0.9409" style="stop-color:#FFD34F"/>
							<stop  offset="0.9661" style="stop-color:#FDB426"/>
							<stop  offset="0.9876" style="stop-color:#FC9E0A"/>
							<stop  offset="1" style="stop-color:#FC9600"/>
						</radialGradient>
						<path style="fill:url(#SVGID_00000102518375276426196780000009403827808244626064_);" d="M200.943,111.516
							c10.81,6.241,10.81,16.36,0,22.601c-10.81,6.241-28.336,6.241-39.146,0c-10.81-6.241-10.81-16.36,0-22.601
							C172.607,105.275,190.134,105.275,200.943,111.516z"/>
						
							<linearGradient id="SVGID_00000034788233053518113400000008445831051293865351_" gradientUnits="userSpaceOnUse" x1="158.4282" y1="122.6707" x2="204.2687" y2="122.6707">
							<stop  offset="0" style="stop-color:#FFA132"/>
							<stop  offset="0.1872" style="stop-color:#FF9726"/>
							<stop  offset="0.6977" style="stop-color:#FF810A"/>
							<stop  offset="0.9946" style="stop-color:#FF7800"/>
						</linearGradient>
						<path style="fill:url(#SVGID_00000034788233053518113400000008445831051293865351_);" d="M204.025,121.542
							c-0.24-0.324-0.656-0.524-1.238-0.63c0.611-0.223,0.934-0.518,1.046-0.958c0.1-0.393-0.03-0.895-0.387-1.496
							c-1.009-1.692-3.811-4.037-5.261-4.401c-0.106-0.027-0.219-0.04-0.338-0.04c-0.203,0-0.435,0.047-0.695,0.126
							c0.311-0.288,0.431-0.509,0.428-0.721c-0.002-0.222-0.138-0.405-0.402-0.543c-2.003-1.039-3.608-1.297-4.897-1.503
							c-0.722-0.115-1.345-0.215-1.914-0.424c-0.322-0.118-0.605-0.265-0.905-0.419c-0.274-0.141-0.549-0.283-0.852-0.403
							c-0.809-0.319-1.766-0.501-2.626-0.501c-1.175,0-2.03,0.334-2.45,0.917c-0.021-0.138-0.056-0.274-0.133-0.404
							c-0.333-0.562-1.127-0.824-2.501-0.824c-0.525,0-1.055,0.037-1.507,0.068l-0.318,0.022c-5.867,0.381-8.027,0.713-8.454,1.816
							c-0.098,0.252-0.085,0.529,0.009,0.837c-0.66-0.5-1.177-0.709-1.658-0.709c-0.724,0-1.292,0.451-2.08,1.076
							c-0.661,0.525-1.484,1.178-2.687,1.782c-0.148,0.075-0.312,0.152-0.486,0.235c-1.182,0.559-2.801,1.325-2.575,2.542
							c0.025,0.132,0.082,0.234,0.143,0.331c-1.114,0.026-1.816,0.723-2.018,1.418l-0.174,0.588
							c-0.496,1.656-1.009,3.368-0.37,4.381c0.262,0.416,0.698,0.674,1.294,0.767c-0.426,0.103-0.787,0.279-1.001,0.609
							c-0.288,0.444-0.25,1.073,0.12,1.982c0.278,0.683,1.954,3.47,5.064,4.627c0.297,0.11,0.574,0.164,0.848,0.164
							c0.225,0,0.426-0.045,0.618-0.105c-0.061,0.138-0.088,0.281-0.069,0.423c0.04,0.299,0.256,0.564,0.642,0.786
							c1.248,0.72,6.339,2.539,9.704,2.718c0.079,0.004,0.223,0.006,0.223,0.006c0.78,0,1.112-0.269,1.264-0.632
							c0.443,0.82,3.075,0.975,5.21,0.975c1.025,0,1.978-0.044,2.267-0.103c0.644-0.133,1.043-0.394,1.221-0.799
							c0.129-0.293,0.116-0.639,0.016-1.027c0.378,0.615,0.942,1.286,2.186,1.286c0.911-0.025,4.143-0.751,5.412-1.484
							c0.457-0.263,0.562-0.602,0.57-0.839c0.011-0.297-0.136-0.612-0.371-0.934c0.823,0.498,1.49,0.737,2.113,0.737
							c1.072,0,1.991-0.668,3.382-1.679l0.853-0.615c0.812-0.576,2.04-1.447,1.547-2.41c-0.037-0.072-0.091-0.138-0.153-0.201
							c0.1,0.012,0.199,0.024,0.291,0.024c1.292,0,1.921-1.091,1.938-1.828c0.008-0.311-0.048-0.612-0.101-0.903
							c-0.062-0.337-0.12-0.655-0.08-0.962c0.033-0.25,0.133-0.503,0.239-0.772c0.066-0.169,0.133-0.338,0.184-0.507
							C204.342,122.402,204.297,121.909,204.025,121.542z M184.563,123.735c-0.096,0-0.194,0.012-0.29,0.034
							c-0.331,0.079-0.619,0.288-0.734,0.531c-0.074,0.16-0.075,0.329,0,0.478c0.029,0.058,0.162,0.182,0.368,0.352
							c-0.501-0.259-0.747-0.331-0.892-0.331c-0.541,0.063-0.772,0.301-0.831,0.539c-0.062-0.187-0.16-0.376-0.347-0.543
							c-0.254-0.228-0.681-0.374-1.088-0.374c-0.161,0-0.312,0.023-0.448,0.068c-0.417,0.137-0.584,0.432-0.662,0.661
							c-0.032-0.123-0.076-0.236-0.143-0.328c-0.165-0.224-0.42-0.338-0.76-0.338c-0.161,0-0.35,0.033-0.558,0.084
							c0.272-0.242,0.34-0.412,0.3-0.584c-0.074-0.315-0.477-0.334-0.629-0.342c-0.076-0.003-0.181-0.005-0.311-0.005
							c-0.165,0-0.375,0.003-0.618,0.008c0.604-0.126,0.999-0.267,1.096-0.424c0.086-0.14,0.103-0.296,0.047-0.438
							c-0.051-0.131-0.173-0.234-0.323-0.327c0.261,0.044,0.478,0.067,0.648,0.067c0.131,0,0.53,0,0.673-0.306
							c0.079-0.168,0.054-0.361-0.067-0.609c0.524,0.47,1.106,0.823,1.753,0.823c0.92-0.021,1.248-0.125,1.543-1.669
							c0.022,0.679,0.131,0.998,0.295,1.18c0.118,0.13,0.274,0.2,0.453,0.2c0.195,0,0.409-0.086,0.646-0.212
							c-0.049,0.079-0.086,0.157-0.105,0.235c-0.041,0.163-0.015,0.323,0.075,0.461c0.194,0.296,0.658,0.446,1.381,0.446
							c0.195,0,0.369-0.013,0.51-0.03c-0.34,0.136-0.467,0.277-0.483,0.453c-0.015,0.152,0.058,0.28,0.217,0.406
							C185.029,123.812,184.818,123.735,184.563,123.735z"/>
						<g>
							
								<radialGradient id="SVGID_00000138560212760557832010000005927407747092424092_" cx="388.209" cy="174.0791" r="4.6432" gradientTransform="matrix(1 -0.5774 1 0.5774 -382.7302 242.6139)" gradientUnits="userSpaceOnUse">
								<stop  offset="0" style="stop-color:#FFF1B8"/>
								<stop  offset="0.1802" style="stop-color:#FFEDAC"/>
								<stop  offset="0.5097" style="stop-color:#FFE48B"/>
								<stop  offset="0.9486" style="stop-color:#FFD556"/>
								<stop  offset="1" style="stop-color:#FFD34F"/>
							</radialGradient>
							<path style="fill:url(#SVGID_00000138560212760557832010000005927407747092424092_);" d="M180.016,119.033
								c0.315,0.409,0.63,0.817,0.945,1.226c1.92,2.492-3.287,1.367-1.338-1.228C179.732,118.886,179.899,118.881,180.016,119.033z"
								/>
							
								<radialGradient id="SVGID_00000120526389483120342420000011981197518901133956_" cx="343.2088" cy="247.8506" r="4.626" gradientTransform="matrix(0.1844 -0.8095 1.4021 0.1065 -236.4976 371.531)" gradientUnits="userSpaceOnUse">
								<stop  offset="0" style="stop-color:#FFF1B8"/>
								<stop  offset="0.1802" style="stop-color:#FFEDAC"/>
								<stop  offset="0.5097" style="stop-color:#FFE48B"/>
								<stop  offset="0.9486" style="stop-color:#FFD556"/>
								<stop  offset="1" style="stop-color:#FFD34F"/>
							</radialGradient>
							<path style="fill:url(#SVGID_00000120526389483120342420000011981197518901133956_);" d="M174.726,119.982
								c1.799,0.564,3.165,0.861,3.52,1.412c0.551,0.856-2.946,0.769-3.833-1.275C174.333,119.934,174.532,119.921,174.726,119.982z
								"/>
							
								<radialGradient id="SVGID_00000064318710657000365410000008537203169151773081_" cx="138.1026" cy="263.8297" r="3.8386" gradientTransform="matrix(-0.0486 0.816 1.4134 0.0281 -192.6894 5.219)" gradientUnits="userSpaceOnUse">
								<stop  offset="0" style="stop-color:#FFF1B8"/>
								<stop  offset="0.1802" style="stop-color:#FFEDAC"/>
								<stop  offset="0.5097" style="stop-color:#FFE48B"/>
								<stop  offset="0.9486" style="stop-color:#FFD556"/>
								<stop  offset="1" style="stop-color:#FFD34F"/>
							</radialGradient>
							<path style="fill:url(#SVGID_00000064318710657000365410000008537203169151773081_);" d="M173.814,125.453
								c0.602-0.12,1.204-0.24,1.807-0.36c3.709-0.74-0.411-1.921-2.029,0.224C173.484,125.46,173.638,125.488,173.814,125.453z"/>
							
								<radialGradient id="SVGID_00000096740959333873813580000005936298260663007890_" cx="322.9742" cy="19.3395" r="3.7989" gradientTransform="matrix(1.2832 0.3432 -0.5944 0.7409 -215.0188 -4.0819)" gradientUnits="userSpaceOnUse">
								<stop  offset="0" style="stop-color:#FFF1B8"/>
								<stop  offset="0.1802" style="stop-color:#FFEDAC"/>
								<stop  offset="0.5097" style="stop-color:#FFE48B"/>
								<stop  offset="0.9486" style="stop-color:#FFD556"/>
								<stop  offset="1" style="stop-color:#FFD34F"/>
							</radialGradient>
							<path style="fill:url(#SVGID_00000096740959333873813580000005936298260663007890_);" d="M187.98,121.312
								c-1.316,0.737-1.977,1.224-2.784,1.248c-1.264,0.039-0.332-1.524,2.674-1.424C188.08,121.143,188.16,121.211,187.98,121.312z
								"/>
							
								<radialGradient id="SVGID_00000065765980490635975230000015242233014752364167_" cx="299.6402" cy="282.7458" r="3.8462" gradientTransform="matrix(1.2801 0.347 0.6011 -0.7391 -372.1657 232.0777)" gradientUnits="userSpaceOnUse">
								<stop  offset="0" style="stop-color:#FFF1B8"/>
								<stop  offset="0.1802" style="stop-color:#FFEDAC"/>
								<stop  offset="0.5097" style="stop-color:#FFE48B"/>
								<stop  offset="0.9486" style="stop-color:#FFD556"/>
								<stop  offset="1" style="stop-color:#FFD34F"/>
							</radialGradient>
							<path style="fill:url(#SVGID_00000065765980490635975230000015242233014752364167_);" d="M181.689,126.958
								c0.046-0.367,0.092-0.734,0.138-1.101c0.041-0.322,0.066-0.675-0.27-0.933c-0.695-0.533-1.16,0.2-1.231,0.679
								c-0.078,0.528,0.43,1.033,1.06,1.419C181.519,127.104,181.67,127.11,181.689,126.958z"/>
							
								<radialGradient id="SVGID_00000103958246379933692270000001188113379001826492_" cx="147.4484" cy="91.3122" r="3.8268" gradientTransform="matrix(-0.3096 0.7967 -1.3799 -0.1788 359.6138 24.8243)" gradientUnits="userSpaceOnUse">
								<stop  offset="0" style="stop-color:#FFF1B8"/>
								<stop  offset="0.1802" style="stop-color:#FFEDAC"/>
								<stop  offset="0.5097" style="stop-color:#FFE48B"/>
								<stop  offset="0.9486" style="stop-color:#FFD556"/>
								<stop  offset="1" style="stop-color:#FFD34F"/>
							</radialGradient>
							<path style="fill:url(#SVGID_00000103958246379933692270000001188113379001826492_);" d="M187.627,126.044
								c-4.24-1.63-2.791-2.008-0.917-1.308c0.694,0.259,1.035,0.747,1.163,1.218C187.912,126.095,187.763,126.097,187.627,126.044z
								"/>
						</g>
					</g>
					<g>
						
							<radialGradient id="SVGID_00000097487307838440724120000003459636259485906591_" cx="344.4077" cy="181.0941" r="22.24" gradientTransform="matrix(1 -0.5774 1 0.5774 -382.7302 242.6139)" gradientUnits="userSpaceOnUse">
							<stop  offset="0.6129" style="stop-color:#FFFCE1"/>
							<stop  offset="0.664" style="stop-color:#FFFBDD"/>
							<stop  offset="0.7188" style="stop-color:#FFF7D0"/>
							<stop  offset="0.7753" style="stop-color:#FFF1BA"/>
							<stop  offset="0.8329" style="stop-color:#FFE99C"/>
							<stop  offset="0.8909" style="stop-color:#FFDE76"/>
							<stop  offset="0.9409" style="stop-color:#FFD34F"/>
							<stop  offset="0.9661" style="stop-color:#FDB426"/>
							<stop  offset="0.9876" style="stop-color:#FC9E0A"/>
							<stop  offset="1" style="stop-color:#FC9600"/>
						</radialGradient>
						<path style="fill:url(#SVGID_00000097487307838440724120000003459636259485906591_);" d="M165.012,135.476
							c12.283,7.092,12.283,18.59,0,25.682c-12.283,7.092-32.198,7.092-44.482,0c-12.283-7.092-12.283-18.59,0-25.682
							C132.814,128.384,152.729,128.384,165.012,135.476z"/>
						
							<linearGradient id="SVGID_00000087373574924531544410000001822456144634710715_" gradientUnits="userSpaceOnUse" x1="116.7022" y1="148.1505" x2="168.791" y2="148.1505">
							<stop  offset="0" style="stop-color:#FFA132"/>
							<stop  offset="0.1872" style="stop-color:#FF9726"/>
							<stop  offset="0.6977" style="stop-color:#FF810A"/>
							<stop  offset="0.9946" style="stop-color:#FF7800"/>
						</linearGradient>
						<path style="fill:url(#SVGID_00000087373574924531544410000001822456144634710715_);" d="M168.515,146.868
							c-0.273-0.368-0.745-0.595-1.407-0.716c0.694-0.253,1.061-0.589,1.189-1.089c0.114-0.447-0.034-1.018-0.44-1.7
							c-1.146-1.923-4.331-4.587-5.978-5.001c-0.12-0.03-0.249-0.045-0.384-0.045c-0.23,0-0.494,0.053-0.789,0.143
							c0.354-0.327,0.489-0.579,0.486-0.819c-0.003-0.253-0.157-0.461-0.457-0.617c-2.276-1.181-4.099-1.474-5.564-1.708
							c-0.82-0.131-1.528-0.245-2.175-0.481c-0.366-0.135-0.688-0.301-1.028-0.477c-0.312-0.16-0.624-0.322-0.969-0.457
							c-0.919-0.362-2.007-0.569-2.983-0.569c-1.335,0-2.306,0.379-2.785,1.042c-0.023-0.157-0.063-0.312-0.151-0.46
							c-0.378-0.638-1.281-0.936-2.842-0.936c-0.596,0-1.199,0.042-1.713,0.078l-0.361,0.025c-6.668,0.433-9.121,0.81-9.607,2.063
							c-0.111,0.286-0.096,0.601,0.011,0.951c-0.751-0.568-1.337-0.805-1.885-0.805c-0.823,0-1.468,0.513-2.363,1.223
							c-0.751,0.596-1.686,1.339-3.053,2.025c-0.168,0.084-0.355,0.173-0.553,0.267c-1.343,0.635-3.183,1.506-2.925,2.888
							c0.028,0.151,0.093,0.266,0.163,0.377c-1.265,0.029-2.064,0.822-2.293,1.611l-0.198,0.668
							c-0.564,1.882-1.147,3.827-0.421,4.978c0.298,0.473,0.793,0.766,1.47,0.871c-0.485,0.118-0.894,0.317-1.138,0.693
							c-0.327,0.504-0.284,1.22,0.136,2.251c0.316,0.776,2.221,3.943,5.755,5.257c0.337,0.126,0.652,0.186,0.964,0.186
							c0.256,0,0.484-0.051,0.703-0.119c-0.07,0.157-0.1,0.319-0.078,0.48c0.045,0.339,0.291,0.64,0.729,0.893
							c1.418,0.818,7.202,2.885,11.028,3.088c0.089,0.005,0.253,0.007,0.253,0.007c0.886,0,1.264-0.306,1.436-0.717
							c0.503,0.931,3.495,1.107,5.921,1.107c1.164,0,2.247-0.049,2.575-0.117c0.731-0.151,1.185-0.447,1.387-0.907
							c0.146-0.333,0.132-0.726,0.018-1.167c0.429,0.699,1.071,1.461,2.484,1.461c1.035-0.028,4.707-0.853,6.15-1.686
							c0.519-0.299,0.639-0.684,0.648-0.953c0.012-0.338-0.154-0.695-0.421-1.062c0.935,0.565,1.693,0.837,2.401,0.837
							c1.218,0,2.262-0.759,3.843-1.907l0.969-0.698c0.923-0.655,2.317-1.644,1.757-2.738c-0.042-0.082-0.103-0.157-0.174-0.229
							c0.113,0.014,0.227,0.027,0.331,0.027c1.468,0,2.182-1.24,2.203-2.078c0.008-0.353-0.054-0.695-0.115-1.026
							c-0.07-0.383-0.137-0.744-0.091-1.093c0.037-0.284,0.151-0.572,0.272-0.877c0.075-0.192,0.151-0.384,0.209-0.576
							C168.874,147.845,168.823,147.285,168.515,146.868z M146.399,149.36c-0.11,0-0.221,0.014-0.33,0.039
							c-0.377,0.089-0.704,0.327-0.834,0.603c-0.084,0.182-0.085,0.374,0,0.544c0.033,0.066,0.183,0.207,0.418,0.4
							c-0.57-0.294-0.848-0.376-1.013-0.376c-0.615,0.072-0.877,0.342-0.944,0.612c-0.07-0.212-0.181-0.427-0.394-0.617
							c-0.288-0.258-0.774-0.425-1.236-0.425c-0.183,0-0.355,0.026-0.509,0.077c-0.474,0.156-0.663,0.49-0.752,0.751
							c-0.036-0.14-0.086-0.268-0.163-0.373c-0.187-0.255-0.477-0.384-0.863-0.384c-0.182,0-0.398,0.037-0.634,0.096
							c0.31-0.275,0.386-0.468,0.341-0.663c-0.084-0.358-0.542-0.38-0.715-0.389c-0.086-0.004-0.205-0.006-0.354-0.006
							c-0.187,0-0.426,0.003-0.702,0.009c0.686-0.143,1.135-0.303,1.245-0.481c0.098-0.16,0.117-0.336,0.054-0.498
							c-0.059-0.149-0.197-0.265-0.367-0.371c0.297,0.05,0.543,0.077,0.736,0.077c0.15,0,0.603,0,0.765-0.348
							c0.09-0.191,0.062-0.411-0.076-0.692c0.596,0.533,1.257,0.934,1.992,0.934c1.045-0.024,1.419-0.142,1.754-1.896
							c0.024,0.771,0.148,1.134,0.335,1.341c0.134,0.148,0.312,0.227,0.515,0.227c0.222,0,0.465-0.098,0.734-0.241
							c-0.056,0.09-0.098,0.179-0.12,0.267c-0.047,0.185-0.017,0.367,0.085,0.523c0.221,0.336,0.748,0.506,1.569,0.506
							c0.221,0,0.42-0.015,0.579-0.034c-0.386,0.154-0.53,0.314-0.549,0.514c-0.017,0.173,0.066,0.319,0.247,0.462
							C146.928,149.448,146.689,149.36,146.399,149.36z"/>
						<g>
							
								<radialGradient id="SVGID_00000159449360353638778850000001875225592132858039_" cx="347.1577" cy="176.2845" r="5.2758" gradientTransform="matrix(1 -0.5774 1 0.5774 -382.7302 242.6139)" gradientUnits="userSpaceOnUse">
								<stop  offset="0" style="stop-color:#FFF1B8"/>
								<stop  offset="0.1802" style="stop-color:#FFEDAC"/>
								<stop  offset="0.5097" style="stop-color:#FFE48B"/>
								<stop  offset="0.9486" style="stop-color:#FFD556"/>
								<stop  offset="1" style="stop-color:#FFD34F"/>
							</radialGradient>
							<path style="fill:url(#SVGID_00000159449360353638778850000001875225592132858039_);" d="M141.233,144.017
								c0.358,0.464,0.716,0.929,1.074,1.393c2.182,2.832-3.735,1.554-1.521-1.395C140.91,143.85,141.099,143.844,141.233,144.017z"
								/>
							
								<radialGradient id="SVGID_00000100359945088189605160000004684683525404384181_" cx="309.0443" cy="224.1272" r="5.2569" gradientTransform="matrix(0.1844 -0.8095 1.4021 0.1065 -236.4976 371.531)" gradientUnits="userSpaceOnUse">
								<stop  offset="0" style="stop-color:#FFF1B8"/>
								<stop  offset="0.1802" style="stop-color:#FFEDAC"/>
								<stop  offset="0.5097" style="stop-color:#FFE48B"/>
								<stop  offset="0.9486" style="stop-color:#FFD556"/>
								<stop  offset="1" style="stop-color:#FFD34F"/>
							</radialGradient>
							<path style="fill:url(#SVGID_00000100359945088189605160000004684683525404384181_);" d="M135.222,145.095
								c2.044,0.641,3.596,0.978,3.999,1.605c0.626,0.973-3.348,0.874-4.356-1.449C134.774,145.041,135.001,145.026,135.222,145.095
								z"/>
							
								<radialGradient id="SVGID_00000120522232688154585730000015504767981105166009_" cx="170.6992" cy="236.882" r="4.3615" gradientTransform="matrix(-0.0486 0.816 1.4134 0.0281 -192.6894 5.219)" gradientUnits="userSpaceOnUse">
								<stop  offset="0" style="stop-color:#FFF1B8"/>
								<stop  offset="0.1802" style="stop-color:#FFEDAC"/>
								<stop  offset="0.5097" style="stop-color:#FFE48B"/>
								<stop  offset="0.9486" style="stop-color:#FFD556"/>
								<stop  offset="1" style="stop-color:#FFD34F"/>
							</radialGradient>
							<path style="fill:url(#SVGID_00000120522232688154585730000015504767981105166009_);" d="M134.185,151.312
								c0.684-0.137,1.368-0.273,2.053-0.41c4.215-0.84-0.467-2.182-2.305,0.256C133.81,151.32,133.985,151.352,134.185,151.312z"/>
							
								<radialGradient id="SVGID_00000110450536307572117480000008808211949826841479_" cx="311.7866" cy="58.6218" r="4.3162" gradientTransform="matrix(1.2832 0.3432 -0.5944 0.7409 -215.0188 -4.0819)" gradientUnits="userSpaceOnUse">
								<stop  offset="0" style="stop-color:#FFF1B8"/>
								<stop  offset="0.1802" style="stop-color:#FFEDAC"/>
								<stop  offset="0.5097" style="stop-color:#FFE48B"/>
								<stop  offset="0.9486" style="stop-color:#FFD556"/>
								<stop  offset="1" style="stop-color:#FFD34F"/>
							</radialGradient>
							<path style="fill:url(#SVGID_00000110450536307572117480000008808211949826841479_);" d="M150.282,146.606
								c-1.495,0.837-2.246,1.39-3.163,1.418c-1.436,0.044-0.378-1.732,3.039-1.618
								C150.396,146.414,150.486,146.492,150.282,146.606z"/>
							
								<radialGradient id="SVGID_00000025431370025726490160000005922927810687402928_" cx="288.5098" cy="242.2336" r="4.3707" gradientTransform="matrix(1.2801 0.347 0.6011 -0.7391 -372.1657 232.0777)" gradientUnits="userSpaceOnUse">
								<stop  offset="0" style="stop-color:#FFF1B8"/>
								<stop  offset="0.1802" style="stop-color:#FFEDAC"/>
								<stop  offset="0.5097" style="stop-color:#FFE48B"/>
								<stop  offset="0.9486" style="stop-color:#FFD556"/>
								<stop  offset="1" style="stop-color:#FFD34F"/>
							</radialGradient>
							<path style="fill:url(#SVGID_00000025431370025726490160000005922927810687402928_);" d="M143.134,153.022
								c0.052-0.417,0.104-0.834,0.156-1.251c0.046-0.366,0.075-0.767-0.307-1.06c-0.789-0.605-1.318,0.227-1.399,0.772
								c-0.089,0.6,0.489,1.174,1.205,1.613C142.941,153.188,143.112,153.195,143.134,153.022z"/>
							
								<radialGradient id="SVGID_00000148641118159539425290000012232674499278421392_" cx="184.2719" cy="110.3712" r="4.3485" gradientTransform="matrix(-0.3096 0.7967 -1.3799 -0.1788 359.6138 24.8243)" gradientUnits="userSpaceOnUse">
								<stop  offset="0" style="stop-color:#FFF1B8"/>
								<stop  offset="0.1802" style="stop-color:#FFEDAC"/>
								<stop  offset="0.5097" style="stop-color:#FFE48B"/>
								<stop  offset="0.9486" style="stop-color:#FFD556"/>
								<stop  offset="1" style="stop-color:#FFD34F"/>
							</radialGradient>
							<path style="fill:url(#SVGID_00000148641118159539425290000012232674499278421392_);" d="M149.881,151.984
								c-4.818-1.852-3.171-2.281-1.042-1.485c0.788,0.294,1.177,0.849,1.322,1.384
								C150.205,152.042,150.035,152.043,149.881,151.984z"/>
						</g>
					</g>
					<g>
						
							<radialGradient id="SVGID_00000143576285690799323660000007147131670832300986_" cx="402.813" cy="229.2845" r="22.2401" gradientTransform="matrix(1 -0.5774 1 0.5774 -382.7302 242.6139)" gradientUnits="userSpaceOnUse">
							<stop  offset="0.6129" style="stop-color:#FFFCE1"/>
							<stop  offset="0.664" style="stop-color:#FFFBDD"/>
							<stop  offset="0.7188" style="stop-color:#FFF7D0"/>
							<stop  offset="0.7753" style="stop-color:#FFF1BA"/>
							<stop  offset="0.8329" style="stop-color:#FFE99C"/>
							<stop  offset="0.8909" style="stop-color:#FFDE76"/>
							<stop  offset="0.9409" style="stop-color:#FFD34F"/>
							<stop  offset="0.9661" style="stop-color:#FDB426"/>
							<stop  offset="0.9876" style="stop-color:#FC9E0A"/>
							<stop  offset="1" style="stop-color:#FC9600"/>
						</radialGradient>
						
							<ellipse style="fill:url(#SVGID_00000143576285690799323660000007147131670832300986_);" cx="249.367" cy="142.419" rx="31.454" ry="18.16"/>
						
							<linearGradient id="SVGID_00000029743976718048699960000000071087973003435666_" gradientUnits="userSpaceOnUse" x1="223.2979" y1="142.2523" x2="275.3866" y2="142.2523">
							<stop  offset="0" style="stop-color:#FFA132"/>
							<stop  offset="0.1872" style="stop-color:#FF9726"/>
							<stop  offset="0.6977" style="stop-color:#FF810A"/>
							<stop  offset="0.9946" style="stop-color:#FF7800"/>
						</linearGradient>
						<path style="fill:url(#SVGID_00000029743976718048699960000000071087973003435666_);" d="M275.11,140.97
							c-0.273-0.368-0.745-0.595-1.407-0.716c0.694-0.253,1.061-0.589,1.189-1.089c0.114-0.447-0.034-1.017-0.44-1.7
							c-1.146-1.923-4.331-4.587-5.978-5c-0.12-0.031-0.249-0.046-0.384-0.046c-0.23,0-0.494,0.053-0.789,0.143
							c0.354-0.327,0.489-0.579,0.487-0.82c-0.003-0.253-0.157-0.461-0.457-0.616c-2.276-1.181-4.099-1.474-5.564-1.708
							c-0.82-0.131-1.528-0.245-2.175-0.481c-0.366-0.135-0.687-0.301-1.028-0.477c-0.312-0.161-0.624-0.322-0.969-0.458
							c-0.919-0.362-2.006-0.569-2.983-0.569c-1.335,0-2.306,0.379-2.785,1.042c-0.023-0.156-0.063-0.312-0.151-0.459
							c-0.378-0.638-1.281-0.936-2.842-0.936c-0.596,0-1.199,0.042-1.713,0.078l-0.361,0.025c-6.668,0.433-9.121,0.811-9.607,2.064
							c-0.111,0.286-0.096,0.601,0.011,0.95c-0.751-0.568-1.337-0.805-1.884-0.805c-0.824,0-1.469,0.513-2.363,1.222
							c-0.751,0.597-1.686,1.34-3.053,2.025c-0.168,0.084-0.355,0.173-0.553,0.267c-1.343,0.636-3.183,1.506-2.925,2.888
							c0.028,0.151,0.093,0.266,0.163,0.377c-1.266,0.029-2.064,0.822-2.293,1.611l-0.198,0.668
							c-0.564,1.882-1.147,3.827-0.421,4.978c0.298,0.473,0.793,0.766,1.47,0.871c-0.485,0.118-0.894,0.317-1.138,0.693
							c-0.327,0.504-0.284,1.22,0.136,2.251c0.316,0.776,2.221,3.943,5.755,5.257c0.337,0.125,0.652,0.186,0.964,0.186
							c0.256,0,0.484-0.051,0.703-0.12c-0.07,0.157-0.1,0.32-0.078,0.48c0.045,0.34,0.291,0.64,0.73,0.893
							c1.418,0.818,7.202,2.885,11.027,3.089c0.089,0.005,0.253,0.006,0.253,0.006c0.886,0,1.264-0.306,1.437-0.718
							c0.503,0.931,3.494,1.107,5.92,1.107c1.164,0,2.247-0.049,2.575-0.117c0.732-0.151,1.185-0.448,1.387-0.908
							c0.146-0.333,0.132-0.726,0.018-1.167c0.43,0.699,1.071,1.461,2.484,1.461c1.035-0.028,4.707-0.853,6.149-1.686
							c0.519-0.299,0.639-0.684,0.648-0.952c0.012-0.338-0.154-0.695-0.422-1.061c0.935,0.565,1.693,0.837,2.402,0.837
							c1.218,0,2.262-0.759,3.842-1.907l0.969-0.698c0.923-0.655,2.317-1.644,1.757-2.738c-0.042-0.082-0.103-0.157-0.173-0.229
							c0.113,0.014,0.226,0.027,0.331,0.027c1.468,0,2.182-1.239,2.203-2.077c0.008-0.353-0.054-0.695-0.115-1.026
							c-0.07-0.383-0.137-0.744-0.091-1.094c0.038-0.284,0.151-0.572,0.272-0.877c0.076-0.192,0.151-0.384,0.21-0.576
							C275.469,141.947,275.419,141.387,275.11,140.97z M252.995,143.462c-0.11,0-0.22,0.013-0.33,0.039
							c-0.377,0.089-0.704,0.327-0.834,0.603c-0.084,0.182-0.085,0.374,0,0.543c0.033,0.066,0.184,0.207,0.418,0.4
							c-0.57-0.294-0.848-0.376-1.013-0.376c-0.615,0.072-0.877,0.342-0.944,0.612c-0.07-0.212-0.181-0.427-0.394-0.617
							c-0.288-0.258-0.774-0.425-1.236-0.425c-0.183,0-0.355,0.026-0.509,0.077c-0.474,0.156-0.663,0.49-0.752,0.751
							c-0.036-0.14-0.086-0.268-0.163-0.373c-0.187-0.255-0.478-0.384-0.864-0.384c-0.182,0-0.398,0.037-0.634,0.096
							c0.31-0.275,0.386-0.468,0.341-0.663c-0.084-0.358-0.542-0.38-0.715-0.389c-0.086-0.004-0.205-0.006-0.354-0.006
							c-0.187,0-0.426,0.003-0.702,0.01c0.686-0.143,1.135-0.303,1.245-0.481c0.098-0.16,0.117-0.336,0.053-0.498
							c-0.059-0.149-0.197-0.265-0.367-0.371c0.297,0.05,0.543,0.076,0.736,0.076c0.149,0,0.602,0,0.765-0.347
							c0.09-0.191,0.061-0.411-0.076-0.692c0.596,0.534,1.257,0.935,1.992,0.935c1.045-0.024,1.419-0.142,1.754-1.896
							c0.024,0.771,0.148,1.133,0.335,1.341c0.134,0.148,0.311,0.227,0.515,0.227c0.222,0,0.465-0.098,0.734-0.241
							c-0.056,0.09-0.098,0.179-0.12,0.266c-0.047,0.185-0.017,0.367,0.086,0.524c0.22,0.336,0.748,0.506,1.569,0.506
							c0.221,0,0.42-0.015,0.579-0.034c-0.386,0.154-0.53,0.315-0.549,0.515c-0.016,0.173,0.065,0.319,0.247,0.462
							C253.524,143.549,253.285,143.462,252.995,143.462z"/>
						<g>
							
								<radialGradient id="SVGID_00000124154606409119620000000002462394403587455627_" cx="405.563" cy="224.4749" r="5.2758" gradientTransform="matrix(1 -0.5774 1 0.5774 -382.7302 242.6139)" gradientUnits="userSpaceOnUse">
								<stop  offset="0" style="stop-color:#FFF1B8"/>
								<stop  offset="0.1802" style="stop-color:#FFEDAC"/>
								<stop  offset="0.5097" style="stop-color:#FFE48B"/>
								<stop  offset="0.9486" style="stop-color:#FFD556"/>
								<stop  offset="1" style="stop-color:#FFD34F"/>
							</radialGradient>
							<path style="fill:url(#SVGID_00000124154606409119620000000002462394403587455627_);" d="M247.828,138.119
								c0.358,0.464,0.716,0.929,1.074,1.393c2.182,2.832-3.735,1.554-1.521-1.395C247.505,137.952,247.695,137.946,247.828,138.119
								z"/>
							
								<radialGradient id="SVGID_00000159454448440818438270000005070157085794364827_" cx="326.0385" cy="297.9179" r="5.2568" gradientTransform="matrix(0.1844 -0.8095 1.4021 0.1065 -236.4976 371.531)" gradientUnits="userSpaceOnUse">
								<stop  offset="0" style="stop-color:#FFF1B8"/>
								<stop  offset="0.1802" style="stop-color:#FFEDAC"/>
								<stop  offset="0.5097" style="stop-color:#FFE48B"/>
								<stop  offset="0.9486" style="stop-color:#FFD556"/>
								<stop  offset="1" style="stop-color:#FFD34F"/>
							</radialGradient>
							<path style="fill:url(#SVGID_00000159454448440818438270000005070157085794364827_);" d="M241.818,139.197
								c2.044,0.641,3.596,0.978,3.999,1.605c0.626,0.973-3.348,0.874-4.356-1.449C241.37,139.143,241.597,139.128,241.818,139.197z
								"/>
							
								<radialGradient id="SVGID_00000074399770056956115210000000277369544085839748_" cx="160.8856" cy="311.9625" r="4.3615" gradientTransform="matrix(-0.0486 0.816 1.4134 0.0281 -192.6894 5.219)" gradientUnits="userSpaceOnUse">
								<stop  offset="0" style="stop-color:#FFF1B8"/>
								<stop  offset="0.1802" style="stop-color:#FFEDAC"/>
								<stop  offset="0.5097" style="stop-color:#FFE48B"/>
								<stop  offset="0.9486" style="stop-color:#FFD556"/>
								<stop  offset="1" style="stop-color:#FFD34F"/>
							</radialGradient>
							<path style="fill:url(#SVGID_00000074399770056956115210000000277369544085839748_);" d="M240.78,145.414
								c0.684-0.136,1.368-0.273,2.053-0.409c4.215-0.84-0.467-2.183-2.305,0.255C240.406,145.422,240.581,145.454,240.78,145.414z"
								/>
							
								<radialGradient id="SVGID_00000163791027331925389620000005933112024895969169_" cx="377.1453" cy="20.3857" r="4.3168" gradientTransform="matrix(1.2832 0.3432 -0.5944 0.7409 -215.0188 -4.0819)" gradientUnits="userSpaceOnUse">
								<stop  offset="0" style="stop-color:#FFF1B8"/>
								<stop  offset="0.1802" style="stop-color:#FFEDAC"/>
								<stop  offset="0.5097" style="stop-color:#FFE48B"/>
								<stop  offset="0.9486" style="stop-color:#FFD556"/>
								<stop  offset="1" style="stop-color:#FFD34F"/>
							</radialGradient>
							<path style="fill:url(#SVGID_00000163791027331925389620000005933112024895969169_);" d="M256.878,140.708
								c-1.495,0.837-2.246,1.391-3.163,1.419c-1.436,0.044-0.378-1.732,3.039-1.619
								C256.992,140.516,257.082,140.594,256.878,140.708z"/>
							
								<radialGradient id="SVGID_00000094580168146229016600000016617142708892731014_" cx="353.669" cy="280.8052" r="4.3708" gradientTransform="matrix(1.2801 0.347 0.6011 -0.7391 -372.1657 232.0777)" gradientUnits="userSpaceOnUse">
								<stop  offset="0" style="stop-color:#FFF1B8"/>
								<stop  offset="0.1802" style="stop-color:#FFEDAC"/>
								<stop  offset="0.5097" style="stop-color:#FFE48B"/>
								<stop  offset="0.9486" style="stop-color:#FFD556"/>
								<stop  offset="1" style="stop-color:#FFD34F"/>
							</radialGradient>
							<path style="fill:url(#SVGID_00000094580168146229016600000016617142708892731014_);" d="M249.73,147.124
								c0.052-0.417,0.104-0.834,0.157-1.25c0.046-0.366,0.074-0.768-0.308-1.06c-0.789-0.605-1.318,0.228-1.399,0.772
								c-0.089,0.6,0.489,1.174,1.205,1.613C249.536,147.29,249.708,147.298,249.73,147.124z"/>
							
								<radialGradient id="SVGID_00000163753582700544105540000002960418851810648735_" cx="160.7181" cy="38.407" r="4.3487" gradientTransform="matrix(-0.3096 0.7967 -1.3799 -0.1788 359.6138 24.8243)" gradientUnits="userSpaceOnUse">
								<stop  offset="0" style="stop-color:#FFF1B8"/>
								<stop  offset="0.1802" style="stop-color:#FFEDAC"/>
								<stop  offset="0.5097" style="stop-color:#FFE48B"/>
								<stop  offset="0.9486" style="stop-color:#FFD556"/>
								<stop  offset="1" style="stop-color:#FFD34F"/>
							</radialGradient>
							<path style="fill:url(#SVGID_00000163753582700544105540000002960418851810648735_);" d="M256.477,146.086
								c-4.818-1.852-3.171-2.281-1.042-1.485c0.788,0.294,1.177,0.849,1.322,1.384
								C256.801,146.144,256.631,146.145,256.477,146.086z"/>
						</g>
					</g>
					<g>
						
							<radialGradient id="SVGID_00000113349933827646239920000015786094329954024596_" cx="361.3527" cy="219.9364" r="19.5723" gradientTransform="matrix(1 -0.5774 1 0.5774 -382.7302 242.6139)" gradientUnits="userSpaceOnUse">
							<stop  offset="0.6129" style="stop-color:#FFFCE1"/>
							<stop  offset="0.664" style="stop-color:#FFFBDD"/>
							<stop  offset="0.7188" style="stop-color:#FFF7D0"/>
							<stop  offset="0.7753" style="stop-color:#FFF1BA"/>
							<stop  offset="0.8329" style="stop-color:#FFE99C"/>
							<stop  offset="0.8909" style="stop-color:#FFDE76"/>
							<stop  offset="0.9409" style="stop-color:#FFD34F"/>
							<stop  offset="0.9661" style="stop-color:#FDB426"/>
							<stop  offset="0.9876" style="stop-color:#FC9E0A"/>
							<stop  offset="1" style="stop-color:#FC9600"/>
						</radialGradient>
						<path style="fill:url(#SVGID_00000113349933827646239920000015786094329954024596_);" d="M218.132,149.66
							c10.81,6.241,10.81,16.36,0,22.601c-10.81,6.241-28.336,6.241-39.146,0c-10.81-6.241-10.81-16.36,0-22.601
							C189.796,143.419,207.322,143.419,218.132,149.66z"/>
						
							<linearGradient id="SVGID_00000136371237834937355750000003439172210121356168_" gradientUnits="userSpaceOnUse" x1="175.6164" y1="160.8141" x2="221.4569" y2="160.8141">
							<stop  offset="0" style="stop-color:#FFA132"/>
							<stop  offset="0.1872" style="stop-color:#FF9726"/>
							<stop  offset="0.6977" style="stop-color:#FF810A"/>
							<stop  offset="0.9946" style="stop-color:#FF7800"/>
						</linearGradient>
						<path style="fill:url(#SVGID_00000136371237834937355750000003439172210121356168_);" d="M221.214,159.686
							c-0.24-0.324-0.655-0.523-1.238-0.63c0.611-0.223,0.934-0.518,1.046-0.958c0.1-0.393-0.03-0.895-0.387-1.496
							c-1.009-1.692-3.811-4.037-5.261-4.401c-0.106-0.027-0.219-0.04-0.338-0.04c-0.203,0-0.435,0.047-0.695,0.126
							c0.311-0.288,0.431-0.509,0.428-0.721c-0.003-0.223-0.138-0.406-0.402-0.543c-2.003-1.039-3.607-1.297-4.896-1.503
							c-0.722-0.115-1.345-0.216-1.915-0.424c-0.322-0.119-0.605-0.265-0.904-0.42c-0.274-0.141-0.549-0.283-0.853-0.403
							c-0.809-0.318-1.766-0.501-2.625-0.501c-1.175,0-2.03,0.334-2.451,0.917c-0.02-0.138-0.055-0.274-0.133-0.405
							c-0.333-0.562-1.127-0.824-2.501-0.824c-0.524,0-1.055,0.037-1.507,0.068l-0.318,0.022c-5.868,0.381-8.027,0.713-8.454,1.816
							c-0.097,0.252-0.084,0.529,0.009,0.836c-0.661-0.5-1.177-0.708-1.658-0.708c-0.724,0-1.292,0.452-2.08,1.076
							c-0.661,0.525-1.484,1.179-2.687,1.783c-0.148,0.074-0.312,0.152-0.487,0.235c-1.182,0.559-2.801,1.325-2.575,2.541
							c0.025,0.132,0.082,0.234,0.144,0.331c-1.114,0.026-1.816,0.723-2.017,1.418l-0.174,0.588
							c-0.496,1.656-1.009,3.368-0.37,4.381c0.263,0.416,0.698,0.674,1.294,0.767c-0.426,0.104-0.787,0.279-1.001,0.609
							c-0.288,0.444-0.25,1.074,0.12,1.982c0.278,0.683,1.954,3.47,5.064,4.626c0.297,0.111,0.574,0.164,0.848,0.164
							c0.225,0,0.426-0.045,0.618-0.105c-0.061,0.138-0.088,0.281-0.069,0.423c0.04,0.298,0.256,0.563,0.642,0.786
							c1.248,0.72,6.338,2.539,9.704,2.718c0.079,0.004,0.223,0.006,0.223,0.006c0.78,0,1.112-0.269,1.264-0.632
							c0.443,0.82,3.075,0.975,5.211,0.975c1.024,0,1.978-0.044,2.266-0.103c0.644-0.133,1.043-0.394,1.221-0.798
							c0.129-0.293,0.117-0.639,0.016-1.027c0.378,0.615,0.942,1.286,2.186,1.286c0.911-0.025,4.143-0.751,5.412-1.484
							c0.457-0.263,0.562-0.602,0.57-0.839c0.01-0.297-0.136-0.612-0.371-0.934c0.823,0.497,1.49,0.736,2.113,0.736
							c1.072,0,1.991-0.668,3.382-1.679l0.853-0.614c0.812-0.576,2.039-1.447,1.547-2.41c-0.037-0.072-0.091-0.138-0.153-0.201
							c0.1,0.012,0.199,0.024,0.291,0.024c1.292,0,1.92-1.091,1.938-1.829c0.008-0.311-0.048-0.612-0.102-0.903
							c-0.062-0.337-0.12-0.655-0.079-0.962c0.033-0.25,0.133-0.503,0.239-0.772c0.067-0.169,0.133-0.338,0.184-0.507
							C221.53,160.545,221.485,160.052,221.214,159.686z M201.751,161.879c-0.097,0-0.194,0.012-0.29,0.034
							c-0.331,0.079-0.619,0.288-0.734,0.531c-0.074,0.16-0.075,0.33,0,0.478c0.029,0.058,0.161,0.182,0.368,0.352
							c-0.501-0.259-0.746-0.331-0.891-0.331c-0.542,0.064-0.772,0.301-0.831,0.539c-0.062-0.187-0.16-0.376-0.347-0.543
							c-0.254-0.227-0.681-0.374-1.088-0.374c-0.161,0-0.312,0.022-0.448,0.067c-0.417,0.137-0.584,0.432-0.662,0.661
							c-0.032-0.124-0.076-0.236-0.143-0.328c-0.165-0.224-0.42-0.338-0.76-0.338c-0.161,0-0.351,0.033-0.558,0.084
							c0.273-0.242,0.34-0.412,0.3-0.584c-0.074-0.315-0.477-0.334-0.629-0.342c-0.076-0.003-0.181-0.005-0.311-0.005
							c-0.165,0-0.375,0.003-0.618,0.008c0.604-0.126,0.999-0.266,1.096-0.424c0.087-0.14,0.103-0.296,0.047-0.438
							c-0.052-0.131-0.173-0.234-0.323-0.327c0.261,0.044,0.478,0.067,0.648,0.067c0.131,0,0.53,0,0.674-0.306
							c0.079-0.168,0.054-0.362-0.067-0.609c0.524,0.469,1.106,0.822,1.753,0.822c0.92-0.021,1.249-0.125,1.544-1.668
							c0.022,0.679,0.131,0.998,0.295,1.18c0.117,0.131,0.274,0.2,0.453,0.2c0.196,0,0.41-0.086,0.646-0.212
							c-0.049,0.079-0.086,0.157-0.105,0.235c-0.041,0.163-0.015,0.322,0.075,0.461c0.194,0.296,0.659,0.445,1.381,0.445
							c0.195,0,0.369-0.013,0.509-0.029c-0.34,0.135-0.467,0.277-0.483,0.453c-0.014,0.153,0.058,0.28,0.218,0.406
							C202.217,161.956,202.007,161.879,201.751,161.879z"/>
						<g>
							
								<radialGradient id="SVGID_00000098943610979723313380000014513529692369348789_" cx="363.7726" cy="215.7038" r="4.6429" gradientTransform="matrix(1 -0.5774 1 0.5774 -382.7302 242.6139)" gradientUnits="userSpaceOnUse">
								<stop  offset="0" style="stop-color:#FFF1B8"/>
								<stop  offset="0.1802" style="stop-color:#FFEDAC"/>
								<stop  offset="0.5097" style="stop-color:#FFE48B"/>
								<stop  offset="0.9486" style="stop-color:#FFD556"/>
								<stop  offset="1" style="stop-color:#FFD34F"/>
							</radialGradient>
							<path style="fill:url(#SVGID_00000098943610979723313380000014513529692369348789_);" d="M197.204,157.176
								c0.315,0.409,0.63,0.817,0.945,1.226c1.92,2.492-3.287,1.367-1.338-1.228C196.92,157.029,197.087,157.024,197.204,157.176z"
								/>
							
								<radialGradient id="SVGID_00000083072155245927286290000017882973308951421331_" cx="298.4757" cy="265.9927" r="4.6261" gradientTransform="matrix(0.1844 -0.8095 1.4021 0.1065 -236.4976 371.531)" gradientUnits="userSpaceOnUse">
								<stop  offset="0" style="stop-color:#FFF1B8"/>
								<stop  offset="0.1802" style="stop-color:#FFEDAC"/>
								<stop  offset="0.5097" style="stop-color:#FFE48B"/>
								<stop  offset="0.9486" style="stop-color:#FFD556"/>
								<stop  offset="1" style="stop-color:#FFD34F"/>
							</radialGradient>
							<path style="fill:url(#SVGID_00000083072155245927286290000017882973308951421331_);" d="M191.914,158.125
								c1.799,0.564,3.165,0.861,3.52,1.413c0.551,0.856-2.946,0.769-3.833-1.276C191.52,158.077,191.72,158.064,191.914,158.125z"
								/>
							
								<radialGradient id="SVGID_00000047053999799977285070000016467768589639505850_" cx="184.3736" cy="277.5817" r="3.8383" gradientTransform="matrix(-0.0486 0.816 1.4134 0.0281 -192.6894 5.219)" gradientUnits="userSpaceOnUse">
								<stop  offset="0" style="stop-color:#FFF1B8"/>
								<stop  offset="0.1802" style="stop-color:#FFEDAC"/>
								<stop  offset="0.5097" style="stop-color:#FFE48B"/>
								<stop  offset="0.9486" style="stop-color:#FFD556"/>
								<stop  offset="1" style="stop-color:#FFD34F"/>
							</radialGradient>
							<path style="fill:url(#SVGID_00000047053999799977285070000016467768589639505850_);" d="M191.002,163.597
								c0.602-0.12,1.205-0.24,1.807-0.36c3.709-0.74-0.411-1.921-2.029,0.224C190.672,163.604,190.826,163.632,191.002,163.597z"/>
							
								<radialGradient id="SVGID_00000084502225597672271980000009454684232793366419_" cx="353.6371" cy="56.6185" r="3.7986" gradientTransform="matrix(1.2832 0.3432 -0.5944 0.7409 -215.0188 -4.0819)" gradientUnits="userSpaceOnUse">
								<stop  offset="0" style="stop-color:#FFF1B8"/>
								<stop  offset="0.1802" style="stop-color:#FFEDAC"/>
								<stop  offset="0.5097" style="stop-color:#FFE48B"/>
								<stop  offset="0.9486" style="stop-color:#FFD556"/>
								<stop  offset="1" style="stop-color:#FFD34F"/>
							</radialGradient>
							<path style="fill:url(#SVGID_00000084502225597672271980000009454684232793366419_);" d="M205.168,159.455
								c-1.316,0.737-1.977,1.224-2.784,1.249c-1.264,0.039-0.333-1.524,2.674-1.424
								C205.268,159.286,205.348,159.354,205.168,159.455z"/>
							
								<radialGradient id="SVGID_00000106139073734919063380000005998015677070340518_" cx="330.4983" cy="245.6251" r="3.8467" gradientTransform="matrix(1.2801 0.347 0.6011 -0.7391 -372.1657 232.0777)" gradientUnits="userSpaceOnUse">
								<stop  offset="0" style="stop-color:#FFF1B8"/>
								<stop  offset="0.1802" style="stop-color:#FFEDAC"/>
								<stop  offset="0.5097" style="stop-color:#FFE48B"/>
								<stop  offset="0.9486" style="stop-color:#FFD556"/>
								<stop  offset="1" style="stop-color:#FFD34F"/>
							</radialGradient>
							<path style="fill:url(#SVGID_00000106139073734919063380000005998015677070340518_);" d="M198.878,165.101
								c0.046-0.367,0.092-0.734,0.138-1.101c0.04-0.322,0.066-0.675-0.271-0.933c-0.694-0.533-1.16,0.2-1.231,0.679
								c-0.078,0.528,0.431,1.033,1.06,1.419C198.708,165.248,198.859,165.254,198.878,165.101z"/>
							
								<radialGradient id="SVGID_00000114774520993739162310000004566249230897558695_" cx="190.3685" cy="69.2261" r="3.8271" gradientTransform="matrix(-0.3096 0.7967 -1.3799 -0.1788 359.6138 24.8243)" gradientUnits="userSpaceOnUse">
								<stop  offset="0" style="stop-color:#FFF1B8"/>
								<stop  offset="0.1802" style="stop-color:#FFEDAC"/>
								<stop  offset="0.5097" style="stop-color:#FFE48B"/>
								<stop  offset="0.9486" style="stop-color:#FFD556"/>
								<stop  offset="1" style="stop-color:#FFD34F"/>
							</radialGradient>
							<path style="fill:url(#SVGID_00000114774520993739162310000004566249230897558695_);" d="M204.815,164.188
								c-4.24-1.63-2.791-2.007-0.917-1.308c0.694,0.259,1.036,0.747,1.164,1.219C205.1,164.239,204.951,164.24,204.815,164.188z"/>
						</g>
					</g>
					<g>
						
							<radialGradient id="SVGID_00000018920953366245847250000014388335600944113031_" cx="327.5922" cy="241.5051" r="19.5723" gradientTransform="matrix(1 -0.5774 1 0.5774 -382.7302 242.6139)" gradientUnits="userSpaceOnUse">
							<stop  offset="0.6129" style="stop-color:#FFFCE1"/>
							<stop  offset="0.664" style="stop-color:#FFFBDD"/>
							<stop  offset="0.7188" style="stop-color:#FFF7D0"/>
							<stop  offset="0.7753" style="stop-color:#FFF1BA"/>
							<stop  offset="0.8329" style="stop-color:#FFE99C"/>
							<stop  offset="0.8909" style="stop-color:#FFDE76"/>
							<stop  offset="0.9409" style="stop-color:#FFD34F"/>
							<stop  offset="0.9661" style="stop-color:#FDB426"/>
							<stop  offset="0.9876" style="stop-color:#FC9E0A"/>
							<stop  offset="1" style="stop-color:#FC9600"/>
						</radialGradient>
						<path style="fill:url(#SVGID_00000018920953366245847250000014388335600944113031_);" d="M205.94,181.607
							c10.81,6.241,10.81,16.36,0,22.601c-10.81,6.241-28.336,6.241-39.146,0c-10.81-6.241-10.81-16.36,0-22.601
							C177.604,175.365,195.13,175.365,205.94,181.607z"/>
						
							<linearGradient id="SVGID_00000181776304836289500550000010869652084768998580_" gradientUnits="userSpaceOnUse" x1="163.4247" y1="192.7612" x2="209.2652" y2="192.7612">
							<stop  offset="0" style="stop-color:#FFA132"/>
							<stop  offset="0.1872" style="stop-color:#FF9726"/>
							<stop  offset="0.6977" style="stop-color:#FF810A"/>
							<stop  offset="0.9946" style="stop-color:#FF7800"/>
						</linearGradient>
						<path style="fill:url(#SVGID_00000181776304836289500550000010869652084768998580_);" d="M209.022,191.633
							c-0.24-0.324-0.655-0.524-1.238-0.63c0.611-0.223,0.934-0.518,1.046-0.958c0.1-0.393-0.03-0.895-0.387-1.496
							c-1.009-1.692-3.811-4.037-5.261-4.401c-0.106-0.027-0.219-0.04-0.337-0.04c-0.203,0-0.435,0.047-0.695,0.126
							c0.311-0.287,0.431-0.509,0.428-0.721c-0.003-0.222-0.138-0.405-0.402-0.542c-2.003-1.039-3.607-1.297-4.896-1.503
							c-0.722-0.115-1.345-0.216-1.915-0.424c-0.322-0.119-0.605-0.265-0.904-0.42c-0.274-0.141-0.549-0.283-0.852-0.403
							c-0.81-0.319-1.766-0.501-2.626-0.501c-1.176,0-2.03,0.334-2.451,0.917c-0.02-0.137-0.055-0.274-0.132-0.404
							c-0.333-0.562-1.127-0.824-2.501-0.824c-0.524,0-1.056,0.037-1.507,0.068l-0.318,0.022c-5.868,0.381-8.027,0.713-8.454,1.816
							c-0.097,0.252-0.084,0.529,0.009,0.836c-0.661-0.5-1.177-0.708-1.658-0.708c-0.724,0-1.292,0.451-2.08,1.076
							c-0.661,0.525-1.484,1.179-2.687,1.782c-0.148,0.074-0.312,0.152-0.487,0.235c-1.182,0.559-2.801,1.325-2.575,2.542
							c0.025,0.132,0.082,0.234,0.144,0.331c-1.114,0.026-1.816,0.723-2.018,1.418l-0.174,0.588
							c-0.496,1.656-1.009,3.368-0.37,4.381c0.263,0.416,0.698,0.674,1.294,0.767c-0.426,0.104-0.787,0.279-1.001,0.609
							c-0.288,0.444-0.25,1.074,0.12,1.982c0.278,0.683,1.954,3.47,5.064,4.626c0.297,0.11,0.574,0.164,0.848,0.164
							c0.225,0,0.426-0.045,0.618-0.105c-0.061,0.138-0.088,0.281-0.069,0.423c0.04,0.299,0.256,0.564,0.642,0.786
							c1.248,0.72,6.338,2.539,9.705,2.718c0.079,0.004,0.223,0.006,0.223,0.006c0.78,0,1.112-0.269,1.264-0.632
							c0.443,0.82,3.075,0.975,5.21,0.975c1.024,0,1.978-0.044,2.267-0.103c0.644-0.133,1.043-0.394,1.22-0.799
							c0.129-0.293,0.117-0.639,0.016-1.027c0.378,0.615,0.942,1.286,2.186,1.286c0.911-0.025,4.142-0.751,5.412-1.484
							c0.457-0.263,0.562-0.602,0.57-0.839c0.01-0.297-0.136-0.612-0.371-0.934c0.823,0.498,1.49,0.737,2.113,0.737
							c1.072,0,1.991-0.668,3.382-1.679l0.853-0.615c0.812-0.576,2.039-1.447,1.547-2.409c-0.037-0.072-0.091-0.138-0.153-0.201
							c0.099,0.012,0.199,0.024,0.291,0.024c1.292,0,1.92-1.091,1.938-1.828c0.008-0.311-0.048-0.612-0.101-0.903
							c-0.062-0.337-0.121-0.654-0.08-0.962c0.033-0.25,0.133-0.503,0.239-0.772c0.067-0.169,0.133-0.338,0.184-0.507
							C209.338,192.492,209.294,191.999,209.022,191.633z M189.559,193.826c-0.096,0-0.194,0.012-0.29,0.034
							c-0.331,0.079-0.619,0.288-0.733,0.531c-0.074,0.16-0.075,0.329,0,0.478c0.029,0.058,0.161,0.182,0.368,0.352
							c-0.501-0.259-0.746-0.331-0.891-0.331c-0.541,0.064-0.772,0.301-0.831,0.539c-0.062-0.187-0.16-0.376-0.347-0.543
							c-0.253-0.228-0.681-0.374-1.088-0.374c-0.161,0-0.312,0.023-0.448,0.068c-0.417,0.137-0.584,0.432-0.662,0.661
							c-0.032-0.123-0.076-0.236-0.143-0.328c-0.165-0.224-0.42-0.338-0.76-0.338c-0.16,0-0.35,0.033-0.558,0.084
							c0.272-0.242,0.34-0.412,0.3-0.584c-0.074-0.315-0.477-0.334-0.629-0.342c-0.076-0.003-0.18-0.005-0.311-0.005
							c-0.165,0-0.375,0.003-0.618,0.008c0.604-0.126,0.999-0.266,1.096-0.424c0.087-0.14,0.103-0.296,0.047-0.438
							c-0.052-0.131-0.173-0.234-0.323-0.327c0.261,0.044,0.478,0.067,0.648,0.067c0.131,0,0.53,0,0.674-0.306
							c0.079-0.169,0.054-0.362-0.067-0.61c0.524,0.47,1.106,0.823,1.753,0.823c0.92-0.021,1.249-0.125,1.544-1.668
							c0.022,0.679,0.131,0.998,0.294,1.18c0.117,0.13,0.274,0.2,0.453,0.2c0.196,0,0.41-0.086,0.646-0.212
							c-0.049,0.079-0.086,0.158-0.105,0.235c-0.041,0.163-0.015,0.323,0.075,0.461c0.194,0.296,0.658,0.445,1.381,0.445
							c0.194,0,0.369-0.013,0.509-0.03c-0.34,0.135-0.466,0.277-0.483,0.453c-0.014,0.152,0.058,0.28,0.218,0.406
							C190.025,193.903,189.815,193.826,189.559,193.826z"/>
						<g>
							
								<radialGradient id="SVGID_00000115488225120517561810000014764573238258015888_" cx="330.0122" cy="237.2726" r="4.6427" gradientTransform="matrix(1 -0.5774 1 0.5774 -382.7302 242.6139)" gradientUnits="userSpaceOnUse">
								<stop  offset="0" style="stop-color:#FFF1B8"/>
								<stop  offset="0.1802" style="stop-color:#FFEDAC"/>
								<stop  offset="0.5097" style="stop-color:#FFE48B"/>
								<stop  offset="0.9486" style="stop-color:#FFD556"/>
								<stop  offset="1" style="stop-color:#FFD34F"/>
							</radialGradient>
							<path style="fill:url(#SVGID_00000115488225120517561810000014764573238258015888_);" d="M185.013,189.123
								c0.315,0.409,0.63,0.817,0.945,1.226c1.92,2.492-3.287,1.367-1.338-1.227C184.729,188.977,184.895,188.971,185.013,189.123z"
								/>
							
								<radialGradient id="SVGID_00000178190086403529953600000015872693758790638506_" cx="258.5572" cy="262.5473" r="4.6262" gradientTransform="matrix(0.1844 -0.8095 1.4021 0.1065 -236.4976 371.531)" gradientUnits="userSpaceOnUse">
								<stop  offset="0" style="stop-color:#FFF1B8"/>
								<stop  offset="0.1802" style="stop-color:#FFEDAC"/>
								<stop  offset="0.5097" style="stop-color:#FFE48B"/>
								<stop  offset="0.9486" style="stop-color:#FFD556"/>
								<stop  offset="1" style="stop-color:#FFD34F"/>
							</radialGradient>
							<path style="fill:url(#SVGID_00000178190086403529953600000015872693758790638506_);" d="M179.723,190.072
								c1.799,0.564,3.165,0.861,3.52,1.412c0.551,0.856-2.946,0.769-3.833-1.275C179.329,190.024,179.529,190.012,179.723,190.072z
								"/>
							
								<radialGradient id="SVGID_00000090987960282164281310000002959709971755969681_" cx="223.7745" cy="270.3107" r="3.8385" gradientTransform="matrix(-0.0486 0.816 1.4134 0.0281 -192.6894 5.219)" gradientUnits="userSpaceOnUse">
								<stop  offset="0" style="stop-color:#FFF1B8"/>
								<stop  offset="0.1802" style="stop-color:#FFEDAC"/>
								<stop  offset="0.5097" style="stop-color:#FFE48B"/>
								<stop  offset="0.9486" style="stop-color:#FFD556"/>
								<stop  offset="1" style="stop-color:#FFD34F"/>
							</radialGradient>
							<path style="fill:url(#SVGID_00000090987960282164281310000002959709971755969681_);" d="M178.81,195.543
								c0.602-0.12,1.205-0.24,1.807-0.36c3.71-0.74-0.411-1.921-2.029,0.225C178.48,195.55,178.634,195.579,178.81,195.543z"/>
							
								<radialGradient id="SVGID_00000142140680951577045390000009139483704994050440_" cx="362.2596" cy="95.7437" r="3.7986" gradientTransform="matrix(1.2832 0.3432 -0.5944 0.7409 -215.0188 -4.0819)" gradientUnits="userSpaceOnUse">
								<stop  offset="0" style="stop-color:#FFF1B8"/>
								<stop  offset="0.1802" style="stop-color:#FFEDAC"/>
								<stop  offset="0.5097" style="stop-color:#FFE48B"/>
								<stop  offset="0.9486" style="stop-color:#FFD556"/>
								<stop  offset="1" style="stop-color:#FFD34F"/>
							</radialGradient>
							<path style="fill:url(#SVGID_00000142140680951577045390000009139483704994050440_);" d="M192.976,191.402
								c-1.316,0.737-1.977,1.224-2.784,1.249c-1.264,0.039-0.333-1.524,2.674-1.424
								C193.077,191.233,193.156,191.301,192.976,191.402z"/>
							
								<radialGradient id="SVGID_00000055686864769348420950000007913697343824281008_" cx="339.3252" cy="206.5452" r="3.8465" gradientTransform="matrix(1.2801 0.347 0.6011 -0.7391 -372.1657 232.0777)" gradientUnits="userSpaceOnUse">
								<stop  offset="0" style="stop-color:#FFF1B8"/>
								<stop  offset="0.1802" style="stop-color:#FFEDAC"/>
								<stop  offset="0.5097" style="stop-color:#FFE48B"/>
								<stop  offset="0.9486" style="stop-color:#FFD556"/>
								<stop  offset="1" style="stop-color:#FFD34F"/>
							</radialGradient>
							<path style="fill:url(#SVGID_00000055686864769348420950000007913697343824281008_);" d="M186.686,197.048
								c0.046-0.367,0.092-0.734,0.138-1.1c0.04-0.322,0.066-0.676-0.271-0.933c-0.695-0.533-1.16,0.2-1.231,0.679
								c-0.079,0.528,0.43,1.033,1.06,1.419C186.516,197.195,186.667,197.201,186.686,197.048z"/>
							
								<radialGradient id="SVGID_00000038387113757488170300000012931338026785484188_" cx="230.4333" cy="69.0723" r="3.8269" gradientTransform="matrix(-0.3096 0.7967 -1.3799 -0.1788 359.6138 24.8243)" gradientUnits="userSpaceOnUse">
								<stop  offset="0" style="stop-color:#FFF1B8"/>
								<stop  offset="0.1802" style="stop-color:#FFEDAC"/>
								<stop  offset="0.5097" style="stop-color:#FFE48B"/>
								<stop  offset="0.9486" style="stop-color:#FFD556"/>
								<stop  offset="1" style="stop-color:#FFD34F"/>
							</radialGradient>
							<path style="fill:url(#SVGID_00000038387113757488170300000012931338026785484188_);" d="M192.623,196.135
								c-4.24-1.63-2.79-2.007-0.917-1.308c0.694,0.259,1.036,0.747,1.164,1.219C192.909,196.186,192.76,196.187,192.623,196.135z"
								/>
						</g>
					</g>
					<g>
						
							<radialGradient id="SVGID_00000041999146536144010100000009065757260951958958_" cx="370.8565" cy="259.6578" r="19.5724" gradientTransform="matrix(1 -0.5774 1 0.5774 -382.7302 242.6139)" gradientUnits="userSpaceOnUse">
							<stop  offset="0.6129" style="stop-color:#FFFCE1"/>
							<stop  offset="0.664" style="stop-color:#FFFBDD"/>
							<stop  offset="0.7188" style="stop-color:#FFF7D0"/>
							<stop  offset="0.7753" style="stop-color:#FFF1BA"/>
							<stop  offset="0.8329" style="stop-color:#FFE99C"/>
							<stop  offset="0.8909" style="stop-color:#FFDE76"/>
							<stop  offset="0.9409" style="stop-color:#FFD34F"/>
							<stop  offset="0.9661" style="stop-color:#FDB426"/>
							<stop  offset="0.9876" style="stop-color:#FC9E0A"/>
							<stop  offset="1" style="stop-color:#FC9600"/>
						</radialGradient>
						<path style="fill:url(#SVGID_00000041999146536144010100000009065757260951958958_);" d="M267.357,167.107
							c10.81,6.241,10.81,16.36,0,22.601c-10.81,6.241-28.336,6.241-39.146,0c-10.81-6.241-10.81-16.36,0-22.601
							C239.021,160.866,256.547,160.866,267.357,167.107z"/>
						
							<linearGradient id="SVGID_00000106863676824931527510000007479122967375257730_" gradientUnits="userSpaceOnUse" x1="224.8418" y1="178.2617" x2="270.6822" y2="178.2617">
							<stop  offset="0" style="stop-color:#FFA132"/>
							<stop  offset="0.1872" style="stop-color:#FF9726"/>
							<stop  offset="0.6977" style="stop-color:#FF810A"/>
							<stop  offset="0.9946" style="stop-color:#FF7800"/>
						</linearGradient>
						<path style="fill:url(#SVGID_00000106863676824931527510000007479122967375257730_);" d="M270.439,177.134
							c-0.24-0.324-0.655-0.524-1.238-0.63c0.61-0.223,0.934-0.518,1.046-0.958c0.1-0.393-0.03-0.895-0.387-1.496
							c-1.008-1.692-3.811-4.037-5.26-4.401c-0.106-0.027-0.219-0.04-0.338-0.04c-0.202,0-0.435,0.046-0.695,0.126
							c0.311-0.288,0.431-0.509,0.428-0.721c-0.003-0.223-0.138-0.406-0.402-0.543c-2.003-1.039-3.607-1.297-4.897-1.503
							c-0.722-0.115-1.345-0.216-1.914-0.424c-0.322-0.119-0.605-0.265-0.905-0.42c-0.274-0.141-0.549-0.283-0.852-0.403
							c-0.809-0.318-1.766-0.501-2.625-0.501c-1.176,0-2.03,0.334-2.451,0.917c-0.02-0.138-0.055-0.274-0.133-0.405
							c-0.333-0.562-1.127-0.824-2.501-0.824c-0.524,0-1.055,0.037-1.507,0.068l-0.318,0.022c-5.867,0.381-8.027,0.713-8.454,1.816
							c-0.098,0.252-0.084,0.529,0.009,0.836c-0.661-0.5-1.177-0.708-1.658-0.708c-0.725,0-1.293,0.451-2.08,1.076
							c-0.661,0.525-1.484,1.179-2.686,1.783c-0.148,0.075-0.313,0.152-0.487,0.235c-1.182,0.559-2.801,1.325-2.575,2.541
							c0.025,0.133,0.082,0.234,0.143,0.332c-1.113,0.026-1.816,0.723-2.018,1.418l-0.174,0.588
							c-0.496,1.656-1.009,3.368-0.371,4.381c0.263,0.417,0.698,0.674,1.294,0.767c-0.427,0.104-0.787,0.279-1.002,0.61
							c-0.288,0.444-0.25,1.073,0.12,1.981c0.279,0.683,1.954,3.47,5.064,4.627c0.297,0.11,0.574,0.164,0.848,0.164
							c0.225,0,0.426-0.045,0.618-0.105c-0.061,0.138-0.088,0.281-0.069,0.423c0.04,0.298,0.256,0.564,0.642,0.786
							c1.248,0.72,6.338,2.539,9.705,2.718c0.078,0.004,0.223,0.006,0.223,0.006c0.78,0,1.112-0.269,1.264-0.631
							c0.443,0.819,3.075,0.974,5.21,0.974c1.024,0,1.977-0.044,2.266-0.103c0.644-0.133,1.043-0.394,1.221-0.798
							c0.129-0.293,0.116-0.639,0.016-1.027c0.378,0.615,0.943,1.286,2.186,1.286c0.911-0.025,4.143-0.751,5.412-1.484
							c0.457-0.263,0.562-0.602,0.57-0.838c0.01-0.297-0.136-0.612-0.371-0.934c0.823,0.497,1.49,0.736,2.113,0.736
							c1.072,0,1.991-0.668,3.382-1.679l0.853-0.614c0.812-0.576,2.039-1.447,1.547-2.41c-0.037-0.072-0.091-0.138-0.153-0.201
							c0.1,0.012,0.199,0.024,0.291,0.024c1.292,0,1.92-1.091,1.938-1.829c0.007-0.311-0.048-0.612-0.102-0.903
							c-0.062-0.337-0.12-0.655-0.08-0.962c0.033-0.25,0.133-0.503,0.239-0.772c0.067-0.169,0.133-0.338,0.184-0.507
							C270.755,177.993,270.711,177.5,270.439,177.134z M250.977,179.327c-0.097,0-0.194,0.012-0.29,0.034
							c-0.331,0.078-0.62,0.288-0.733,0.531c-0.075,0.16-0.075,0.33,0,0.478c0.029,0.058,0.161,0.182,0.368,0.352
							c-0.501-0.258-0.746-0.331-0.891-0.331c-0.542,0.063-0.772,0.301-0.831,0.539c-0.063-0.187-0.16-0.376-0.347-0.543
							c-0.254-0.228-0.681-0.374-1.088-0.374c-0.161,0-0.312,0.022-0.448,0.068c-0.417,0.137-0.584,0.432-0.662,0.661
							c-0.032-0.123-0.076-0.236-0.144-0.328c-0.165-0.224-0.42-0.338-0.76-0.338c-0.16,0-0.35,0.033-0.558,0.084
							c0.272-0.242,0.34-0.411,0.3-0.583c-0.074-0.315-0.478-0.335-0.63-0.342c-0.076-0.003-0.181-0.005-0.311-0.005
							c-0.165,0-0.375,0.003-0.618,0.008c0.604-0.126,0.999-0.267,1.096-0.424c0.087-0.14,0.103-0.296,0.047-0.438
							c-0.052-0.131-0.174-0.233-0.323-0.326c0.261,0.043,0.478,0.067,0.648,0.067c0.131,0,0.53,0,0.673-0.306
							c0.079-0.168,0.054-0.361-0.067-0.609c0.525,0.469,1.106,0.822,1.753,0.822c0.92-0.021,1.248-0.125,1.544-1.668
							c0.021,0.679,0.131,0.998,0.294,1.18c0.117,0.131,0.274,0.2,0.453,0.2c0.195,0,0.409-0.086,0.646-0.212
							c-0.049,0.079-0.086,0.157-0.106,0.235c-0.041,0.163-0.015,0.322,0.075,0.461c0.194,0.296,0.658,0.445,1.38,0.445
							c0.195,0,0.369-0.013,0.51-0.029c-0.34,0.135-0.467,0.277-0.483,0.453c-0.014,0.153,0.057,0.28,0.217,0.406
							C251.442,179.403,251.232,179.327,250.977,179.327z"/>
						<g>
							
								<radialGradient id="SVGID_00000152226774903318143000000005360634385367410583_" cx="373.2766" cy="255.4252" r="4.643" gradientTransform="matrix(1 -0.5774 1 0.5774 -382.7302 242.6139)" gradientUnits="userSpaceOnUse">
								<stop  offset="0" style="stop-color:#FFF1B8"/>
								<stop  offset="0.1802" style="stop-color:#FFEDAC"/>
								<stop  offset="0.5097" style="stop-color:#FFE48B"/>
								<stop  offset="0.9486" style="stop-color:#FFD556"/>
								<stop  offset="1" style="stop-color:#FFD34F"/>
							</radialGradient>
							<path style="fill:url(#SVGID_00000152226774903318143000000005360634385367410583_);" d="M246.43,174.624
								c0.315,0.409,0.63,0.817,0.945,1.226c1.92,2.492-3.287,1.367-1.338-1.228C246.146,174.477,246.313,174.472,246.43,174.624z"
								/>
							
								<radialGradient id="SVGID_00000114760853930257326970000010623525550664307621_" cx="281.8291" cy="303.2903" r="4.6263" gradientTransform="matrix(0.1844 -0.8095 1.4021 0.1065 -236.4976 371.531)" gradientUnits="userSpaceOnUse">
								<stop  offset="0" style="stop-color:#FFF1B8"/>
								<stop  offset="0.1802" style="stop-color:#FFEDAC"/>
								<stop  offset="0.5097" style="stop-color:#FFE48B"/>
								<stop  offset="0.9486" style="stop-color:#FFD556"/>
								<stop  offset="1" style="stop-color:#FFD34F"/>
							</radialGradient>
							<path style="fill:url(#SVGID_00000114760853930257326970000010623525550664307621_);" d="M241.14,175.573
								c1.799,0.564,3.165,0.861,3.52,1.413c0.551,0.856-2.947,0.769-3.834-1.276C240.746,175.525,240.946,175.512,241.14,175.573z"
								/>
							
								<radialGradient id="SVGID_00000165944708585920588950000007242164795621111178_" cx="204.5322" cy="313.1026" r="3.8383" gradientTransform="matrix(-0.0486 0.816 1.4134 0.0281 -192.6894 5.219)" gradientUnits="userSpaceOnUse">
								<stop  offset="0" style="stop-color:#FFF1B8"/>
								<stop  offset="0.1802" style="stop-color:#FFEDAC"/>
								<stop  offset="0.5097" style="stop-color:#FFE48B"/>
								<stop  offset="0.9486" style="stop-color:#FFD556"/>
								<stop  offset="1" style="stop-color:#FFD34F"/>
							</radialGradient>
							<path style="fill:url(#SVGID_00000165944708585920588950000007242164795621111178_);" d="M240.227,181.044
								c0.602-0.12,1.205-0.24,1.807-0.36c3.709-0.74-0.411-1.921-2.029,0.224C239.898,181.051,240.051,181.079,240.227,181.044z"/>
							
								<radialGradient id="SVGID_00000124849463596912926920000002231542609194641580_" cx="394.2029" cy="61.377" r="3.7983" gradientTransform="matrix(1.2832 0.3432 -0.5944 0.7409 -215.0188 -4.0819)" gradientUnits="userSpaceOnUse">
								<stop  offset="0" style="stop-color:#FFF1B8"/>
								<stop  offset="0.1802" style="stop-color:#FFEDAC"/>
								<stop  offset="0.5097" style="stop-color:#FFE48B"/>
								<stop  offset="0.9486" style="stop-color:#FFD556"/>
								<stop  offset="1" style="stop-color:#FFD34F"/>
							</radialGradient>
							<path style="fill:url(#SVGID_00000124849463596912926920000002231542609194641580_);" d="M254.393,176.903
								c-1.315,0.737-1.977,1.224-2.784,1.248c-1.264,0.039-0.333-1.524,2.674-1.424
								C254.494,176.734,254.573,176.802,254.393,176.903z"/>
							
								<radialGradient id="SVGID_00000176731968990954545190000018294011207608953475_" cx="371.0889" cy="241.0754" r="3.8468" gradientTransform="matrix(1.2801 0.347 0.6011 -0.7391 -372.1657 232.0777)" gradientUnits="userSpaceOnUse">
								<stop  offset="0" style="stop-color:#FFF1B8"/>
								<stop  offset="0.1802" style="stop-color:#FFEDAC"/>
								<stop  offset="0.5097" style="stop-color:#FFE48B"/>
								<stop  offset="0.9486" style="stop-color:#FFD556"/>
								<stop  offset="1" style="stop-color:#FFD34F"/>
							</radialGradient>
							<path style="fill:url(#SVGID_00000176731968990954545190000018294011207608953475_);" d="M248.103,182.549
								c0.046-0.367,0.092-0.734,0.138-1.101c0.04-0.322,0.065-0.675-0.271-0.933c-0.695-0.533-1.16,0.2-1.231,0.679
								c-0.078,0.528,0.431,1.033,1.06,1.419C247.933,182.695,248.084,182.702,248.103,182.549z"/>
							
								<radialGradient id="SVGID_00000139253582364750205130000015493780514422056593_" cx="203.5964" cy="30.5852" r="3.827" gradientTransform="matrix(-0.3096 0.7967 -1.3799 -0.1788 359.6138 24.8243)" gradientUnits="userSpaceOnUse">
								<stop  offset="0" style="stop-color:#FFF1B8"/>
								<stop  offset="0.1802" style="stop-color:#FFEDAC"/>
								<stop  offset="0.5097" style="stop-color:#FFE48B"/>
								<stop  offset="0.9486" style="stop-color:#FFD556"/>
								<stop  offset="1" style="stop-color:#FFD34F"/>
							</radialGradient>
							<path style="fill:url(#SVGID_00000139253582364750205130000015493780514422056593_);" d="M254.04,181.635
								c-4.24-1.63-2.791-2.007-0.917-1.307c0.694,0.259,1.036,0.747,1.164,1.218C254.325,181.686,254.176,181.688,254.04,181.635z"
								/>
						</g>
					</g>
				</g>
				<g style="opacity:0.5;">
					
						<linearGradient id="SVGID_00000003069516665199429670000016836787997255471014_" gradientUnits="userSpaceOnUse" x1="124.6743" y1="123.5838" x2="281.9406" y2="99.5737">
						<stop  offset="0" style="stop-color:#C0CCD2"/>
						<stop  offset="1" style="stop-color:#D6E2E9"/>
					</linearGradient>
					<path style="fill:url(#SVGID_00000003069516665199429670000016836787997255471014_);" d="M258.768,79.583l-6.936-14.123
						c-21.436-13.165-58.891-20.815-98.038-9.836c-6.408,1.797-11.119,18.632-20.691,24.526
						c-13.583,8.364-26.41,21.685-27.292,42.331c-0.037,13.239,8.501,26.514,25.69,36.789c34.953,20.895,92.44,21.476,128.4,1.297
						c18.276-10.255,27.474-23.898,27.513-37.58c-0.288-16.472-9.025-30.491-25.983-41.708
						C260.564,80.707,259.677,80.141,258.768,79.583z"/>
				</g>
				<g>
					
						<linearGradient id="SVGID_00000135659291176743425900000011091355689543199423_" gradientUnits="userSpaceOnUse" x1="132.0945" y1="72.6975" x2="262.6772" y2="72.6975">
						<stop  offset="0" style="stop-color:#ACB4BB"/>
						<stop  offset="1" style="stop-color:#959EA3"/>
					</linearGradient>
					<path style="opacity:0.8;fill:url(#SVGID_00000135659291176743425900000011091355689543199423_);" d="M240.877,63.742
						c-23.706-14.171-62.695-14.566-87.084-0.88c-14.124,7.926-20.237,18.835-18.29,29.367c1.505-7.949,7.613-15.645,18.29-21.636
						c24.389-13.685,63.378-13.291,87.084,0.88c9.977,5.964,15.639,13.419,17.054,21.072
						C259.864,82.336,254.205,71.709,240.877,63.742z"/>
					
						<linearGradient id="SVGID_00000113355301552278698800000003746222654243110589_" gradientUnits="userSpaceOnUse" x1="124.4259" y1="113.9779" x2="270.4851" y2="113.9779">
						<stop  offset="0" style="stop-color:#959EA3"/>
						<stop  offset="1" style="stop-color:#ACB4BB"/>
					</linearGradient>
					<path style="opacity:0.8;fill:url(#SVGID_00000113355301552278698800000003746222654243110589_);" d="M240.246,115.223
						c-24.746,13.886-64.304,13.486-88.357-0.893c-11.829-7.071-17.705-16.206-17.679-25.316l-0.038,13.559
						c-0.025,9.11,5.85,18.245,17.679,25.317c24.053,14.379,63.612,14.778,88.358,0.893c12.576-7.057,18.906-16.446,18.933-25.861
						l0.039-13.559C259.152,98.778,252.823,108.166,240.246,115.223z"/>
					
						<linearGradient id="SVGID_00000062171335165888864860000006550361978867216564_" gradientUnits="userSpaceOnUse" x1="124.4259" y1="105.0869" x2="270.4849" y2="105.0869">
						<stop  offset="0" style="stop-color:#C0CCD2"/>
						<stop  offset="1" style="stop-color:#D6E2E9"/>
					</linearGradient>
					<path style="fill:url(#SVGID_00000062171335165888864860000006550361978867216564_);" d="M244.721,109.98
						c-27.275,15.305-70.879,14.865-97.391-0.984c-13.038-7.794-19.515-17.863-19.486-27.904l-0.023,7.905
						c-0.028,10.042,6.448,20.111,19.486,27.905c26.512,15.849,70.116,16.289,97.391,0.984
						c13.862-7.779,20.839-18.127,20.868-28.505l0.022-7.905C265.56,91.854,258.584,102.202,244.721,109.98z"/>
					<path style="fill:#EFF5F9;" d="M246.104,53.571c-26.512-15.849-70.115-16.29-97.391-0.984
						c-15.742,8.833-22.604,20.981-20.497,32.722c1.544,8.602,7.904,16.986,19.115,23.687c26.512,15.849,70.115,16.29,97.391,0.984
						c12.176-6.832,19.04-15.648,20.55-24.724C267.143,74.001,260.781,62.345,246.104,53.571z M239.641,106.943
						c-24.389,13.685-63.378,13.292-87.084-0.88c-23.706-14.171-23.153-36.754,1.236-50.439
						c24.389-13.685,63.377-13.291,87.083,0.88C264.583,70.675,264.03,93.258,239.641,106.943z"/>
					
						<linearGradient id="SVGID_00000126282426209317673490000012728209815472518570_" gradientUnits="userSpaceOnUse" x1="132.0946" y1="65.4598" x2="262.6772" y2="65.4598">
						<stop  offset="0" style="stop-color:#D6E2E9"/>
						<stop  offset="1" style="stop-color:#C0CCD2"/>
					</linearGradient>
					<path style="fill:url(#SVGID_00000126282426209317673490000012728209815472518570_);" d="M153.793,63.355
						c24.389-13.685,63.378-13.292,87.084,0.88c9.977,5.964,15.639,13.419,17.054,21.072c1.933-10.209-3.726-20.835-17.054-28.803
						c-23.706-14.171-62.695-14.565-87.084-0.88c-14.124,7.925-20.237,18.835-18.29,29.367
						C137.009,77.042,143.116,69.346,153.793,63.355z"/>
				</g>
				<g style="opacity:0.9;">
					<path style="fill:#FFFBCC;" d="M251.394,155.713c17.738-7.637,31.067-26.362,21.68-32.508
						c-6.749-4.418-23.648,8.279-29.091,11.544c-14.437,8.66-20.85,12.265-20.345,17.242
						C224.448,159.983,235.872,162.396,251.394,155.713z"/>
				</g>
			</g>
			<path style="fill:#FFCC40;" d="M159.635,109.643c21.882,9.638,52.343,9.739,74.301,0.099
				C210.363,103.643,183.247,103.608,159.635,109.643z"/>
			<defs>
				
					<filter id="Adobe_OpacityMaskFilter_00000178202213535602533290000012168042767666033052_" filterUnits="userSpaceOnUse" x="147.331" y="85.256" width="117.94" height="37.077">
					<feFlood  style="flood-color:white;flood-opacity:1" result="back"/>
					<feBlend  in="SourceGraphic" in2="back" mode="normal"/>
				</filter>
			</defs>
			
				<mask maskUnits="userSpaceOnUse" x="147.331" y="85.256" width="117.94" height="37.077" id="SVGID_00000181806407373090441190000009778512424506336694_">
				<g style="filter:url(#Adobe_OpacityMaskFilter_00000178202213535602533290000012168042767666033052_);">
					<defs>
						
							<filter id="Adobe_OpacityMaskFilter_00000075135000866212454820000002480421323659205506_" filterUnits="userSpaceOnUse" x="-2854.81" y="660.095" width="117.94" height="37.077">
							<feFlood  style="flood-color:white;flood-opacity:1" result="back"/>
							<feBlend  in="SourceGraphic" in2="back" mode="normal"/>
						</filter>
					</defs>
					
						<mask maskUnits="userSpaceOnUse" x="-2854.81" y="660.095" width="117.94" height="37.077" id="SVGID_00000181806407373090441190000009778512424506336694_">
						<g style="filter:url(#Adobe_OpacityMaskFilter_00000075135000866212454820000002480421323659205506_);">
						</g>
					</mask>
					
						<radialGradient id="SVGID_00000099653039714677726610000016114309354666292897_" cx="-2790.8005" cy="696.3291" r="62.5734" gradientUnits="userSpaceOnUse">
						<stop  offset="0" style="stop-color:#FFFFFF"/>
						<stop  offset="1" style="stop-color:#000000"/>
					</radialGradient>
					
						<path style="mask:url(#SVGID_00000181806407373090441190000009778512424506336694_);fill:url(#SVGID_00000099653039714677726610000016114309354666292897_);" d="
						M-2854.81,683.835c50.831,29.303,112.85,5.301,117.94-23.74C-2743.418,688.246-2803.585,709.741-2854.81,683.835z"/>
				</g>
			</mask>
			
				<radialGradient id="SVGID_00000142887884670744551420000008930068026100156044_" cx="211.3402" cy="121.4902" r="62.5734" gradientUnits="userSpaceOnUse">
				<stop  offset="0" style="stop-color:#FFFFFF"/>
				<stop  offset="1" style="stop-color:#EFF5F9"/>
			</radialGradient>
			<path style="fill:url(#SVGID_00000142887884670744551420000008930068026100156044_);" d="M147.331,108.996
				c50.831,29.303,112.85,5.301,117.94-23.74C258.723,113.407,198.555,134.902,147.331,108.996z"/>
		</g>
		<g>
			<g>
				<defs>
					<path id="SVGID_00000075149319983519317450000008078107880234656134_" d="M159.635,109.643
						c21.882,9.638,52.343,9.739,74.301,0.099C210.363,103.643,183.247,103.608,159.635,109.643z"/>
				</defs>
				<clipPath id="SVGID_00000099652812738944650650000017047114943459572390_">
					<use xlink:href="#SVGID_00000075149319983519317450000008078107880234656134_"  style="overflow:visible;"/>
				</clipPath>
			</g>
			<g>
				<defs>
					<path id="SVGID_00000027599669117781803390000005796742783645033903_" d="M159.635,109.643
						c21.882,9.638,52.343,9.739,74.301,0.099C210.363,103.643,183.247,103.608,159.635,109.643z"/>
				</defs>
				<clipPath id="SVGID_00000158722402194298654730000006812356394513419395_">
					<use xlink:href="#SVGID_00000027599669117781803390000005796742783645033903_"  style="overflow:visible;"/>
				</clipPath>
				<g style="clip-path:url(#SVGID_00000158722402194298654730000006812356394513419395_);">
					
						<radialGradient id="SVGID_00000155834511023638647780000008897579104859690113_" cx="385.7888" cy="178.3119" r="19.5723" gradientTransform="matrix(1 -0.5774 1 0.5774 -382.7302 242.6139)" gradientUnits="userSpaceOnUse">
						<stop  offset="0.6129" style="stop-color:#FFFCE1"/>
						<stop  offset="0.664" style="stop-color:#FFFBDD"/>
						<stop  offset="0.7188" style="stop-color:#FFF7D0"/>
						<stop  offset="0.7753" style="stop-color:#FFF1BA"/>
						<stop  offset="0.8329" style="stop-color:#FFE99C"/>
						<stop  offset="0.8909" style="stop-color:#FFDE76"/>
						<stop  offset="0.9409" style="stop-color:#FFD34F"/>
						<stop  offset="0.9661" style="stop-color:#FDB426"/>
						<stop  offset="0.9876" style="stop-color:#FC9E0A"/>
						<stop  offset="1" style="stop-color:#FC9600"/>
					</radialGradient>
					<path style="fill:url(#SVGID_00000155834511023638647780000008897579104859690113_);" d="M200.943,111.516
						c10.81,6.241,10.81,16.36,0,22.601c-10.81,6.241-28.336,6.241-39.146,0c-10.81-6.241-10.81-16.36,0-22.601
						C172.607,105.275,190.134,105.275,200.943,111.516z"/>
					
						<linearGradient id="SVGID_00000070093867028077158710000000727345076418792377_" gradientUnits="userSpaceOnUse" x1="158.4282" y1="122.6707" x2="204.2687" y2="122.6707">
						<stop  offset="0" style="stop-color:#FFA132"/>
						<stop  offset="0.1872" style="stop-color:#FF9726"/>
						<stop  offset="0.6977" style="stop-color:#FF810A"/>
						<stop  offset="0.9946" style="stop-color:#FF7800"/>
					</linearGradient>
					<path style="fill:url(#SVGID_00000070093867028077158710000000727345076418792377_);" d="M204.025,121.542
						c-0.24-0.324-0.656-0.524-1.238-0.63c0.611-0.223,0.934-0.518,1.046-0.958c0.1-0.393-0.03-0.895-0.387-1.496
						c-1.009-1.692-3.811-4.037-5.261-4.401c-0.106-0.027-0.219-0.04-0.338-0.04c-0.203,0-0.435,0.047-0.695,0.126
						c0.311-0.288,0.431-0.509,0.428-0.721c-0.002-0.222-0.138-0.405-0.402-0.543c-2.003-1.039-3.608-1.297-4.897-1.503
						c-0.722-0.115-1.345-0.215-1.914-0.424c-0.322-0.118-0.605-0.265-0.905-0.419c-0.274-0.141-0.549-0.283-0.852-0.403
						c-0.809-0.319-1.766-0.501-2.626-0.501c-1.175,0-2.03,0.334-2.45,0.917c-0.021-0.138-0.056-0.274-0.133-0.404
						c-0.333-0.562-1.127-0.824-2.501-0.824c-0.525,0-1.055,0.037-1.507,0.068l-0.318,0.022c-5.867,0.381-8.027,0.713-8.454,1.816
						c-0.098,0.252-0.085,0.529,0.009,0.837c-0.66-0.5-1.177-0.709-1.658-0.709c-0.724,0-1.292,0.451-2.08,1.076
						c-0.661,0.525-1.484,1.178-2.687,1.782c-0.148,0.075-0.312,0.152-0.486,0.235c-1.182,0.559-2.801,1.325-2.575,2.542
						c0.025,0.132,0.082,0.234,0.143,0.331c-1.114,0.026-1.816,0.723-2.018,1.418l-0.174,0.588c-0.496,1.656-1.009,3.368-0.37,4.381
						c0.262,0.416,0.698,0.674,1.294,0.767c-0.426,0.103-0.787,0.279-1.001,0.609c-0.288,0.444-0.25,1.073,0.12,1.982
						c0.278,0.683,1.954,3.47,5.064,4.627c0.297,0.11,0.574,0.164,0.848,0.164c0.225,0,0.426-0.045,0.618-0.105
						c-0.061,0.138-0.088,0.281-0.069,0.423c0.04,0.299,0.256,0.564,0.642,0.786c1.248,0.72,6.339,2.539,9.704,2.718
						c0.079,0.004,0.223,0.006,0.223,0.006c0.78,0,1.112-0.269,1.264-0.632c0.443,0.82,3.075,0.975,5.21,0.975
						c1.025,0,1.978-0.044,2.267-0.103c0.644-0.133,1.043-0.394,1.221-0.799c0.129-0.293,0.116-0.639,0.016-1.027
						c0.378,0.615,0.942,1.286,2.186,1.286c0.911-0.025,4.143-0.751,5.412-1.484c0.457-0.263,0.562-0.602,0.57-0.839
						c0.011-0.297-0.136-0.612-0.371-0.934c0.823,0.498,1.49,0.737,2.113,0.737c1.072,0,1.991-0.668,3.382-1.679l0.853-0.615
						c0.812-0.576,2.04-1.447,1.547-2.41c-0.037-0.072-0.091-0.138-0.153-0.201c0.1,0.012,0.199,0.024,0.291,0.024
						c1.292,0,1.921-1.091,1.938-1.828c0.008-0.311-0.048-0.612-0.101-0.903c-0.062-0.337-0.12-0.655-0.08-0.962
						c0.033-0.25,0.133-0.503,0.239-0.772c0.066-0.169,0.133-0.338,0.184-0.507C204.342,122.402,204.297,121.909,204.025,121.542z
						 M184.563,123.735c-0.096,0-0.194,0.012-0.29,0.034c-0.331,0.079-0.619,0.288-0.734,0.531c-0.074,0.16-0.075,0.329,0,0.478
						c0.029,0.058,0.162,0.182,0.368,0.352c-0.501-0.259-0.747-0.331-0.892-0.331c-0.541,0.063-0.772,0.301-0.831,0.539
						c-0.062-0.187-0.16-0.376-0.347-0.543c-0.254-0.228-0.681-0.374-1.088-0.374c-0.161,0-0.312,0.023-0.448,0.068
						c-0.417,0.137-0.584,0.432-0.662,0.661c-0.032-0.123-0.076-0.236-0.143-0.328c-0.165-0.224-0.42-0.338-0.76-0.338
						c-0.161,0-0.35,0.033-0.558,0.084c0.272-0.242,0.34-0.412,0.3-0.584c-0.074-0.315-0.477-0.334-0.629-0.342
						c-0.076-0.003-0.181-0.005-0.311-0.005c-0.165,0-0.375,0.003-0.618,0.008c0.604-0.126,0.999-0.267,1.096-0.424
						c0.086-0.14,0.103-0.296,0.047-0.438c-0.051-0.131-0.173-0.234-0.323-0.327c0.261,0.044,0.478,0.067,0.648,0.067
						c0.131,0,0.53,0,0.673-0.306c0.079-0.168,0.054-0.361-0.067-0.609c0.524,0.47,1.106,0.823,1.753,0.823
						c0.92-0.021,1.248-0.125,1.543-1.669c0.022,0.679,0.131,0.998,0.295,1.18c0.118,0.13,0.274,0.2,0.453,0.2
						c0.195,0,0.409-0.086,0.646-0.212c-0.049,0.079-0.086,0.157-0.105,0.235c-0.041,0.163-0.015,0.323,0.075,0.461
						c0.194,0.296,0.658,0.446,1.381,0.446c0.195,0,0.369-0.013,0.51-0.03c-0.34,0.136-0.467,0.277-0.483,0.453
						c-0.015,0.152,0.058,0.28,0.217,0.406C185.029,123.812,184.818,123.735,184.563,123.735z"/>
					<g>
						
							<radialGradient id="SVGID_00000025421878580888971960000015631430928174724228_" cx="388.209" cy="174.0791" r="4.6432" gradientTransform="matrix(1 -0.5774 1 0.5774 -382.7302 242.6139)" gradientUnits="userSpaceOnUse">
							<stop  offset="0" style="stop-color:#FFF1B8"/>
							<stop  offset="0.1802" style="stop-color:#FFEDAC"/>
							<stop  offset="0.5097" style="stop-color:#FFE48B"/>
							<stop  offset="0.9486" style="stop-color:#FFD556"/>
							<stop  offset="1" style="stop-color:#FFD34F"/>
						</radialGradient>
						<path style="fill:url(#SVGID_00000025421878580888971960000015631430928174724228_);" d="M180.016,119.033
							c0.315,0.409,0.63,0.817,0.945,1.226c1.92,2.492-3.287,1.367-1.338-1.228C179.732,118.886,179.899,118.881,180.016,119.033z"
							/>
						
							<radialGradient id="SVGID_00000098194073765615625030000007365526020944196023_" cx="343.2088" cy="247.8506" r="4.626" gradientTransform="matrix(0.1844 -0.8095 1.4021 0.1065 -236.4976 371.531)" gradientUnits="userSpaceOnUse">
							<stop  offset="0" style="stop-color:#FFF1B8"/>
							<stop  offset="0.1802" style="stop-color:#FFEDAC"/>
							<stop  offset="0.5097" style="stop-color:#FFE48B"/>
							<stop  offset="0.9486" style="stop-color:#FFD556"/>
							<stop  offset="1" style="stop-color:#FFD34F"/>
						</radialGradient>
						<path style="fill:url(#SVGID_00000098194073765615625030000007365526020944196023_);" d="M174.726,119.982
							c1.799,0.564,3.165,0.861,3.52,1.412c0.551,0.856-2.946,0.769-3.833-1.275C174.333,119.934,174.532,119.921,174.726,119.982z"
							/>
						
							<radialGradient id="SVGID_00000142875275526415245300000008545001585319599791_" cx="138.1026" cy="263.8297" r="3.8386" gradientTransform="matrix(-0.0486 0.816 1.4134 0.0281 -192.6894 5.219)" gradientUnits="userSpaceOnUse">
							<stop  offset="0" style="stop-color:#FFF1B8"/>
							<stop  offset="0.1802" style="stop-color:#FFEDAC"/>
							<stop  offset="0.5097" style="stop-color:#FFE48B"/>
							<stop  offset="0.9486" style="stop-color:#FFD556"/>
							<stop  offset="1" style="stop-color:#FFD34F"/>
						</radialGradient>
						<path style="fill:url(#SVGID_00000142875275526415245300000008545001585319599791_);" d="M173.814,125.453
							c0.602-0.12,1.204-0.24,1.807-0.36c3.709-0.74-0.411-1.921-2.029,0.224C173.484,125.46,173.638,125.488,173.814,125.453z"/>
						
							<radialGradient id="SVGID_00000134929011499966728580000013640263134052959904_" cx="322.9742" cy="19.3395" r="3.7989" gradientTransform="matrix(1.2832 0.3432 -0.5944 0.7409 -215.0188 -4.0819)" gradientUnits="userSpaceOnUse">
							<stop  offset="0" style="stop-color:#FFF1B8"/>
							<stop  offset="0.1802" style="stop-color:#FFEDAC"/>
							<stop  offset="0.5097" style="stop-color:#FFE48B"/>
							<stop  offset="0.9486" style="stop-color:#FFD556"/>
							<stop  offset="1" style="stop-color:#FFD34F"/>
						</radialGradient>
						<path style="fill:url(#SVGID_00000134929011499966728580000013640263134052959904_);" d="M187.98,121.312
							c-1.316,0.737-1.977,1.224-2.784,1.248c-1.264,0.039-0.332-1.524,2.674-1.424C188.08,121.143,188.16,121.211,187.98,121.312z"
							/>
						
							<radialGradient id="SVGID_00000052080512653205333180000017580649216466935199_" cx="299.6402" cy="282.7458" r="3.8462" gradientTransform="matrix(1.2801 0.347 0.6011 -0.7391 -372.1657 232.0777)" gradientUnits="userSpaceOnUse">
							<stop  offset="0" style="stop-color:#FFF1B8"/>
							<stop  offset="0.1802" style="stop-color:#FFEDAC"/>
							<stop  offset="0.5097" style="stop-color:#FFE48B"/>
							<stop  offset="0.9486" style="stop-color:#FFD556"/>
							<stop  offset="1" style="stop-color:#FFD34F"/>
						</radialGradient>
						<path style="fill:url(#SVGID_00000052080512653205333180000017580649216466935199_);" d="M181.689,126.958
							c0.046-0.367,0.092-0.734,0.138-1.101c0.041-0.322,0.066-0.675-0.27-0.933c-0.695-0.533-1.16,0.2-1.231,0.679
							c-0.078,0.528,0.43,1.033,1.06,1.419C181.519,127.104,181.67,127.11,181.689,126.958z"/>
						
							<radialGradient id="SVGID_00000065070804630501885870000003285180533706762903_" cx="147.4484" cy="91.3122" r="3.8268" gradientTransform="matrix(-0.3096 0.7967 -1.3799 -0.1788 359.6138 24.8243)" gradientUnits="userSpaceOnUse">
							<stop  offset="0" style="stop-color:#FFF1B8"/>
							<stop  offset="0.1802" style="stop-color:#FFEDAC"/>
							<stop  offset="0.5097" style="stop-color:#FFE48B"/>
							<stop  offset="0.9486" style="stop-color:#FFD556"/>
							<stop  offset="1" style="stop-color:#FFD34F"/>
						</radialGradient>
						<path style="fill:url(#SVGID_00000065070804630501885870000003285180533706762903_);" d="M187.627,126.044
							c-4.24-1.63-2.791-2.008-0.917-1.308c0.694,0.259,1.035,0.747,1.163,1.218C187.912,126.095,187.763,126.097,187.627,126.044z"
							/>
					</g>
				</g>
			</g>
			<g>
				<defs>
					<path id="SVGID_00000026144311191858662350000001225340927581044922_" d="M159.635,109.643
						c21.882,9.638,52.343,9.739,74.301,0.099C210.363,103.643,183.247,103.608,159.635,109.643z"/>
				</defs>
				<clipPath id="SVGID_00000074433666608308082440000016525993400790800024_">
					<use xlink:href="#SVGID_00000026144311191858662350000001225340927581044922_"  style="overflow:visible;"/>
				</clipPath>
			</g>
		</g>
	</g>
	<g>
		<path style="opacity:0.2;fill:#D5DBDF;" d="M328.337,260.146c-20.298-12.134-53.682-12.472-74.565-0.754
			c-11.755,6.596-17.043,15.606-15.8,24.386l11.087,78.32c-0.057-6.262,4.102-12.521,12.467-17.215
			c16.313-9.154,42.39-8.89,58.247,0.589c8.503,5.083,12.331,11.785,11.544,18.318l11.747-79.719
			C344.318,275.558,339.428,266.777,328.337,260.146z"/>
		
			<linearGradient id="SVGID_00000154388089111605743230000004785666964379637663_" gradientUnits="userSpaceOnUse" x1="251.0598" y1="397.7161" x2="329.6025" y2="397.7161">
			<stop  offset="0" style="stop-color:#9AA4A9"/>
			<stop  offset="1" style="stop-color:#B0BAC0"/>
		</linearGradient>
		<path style="fill:url(#SVGID_00000154388089111605743230000004785666964379637663_);" d="M251.06,387.319
			c3.256,11.622,14.998,17.044,24.587,19.556c11.089,2.904,28.063,2.638,40.985-4.501c3.314-1.992,10.832-6.524,12.971-15.552
			L251.06,387.319z"/>
		
			<linearGradient id="SVGID_00000147921572630495388310000009159364121497791402_" gradientUnits="userSpaceOnUse" x1="236.8797" y1="345.0526" x2="344.1554" y2="345.0526">
			<stop  offset="0" style="stop-color:#C0CCD2"/>
			<stop  offset="1" style="stop-color:#D6E2E9"/>
		</linearGradient>
		<path style="fill:url(#SVGID_00000147921572630495388310000009159364121497791402_);" d="M328.03,303.784
			c-21.31,11.958-55.376,11.613-76.09-0.769c-9.107-5.444-14.116-12.308-15.06-19.308l13.666,101.366
			c0.698,5.179,4.404,10.258,11.142,14.286c15.325,9.161,40.53,9.416,56.297,0.569c7.191-4.035,11.176-9.267,11.931-14.633
			l14.24-101.288C343.136,291.259,337.749,298.33,328.03,303.784z"/>
		
			<linearGradient id="SVGID_00000016779322187169173910000009630865917982940583_" gradientUnits="userSpaceOnUse" x1="238.7025" y1="346.7792" x2="342.1181" y2="346.7792">
			<stop  offset="0" style="stop-color:#E38400"/>
			<stop  offset="1" style="stop-color:#FCA800"/>
		</linearGradient>
		<path style="fill:url(#SVGID_00000016779322187169173910000009630865917982940583_);" d="M325.349,322.371
			c-19.787,11.103-51.418,10.784-70.651-0.714c-7.745-4.63-12.292-10.366-13.676-16.292l8.038,56.733
			c0.006,0.579,0.033,1.158,0.111,1.735c0.103,0.771,0.329,1.879,0.832,3.221c3.712,11.402,15.471,16.812,25.14,19.344
			c11.473,3.005,29.035,2.73,42.404-4.658c2.807-1.687,8.523-5.139,11.72-11.457c1.382-2.673,1.79-4.911,2.024-6.221
			c0.013-0.09,0.015-0.182,0.026-0.272l8.429-57.204C338.014,312.4,333.216,317.957,325.349,322.371z"/>
		
			<linearGradient id="SVGID_00000039818751568375044180000000270726042752026035_" gradientUnits="userSpaceOnUse" x1="240.5619" y1="301.5533" x2="340.4876" y2="301.5533">
			<stop  offset="0" style="stop-color:#FFC540"/>
			<stop  offset="1" style="stop-color:#FFE640"/>
		</linearGradient>
		<path style="fill:url(#SVGID_00000039818751568375044180000000270726042752026035_);" d="M325.349,322.371
			c-19.787,11.103-51.418,10.784-70.651-0.714c-19.233-11.497-18.784-29.818,1.003-40.921s51.418-10.784,70.651,0.714
			C345.584,292.947,345.135,311.268,325.349,322.371z"/>
		
			<linearGradient id="SVGID_00000069393283597756688240000009782068339828781465_" gradientUnits="userSpaceOnUse" x1="294.2192" y1="354.7524" x2="324.8431" y2="354.7524">
			<stop  offset="0" style="stop-color:#6A99BD"/>
			<stop  offset="1" style="stop-color:#EBF7FF"/>
		</linearGradient>
		<path style="opacity:0.6;fill:url(#SVGID_00000069393283597756688240000009782068339828781465_);" d="M294.407,406.261
			c8.572-0.504,16.918-2.598,23.578-6.334c1.482-0.832,2.82-1.717,4.029-2.641l6.935-94.043c-0.306,0.18-0.604,0.363-0.919,0.54
			c-9.828,5.515-22.37,8.406-35.064,8.714L294.407,406.261z"/>
		
			<linearGradient id="SVGID_00000035528143060430704880000006523954415294231941_" gradientUnits="userSpaceOnUse" x1="248.3262" y1="350.6336" x2="264.078" y2="350.6336">
			<stop  offset="0" style="stop-color:#BBD8EC"/>
			<stop  offset="0.5714" style="stop-color:#EBF7FF"/>
		</linearGradient>
		<path style="opacity:0.2;fill:url(#SVGID_00000035528143060430704880000006523954415294231941_);" d="M248.326,300.617
			l10.75,97.005c0.817,0.596,1.678,1.178,2.612,1.736c0.767,0.459,1.576,0.878,2.39,1.292l-7.14-95.007
			c-1.734-0.808-3.41-1.678-4.999-2.628C250.65,302.244,249.452,301.441,248.326,300.617z"/>
		<path style="fill:#EFF5F9;" d="M329.11,259.712c-20.714-12.383-54.78-12.727-76.09-0.769c-21.31,11.958-21.794,31.689-1.08,44.072
			c20.714,12.383,54.78,12.727,76.09,0.769C349.34,291.826,349.823,272.094,329.11,259.712z M327.278,303.334
			c-20.883,11.718-54.267,11.381-74.565-0.754c-20.298-12.134-19.824-31.47,1.058-43.188c20.883-11.718,54.267-11.381,74.565,0.754
			C348.635,272.28,348.161,291.616,327.278,303.334z"/>
	</g>
</g>
</svg>
