<?xml version="1.0" encoding="utf-8"?>
<!-- Generator: Adobe Illustrator 27.5.0, SVG Export Plug-In . SVG Version: 6.00 Build 0)  -->
<svg version="1.1" xmlns="http://www.w3.org/2000/svg" xmlns:xlink="http://www.w3.org/1999/xlink" x="0px" y="0px"
	 viewBox="0 0 800 800" style="enable-background:new 0 0 800 800;" xml:space="preserve">
<g id="background">
	<rect x="-0.238" style="fill:#FDFDFD;" width="800" height="800"/>
</g>
<g id="objects">
	<g>
		<path style="fill:#363636;" d="M271.444,764.778v-0.27c-0.359,0.421-0.717,0.753-1.064,1.01c-0.35,0.266-0.73,0.458-1.142,0.596
			c-0.411,0.132-0.856,0.202-1.341,0.202c-0.641,0-1.238-0.137-1.783-0.413c-0.549-0.266-1.021-0.657-1.418-1.165
			c-0.4-0.496-0.705-1.093-0.912-1.776c-0.206-0.684-0.309-1.424-0.309-2.216c0-1.679,0.41-2.987,1.227-3.928
			c0.821-0.938,1.897-1.406,3.23-1.406c0.779,0,1.429,0.136,1.958,0.398c0.535,0.27,1.05,0.679,1.554,1.22v-3.958
			c0-0.552,0.111-0.964,0.332-1.253c0.219-0.289,0.532-0.423,0.932-0.423c0.408,0,0.723,0.133,0.943,0.396
			c0.221,0.255,0.331,0.639,0.331,1.139v11.848c0,0.515-0.122,0.898-0.354,1.157c-0.24,0.251-0.541,0.381-0.92,0.381
			c-0.363,0-0.666-0.13-0.903-0.398C271.564,765.657,271.444,765.271,271.444,764.778z M266.171,760.836
			c0,0.723,0.111,1.348,0.336,1.856c0.229,0.516,0.54,0.896,0.928,1.158c0.392,0.26,0.821,0.393,1.287,0.393
			c0.468,0,0.901-0.133,1.293-0.373c0.389-0.244,0.699-0.617,0.934-1.127c0.232-0.516,0.349-1.146,0.349-1.906
			c0-0.718-0.117-1.332-0.349-1.842c-0.234-0.519-0.545-0.919-0.94-1.188c-0.401-0.274-0.833-0.407-1.304-0.407
			c-0.492,0-0.932,0.141-1.316,0.412c-0.387,0.282-0.686,0.692-0.9,1.214C266.276,759.539,266.171,760.146,266.171,760.836z"/>
		<path style="fill:#363636;" d="M284.16,761.514h-5.245c0.007,0.61,0.127,1.148,0.365,1.613c0.24,0.47,0.555,0.819,0.959,1.051
			c0.393,0.242,0.828,0.353,1.307,0.353c0.324,0,0.613-0.03,0.883-0.106c0.262-0.074,0.514-0.201,0.768-0.355
			c0.25-0.155,0.48-0.331,0.693-0.521c0.207-0.181,0.475-0.433,0.809-0.743c0.141-0.115,0.334-0.184,0.592-0.184
			c0.277,0,0.493,0.074,0.668,0.224c0.167,0.153,0.256,0.374,0.256,0.643c0,0.25-0.097,0.528-0.286,0.857
			c-0.19,0.326-0.477,0.637-0.865,0.932c-0.376,0.299-0.856,0.545-1.44,0.751c-0.574,0.192-1.242,0.29-2,0.29
			c-1.723,0-3.058-0.496-4.021-1.477c-0.954-0.982-1.434-2.313-1.434-4.003c0-0.796,0.12-1.532,0.354-2.21
			c0.24-0.678,0.582-1.266,1.033-1.745c0.453-0.489,1.009-0.86,1.672-1.126c0.662-0.256,1.397-0.374,2.205-0.374
			c1.046,0,1.943,0.214,2.688,0.659c0.754,0.441,1.32,1.013,1.693,1.714c0.371,0.699,0.557,1.421,0.557,2.148
			c0,0.675-0.193,1.119-0.578,1.313C285.403,761.414,284.858,761.514,284.16,761.514z M278.915,759.99h4.859
			c-0.06-0.923-0.307-1.601-0.744-2.059c-0.427-0.458-0.994-0.687-1.691-0.687c-0.665,0-1.217,0.229-1.645,0.69
			C279.264,758.399,279.001,759.082,278.915,759.99z"/>
		<path style="fill:#363636;" d="M297.265,762.805c0,0.74-0.18,1.373-0.537,1.897c-0.362,0.535-0.894,0.936-1.599,1.201
			c-0.702,0.276-1.559,0.413-2.565,0.413c-0.961,0-1.79-0.146-2.482-0.443c-0.688-0.295-1.194-0.666-1.521-1.102
			c-0.324-0.447-0.489-0.893-0.489-1.338c0-0.296,0.105-0.547,0.315-0.757c0.21-0.212,0.47-0.316,0.8-0.316
			c0.278,0,0.492,0.068,0.642,0.209c0.154,0.127,0.301,0.329,0.436,0.576c0.275,0.481,0.603,0.834,0.986,1.07
			c0.381,0.234,0.912,0.357,1.568,0.357c0.537,0,0.974-0.122,1.322-0.357c0.344-0.241,0.512-0.515,0.512-0.813
			c0-0.481-0.178-0.834-0.531-1.043c-0.361-0.215-0.945-0.431-1.768-0.619c-0.919-0.232-1.674-0.465-2.251-0.72
			c-0.582-0.256-1.043-0.586-1.394-1.001c-0.343-0.418-0.518-0.924-0.518-1.526c0-0.534,0.154-1.049,0.482-1.531
			c0.317-0.473,0.791-0.853,1.415-1.14c0.632-0.289,1.383-0.427,2.266-0.427c0.691,0,1.316,0.067,1.875,0.215
			c0.555,0.141,1.014,0.336,1.384,0.584c0.372,0.24,0.652,0.512,0.844,0.803c0.194,0.295,0.29,0.581,0.29,0.865
			c0,0.308-0.102,0.567-0.306,0.752c-0.211,0.202-0.503,0.299-0.882,0.299c-0.277,0-0.508-0.071-0.704-0.235
			c-0.194-0.151-0.413-0.39-0.659-0.709c-0.209-0.26-0.449-0.473-0.72-0.63c-0.275-0.155-0.649-0.237-1.122-0.237
			c-0.486,0-0.885,0.111-1.206,0.318c-0.323,0.201-0.479,0.461-0.479,0.766c0,0.284,0.116,0.513,0.35,0.69
			c0.236,0.186,0.553,0.339,0.954,0.453c0.396,0.114,0.95,0.257,1.654,0.435c0.825,0.204,1.511,0.445,2.036,0.722
			c0.527,0.289,0.926,0.621,1.197,1.001C297.132,761.875,297.265,762.315,297.265,762.805z"/>
		<path style="fill:#363636;" d="M300.897,754.148c-0.381,0-0.697-0.124-0.957-0.345c-0.271-0.233-0.4-0.558-0.4-0.978
			c0-0.382,0.133-0.698,0.408-0.944c0.272-0.24,0.584-0.366,0.949-0.366c0.343,0,0.646,0.112,0.921,0.335
			c0.268,0.227,0.399,0.552,0.399,0.976c0,0.415-0.125,0.735-0.392,0.974C301.564,754.024,301.259,754.148,300.897,754.148z
			 M302.218,756.918v7.766c0,0.533-0.125,0.944-0.38,1.217c-0.255,0.279-0.579,0.416-0.975,0.416c-0.394,0-0.713-0.137-0.956-0.424
			c-0.245-0.282-0.367-0.686-0.367-1.209v-7.687c0-0.53,0.122-0.935,0.367-1.194c0.243-0.274,0.563-0.407,0.956-0.407
			c0.396,0,0.72,0.133,0.975,0.407C302.093,756.063,302.218,756.435,302.218,756.918z"/>
		<path style="fill:#363636;" d="M314.856,757.36v7.807c0,0.886-0.092,1.657-0.287,2.297c-0.186,0.651-0.492,1.169-0.911,1.598
			c-0.419,0.413-0.962,0.729-1.646,0.936c-0.68,0.199-1.525,0.301-2.53,0.301c-0.925,0-1.752-0.128-2.478-0.383
			c-0.724-0.263-1.28-0.604-1.685-1.012c-0.385-0.406-0.583-0.823-0.583-1.261c0-0.335,0.111-0.599,0.334-0.8
			c0.217-0.211,0.486-0.315,0.803-0.315c0.396,0,0.738,0.173,1.033,0.526c0.139,0.175,0.29,0.352,0.445,0.535
			c0.159,0.177,0.324,0.335,0.514,0.461c0.187,0.131,0.412,0.222,0.668,0.285c0.266,0.062,0.566,0.094,0.904,0.094
			c0.696,0,1.236-0.094,1.621-0.285c0.385-0.195,0.652-0.469,0.81-0.813c0.15-0.349,0.235-0.722,0.262-1.112
			c0.027-0.402,0.047-1.038,0.064-1.922c-0.414,0.571-0.893,1.022-1.436,1.317c-0.538,0.304-1.177,0.461-1.927,0.461
			c-0.896,0-1.682-0.235-2.353-0.694c-0.675-0.457-1.192-1.103-1.545-1.932c-0.366-0.828-0.544-1.778-0.544-2.869
			c0-0.798,0.109-1.524,0.328-2.179c0.221-0.648,0.529-1.197,0.941-1.64c0.404-0.452,0.875-0.782,1.406-1.018
			c0.529-0.216,1.11-0.332,1.744-0.332c0.758,0,1.419,0.143,1.98,0.44c0.552,0.288,1.07,0.747,1.549,1.365v-0.354
			c0-0.472,0.115-0.831,0.346-1.088c0.232-0.256,0.522-0.38,0.883-0.38c0.52,0,0.861,0.171,1.033,0.503
			C314.77,756.239,314.856,756.719,314.856,757.36z M307.083,760.775c0,1.082,0.238,1.905,0.713,2.459
			c0.475,0.553,1.086,0.841,1.844,0.841c0.446,0,0.869-0.122,1.26-0.369c0.397-0.238,0.721-0.597,0.971-1.077
			c0.254-0.483,0.377-1.07,0.377-1.751c0-1.101-0.246-1.951-0.726-2.559c-0.485-0.616-1.118-0.921-1.9-0.921
			c-0.77,0-1.387,0.291-1.843,0.884C307.315,758.863,307.083,759.688,307.083,760.775z"/>
		<path style="fill:#363636;" d="M320.007,756.881v0.323c0.473-0.622,0.984-1.082,1.547-1.37c0.563-0.294,1.203-0.438,1.93-0.438
			c0.709,0,1.343,0.152,1.898,0.456c0.556,0.313,0.973,0.747,1.249,1.314c0.174,0.326,0.292,0.683,0.339,1.055
			c0.054,0.391,0.082,0.869,0.082,1.463v5c0,0.533-0.125,0.944-0.369,1.217c-0.246,0.279-0.568,0.416-0.958,0.416
			c-0.403,0-0.724-0.137-0.975-0.424c-0.249-0.282-0.374-0.686-0.374-1.209v-4.474c0-0.886-0.12-1.568-0.369-2.04
			c-0.242-0.467-0.736-0.697-1.469-0.697c-0.475,0-0.916,0.139-1.305,0.431c-0.397,0.272-0.684,0.664-0.864,1.164
			c-0.131,0.412-0.198,1.154-0.198,2.246v3.37c0,0.542-0.125,0.954-0.377,1.22c-0.254,0.276-0.578,0.413-0.977,0.413
			c-0.388,0-0.704-0.137-0.954-0.424c-0.252-0.282-0.371-0.686-0.371-1.209v-7.766c0-0.513,0.11-0.898,0.335-1.144
			c0.224-0.255,0.526-0.379,0.911-0.379c0.235,0,0.449,0.055,0.639,0.159c0.185,0.121,0.346,0.289,0.455,0.508
			C319.95,756.287,320.007,756.563,320.007,756.881z"/>
		<path style="fill:#363636;" d="M337.207,761.514h-5.243c0.004,0.61,0.123,1.148,0.367,1.613c0.236,0.47,0.559,0.819,0.951,1.051
			c0.398,0.242,0.838,0.353,1.313,0.353c0.322,0,0.616-0.03,0.879-0.106c0.27-0.074,0.521-0.201,0.779-0.355
			c0.244-0.155,0.475-0.331,0.68-0.521c0.214-0.181,0.482-0.433,0.816-0.743c0.14-0.115,0.337-0.184,0.594-0.184
			c0.274,0,0.492,0.074,0.662,0.224c0.178,0.153,0.26,0.374,0.26,0.643c0,0.25-0.096,0.528-0.284,0.857
			c-0.19,0.326-0.48,0.637-0.864,0.932c-0.38,0.299-0.857,0.545-1.444,0.751c-0.573,0.192-1.247,0.29-1.997,0.29
			c-1.724,0-3.061-0.496-4.02-1.477c-0.951-0.982-1.435-2.313-1.435-4.003c0-0.796,0.12-1.532,0.354-2.21
			c0.232-0.678,0.584-1.266,1.033-1.745c0.453-0.489,1.006-0.86,1.668-1.126c0.66-0.256,1.396-0.374,2.204-0.374
			c1.042,0,1.948,0.214,2.693,0.659c0.751,0.441,1.314,1.013,1.692,1.714c0.371,0.699,0.553,1.421,0.553,2.148
			c0,0.675-0.195,1.119-0.58,1.313C338.457,761.414,337.915,761.514,337.207,761.514z M331.964,759.99h4.861
			c-0.065-0.923-0.311-1.601-0.743-2.059c-0.423-0.458-0.993-0.687-1.695-0.687c-0.665,0-1.212,0.229-1.646,0.69
			C332.318,758.399,332.056,759.082,331.964,759.99z"/>
		<path style="fill:#363636;" d="M349.033,764.778v-0.27c-0.366,0.421-0.716,0.753-1.067,1.01c-0.354,0.266-0.737,0.458-1.139,0.596
			c-0.41,0.132-0.857,0.202-1.344,0.202c-0.64,0-1.236-0.137-1.785-0.413c-0.547-0.266-1.017-0.657-1.418-1.165
			c-0.398-0.496-0.701-1.093-0.908-1.776c-0.211-0.684-0.311-1.424-0.311-2.216c0-1.679,0.411-2.987,1.225-3.928
			c0.826-0.938,1.908-1.406,3.238-1.406c0.773,0,1.426,0.136,1.951,0.398c0.531,0.27,1.051,0.679,1.558,1.22v-3.958
			c0-0.552,0.105-0.964,0.33-1.253c0.216-0.289,0.532-0.423,0.937-0.423c0.406,0,0.715,0.133,0.94,0.396
			c0.213,0.255,0.328,0.639,0.328,1.139v11.848c0,0.515-0.12,0.898-0.357,1.157c-0.234,0.251-0.545,0.381-0.912,0.381
			c-0.372,0-0.669-0.13-0.912-0.398C349.151,765.657,349.033,765.271,349.033,764.778z M343.757,760.836
			c0,0.723,0.114,1.348,0.336,1.856c0.228,0.516,0.54,0.896,0.931,1.158c0.394,0.26,0.821,0.393,1.286,0.393
			c0.472,0,0.904-0.133,1.293-0.373c0.382-0.244,0.697-0.617,0.93-1.127c0.235-0.516,0.353-1.146,0.353-1.906
			c0-0.718-0.118-1.332-0.353-1.842c-0.232-0.519-0.548-0.919-0.943-1.188c-0.393-0.274-0.829-0.407-1.299-0.407
			c-0.494,0-0.93,0.141-1.32,0.412c-0.386,0.282-0.683,0.692-0.893,1.214C343.861,759.539,343.757,760.146,343.757,760.836z"/>
		<path style="fill:#363636;" d="M361.768,752.931v4.1c0.505-0.514,1.019-0.921,1.539-1.196c0.532-0.286,1.175-0.422,1.949-0.422
			c0.887,0,1.673,0.216,2.342,0.634c0.671,0.421,1.192,1.037,1.558,1.851c0.378,0.795,0.56,1.745,0.56,2.85
			c0,0.813-0.107,1.56-0.307,2.237c-0.21,0.677-0.51,1.27-0.904,1.766c-0.391,0.497-0.869,0.889-1.432,1.154
			c-0.559,0.276-1.173,0.413-1.846,0.413c-0.422,0-0.803-0.051-1.168-0.146c-0.359-0.096-0.671-0.231-0.934-0.396
			c-0.25-0.161-0.465-0.323-0.65-0.49c-0.176-0.174-0.414-0.434-0.708-0.776v0.27c0,0.507-0.125,0.893-0.368,1.157
			c-0.236,0.251-0.543,0.381-0.925,0.381c-0.372,0-0.681-0.13-0.906-0.381c-0.228-0.265-0.339-0.65-0.339-1.157v-11.731
			c0-0.542,0.107-0.95,0.33-1.229c0.221-0.287,0.523-0.421,0.915-0.421c0.415,0,0.737,0.133,0.96,0.402
			C361.651,752.063,361.768,752.444,361.768,752.931z M361.895,760.912c0,1.071,0.243,1.893,0.734,2.466
			c0.482,0.575,1.121,0.864,1.918,0.864c0.67,0,1.254-0.296,1.74-0.88c0.496-0.593,0.736-1.434,0.736-2.526
			c0-0.716-0.103-1.318-0.305-1.834c-0.206-0.509-0.498-0.909-0.869-1.192c-0.369-0.271-0.808-0.412-1.303-0.412
			c-0.512,0-0.965,0.141-1.367,0.412c-0.395,0.282-0.717,0.692-0.949,1.219C362.009,759.563,361.895,760.19,361.895,760.912z"/>
		<path style="fill:#363636;" d="M374.077,766.646l0.243-0.6l-3.3-8.32c-0.2-0.483-0.304-0.82-0.304-1.044
			c0-0.224,0.064-0.443,0.181-0.643c0.114-0.196,0.271-0.349,0.482-0.468c0.211-0.119,0.42-0.177,0.645-0.177
			c0.391,0,0.677,0.124,0.873,0.359c0.197,0.254,0.373,0.607,0.52,1.064l2.275,6.614l2.147-6.15c0.174-0.5,0.334-0.891,0.463-1.173
			c0.135-0.275,0.29-0.468,0.442-0.569c0.151-0.094,0.365-0.144,0.653-0.144c0.198,0,0.395,0.055,0.58,0.159
			c0.191,0.113,0.336,0.256,0.432,0.441c0.109,0.184,0.155,0.376,0.155,0.578c-0.026,0.122-0.073,0.29-0.125,0.527
			c-0.06,0.231-0.137,0.469-0.218,0.704l-3.502,9.165c-0.307,0.813-0.594,1.445-0.888,1.899c-0.281,0.465-0.665,0.809-1.138,1.06
			c-0.479,0.241-1.12,0.369-1.924,0.369c-0.785,0-1.373-0.085-1.764-0.25c-0.396-0.176-0.592-0.486-0.592-0.938
			c0-0.308,0.088-0.544,0.277-0.713c0.188-0.174,0.463-0.251,0.832-0.251c0.143,0,0.282,0.021,0.42,0.057
			c0.172,0.042,0.315,0.054,0.447,0.054c0.303,0,0.55-0.04,0.725-0.131c0.18-0.093,0.333-0.252,0.472-0.482
			C373.73,767.421,373.897,767.086,374.077,766.646z"/>
		<path style="fill:#363636;" d="M423.713,755.628h0.639v-0.804c0-0.841,0.103-1.512,0.327-2c0.203-0.5,0.567-0.856,1.076-1.083
			c0.507-0.233,1.198-0.345,2.094-0.345c1.557,0,2.343,0.385,2.343,1.154c0,0.246-0.088,0.46-0.25,0.642
			c-0.164,0.178-0.354,0.266-0.574,0.266c-0.112,0-0.295-0.021-0.549-0.064c-0.25-0.037-0.469-0.055-0.642-0.055
			c-0.49,0-0.801,0.141-0.939,0.424c-0.136,0.293-0.205,0.699-0.205,1.222v0.643h0.663c1.022,0,1.53,0.311,1.53,0.935
			c0,0.433-0.13,0.708-0.408,0.832c-0.272,0.112-0.642,0.176-1.122,0.176h-0.663v7.113c0,0.525-0.125,0.931-0.373,1.213
			c-0.258,0.283-0.581,0.42-0.982,0.42c-0.377,0-0.697-0.137-0.954-0.42c-0.245-0.282-0.372-0.688-0.372-1.213v-7.113h-0.741
			c-0.398,0-0.7-0.089-0.915-0.278c-0.224-0.175-0.328-0.408-0.328-0.699C422.367,755.946,422.817,755.628,423.713,755.628z"/>
		<path style="fill:#363636;" d="M433.296,762.431v2.253c0,0.542-0.125,0.954-0.38,1.22c-0.261,0.276-0.585,0.413-0.977,0.413
			c-0.382,0-0.704-0.137-0.947-0.416c-0.257-0.272-0.38-0.684-0.38-1.217v-7.479c0-1.208,0.43-1.809,1.305-1.809
			c0.441,0,0.765,0.138,0.96,0.421c0.2,0.278,0.308,0.701,0.329,1.249c0.322-0.548,0.65-0.971,0.987-1.249
			c0.337-0.283,0.784-0.421,1.352-0.421c0.559,0,1.107,0.138,1.639,0.421c0.532,0.278,0.794,0.657,0.794,1.116
			c0,0.338-0.107,0.599-0.336,0.821c-0.226,0.205-0.467,0.311-0.734,0.311c-0.097,0-0.332-0.059-0.708-0.168
			c-0.376-0.134-0.705-0.193-1.006-0.193c-0.387,0-0.709,0.103-0.957,0.315c-0.252,0.202-0.438,0.511-0.583,0.917
			c-0.136,0.406-0.23,0.893-0.287,1.454C433.316,760.947,433.296,761.633,433.296,762.431z"/>
		<path style="fill:#363636;" d="M446.429,761.514h-5.247c0.014,0.61,0.131,1.148,0.373,1.613c0.235,0.47,0.551,0.819,0.952,1.051
			c0.394,0.242,0.829,0.353,1.308,0.353c0.322,0,0.618-0.03,0.883-0.106c0.268-0.074,0.518-0.201,0.77-0.355
			c0.256-0.155,0.477-0.331,0.685-0.521c0.214-0.181,0.488-0.433,0.824-0.743c0.136-0.115,0.335-0.184,0.59-0.184
			c0.273,0,0.495,0.074,0.662,0.224c0.163,0.153,0.257,0.374,0.257,0.643c0,0.25-0.094,0.528-0.284,0.857
			c-0.194,0.326-0.482,0.637-0.855,0.932c-0.384,0.299-0.871,0.545-1.451,0.751c-0.581,0.192-1.248,0.29-1.998,0.29
			c-1.729,0-3.064-0.496-4.021-1.477c-0.956-0.982-1.435-2.313-1.435-4.003c0-0.796,0.12-1.532,0.359-2.21
			c0.23-0.678,0.572-1.266,1.027-1.745c0.451-0.489,1.01-0.86,1.676-1.126c0.652-0.256,1.388-0.374,2.201-0.374
			c1.045,0,1.933,0.214,2.689,0.659c0.753,0.441,1.315,1.013,1.688,1.714c0.37,0.699,0.563,1.421,0.563,2.148
			c0,0.675-0.193,1.119-0.584,1.313C447.671,761.414,447.139,761.514,446.429,761.514z M441.182,759.99h4.867
			c-0.071-0.923-0.305-1.601-0.734-2.059c-0.439-0.458-1.003-0.687-1.702-0.687c-0.674,0-1.215,0.229-1.65,0.69
			C441.537,758.399,441.28,759.082,441.182,759.99z"/>
		<path style="fill:#363636;" d="M458.391,761.514h-5.25c0.011,0.61,0.131,1.148,0.369,1.613c0.239,0.47,0.561,0.819,0.952,1.051
			c0.397,0.242,0.836,0.353,1.313,0.353c0.322,0,0.605-0.03,0.876-0.106c0.266-0.074,0.532-0.201,0.772-0.355
			c0.247-0.155,0.478-0.331,0.686-0.521c0.211-0.181,0.493-0.433,0.821-0.743c0.14-0.115,0.331-0.184,0.59-0.184
			c0.274,0,0.498,0.074,0.666,0.224c0.169,0.153,0.252,0.374,0.252,0.643c0,0.25-0.093,0.528-0.277,0.857
			c-0.193,0.326-0.48,0.637-0.866,0.932c-0.381,0.299-0.862,0.545-1.44,0.751c-0.582,0.192-1.25,0.29-1.999,0.29
			c-1.721,0-3.064-0.496-4.019-1.477c-0.958-0.982-1.435-2.313-1.435-4.003c0-0.796,0.121-1.532,0.351-2.21
			c0.235-0.678,0.579-1.266,1.031-1.745c0.454-0.489,1.008-0.86,1.675-1.126c0.662-0.256,1.394-0.374,2.197-0.374
			c1.046,0,1.949,0.214,2.701,0.659c0.746,0.441,1.309,1.013,1.686,1.714c0.374,0.699,0.556,1.421,0.556,2.148
			c0,0.675-0.191,1.119-0.581,1.313C459.632,761.414,459.093,761.514,458.391,761.514z M453.141,759.99h4.86
			c-0.065-0.923-0.314-1.601-0.738-2.059c-0.431-0.458-0.99-0.687-1.691-0.687c-0.671,0-1.216,0.229-1.65,0.69
			C453.502,758.399,453.227,759.082,453.141,759.99z"/>
		<path style="fill:#363636;" d="M465.07,756.906v0.31c0.512-0.618,1.032-1.077,1.572-1.365c0.545-0.297,1.158-0.44,1.85-0.44
			c0.824,0,1.581,0.216,2.279,0.639c0.693,0.43,1.239,1.051,1.647,1.867c0.398,0.815,0.6,1.789,0.6,2.918
			c0,0.822-0.119,1.579-0.353,2.273c-0.228,0.693-0.548,1.275-0.957,1.742c-0.402,0.47-0.88,0.833-1.431,1.088
			c-0.556,0.25-1.151,0.377-1.786,0.377c-0.768,0-1.412-0.158-1.932-0.463c-0.526-0.31-1.022-0.763-1.49-1.354v4.027
			c0,1.179-0.436,1.772-1.28,1.772c-0.513,0-0.845-0.152-1.01-0.453c-0.166-0.309-0.241-0.757-0.241-1.335v-11.593
			c0-0.513,0.11-0.898,0.33-1.144c0.221-0.255,0.526-0.379,0.921-0.379c0.377,0,0.683,0.124,0.92,0.388
			C464.954,756.04,465.07,756.417,465.07,756.906z M470.328,760.807c0-0.709-0.106-1.32-0.326-1.824
			c-0.217-0.513-0.515-0.907-0.897-1.177c-0.38-0.274-0.806-0.407-1.277-0.407c-0.73,0-1.355,0.291-1.871,0.884
			c-0.503,0.581-0.762,1.442-0.762,2.573c0,1.063,0.253,1.896,0.762,2.493c0.5,0.598,1.127,0.894,1.871,0.894
			c0.456,0,0.863-0.133,1.236-0.393c0.388-0.262,0.691-0.643,0.919-1.16C470.208,762.161,470.328,761.538,470.328,760.807z"/>
		<path style="fill:#363636;" d="M476.537,754.148c-0.383,0-0.707-0.124-0.966-0.345c-0.261-0.233-0.398-0.558-0.398-0.978
			c0-0.382,0.138-0.698,0.411-0.944c0.263-0.24,0.584-0.366,0.953-0.366c0.338,0,0.648,0.112,0.916,0.335
			c0.266,0.227,0.402,0.552,0.402,0.976c0,0.415-0.131,0.735-0.396,0.974C477.198,754.024,476.883,754.148,476.537,754.148z
			 M477.855,756.918v7.766c0,0.533-0.131,0.944-0.389,1.217c-0.252,0.279-0.569,0.416-0.971,0.416c-0.394,0-0.712-0.137-0.952-0.424
			c-0.245-0.282-0.371-0.686-0.371-1.209v-7.687c0-0.53,0.126-0.935,0.371-1.194c0.24-0.274,0.559-0.407,0.952-0.407
			c0.401,0,0.719,0.133,0.971,0.407C477.725,756.063,477.855,756.435,477.855,756.918z"/>
		<path style="fill:#363636;" d="M487.308,765.086l-2.373-3.899l-1.455,1.382v2.134c0,0.515-0.124,0.912-0.397,1.194
			c-0.279,0.283-0.598,0.42-0.938,0.42c-0.422,0-0.738-0.137-0.975-0.416c-0.245-0.272-0.356-0.684-0.356-1.217v-11.452
			c0-0.598,0.109-1.052,0.336-1.361c0.236-0.317,0.565-0.474,0.995-0.474c0.411,0,0.734,0.134,0.978,0.423
			c0.241,0.289,0.357,0.701,0.357,1.253v6.514l3.023-3.169c0.376-0.396,0.655-0.666,0.85-0.807c0.197-0.148,0.438-0.215,0.719-0.215
			c0.337,0,0.612,0.101,0.841,0.322c0.219,0.209,0.33,0.477,0.33,0.8c0,0.395-0.364,0.916-1.091,1.571l-1.427,1.309l2.751,4.33
			c0.212,0.325,0.352,0.565,0.444,0.732c0.079,0.164,0.129,0.329,0.129,0.475c0,0.429-0.115,0.763-0.348,1.017
			c-0.233,0.238-0.548,0.365-0.921,0.365c-0.331,0-0.575-0.093-0.76-0.27C487.845,765.873,487.609,765.551,487.308,765.086z"/>
		<path style="fill:#363636;" d="M493.938,766.316c-0.403,0-0.756-0.13-1.048-0.398c-0.298-0.258-0.452-0.625-0.452-1.099
			c0-0.399,0.147-0.744,0.427-1.032c0.284-0.287,0.639-0.435,1.042-0.435c0.413,0,0.767,0.148,1.06,0.429
			c0.29,0.288,0.438,0.63,0.438,1.039c0,0.466-0.148,0.838-0.438,1.099C494.674,766.187,494.336,766.316,493.938,766.316z"/>
		<path style="fill:#363636;" d="M508.079,762.987c0,0.335-0.098,0.69-0.301,1.07c-0.2,0.391-0.505,0.746-0.908,1.092
			c-0.41,0.344-0.934,0.624-1.551,0.827c-0.624,0.213-1.329,0.318-2.103,0.318c-1.657,0-2.951-0.483-3.88-1.453
			c-0.929-0.965-1.398-2.263-1.398-3.889c0-1.103,0.215-2.081,0.641-2.925c0.421-0.845,1.043-1.498,1.853-1.959
			c0.804-0.461,1.762-0.688,2.885-0.688c0.691,0,1.325,0.097,1.905,0.305c0.585,0.195,1.075,0.454,1.48,0.781
			c0.402,0.318,0.705,0.66,0.919,1.025c0.215,0.37,0.319,0.705,0.319,1.022c0,0.327-0.118,0.597-0.362,0.815
			c-0.234,0.224-0.525,0.332-0.865,0.332c-0.223,0-0.414-0.059-0.556-0.168c-0.152-0.115-0.31-0.298-0.494-0.558
			c-0.325-0.498-0.669-0.877-1.028-1.125c-0.358-0.246-0.814-0.368-1.359-0.368c-0.788,0-1.428,0.312-1.918,0.927
			c-0.482,0.625-0.729,1.466-0.729,2.543c0,0.508,0.062,0.973,0.194,1.394c0.116,0.42,0.303,0.781,0.534,1.09
			c0.232,0.287,0.524,0.523,0.854,0.673c0.332,0.154,0.706,0.228,1.104,0.228c0.532,0,0.994-0.127,1.379-0.367
			c0.381-0.264,0.718-0.631,1.016-1.149c0.169-0.298,0.342-0.537,0.531-0.698c0.19-0.178,0.419-0.259,0.694-0.259
			c0.334,0,0.597,0.113,0.815,0.369C507.968,762.447,508.079,762.707,508.079,762.987z"/>
		<path style="fill:#363636;" d="M520.459,760.856c0,0.791-0.116,1.532-0.374,2.206c-0.245,0.681-0.608,1.262-1.081,1.742
			c-0.469,0.489-1.027,0.867-1.688,1.132c-0.658,0.251-1.396,0.381-2.215,0.381c-0.804,0-1.535-0.13-2.187-0.398
			c-0.642-0.258-1.213-0.633-1.691-1.117c-0.465-0.498-0.833-1.072-1.075-1.739c-0.243-0.661-0.368-1.403-0.368-2.206
			c0-0.816,0.125-1.552,0.38-2.241c0.244-0.666,0.599-1.249,1.059-1.727c0.472-0.481,1.036-0.848,1.696-1.104
			c0.663-0.264,1.387-0.388,2.187-0.388c0.819,0,1.55,0.133,2.215,0.393c0.663,0.258,1.227,0.636,1.699,1.124
			c0.476,0.482,0.826,1.057,1.069,1.729C520.343,759.312,520.459,760.051,520.459,760.856z M517.768,760.856
			c0-1.099-0.244-1.949-0.727-2.562c-0.476-0.605-1.12-0.914-1.939-0.914c-0.52,0-0.981,0.133-1.387,0.403
			c-0.394,0.275-0.704,0.682-0.923,1.211c-0.214,0.531-0.32,1.152-0.32,1.861c0,0.702,0.106,1.313,0.32,1.836
			c0.212,0.528,0.519,0.923,0.913,1.204c0.398,0.282,0.861,0.413,1.396,0.413c0.819,0,1.464-0.294,1.939-0.906
			C517.523,762.78,517.768,761.929,517.768,760.856z"/>
		<path style="fill:#363636;" d="M531.495,761.048v3.575c0,0.565-0.128,0.987-0.378,1.27c-0.262,0.287-0.6,0.424-1.019,0.424
			c-0.405,0-0.735-0.137-0.987-0.424c-0.251-0.282-0.385-0.705-0.385-1.27v-4.281c0-0.681-0.019-1.191-0.06-1.575
			c-0.046-0.371-0.171-0.683-0.378-0.918c-0.203-0.242-0.52-0.356-0.963-0.356c-0.872,0-1.455,0.298-1.73,0.903
			c-0.275,0.604-0.419,1.469-0.419,2.593v3.635c0,0.558-0.123,0.978-0.381,1.264c-0.253,0.284-0.585,0.43-0.995,0.43
			c-0.402,0-0.732-0.146-0.999-0.43c-0.258-0.286-0.388-0.706-0.388-1.264v-7.69c0-0.498,0.112-0.887,0.347-1.145
			c0.241-0.26,0.544-0.393,0.915-0.393c0.378,0,0.684,0.124,0.92,0.359c0.255,0.254,0.373,0.598,0.373,1.027v0.248
			c0.465-0.55,0.964-0.961,1.499-1.224c0.523-0.259,1.117-0.394,1.762-0.394c0.681,0,1.257,0.136,1.739,0.404
			c0.49,0.268,0.887,0.678,1.203,1.214c0.448-0.541,0.938-0.95,1.457-1.22c0.512-0.263,1.088-0.398,1.714-0.398
			c0.735,0,1.369,0.143,1.897,0.432c0.534,0.296,0.924,0.707,1.186,1.239c0.237,0.487,0.349,1.25,0.349,2.295v5.245
			c0,0.565-0.135,0.987-0.39,1.27c-0.248,0.287-0.583,0.424-1.004,0.424c-0.4,0-0.742-0.146-0.995-0.43
			c-0.267-0.286-0.392-0.706-0.392-1.264v-4.521c0-0.573-0.022-1.035-0.075-1.389c-0.057-0.345-0.18-0.639-0.393-0.869
			c-0.221-0.238-0.549-0.353-0.986-0.353c-0.357,0-0.685,0.106-1.004,0.314c-0.314,0.2-0.571,0.488-0.749,0.852
			C531.591,759.1,531.495,759.901,531.495,761.048z"/>
		<path style="fill:#363636;" d="M402.574,748.467c-0.053-0.168-0.106-0.345-0.162-0.512c0.892-0.085,1.501-1.17,1.065-1.97
			c-0.406-0.902-1.793-1.013-2.328-0.186c-0.571,0.735-0.124,1.892,0.749,2.126c0.062,0.179,0.105,0.373,0.163,0.554
			c-1.348,0.097-2.723,0.393-3.864,1.165c0.121,0.32,0.236,0.662,0.354,0.987c2.292-1.003,4.843-0.785,7.259-0.545
			c0.085-0.316,0.162-0.638,0.242-0.959C404.958,748.643,403.763,748.46,402.574,748.467z"/>
		<path style="fill:#363636;" d="M416.172,752.162c-0.36,0.182-0.429,0.626-0.412,0.988c-0.402,0.387-0.206,0.986-0.248,1.471
			c-0.093,0.277-0.423,0.31-0.65,0.416c-0.318-0.49-0.651-0.949-1.083-1.345l0.01-0.022c-0.465-0.429-0.964-0.824-1.487-1.168
			c-0.42,0.45-0.864,0.901-1.27,1.369c0.805,0.884,1.548,1.847,2.203,2.843c0.457,0.763,0.817,1.574,1.136,2.405
			c0.678-0.352,1.351-0.718,2.032-1.073c-0.361-0.829-0.77-1.641-1.205-2.435c0.298-0.16,0.703-0.317,0.747-0.712
			c0.035-0.435-0.055-0.905,0.196-1.289c0.529,0.342,1.326-0.039,1.333-0.679C417.545,752.265,416.714,751.792,416.172,752.162z"/>
		<path style="fill:#363636;" d="M412.494,757.102c-0.886-1.471-1.842-2.936-3.147-4.066c-1.498-1.328-3.453-2.223-5.485-2.214
			c-2.559-0.022-5.157,0.381-7.515,1.415c-2.226,0.978-4.162,2.731-5.138,4.98c-0.945,2.023-0.93,4.361-0.506,6.521
			c2.358,0.586,4.757,1.109,7.184,1.22c2.404,0.078,4.811,0.134,7.198-0.194c3.273-0.44,6.485-1.468,9.343-3.15
			C414.428,761.612,414.031,759.456,412.494,757.102z M400.913,760.013c-0.447,0.644-1.087,1.143-1.818,1.423
			c-1.381,0.514-3.056,0.161-4.049-0.938c-0.691-0.763-1.101-1.786-1.029-2.828c0.057-1.294,0.857-2.502,1.993-3.107
			c0.86-0.463,1.901-0.548,2.851-0.281c0.393,0.096,0.753,0.281,1.093,0.506c0.704,0.493,1.222,1.223,1.459,2.055
			C401.733,757.903,401.525,759.09,400.913,760.013z M410.844,757.67c-0.162,1.112-1.221,2.043-2.35,1.972
			c-0.653,0.058-1.282-0.25-1.728-0.715c-0.317-0.398-0.578-0.852-0.624-1.377c-0.157-1.119,0.637-2.282,1.735-2.55
			c0.481-0.134,0.992-0.059,1.47,0.058C410.375,755.418,411.051,756.593,410.844,757.67z"/>
		<path style="fill:#363636;" d="M391.237,753.816c-0.958,0.581-1.745,1.396-2.402,2.293c-0.193-0.358-0.249-0.783-0.498-1.1
			c-0.143-0.191-0.399-0.111-0.597-0.111c-0.256,0.022-0.501-0.047-0.743-0.118c0.284-0.392,0.208-1-0.22-1.265
			c-0.459-0.323-1.171-0.041-1.295,0.509c-0.19,0.597,0.444,1.2,1.031,1.041c0.313,0.463,0.878,0.388,1.356,0.401
			c0.214,0.377,0.379,0.787,0.656,1.126c-0.516,1.014-0.807,2.149-0.833,3.285c0.664,0.278,1.327,0.558,1.984,0.838
			c0.03-0.726,0.117-1.438,0.223-2.138c0.22-1.548,1.11-2.883,2.168-3.983C391.806,754.317,391.512,754.075,391.237,753.816z"/>
		<path style="fill:#363636;" d="M406.649,765.434c-2.432,0.533-4.934,0.688-7.417,0.58c-1.68-0.078-3.361-0.24-4.999-0.605
			c-1.164-0.237-2.306-0.576-3.455-0.905c0.186,1.464,0.778,2.863,1.622,4.072c0.997,1.403,2.332,2.687,3.988,3.208
			c1.29,0.355,2.831,0.794,5.493,0.747c2.196-0.033,4.354-0.315,6.277-1.142c1.245-0.532,2.404-1.258,3.411-2.174
			c0.865-0.817,1.546-1.836,2.008-2.926c0.453-1.036,0.863-2.887,0.819-3.842C412.019,763.803,409.363,764.981,406.649,765.434z"/>
	</g>
	<g>
		<g>
			<path style="fill:#FFFFFF;" d="M488.493,652.934c0.176,13.369-33.846,24.66-82.07,25.296
				c-48.226,0.635-83.671-11.463-83.848-24.832c-0.176-13.372,34.983-22.953,83.21-23.588
				C454.01,629.174,488.317,639.563,488.493,652.934z"/>
			<path style="fill:#FDFDFD;" d="M488.393,652.894c0.176,13.347-33.828,24.619-81.972,25.254
				c-48.144,0.633-83.56-11.43-83.735-24.776c-0.176-13.349,34.955-22.928,83.1-23.562
				C453.928,629.175,488.218,639.546,488.393,652.894z"/>
			<path style="fill:#FBFBFB;" d="M488.293,652.854c0.175,13.324-33.812,24.578-81.872,25.211
				c-48.063,0.633-83.45-11.395-83.626-24.719c-0.175-13.326,34.927-22.903,82.99-23.536
				C453.846,629.176,488.117,639.528,488.293,652.854z"/>
			<path style="fill:#FAF9F9;" d="M488.192,652.815c0.175,13.301-33.794,24.535-81.773,25.168
				c-47.979,0.632-83.337-11.36-83.513-24.662c-0.175-13.304,34.898-22.879,82.879-23.511
				C453.764,629.177,488.018,639.511,488.192,652.815z"/>
			<path style="fill:#F8F8F7;" d="M488.092,652.773c0.175,13.279-33.777,24.495-81.673,25.127
				c-47.899,0.63-83.227-11.327-83.402-24.605c-0.175-13.281,34.87-22.854,82.769-23.485
				C453.682,629.179,487.917,639.494,488.092,652.773z"/>
			<path style="fill:#F6F6F5;" d="M487.992,652.734c0.175,13.255-33.76,24.453-81.575,25.083
				c-47.815,0.63-83.115-11.293-83.29-24.548c-0.175-13.258,34.842-22.831,82.658-23.46
				C453.6,629.18,487.817,639.477,487.992,652.734z"/>
			<path style="fill:#F4F4F4;" d="M487.892,652.694c0.174,13.233-33.742,24.412-81.476,25.041
				c-47.734,0.628-83.004-11.259-83.179-24.491c-0.174-13.235,34.813-22.807,82.548-23.435
				C453.518,629.181,487.718,639.46,487.892,652.694z"/>
			<path style="fill:#F2F2F2;" d="M487.792,652.655c0.174,13.21-33.727,24.37-81.377,24.998
				c-47.652,0.627-82.893-11.225-83.067-24.435c-0.174-13.213,34.784-22.782,82.437-23.409
				C453.436,629.182,487.618,639.442,487.792,652.655z"/>
			<path style="fill:#F1F0F0;" d="M487.691,652.614c0.174,13.188-33.708,24.33-81.277,24.957
				c-47.57,0.626-82.782-11.191-82.956-24.378c-0.174-13.19,34.756-22.758,82.327-23.384
				C453.353,629.183,487.519,639.426,487.691,652.614z"/>
			<path style="fill:#EFEEEE;" d="M487.592,652.575c0.173,13.165-33.692,24.287-81.179,24.913
				c-47.488,0.625-82.671-11.156-82.845-24.321c-0.173-13.167,34.729-22.732,82.217-23.357
				C453.272,629.184,487.418,639.408,487.592,652.575z"/>
			<path style="fill:#EDECEC;" d="M487.491,652.535c0.173,13.142-33.675,24.246-81.079,24.871
				c-47.406,0.624-82.56-11.122-82.733-24.265c-0.173-13.145,34.699-22.708,82.106-23.332
				C453.189,629.185,487.318,639.392,487.491,652.535z"/>
			<path style="fill:#EBEBEA;" d="M487.391,652.495c0.173,13.119-33.657,24.205-80.979,24.829
				c-47.324,0.623-82.449-11.089-82.622-24.208c-0.172-13.122,34.671-22.684,81.996-23.307
				C453.108,629.185,487.219,639.374,487.391,652.495z"/>
			<path style="fill:#E9E9E8;" d="M487.291,652.455c0.172,13.097-33.641,24.164-80.881,24.786
				c-47.243,0.622-82.338-11.054-82.51-24.15c-0.173-13.1,34.643-22.659,81.885-23.281
				C453.026,629.187,487.119,639.356,487.291,652.455z"/>
			<path style="fill:#E7E7E6;" d="M487.19,652.415c0.172,13.074-33.623,24.123-80.781,24.744
				c-47.16,0.621-82.227-11.021-82.399-24.094c-0.172-13.076,34.614-22.635,81.775-23.256
				C452.944,629.188,487.019,639.34,487.19,652.415z"/>
			<path style="fill:#E6E5E4;" d="M487.091,652.375c0.171,13.052-33.606,24.082-80.683,24.702
				c-47.079,0.619-82.116-10.987-82.288-24.037c-0.171-13.055,34.586-22.61,81.665-23.23
				C452.862,629.188,486.919,639.322,487.091,652.375z"/>
			<path style="fill:#E4E3E2;" d="M486.99,652.336c0.171,13.028-33.589,24.039-80.583,24.659
				c-46.997,0.618-82.004-10.953-82.176-23.981c-0.172-13.03,34.558-22.586,81.554-23.204
				C452.78,629.19,486.819,639.306,486.99,652.336z"/>
			<path style="fill:#E2E1E0;" d="M486.89,652.296c0.172,13.006-33.571,23.998-80.483,24.616
				c-46.915,0.618-81.894-10.918-82.065-23.924c-0.171-13.009,34.529-22.561,81.444-23.179
				C452.698,629.191,486.719,639.288,486.89,652.296z"/>
			<path style="fill:#E0E0DF;" d="M486.79,652.256c0.171,12.983-33.555,23.957-80.386,24.574
				c-46.832,0.616-81.781-10.885-81.953-23.867c-0.171-12.985,34.5-22.537,81.333-23.153
				C452.616,629.192,486.619,639.271,486.79,652.256z"/>
			<path style="fill:#DEDEDD;" d="M486.69,652.216c0.17,12.961-33.538,23.916-80.287,24.532c-46.75,0.615-81.67-10.85-81.841-23.81
				c-0.171-12.963,34.473-22.513,81.223-23.128C452.534,629.193,486.52,639.254,486.69,652.216z"/>
			<path style="fill:#DDDCDB;" d="M486.59,652.176c0.17,12.939-33.521,23.875-80.188,24.49
				c-46.668,0.614-81.559-10.817-81.729-23.754c-0.171-12.94,34.444-22.488,81.112-23.103
				C452.452,629.194,486.419,639.237,486.59,652.176z"/>
			<path style="fill:#DBDAD9;" d="M486.489,652.137c0.17,12.915-33.503,23.833-80.088,24.446
				c-46.587,0.613-81.448-10.782-81.618-23.697c-0.171-12.917,34.415-22.463,81.002-23.076
				C452.37,629.195,486.319,639.22,486.489,652.137z"/>
			<path style="fill:#D9D8D7;" d="M486.39,652.097c0.169,12.893-33.486,23.791-79.989,24.404
				c-46.504,0.612-81.337-10.748-81.507-23.641c-0.17-12.895,34.387-22.439,80.892-23.051
				C452.288,629.196,486.22,639.203,486.39,652.097z"/>
			<path style="fill:#D7D6D5;" d="M486.289,652.057c0.17,12.87-33.47,23.75-79.89,24.362c-46.423,0.611-81.227-10.715-81.395-23.584
				c-0.17-12.872,34.359-22.414,80.781-23.025C452.206,629.197,486.119,639.185,486.289,652.057z"/>
			<path style="fill:#D5D4D3;" d="M486.188,652.017c0.169,12.848-33.451,23.709-79.79,24.32
				c-46.341,0.609-81.115-10.681-81.284-23.527c-0.169-12.85,34.33-22.391,80.671-23
				C452.125,629.198,486.02,639.169,486.188,652.017z"/>
			<path style="fill:#D4D3D1;" d="M486.089,651.977c0.169,12.825-33.435,23.667-79.692,24.277
				c-46.258,0.609-81.003-10.646-81.172-23.47c-0.169-12.827,34.302-22.365,80.561-22.975
				C452.042,629.199,485.92,639.151,486.089,651.977z"/>
			<path style="fill:#D2D1CF;" d="M485.988,651.938c0.169,12.802-33.418,23.626-79.592,24.233
				c-46.177,0.609-80.893-10.611-81.061-23.412c-0.169-12.805,34.273-22.342,80.45-22.949
				C451.961,629.2,485.82,639.135,485.988,651.938z"/>
			<path style="fill:#D0CFCD;" d="M485.888,651.898c0.169,12.779-33.4,23.584-79.493,24.191
				c-46.094,0.607-80.781-10.578-80.949-23.357c-0.169-12.781,34.245-22.316,80.34-22.923
				C451.878,629.202,485.72,639.117,485.888,651.898z"/>
			<path style="fill:#CECDCB;" d="M485.788,651.857c0.168,12.756-33.383,23.543-79.395,24.149
				c-46.012,0.606-80.67-10.545-80.838-23.3c-0.168-12.758,34.217-22.292,80.229-22.897
				C451.797,629.203,485.62,639.101,485.788,651.857z"/>
			<path style="fill:#CCCBC9;" d="M485.688,651.817c0.167,12.733-33.367,23.502-79.296,24.107
				c-45.931,0.604-80.559-10.511-80.727-23.243c-0.168-12.735,34.189-22.267,80.119-22.872
				C451.714,629.204,485.52,639.083,485.688,651.817z"/>
			<path style="fill:#CAC9C8;" d="M485.588,651.777c0.167,12.712-33.349,23.461-79.196,24.065
				c-45.848,0.604-80.448-10.477-80.615-23.186c-0.168-12.713,34.16-22.243,80.009-22.847
				C451.633,629.205,485.421,639.065,485.588,651.777z"/>
			<path style="fill:#C9C7C6;" d="M485.487,651.738c0.168,12.688-33.332,23.419-79.097,24.022
				c-45.767,0.602-80.337-10.443-80.504-23.131c-0.168-12.689,34.132-22.219,79.898-22.82
				C451.55,629.206,485.32,639.049,485.487,651.738z"/>
			<path style="fill:#C7C6C4;" d="M485.388,651.698c0.166,12.665-33.315,23.377-78.998,23.979
				c-45.685,0.602-80.225-10.408-80.392-23.073c-0.167-12.667,34.103-22.193,79.788-22.795
				C451.469,629.207,485.221,639.031,485.388,651.698z"/>
			<path style="fill:#C5C4C2;" d="M485.287,651.658c0.167,12.643-33.298,23.336-78.898,23.938
				c-45.603,0.601-80.115-10.374-80.281-23.017c-0.167-12.645,34.075-22.17,79.678-22.77
				C451.387,629.208,485.12,639.015,485.287,651.658z"/>
			<path style="fill:#C3C2C0;" d="M485.186,651.618c0.167,12.62-33.28,23.295-78.799,23.894c-45.521,0.6-80.004-10.34-80.17-22.959
				c-0.167-12.622,34.047-22.145,79.567-22.744C451.305,629.21,485.02,638.997,485.186,651.618z"/>
			<path style="fill:#C1C0BE;" d="M485.087,651.578c0.166,12.598-33.264,23.254-78.701,23.853
				c-45.438,0.599-79.892-10.306-80.058-22.902c-0.166-12.6,34.018-22.121,79.457-22.719
				C451.223,629.21,484.921,638.981,485.087,651.578z"/>
			<path style="fill:#C0BEBC;" d="M484.986,651.539c0.166,12.574-33.246,23.212-78.601,23.809
				c-45.357,0.598-79.782-10.272-79.947-22.846c-0.166-12.576,33.99-22.097,79.346-22.693
				C451.141,629.212,484.821,638.963,484.986,651.539z"/>
			<path style="fill:#BEBCBA;" d="M484.886,651.499c0.166,12.552-33.228,23.171-78.502,23.768
				c-45.274,0.596-79.669-10.238-79.835-22.789c-0.165-12.555,33.962-22.072,79.236-22.668
				C451.059,629.212,484.722,638.946,484.886,651.499z"/>
			<path style="fill:#BCBAB8;" d="M484.786,651.459c0.165,12.529-33.212,23.129-78.402,23.725
				c-45.193,0.596-79.56-10.204-79.725-22.732c-0.165-12.53,33.933-22.047,79.126-22.642
				C450.977,629.214,484.621,638.929,484.786,651.459z"/>
			<path style="fill:#BAB9B6;" d="M484.686,651.419c0.164,12.507-33.195,23.088-78.305,23.683
				c-45.11,0.594-79.447-10.17-79.612-22.676c-0.165-12.508,33.905-22.022,79.015-22.616
				C450.895,629.215,484.52,638.912,484.686,651.419z"/>
			<path style="fill:#B8B7B4;" d="M484.586,651.379c0.164,12.484-33.178,23.047-78.205,23.641
				c-45.028,0.593-79.336-10.137-79.501-22.619c-0.164-12.485,33.877-21.998,78.905-22.591
				C450.813,629.216,484.421,638.894,484.586,651.379z"/>
			<path style="fill:#B7B5B3;" d="M484.485,651.34c0.164,12.46-33.16,23.005-78.105,23.598
				c-44.946,0.592-79.226-10.102-79.389-22.563c-0.164-12.463,33.848-21.974,78.794-22.565
				C450.731,629.217,484.321,638.878,484.485,651.34z"/>
			<path style="fill:#B5B3B1;" d="M484.386,651.3c0.164,12.438-33.145,22.964-78.007,23.555
				c-44.865,0.591-79.114-10.068-79.278-22.506c-0.165-12.439,33.82-21.949,78.684-22.539
				C450.648,629.218,484.222,638.86,484.386,651.3z"/>
			<path style="fill:#B3B1AF;" d="M484.285,651.26c0.164,12.415-33.126,22.923-77.907,23.513
				c-44.783,0.59-79.003-10.034-79.167-22.449c-0.164-12.417,33.791-21.925,78.574-22.514
				C450.567,629.219,484.122,638.843,484.285,651.26z"/>
			<path style="fill:#B1AFAD;" d="M484.185,651.22c0.163,12.393-33.11,22.881-77.809,23.471c-44.7,0.588-78.892-10-79.054-22.393
				c-0.164-12.395,33.763-21.9,78.463-22.488C450.484,629.22,484.021,638.826,484.185,651.22z"/>
			<path style="fill:#AFAEAB;" d="M484.085,651.18c0.163,12.37-33.092,22.84-77.709,23.428
				c-44.619,0.588-78.781-9.966-78.943-22.335c-0.164-12.372,33.734-21.876,78.353-22.463
				C450.403,629.222,483.922,638.81,484.085,651.18z"/>
			<path style="fill:#ADACA9;" d="M483.984,651.14c0.163,12.348-33.075,22.799-77.61,23.386
				c-44.536,0.587-78.669-9.933-78.832-22.279c-0.163-12.349,33.706-21.851,78.243-22.437
				C450.321,629.222,483.822,638.792,483.984,651.14z"/>
			<path style="fill:#ACAAA7;" d="M483.885,651.101c0.162,12.324-33.059,22.757-77.511,23.343
				c-44.455,0.585-78.559-9.898-78.721-22.223c-0.163-12.325,33.677-21.826,78.132-22.411
				C450.239,629.224,483.722,638.774,483.885,651.101z"/>
			<path style="fill:#AAA8A5;" d="M483.784,651.06c0.162,12.302-33.041,22.716-77.412,23.3
				c-44.372,0.585-78.447-9.863-78.608-22.165c-0.163-12.304,33.648-21.802,78.021-22.386
				C450.157,629.224,483.622,638.758,483.784,651.06z"/>
			<path style="fill:#A8A6A3;" d="M483.685,651.021c0.161,12.279-33.024,22.674-77.314,23.258
				c-44.29,0.583-78.336-9.83-78.498-22.108c-0.162-12.28,33.621-21.777,77.912-22.36
				C450.075,629.226,483.522,638.74,483.685,651.021z"/>
			<path style="fill:#A6A4A1;" d="M483.584,650.981c0.161,12.257-33.007,22.633-77.214,23.216
				c-44.208,0.582-78.225-9.797-78.386-22.053c-0.162-12.257,33.592-21.752,77.801-22.334
				C449.993,629.227,483.422,638.724,483.584,650.981z"/>
			<path style="fill:#A4A29F;" d="M483.483,650.94c0.162,12.234-32.989,22.592-77.114,23.174
				c-44.127,0.581-78.114-9.763-78.274-21.996c-0.162-12.234,33.564-21.729,77.69-22.309
				C449.911,629.227,483.322,638.706,483.483,650.94z"/>
			<path style="fill:#A3A19E;" d="M483.384,650.901c0.16,12.211-32.973,22.55-77.016,23.131
				c-44.045,0.579-78.003-9.729-78.163-21.939c-0.161-12.212,33.535-21.703,77.58-22.283
				C449.829,629.229,483.223,638.69,483.384,650.901z"/>
			<path style="fill:#A19F9C;" d="M483.283,650.861c0.161,12.188-32.955,22.509-76.916,23.088
				c-43.963,0.579-77.892-9.694-78.052-21.882c-0.161-12.189,33.507-21.68,77.47-22.258
				C449.747,629.229,483.122,638.672,483.283,650.861z"/>
			<path style="fill:#9F9D9A;" d="M483.183,650.821c0.161,12.166-32.938,22.467-76.816,23.046
				c-43.881,0.578-77.78-9.66-77.94-21.825c-0.161-12.167,33.479-21.655,77.359-22.232
				C449.665,629.231,483.022,638.655,483.183,650.821z"/>
			<path style="fill:#9D9B98;" d="M483.083,650.781c0.16,12.143-32.922,22.427-76.718,23.003
				c-43.799,0.577-77.67-9.626-77.829-21.768c-0.16-12.145,33.45-21.631,77.249-22.207
				C449.583,629.231,482.923,638.638,483.083,650.781z"/>
			<path style="fill:#9B9996;" d="M482.982,650.741c0.16,12.121-32.903,22.385-76.618,22.961
				c-43.717,0.576-77.559-9.592-77.718-21.711c-0.16-12.122,33.422-21.606,77.139-22.182
				C449.501,629.232,482.823,638.62,482.982,650.741z"/>
			<path style="fill:#9A9794;" d="M482.883,650.702c0.159,12.098-32.887,22.343-76.52,22.918
				c-43.635,0.574-77.446-9.558-77.605-21.654c-0.16-12.1,33.394-21.582,77.028-22.156
				C449.419,629.233,482.723,638.604,482.883,650.702z"/>
			<path style="fill:#989592;" d="M482.782,650.662c0.16,12.075-32.869,22.302-76.42,22.876
				c-43.553,0.573-77.337-9.524-77.495-21.599c-0.16-12.075,33.365-21.557,76.918-22.13
				C449.337,629.235,482.623,638.587,482.782,650.662z"/>
			<path style="fill:#969490;" d="M482.683,650.622c0.158,12.052-32.853,22.261-76.322,22.834
				c-43.471,0.572-77.224-9.49-77.383-21.542c-0.159-12.053,33.337-21.532,76.808-22.105
				C449.255,629.236,482.522,638.569,482.683,650.622z"/>
			<path style="fill:#94928E;" d="M482.582,650.582c0.158,12.03-32.835,22.22-76.223,22.791
				c-43.389,0.571-77.113-9.456-77.271-21.484c-0.159-12.03,33.309-21.508,76.697-22.079
				C449.173,629.237,482.423,638.552,482.582,650.582z"/>
			<path style="fill:#92908C;" d="M482.481,650.542c0.158,12.008-32.818,22.178-76.123,22.749
				c-43.307,0.57-77.002-9.423-77.16-21.428c-0.158-12.008,33.28-21.483,76.587-22.054
				C449.091,629.238,482.323,638.535,482.481,650.542z"/>
			<path style="fill:#908E8A;" d="M482.382,650.503c0.158,11.983-32.802,22.136-76.024,22.706
				c-43.225,0.569-76.891-9.388-77.049-21.371c-0.158-11.985,33.252-21.46,76.477-22.028
				C449.009,629.239,482.224,638.519,482.382,650.503z"/>
			<path style="fill:#8F8C89;" d="M482.281,650.463c0.158,11.962-32.784,22.095-75.925,22.663
				c-43.143,0.568-76.78-9.353-76.937-21.314c-0.159-11.962,33.223-21.435,76.366-22.002
				C448.928,629.24,482.124,638.501,482.281,650.463z"/>
			<path style="fill:#8D8A87;" d="M482.181,650.423c0.158,11.938-32.767,22.054-75.825,22.621
				c-43.061,0.567-76.669-9.32-76.826-21.258c-0.157-11.939,33.195-21.41,76.256-21.977
				C448.846,629.241,482.023,638.483,482.181,650.423z"/>
			<path style="fill:#8B8985;" d="M482.081,650.383c0.157,11.916-32.75,22.012-75.727,22.579
				c-42.979,0.566-76.558-9.286-76.715-21.201c-0.157-11.916,33.167-21.386,76.146-21.951
				C448.764,629.242,481.924,638.467,482.081,650.383z"/>
			<path style="fill:#898783;" d="M481.98,650.343c0.157,11.894-32.733,21.971-75.628,22.536
				c-42.896,0.565-76.446-9.252-76.602-21.143c-0.157-11.895,33.138-21.361,76.035-21.926
				C448.682,629.243,481.824,638.449,481.98,650.343z"/>
			<path style="fill:#878581;" d="M481.881,650.304c0.156,11.87-32.716,21.929-75.528,22.493
				c-42.815,0.564-76.336-9.218-76.492-21.087c-0.156-11.871,33.11-21.337,75.925-21.9
				C448.6,629.244,481.724,638.433,481.881,650.304z"/>
			<path style="fill:#86837F;" d="M481.78,650.264c0.156,11.848-32.698,21.888-75.43,22.45
				c-42.732,0.563-76.224-9.183-76.379-21.029c-0.157-11.85,33.082-21.313,75.814-21.875
				C448.518,629.245,481.624,638.415,481.78,650.264z"/>
			<path style="fill:#84817D;" d="M481.681,650.224c0.156,11.825-32.682,21.847-75.331,22.408
				c-42.65,0.563-76.113-9.149-76.268-20.974c-0.156-11.825,33.053-21.288,75.704-21.849
				C448.435,629.247,481.524,638.398,481.681,650.224z"/>
			<path style="fill:#827F7B;" d="M481.58,650.184c0.155,11.803-32.664,21.806-75.231,22.366
				c-42.568,0.561-76.002-9.115-76.157-20.917c-0.156-11.803,33.025-21.264,75.594-21.823
				C448.353,629.247,481.425,638.381,481.58,650.184z"/>
			<path style="fill:#807D79;" d="M481.479,650.144c0.156,11.78-32.646,21.764-75.132,22.324
				c-42.487,0.56-75.891-9.082-76.046-20.86c-0.156-11.78,32.997-21.239,75.483-21.798
				C448.271,629.249,481.324,638.363,481.479,650.144z"/>
			<path style="fill:#7E7C77;" d="M481.38,650.104c0.155,11.757-32.63,21.722-75.033,22.281
				c-42.405,0.559-75.78-9.049-75.934-20.805c-0.156-11.757,32.968-21.214,75.373-21.772
				C448.189,629.25,481.225,638.347,481.38,650.104z"/>
			<path style="fill:#7D7A75;" d="M481.28,650.065c0.154,11.733-32.613,21.681-74.935,22.238
				c-42.323,0.558-75.669-9.013-75.822-20.747c-0.155-11.734,32.939-21.19,75.262-21.746
				C448.107,629.251,481.125,638.329,481.28,650.065z"/>
			<path style="fill:#7B7874;" d="M481.179,650.024c0.155,11.712-32.595,21.64-74.834,22.196
				c-42.241,0.557-75.558-8.979-75.711-20.69c-0.155-11.712,32.912-21.165,75.152-21.721
				C448.025,629.252,481.024,638.313,481.179,650.024z"/>
			<path style="fill:#797672;" d="M481.079,649.984c0.154,11.689-32.578,21.599-74.736,22.154
				c-42.158,0.556-75.445-8.946-75.599-20.634c-0.155-11.689,32.882-21.141,75.042-21.695
				C447.944,629.253,480.925,638.296,481.079,649.984z"/>
			<path style="fill:#777470;" d="M480.978,649.944c0.154,11.666-32.561,21.558-74.636,22.111
				c-42.077,0.555-75.336-8.911-75.488-20.576c-0.154-11.667,32.854-21.116,74.931-21.67
				C447.862,629.255,480.825,638.278,480.978,649.944z"/>
			<path style="fill:#75726E;" d="M480.879,649.905c0.153,11.644-32.545,21.516-74.538,22.068
				c-41.995,0.553-75.224-8.878-75.376-20.519c-0.154-11.644,32.826-21.092,74.821-21.645
				C447.78,629.256,480.726,638.261,480.879,649.905z"/>
			<path style="fill:#73706C;" d="M480.778,649.865c0.154,11.62-32.526,21.474-74.439,22.026
				c-41.913,0.552-75.112-8.844-75.265-20.463c-0.153-11.621,32.798-21.068,74.711-21.619
				C447.698,629.257,480.625,638.244,480.778,649.865z"/>
			<path style="fill:#726F6A;" d="M480.679,649.824c0.152,11.599-32.511,21.434-74.34,21.985
				c-41.831,0.551-75.001-8.81-75.153-20.407c-0.154-11.598,32.769-21.042,74.6-21.593
				C447.616,629.258,480.525,638.227,480.679,649.824z"/>
			<path style="fill:#706D68;" d="M480.578,649.785c0.153,11.575-32.493,21.392-74.24,21.941c-41.749,0.55-74.89-8.775-75.043-20.35
				c-0.153-11.575,32.741-21.019,74.49-21.567C447.534,629.259,480.425,638.21,480.578,649.785z"/>
			<path style="fill:#6E6B66;" d="M480.478,649.745c0.152,11.553-32.476,21.351-74.142,21.899
				c-41.667,0.549-74.779-8.741-74.931-20.293c-0.153-11.553,32.712-20.994,74.379-21.542
				C447.452,629.26,480.325,638.192,480.478,649.745z"/>
			<path style="fill:#6C6964;" d="M480.378,649.705c0.152,11.53-32.459,21.309-74.042,21.857
				c-41.585,0.548-74.668-8.708-74.819-20.236c-0.153-11.53,32.684-20.97,74.269-21.517
				C447.37,629.261,480.226,638.176,480.378,649.705z"/>
			<path style="fill:#6A6762;" d="M480.278,649.665c0.151,11.508-32.442,21.269-73.943,21.815
				c-41.504,0.547-74.557-8.674-74.708-20.179c-0.152-11.508,32.656-20.945,74.159-21.491
				C447.288,629.262,480.126,638.158,480.278,649.665z"/>
			<path style="fill:#696560;" d="M480.178,649.625c0.151,11.485-32.425,21.227-73.844,21.773
				c-41.421,0.546-74.446-8.64-74.597-20.122c-0.152-11.485,32.627-20.921,74.048-21.466
				C447.206,629.263,480.026,638.142,480.178,649.625z"/>
			<path style="fill:#67635E;" d="M480.077,649.586c0.151,11.462-32.407,21.185-73.744,21.73
				c-41.339,0.544-74.335-8.605-74.485-20.066c-0.151-11.462,32.599-20.896,73.938-21.439
				C447.124,629.265,479.926,638.124,480.077,649.586z"/>
			<path style="fill:#65625D;" d="M479.977,649.546c0.15,11.44-32.391,21.144-73.645,21.688
				c-41.258,0.543-74.224-8.572-74.374-20.01c-0.151-11.439,32.57-20.871,73.827-21.414
				C447.042,629.265,479.826,638.107,479.977,649.546z"/>
			<path style="fill:#63605B;" d="M479.877,649.506c0.15,11.417-32.373,21.102-73.547,21.646
				c-41.175,0.542-74.112-8.538-74.262-19.953c-0.151-11.416,32.542-20.847,73.717-21.389
				C446.96,629.267,479.726,638.09,479.877,649.506z"/>
			<path style="fill:#615E59;" d="M479.776,649.466c0.15,11.395-32.355,21.061-73.447,21.603
				c-41.093,0.541-74.001-8.504-74.15-19.896c-0.15-11.395,32.514-20.822,73.607-21.363
				C446.878,629.268,479.626,638.072,479.776,649.466z"/>
			<path style="fill:#605C57;" d="M479.677,649.426c0.15,11.372-32.339,21.02-73.349,21.561c-41.011,0.54-73.89-8.47-74.039-19.839
				c-0.15-11.371,32.485-20.799,73.496-21.338C446.796,629.269,479.526,638.056,479.677,649.426z"/>
			<path style="fill:#5E5A55;" d="M479.576,649.387c0.149,11.349-32.321,20.978-73.249,21.517
				c-40.929,0.539-73.779-8.435-73.928-19.782c-0.15-11.348,32.457-20.773,73.386-21.312
				C446.714,629.269,479.427,638.038,479.576,649.387z"/>
			<path style="fill:#5C5853;" d="M479.477,649.347c0.149,11.326-32.305,20.937-73.15,21.475
				c-40.847,0.538-73.668-8.401-73.816-19.726c-0.15-11.325,32.428-20.749,73.275-21.286
				C446.632,629.271,479.326,638.021,479.477,649.347z"/>
			<path style="fill:#5A5751;" d="M479.376,649.307c0.149,11.303-32.288,20.896-73.051,21.433
				c-40.765,0.537-73.557-8.367-73.705-19.669c-0.149-11.303,32.4-20.725,73.165-21.261
				C446.55,629.271,479.227,638.004,479.376,649.307z"/>
			<path style="fill:#58554F;" d="M479.276,649.267c0.148,11.281-32.271,20.854-72.952,21.39
				c-40.683,0.536-73.446-8.333-73.594-19.611c-0.149-11.28,32.372-20.7,73.055-21.235
				C446.469,629.273,479.127,637.987,479.276,649.267z"/>
			<path style="fill:#56534D;" d="M479.176,649.227c0.148,11.258-32.253,20.813-72.853,21.348
				c-40.602,0.535-73.335-8.299-73.482-19.555c-0.149-11.258,32.343-20.676,72.944-21.21
				C446.386,629.273,479.026,637.97,479.176,649.227z"/>
			<path style="fill:#55514B;" d="M479.075,649.188c0.148,11.234-32.236,20.771-72.753,21.305
				c-40.52,0.534-73.224-8.266-73.371-19.499c-0.148-11.234,32.315-20.65,72.834-21.184
				C446.305,629.274,478.927,637.953,479.075,649.188z"/>
			<path style="fill:#534F49;" d="M478.976,649.148c0.147,11.213-32.22,20.729-72.654,21.263
				c-40.438,0.532-73.113-8.232-73.259-19.442c-0.149-11.211,32.286-20.626,72.723-21.158
				C446.223,629.275,478.827,637.935,478.976,649.148z"/>
			<path style="fill:#514D48;" d="M478.875,649.107c0.148,11.189-32.202,20.688-72.556,21.22
				c-40.355,0.532-73.001-8.197-73.147-19.385c-0.148-11.188,32.258-20.603,72.613-21.133
				C446.141,629.277,478.727,637.919,478.875,649.107z"/>
			<path style="fill:#4F4B46;" d="M478.774,649.067c0.148,11.167-32.185,20.647-72.455,21.178
				c-40.273,0.53-72.89-8.163-73.037-19.328c-0.147-11.166,32.23-20.577,72.503-21.107
				C446.059,629.278,478.627,637.901,478.774,649.067z"/>
			<path style="fill:#4D4A44;" d="M478.675,649.028c0.148,11.145-32.168,20.605-72.357,21.135
				c-40.191,0.53-72.778-8.129-72.924-19.271c-0.147-11.145,32.201-20.554,72.392-21.082
				C445.977,629.278,478.527,637.884,478.675,649.028z"/>
			<path style="fill:#4C4842;" d="M478.574,648.988c0.147,11.121-32.15,20.564-72.258,21.093
				c-40.109,0.527-72.667-8.096-72.813-19.216c-0.147-11.12,32.173-20.527,72.282-21.056
				C445.895,629.28,478.428,637.867,478.574,648.988z"/>
			<path style="fill:#4A4640;" d="M478.475,648.948c0.147,11.099-32.134,20.523-72.159,21.051
				c-40.027,0.526-72.556-8.062-72.702-19.159c-0.147-11.099,32.145-20.504,72.171-21.03
				C445.813,629.28,478.327,637.851,478.475,648.948z"/>
			<path style="fill:#48443E;" d="M478.374,648.908c0.146,11.076-32.116,20.481-72.06,21.008
				c-39.945,0.526-72.445-8.027-72.59-19.102c-0.146-11.075,32.116-20.479,72.061-21.005
				C445.73,629.282,478.227,637.833,478.374,648.908z"/>
		</g>
		<g>
			<linearGradient id="SVGID_1_" gradientUnits="userSpaceOnUse" x1="498.885" y1="471.71" x2="297.1506" y2="486.1167">
				<stop  offset="0.0888" style="stop-color:#E00E17"/>
				<stop  offset="0.7668" style="stop-color:#9D0E17"/>
				<stop  offset="0.8221" style="stop-color:#A10E17"/>
				<stop  offset="0.8755" style="stop-color:#AC0E17"/>
				<stop  offset="0.9281" style="stop-color:#C00E17"/>
				<stop  offset="0.98" style="stop-color:#DB0E17"/>
				<stop  offset="0.9881" style="stop-color:#E00E17"/>
			</linearGradient>
			<path style="fill:url(#SVGID_1_);" d="M523.31,290.37l-0.18,1.88l-3.89,39.83L488.5,647.19c0,14.92-37.29,27.02-83.29,27.02
				c-45.99,0-83.28-12.1-83.28-27.02l-30.74-315.11l-3.89-39.83l-0.18-1.88H523.31z"/>
			
				<linearGradient id="SVGID_00000098217176841855192780000001502651358714384048_" gradientUnits="userSpaceOnUse" x1="416.3434" y1="478.3112" x2="504.8904" y2="485.0239">
				<stop  offset="0" style="stop-color:#D9030D;stop-opacity:0"/>
				<stop  offset="0.0058" style="stop-color:#DA0610;stop-opacity:0.0037"/>
				<stop  offset="0.1405" style="stop-color:#E55158;stop-opacity:0.0911"/>
				<stop  offset="0.2669" style="stop-color:#EE8F93;stop-opacity:0.1731"/>
				<stop  offset="0.3811" style="stop-color:#F5BFC2;stop-opacity:0.2473"/>
				<stop  offset="0.4811" style="stop-color:#FBE2E3;stop-opacity:0.3121"/>
				<stop  offset="0.563" style="stop-color:#FEF7F8;stop-opacity:0.3653"/>
				<stop  offset="0.6166" style="stop-color:#FFFFFF;stop-opacity:0.4"/>
				<stop  offset="0.7026" style="stop-color:#FFFCFD;stop-opacity:0.3102"/>
				<stop  offset="0.755" style="stop-color:#FDF4F4;stop-opacity:0.2556"/>
				<stop  offset="0.7983" style="stop-color:#FBE6E7;stop-opacity:0.2104"/>
				<stop  offset="0.8368" style="stop-color:#F8D1D3;stop-opacity:0.1703"/>
				<stop  offset="0.872" style="stop-color:#F4B7BA;stop-opacity:0.1336"/>
				<stop  offset="0.9048" style="stop-color:#EF969A;stop-opacity:0.0993"/>
				<stop  offset="0.9358" style="stop-color:#E97075;stop-opacity:0.067"/>
				<stop  offset="0.9654" style="stop-color:#E3434A;stop-opacity:0.0361"/>
				<stop  offset="0.9928" style="stop-color:#DB111B;stop-opacity:0.0075"/>
				<stop  offset="1" style="stop-color:#D9030D;stop-opacity:0"/>
			</linearGradient>
			<path style="fill:url(#SVGID_00000098217176841855192780000001502651358714384048_);" d="M517,290.365L481.815,657.81
				c-11.148,7.523-26.982,13.19-64.818,16.127l11.199-383.572H517z"/>
		</g>
		<g>
			<g style="opacity:0.3;">
				<path style="fill:#FFFFFF;" d="M523.13,292.25l-3.89,39.83c-21.54,8.2-64.52,13.79-114.03,13.79
					c-49.5,0-92.48-5.59-114.02-13.79l-3.89-39.83H523.13z"/>
				<path style="fill:#FDFDFD;" d="M523.13,292.225l-3.89,39.83c-21.54,8.2-64.52,13.791-114.03,13.791
					c-49.5,0-92.48-5.59-114.02-13.791l-3.89-39.83H523.13z"/>
				<path style="fill:#FCFCFC;" d="M523.13,292.2l-3.89,39.83c-21.54,8.2-64.52,13.791-114.03,13.791
					c-49.5,0-92.48-5.59-114.021-13.791l-3.89-39.83H523.13z"/>
				<path style="fill:#FAFAFA;" d="M523.13,292.175l-3.89,39.83c-21.54,8.2-64.52,13.79-114.03,13.79
					c-49.5,0-92.48-5.59-114.02-13.79l-3.89-39.83H523.13z"/>
				<path style="fill:#F8F8F8;" d="M523.13,292.15l-3.89,39.831c-21.54,8.2-64.52,13.79-114.03,13.79
					c-49.5,0-92.48-5.59-114.02-13.79l-3.89-39.831H523.13z"/>
				<path style="fill:#F7F7F6;" d="M523.13,292.125l-3.89,39.83c-21.54,8.2-64.52,13.79-114.03,13.79
					c-49.5,0-92.48-5.59-114.02-13.79l-3.89-39.83H523.13z"/>
				<path style="fill:#F5F5F5;" d="M523.13,292.101l-3.89,39.83c-21.54,8.2-64.52,13.79-114.03,13.79
					c-49.5,0-92.48-5.59-114.02-13.79l-3.89-39.83H523.13z"/>
				<path style="fill:#F3F3F3;" d="M523.13,292.076l-3.89,39.83c-21.54,8.2-64.52,13.79-114.03,13.79
					c-49.5,0-92.48-5.59-114.02-13.79l-3.891-39.83H523.13z"/>
				<path style="fill:#F2F2F1;" d="M523.13,292.051l-3.89,39.83c-21.54,8.199-64.52,13.79-114.03,13.79
					c-49.5,0-92.48-5.591-114.02-13.79l-3.89-39.83H523.13z"/>
				<path style="fill:#F0F0EF;" d="M523.13,292.026l-3.89,39.83c-21.54,8.2-64.52,13.79-114.03,13.79
					c-49.5,0-92.48-5.59-114.02-13.79l-3.89-39.83H523.13z"/>
				<path style="fill:#EFEEEE;" d="M523.13,292.001l-3.89,39.83c-21.54,8.2-64.52,13.79-114.03,13.79
					c-49.5,0-92.48-5.59-114.02-13.79l-3.89-39.83H523.13z"/>
				<path style="fill:#EDEDEC;" d="M523.13,291.976l-3.89,39.83c-21.54,8.2-64.52,13.79-114.03,13.79
					c-49.5,0-92.479-5.59-114.02-13.79l-3.89-39.83H523.13z"/>
				<path style="fill:#EBEBEA;" d="M523.13,291.951l-3.89,39.83c-21.54,8.2-64.52,13.79-114.03,13.79
					c-49.5,0-92.479-5.59-114.02-13.79l-3.891-39.83H523.13z"/>
				<path style="fill:#EAE9E9;" d="M523.13,291.926l-3.89,39.83c-21.54,8.2-64.52,13.79-114.03,13.79
					c-49.5,0-92.48-5.59-114.02-13.79l-3.89-39.83H523.13z"/>
				<path style="fill:#E8E8E7;" d="M523.13,291.901l-3.89,39.83c-21.54,8.2-64.52,13.79-114.03,13.79
					c-49.5,0-92.48-5.59-114.02-13.79l-3.89-39.83H523.13z"/>
				<path style="fill:#E6E6E5;" d="M523.13,291.876l-3.89,39.83c-21.54,8.2-64.52,13.79-114.03,13.79
					c-49.5,0-92.48-5.59-114.02-13.79l-3.891-39.83H523.13z"/>
				<path style="fill:#E5E4E3;" d="M523.13,291.852l-3.89,39.83c-21.54,8.2-64.52,13.79-114.03,13.79
					c-49.5,0-92.48-5.59-114.02-13.79l-3.89-39.83H523.13z"/>
				<path style="fill:#E3E3E2;" d="M523.13,291.827l-3.89,39.83c-21.54,8.2-64.52,13.79-114.03,13.79
					c-49.5,0-92.479-5.59-114.02-13.79l-3.89-39.83H523.13z"/>
				<path style="fill:#E1E1E0;" d="M523.13,291.802l-3.89,39.83c-21.54,8.2-64.52,13.79-114.03,13.79
					c-49.5,0-92.479-5.59-114.02-13.79l-3.89-39.83H523.13z"/>
				<path style="fill:#E0DFDE;" d="M523.13,291.777l-3.89,39.83c-21.54,8.2-64.52,13.79-114.03,13.79
					c-49.5,0-92.479-5.59-114.02-13.79l-3.89-39.83H523.13z"/>
				<path style="fill:#DEDEDD;" d="M523.13,291.752l-3.89,39.83c-21.54,8.199-64.52,13.79-114.03,13.79
					c-49.5,0-92.48-5.591-114.02-13.79l-3.89-39.83H523.13z"/>
				<path style="fill:#DCDCDB;" d="M523.13,291.727l-3.89,39.83c-21.54,8.2-64.52,13.79-114.03,13.79
					c-49.5,0-92.48-5.59-114.02-13.79l-3.891-39.83H523.13z"/>
				<path style="fill:#DBDAD9;" d="M523.13,291.702l-3.89,39.83c-21.54,8.199-64.52,13.79-114.03,13.79
					c-49.5,0-92.48-5.59-114.02-13.79l-3.89-39.83H523.13z"/>
				<path style="fill:#D9D9D7;" d="M523.13,291.677l-3.89,39.83c-21.54,8.2-64.52,13.791-114.029,13.791
					c-49.501,0-92.481-5.59-114.02-13.791l-3.891-39.83H523.13z"/>
				<path style="fill:#D8D7D6;" d="M523.13,291.652l-3.89,39.83c-21.54,8.2-64.52,13.79-114.03,13.79
					c-49.5,0-92.479-5.59-114.02-13.79l-3.89-39.83H523.13z"/>
				<path style="fill:#D6D5D4;" d="M523.131,291.627l-3.891,39.83c-21.539,8.2-64.52,13.79-114.03,13.79
					c-49.5,0-92.479-5.59-114.02-13.79l-3.89-39.83H523.131z"/>
				<path style="fill:#D4D3D2;" d="M523.13,291.603l-3.89,39.83c-21.54,8.2-64.519,13.79-114.03,13.79
					c-49.5,0-92.479-5.59-114.02-13.79l-3.89-39.83H523.13z"/>
				<path style="fill:#D3D2D0;" d="M523.131,291.577l-3.891,39.83c-21.54,8.2-64.52,13.79-114.03,13.79
					c-49.5,0-92.479-5.59-114.02-13.79l-3.89-39.83H523.131z"/>
				<path style="fill:#D1D0CF;" d="M523.13,291.553l-3.89,39.83c-21.54,8.2-64.52,13.79-114.029,13.79
					c-49.501,0-92.481-5.59-114.02-13.79l-3.89-39.83H523.13z"/>
				<path style="fill:#CFCECD;" d="M523.131,291.527l-3.891,39.83c-21.54,8.2-64.519,13.79-114.03,13.79
					c-49.5,0-92.479-5.59-114.02-13.79l-3.891-39.83H523.131z"/>
				<path style="fill:#CECDCB;" d="M523.13,291.503l-3.89,39.83c-21.539,8.2-64.52,13.79-114.03,13.79
					c-49.5,0-92.479-5.59-114.02-13.79l-3.89-39.83H523.13z"/>
				<path style="fill:#CCCBCA;" d="M523.131,291.478l-3.891,39.83c-21.539,8.2-64.52,13.79-114.029,13.79
					c-49.501,0-92.48-5.59-114.02-13.79l-3.891-39.83H523.131z"/>
				<path style="fill:#CAC9C8;" d="M523.13,291.453l-3.89,39.83c-21.54,8.199-64.519,13.79-114.03,13.79
					c-49.5,0-92.479-5.591-114.02-13.79l-3.89-39.83H523.13z"/>
				<path style="fill:#C9C8C6;" d="M523.13,291.428l-3.89,39.83c-21.54,8.2-64.519,13.79-114.03,13.79
					c-49.5,0-92.479-5.59-114.02-13.79l-3.891-39.83H523.13z"/>
				<path style="fill:#C7C6C4;" d="M523.13,291.403l-3.89,39.83c-21.54,8.199-64.52,13.79-114.029,13.79
					c-49.501,0-92.48-5.591-114.02-13.79l-3.89-39.83H523.13z"/>
				<path style="fill:#C5C4C3;" d="M523.13,291.378l-3.89,39.831c-21.539,8.2-64.519,13.79-114.03,13.79
					c-49.5,0-92.479-5.59-114.02-13.79l-3.891-39.831H523.13z"/>
				<path style="fill:#C4C3C1;" d="M523.131,291.353l-3.891,39.83c-21.539,8.199-64.519,13.79-114.029,13.79
					c-49.5,0-92.48-5.591-114.02-13.79l-3.89-39.83H523.131z"/>
				<path style="fill:#C2C1BF;" d="M523.13,291.329l-3.89,39.83c-21.539,8.2-64.52,13.79-114.03,13.79
					c-49.5,0-92.479-5.59-114.02-13.79l-3.891-39.83H523.13z"/>
				<path style="fill:#C1BFBE;" d="M523.131,291.304l-3.891,39.83c-21.54,8.199-64.52,13.79-114.03,13.79
					c-49.5,0-92.479-5.59-114.02-13.79l-3.89-39.83H523.131z"/>
				<path style="fill:#BFBEBC;" d="M523.13,291.278l-3.89,39.83c-21.54,8.2-64.519,13.79-114.029,13.79
					c-49.5,0-92.48-5.59-114.02-13.79l-3.89-39.83H523.13z"/>
				<path style="fill:#BDBCBA;" d="M523.131,291.254l-3.891,39.83c-21.54,8.2-64.52,13.79-114.03,13.79
					c-49.5,0-92.479-5.59-114.02-13.79l-3.89-39.83H523.131z"/>
				<path style="fill:#BCBAB8;" d="M523.13,291.228l-3.89,39.831c-21.539,8.2-64.52,13.789-114.029,13.789
					c-49.5,0-92.48-5.59-114.02-13.789l-3.89-39.831H523.13z"/>
				<path style="fill:#BAB9B7;" d="M523.131,291.204l-3.891,39.83c-21.539,8.2-64.519,13.79-114.029,13.79
					c-49.5,0-92.48-5.59-114.02-13.79l-3.89-39.83H523.131z"/>
				<path style="fill:#B8B7B5;" d="M523.13,291.179l-3.89,39.83c-21.539,8.2-64.519,13.79-114.03,13.79
					c-49.5,0-92.479-5.59-114.02-13.79l-3.89-39.83H523.13z"/>
				<path style="fill:#B7B5B3;" d="M523.131,291.154l-3.891,39.83c-21.54,8.2-64.52,13.79-114.029,13.79
					c-49.5,0-92.48-5.59-114.02-13.79l-3.891-39.83H523.131z"/>
				<path style="fill:#B5B4B1;" d="M523.13,291.129l-3.89,39.83c-21.54,8.2-64.519,13.79-114.029,13.79
					c-49.5,0-92.48-5.59-114.02-13.79l-3.89-39.83H523.13z"/>
				<path style="fill:#B3B2B0;" d="M523.131,291.104l-3.891,39.83c-21.539,8.199-64.519,13.79-114.029,13.79
					c-49.501,0-92.48-5.591-114.02-13.79l-3.891-39.83H523.131z"/>
				<path style="fill:#B2B0AE;" d="M523.131,291.079l-3.89,39.83c-21.54,8.2-64.522,13.79-114.03,13.79
					c-49.5,0-92.48-5.591-114.02-13.79l-3.89-39.83H523.131z"/>
				<path style="fill:#B0AFAC;" d="M523.131,291.055l-3.891,39.83c-21.539,8.199-64.52,13.79-114.03,13.79
					c-49.5,0-92.479-5.591-114.02-13.79l-3.891-39.83H523.131z"/>
				<path style="fill:#AEADAB;" d="M523.131,291.029l-3.891,39.83c-21.539,8.2-64.519,13.79-114.029,13.79
					c-49.501,0-92.48-5.59-114.02-13.79l-3.89-39.83H523.131z"/>
				<path style="fill:#ADABA9;" d="M523.131,291.005l-3.891,39.83c-21.539,8.2-64.519,13.79-114.029,13.79
					c-49.5,0-92.48-5.591-114.02-13.79l-3.89-39.83H523.131z"/>
				<path style="fill:#ABAAA7;" d="M523.131,290.979l-3.891,39.83c-21.539,8.2-64.519,13.79-114.029,13.79
					c-49.5,0-92.48-5.59-114.02-13.79l-3.89-39.83H523.131z"/>
				<path style="fill:#AAA8A5;" d="M523.131,290.955l-3.891,39.83c-21.539,8.2-64.519,13.79-114.029,13.79
					c-49.501,0-92.48-5.59-114.02-13.79l-3.89-39.83H523.131z"/>
				<path style="fill:#A8A6A4;" d="M523.131,290.93l-3.891,39.83c-21.539,8.2-64.519,13.79-114.03,13.79
					c-49.5,0-92.479-5.59-114.02-13.79l-3.89-39.83H523.131z"/>
				<path style="fill:#A6A5A2;" d="M523.131,290.905l-3.89,39.83c-21.54,8.2-64.521,13.79-114.03,13.79
					c-49.5,0-92.48-5.591-114.02-13.79l-3.89-39.83H523.131z"/>
				<path style="fill:#A5A3A0;" d="M523.131,290.88l-3.891,39.83c-21.539,8.2-64.519,13.79-114.029,13.79
					c-49.501,0-92.48-5.59-114.02-13.79l-3.89-39.83H523.131z"/>
				<path style="fill:#A3A19F;" d="M523.131,290.855l-3.89,39.83c-21.54,8.199-64.521,13.79-114.03,13.79
					c-49.5,0-92.48-5.591-114.02-13.79l-3.89-39.83H523.131z"/>
				<path style="fill:#A1A09D;" d="M523.131,290.83l-3.891,39.83c-21.54,8.2-64.519,13.79-114.029,13.79
					c-49.5,0-92.48-5.59-114.02-13.79l-3.89-39.83H523.131z"/>
				<path style="fill:#A09E9B;" d="M523.131,290.806l-3.891,39.83c-21.539,8.199-64.519,13.79-114.029,13.79
					c-49.501,0-92.48-5.591-114.02-13.79l-3.89-39.83H523.131z"/>
				<path style="fill:#9E9C99;" d="M523.131,290.78l-3.89,39.83c-21.54,8.2-64.521,13.79-114.03,13.79
					c-49.5,0-92.48-5.59-114.02-13.79l-3.89-39.83H523.131z"/>
				<path style="fill:#9C9B98;" d="M523.131,290.755l-3.891,39.831c-21.539,8.199-64.519,13.79-114.029,13.79
					c-49.5,0-92.48-5.591-114.02-13.79l-3.89-39.831H523.131z"/>
				<path style="fill:#9B9996;" d="M523.131,290.731l-3.89,39.829c-21.54,8.2-64.521,13.79-114.03,13.79
					c-49.5,0-92.48-5.59-114.02-13.79l-3.89-39.829H523.131z"/>
				<path style="fill:#999794;" d="M523.13,290.706l-3.89,39.83c-21.539,8.199-64.519,13.79-114.029,13.79
					c-49.5,0-92.48-5.59-114.02-13.79l-3.89-39.83H523.13z"/>
				<path style="fill:#979692;" d="M523.131,290.681l-3.891,39.831c-21.539,8.199-64.519,13.79-114.029,13.79
					c-49.5,0-92.48-5.59-114.02-13.79l-3.89-39.831H523.131z"/>
				<path style="fill:#969491;" d="M523.131,290.656l-3.89,39.83c-21.54,8.2-64.521,13.79-114.03,13.79
					c-49.5,0-92.48-5.59-114.02-13.79l-3.89-39.83H523.131z"/>
				<path style="fill:#94928F;" d="M523.131,290.631l-3.891,39.83c-21.539,8.2-64.519,13.79-114.029,13.79
					c-49.5,0-92.48-5.59-114.02-13.79l-3.89-39.83H523.131z"/>
				<path style="fill:#93918D;" d="M523.131,290.606l-3.89,39.831c-21.54,8.2-64.521,13.79-114.03,13.79
					c-49.5,0-92.48-5.59-114.02-13.79l-3.89-39.831H523.131z"/>
				<path style="fill:#918F8C;" d="M523.131,290.581l-3.891,39.83c-21.539,8.2-64.519,13.791-114.029,13.791
					c-49.5,0-92.48-5.59-114.02-13.791l-3.89-39.83H523.131z"/>
				<path style="fill:#8F8D8A;" d="M523.131,290.557l-3.89,39.83c-21.54,8.199-64.521,13.79-114.03,13.79
					c-49.5,0-92.48-5.591-114.02-13.79l-3.89-39.83H523.131z"/>
				<path style="fill:#8E8C88;" d="M523.131,290.531l-3.89,39.83c-21.54,8.2-64.521,13.79-114.03,13.79
					c-49.5,0-92.48-5.59-114.02-13.79l-3.89-39.83H523.131z"/>
				<path style="fill:#8C8A86;" d="M523.131,290.506l-3.891,39.83c-21.539,8.2-64.519,13.791-114.029,13.791
					c-49.5,0-92.48-5.591-114.02-13.791l-3.89-39.83H523.131z"/>
				<path style="fill:#8A8885;" d="M523.131,290.481l-3.89,39.83c-21.54,8.2-64.521,13.79-114.03,13.79
					c-49.5,0-92.48-5.59-114.02-13.79l-3.89-39.83H523.131z"/>
				<path style="fill:#898783;" d="M523.131,290.457l-3.89,39.831c-21.54,8.199-64.521,13.79-114.03,13.79
					c-49.5,0-92.48-5.591-114.02-13.79l-3.89-39.831H523.131z"/>
				<path style="fill:#878581;" d="M523.131,290.432l-3.89,39.83c-21.54,8.2-64.521,13.79-114.03,13.79
					c-49.5,0-92.48-5.59-114.02-13.79l-3.89-39.83H523.131z"/>
				<path style="fill:#858380;" d="M523.131,290.407l-3.89,39.83c-21.54,8.2-64.521,13.791-114.03,13.791
					c-49.5,0-92.48-5.591-114.02-13.791l-3.89-39.83H523.131z"/>
				<path style="fill:#84827E;" d="M523.131,290.382l-3.891,39.83c-21.539,8.2-64.519,13.79-114.029,13.79
					c-49.5,0-92.48-5.59-114.02-13.79l-3.89-39.83H523.131z"/>
				<path style="fill:#82807C;" d="M523.131,290.357l-3.89,39.83c-21.54,8.2-64.521,13.79-114.03,13.79
					c-49.5,0-92.48-5.59-114.02-13.79l-3.89-39.83H523.131z"/>
				<path style="fill:#807E7A;" d="M523.131,290.332l-3.89,39.83c-21.54,8.2-64.521,13.79-114.03,13.79
					c-49.5,0-92.48-5.59-114.02-13.79l-3.89-39.83H523.131z"/>
				<path style="fill:#7F7C79;" d="M523.131,290.307l-3.89,39.831c-21.54,8.199-64.521,13.789-114.03,13.789
					c-49.5,0-92.48-5.59-114.02-13.789l-3.89-39.831H523.131z"/>
				<path style="fill:#7D7B77;" d="M523.131,290.283l-3.89,39.83c-21.54,8.2-64.521,13.79-114.03,13.79
					c-49.5,0-92.48-5.59-114.02-13.79l-3.89-39.83H523.131z"/>
				<path style="fill:#7C7975;" d="M523.131,290.258l-3.89,39.83c-21.54,8.2-64.521,13.79-114.03,13.79
					c-49.5,0-92.48-5.59-114.02-13.79l-3.89-39.83H523.131z"/>
				<path style="fill:#7A7773;" d="M523.131,290.232l-3.89,39.83c-21.54,8.2-64.521,13.79-114.03,13.79
					c-49.5,0-92.48-5.59-114.02-13.79l-3.89-39.83H523.131z"/>
				<path style="fill:#787672;" d="M523.131,290.207l-3.89,39.831c-21.54,8.199-64.521,13.79-114.03,13.79
					c-49.5,0-92.48-5.59-114.02-13.79l-3.89-39.831H523.131z"/>
				<path style="fill:#777470;" d="M523.131,290.183l-3.89,39.83c-21.54,8.2-64.521,13.79-114.03,13.79
					c-49.5,0-92.48-5.59-114.02-13.79l-3.89-39.83H523.131z"/>
				<path style="fill:#75726E;" d="M523.131,290.158l-3.89,39.83c-21.54,8.2-64.521,13.79-114.03,13.79
					c-49.5,0-92.48-5.591-114.02-13.79l-3.89-39.83H523.131z"/>
				<path style="fill:#73716D;" d="M523.131,290.133l-3.89,39.83c-21.54,8.2-64.521,13.79-114.03,13.79
					c-49.5,0-92.48-5.59-114.02-13.79l-3.89-39.83H523.131z"/>
				<path style="fill:#726F6B;" d="M523.131,290.108l-3.89,39.83c-21.54,8.2-64.521,13.79-114.03,13.79
					c-49.5,0-92.48-5.591-114.02-13.79l-3.89-39.83H523.131z"/>
				<path style="fill:#706D69;" d="M523.131,290.083l-3.89,39.83c-21.54,8.2-64.521,13.79-114.03,13.79
					c-49.5,0-92.48-5.59-114.02-13.79l-3.89-39.83H523.131z"/>
				<path style="fill:#6E6C67;" d="M523.131,290.058l-3.89,39.831c-21.54,8.199-64.521,13.789-114.03,13.789
					c-49.5,0-92.48-5.59-114.02-13.789l-3.89-39.831H523.131z"/>
				<path style="fill:#6D6A66;" d="M523.131,290.033l-3.89,39.83c-21.54,8.2-64.521,13.79-114.03,13.79
					c-49.5,0-92.48-5.59-114.02-13.79l-3.89-39.83H523.131z"/>
				<path style="fill:#6B6864;" d="M523.131,290.008l-3.89,39.83c-21.54,8.2-64.521,13.79-114.03,13.79
					c-49.5,0-92.48-5.59-114.02-13.79l-3.89-39.83H523.131z"/>
				<path style="fill:#696762;" d="M523.131,289.983l-3.89,39.83c-21.54,8.2-64.521,13.79-114.03,13.79
					c-49.5,0-92.48-5.59-114.02-13.79l-3.89-39.83H523.131z"/>
				<path style="fill:#686561;" d="M523.131,289.959l-3.89,39.83c-21.54,8.2-64.521,13.79-114.03,13.79
					c-49.5,0-92.48-5.59-114.02-13.79l-3.89-39.83H523.131z"/>
				<path style="fill:#66635F;" d="M523.131,289.934l-3.89,39.83c-21.54,8.2-64.521,13.79-114.03,13.79
					c-49.5,0-92.48-5.59-114.02-13.79l-3.89-39.83H523.131z"/>
				<path style="fill:#65625D;" d="M523.131,289.909l-3.89,39.83c-21.54,8.2-64.521,13.79-114.03,13.79
					c-49.5,0-92.48-5.59-114.02-13.79l-3.89-39.83H523.131z"/>
				<path style="fill:#63605B;" d="M523.131,289.884l-3.89,39.83c-21.54,8.2-64.521,13.79-114.03,13.79
					c-49.5,0-92.48-5.59-114.02-13.79l-3.89-39.83H523.131z"/>
				<path style="fill:#615E5A;" d="M523.131,289.859l-3.89,39.83c-21.54,8.2-64.521,13.79-114.03,13.79
					c-49.5,0-92.48-5.59-114.02-13.79l-3.89-39.83H523.131z"/>
				<path style="fill:#605D58;" d="M523.131,289.834l-3.89,39.83c-21.54,8.2-64.521,13.79-114.03,13.79
					c-49.5,0-92.48-5.59-114.02-13.79l-3.89-39.83H523.131z"/>
				<path style="fill:#5E5B56;" d="M523.131,289.81l-3.89,39.83c-21.54,8.2-64.521,13.79-114.03,13.79
					c-49.5,0-92.48-5.59-114.02-13.79l-3.89-39.83H523.131z"/>
				<path style="fill:#5C5954;" d="M523.131,289.784l-3.89,39.83c-21.54,8.2-64.521,13.79-114.03,13.79
					c-49.5,0-92.48-5.59-114.02-13.79l-3.89-39.83H523.131z"/>
				<path style="fill:#5B5853;" d="M523.131,289.759l-3.89,39.83c-21.54,8.2-64.521,13.79-114.03,13.79
					c-49.5,0-92.48-5.59-114.02-13.79l-3.89-39.83H523.131z"/>
				<path style="fill:#595651;" d="M523.131,289.734l-3.89,39.83c-21.54,8.2-64.521,13.79-114.03,13.79
					c-49.5,0-92.48-5.59-114.02-13.79l-3.89-39.83H523.131z"/>
			</g>
			
				<linearGradient id="SVGID_00000126286690870967555700000012288677254199893155_" gradientUnits="userSpaceOnUse" x1="533.9463" y1="315.0562" x2="276.4844" y2="315.0562">
				<stop  offset="0.004" style="stop-color:#F2F2F2"/>
				<stop  offset="0.1277" style="stop-color:#F6F6F6"/>
				<stop  offset="0.2253" style="stop-color:#FFFFFF"/>
				<stop  offset="0.2951" style="stop-color:#FAFAFA"/>
				<stop  offset="0.5976" style="stop-color:#E8E8E8"/>
				<stop  offset="0.8182" style="stop-color:#E2E2E2"/>
				<stop  offset="0.9486" style="stop-color:#F2F2F2"/>
				<stop  offset="0.9744" style="stop-color:#EEEEEE"/>
				<stop  offset="1" style="stop-color:#E2E2E2"/>
			</linearGradient>
			<path style="fill:url(#SVGID_00000126286690870967555700000012288677254199893155_);" d="M276.484,288.246v27.874
				c0,14.219,57.635,25.746,128.73,25.746c71.097,0,128.732-11.527,128.732-25.746v-27.874H276.484z"/>
			<ellipse style="fill:#FFFFFF;" cx="405.215" cy="288.246" rx="128.731" ry="25.746"/>
			
				<linearGradient id="SVGID_00000020366045205546803970000013578269372568279478_" gradientUnits="userSpaceOnUse" x1="276.4844" y1="287.167" x2="533.9463" y2="287.167">
				<stop  offset="0" style="stop-color:#FAFAFA"/>
				<stop  offset="0.4309" style="stop-color:#F1F1F1"/>
				<stop  offset="1" style="stop-color:#EBEBEB"/>
			</linearGradient>
			
				<ellipse style="fill:url(#SVGID_00000020366045205546803970000013578269372568279478_);" cx="405.215" cy="287.167" rx="128.731" ry="25.746"/>
			
				<linearGradient id="SVGID_00000093878962247401722530000001244022172204921780_" gradientUnits="userSpaceOnUse" x1="352.3311" y1="287.1672" x2="458.0957" y2="287.1672">
				<stop  offset="0" style="stop-color:#D6D6D6"/>
				<stop  offset="0.0686" style="stop-color:#D5D5D5"/>
				<stop  offset="1" style="stop-color:#CFCFCF"/>
			</linearGradient>
			<path style="fill:url(#SVGID_00000093878962247401722530000001244022172204921780_);" d="M458.096,287.168
				c0,5.841-23.676,10.576-52.882,10.576c-29.207,0-52.883-4.735-52.883-10.576c0-5.841,23.676-10.577,52.883-10.577
				C434.42,276.591,458.096,281.326,458.096,287.168z"/>
			
				<linearGradient id="SVGID_00000111173604272386478400000013440908047739061668_" gradientUnits="userSpaceOnUse" x1="352.3315" y1="286.0002" x2="458.0957" y2="286.0002">
				<stop  offset="0" style="stop-color:#FFFFFF"/>
				<stop  offset="1" style="stop-color:#FFFFFF"/>
			</linearGradient>
			<path style="fill:url(#SVGID_00000111173604272386478400000013440908047739061668_);" d="M458.096,286
				c0,5.841-23.676,10.576-52.881,10.576c-29.207,0-52.883-4.735-52.883-10.576c0-5.841,23.676-10.577,52.883-10.577
				C434.42,275.424,458.096,280.159,458.096,286z"/>
			
				<linearGradient id="SVGID_00000123408345646928250540000008654131727493925049_" gradientUnits="userSpaceOnUse" x1="352.332" y1="285.2502" x2="458.0957" y2="285.2502">
				<stop  offset="0" style="stop-color:#FAFAFA"/>
				<stop  offset="0.4309" style="stop-color:#F1F1F1"/>
				<stop  offset="1" style="stop-color:#EBEBEB"/>
			</linearGradient>
			<path style="fill:url(#SVGID_00000123408345646928250540000008654131727493925049_);" d="M458.096,285.25
				c0,5.841-23.676,10.576-52.881,10.576c-29.206,0-52.883-4.735-52.883-10.576c0-5.841,23.676-10.577,52.883-10.577
				C434.42,274.674,458.096,279.409,458.096,285.25z"/>
		</g>
		<g>
			
				<linearGradient id="SVGID_00000136370588788120486010000001453742934819044527_" gradientUnits="userSpaceOnUse" x1="396.5" y1="284.6875" x2="415.5625" y2="284.6875">
				<stop  offset="0" style="stop-color:#D6D6D6"/>
				<stop  offset="0.0686" style="stop-color:#D5D5D5"/>
				<stop  offset="1" style="stop-color:#CFCFCF"/>
			</linearGradient>
			
				<ellipse style="fill:url(#SVGID_00000136370588788120486010000001453742934819044527_);" cx="406.031" cy="284.688" rx="9.531" ry="1.938"/>
			
				<linearGradient id="SVGID_00000108286681508631231550000011864080349372147331_" gradientUnits="userSpaceOnUse" x1="431.0559" y1="197.8223" x2="411.7499" y2="194.3026">
				<stop  offset="0.004" style="stop-color:#F2F2F2"/>
				<stop  offset="0.0045" style="stop-color:#F2F2F2"/>
				<stop  offset="0.1283" style="stop-color:#FCFCFC"/>
				<stop  offset="0.2864" style="stop-color:#FFFFFF"/>
				<stop  offset="0.8086" style="stop-color:#E2E2E2"/>
				<stop  offset="0.9486" style="stop-color:#F2F2F2"/>
				<stop  offset="0.9744" style="stop-color:#EEEEEE"/>
				<stop  offset="1" style="stop-color:#E2E2E2"/>
			</linearGradient>
			<path style="fill:url(#SVGID_00000108286681508631231550000011864080349372147331_);" d="M448.125,107.563L420.189,257.92
				l-2.39,12.81l-2.5,13.43v0.01c0,1.01-4.11,1.83-9.17,1.83c-5.069,0-9.18-0.82-9.18-1.83c0-0.01,0-0.01,0-0.01l1.68-8.99
				l2.38-12.8l28.752-154.995L448.125,107.563z"/>
			
				<linearGradient id="SVGID_00000096049773953354915230000008232307071456744592_" gradientUnits="userSpaceOnUse" x1="417.785" y1="268.0524" x2="399.0127" y2="264.6299">
				<stop  offset="0.0177" style="stop-color:#E00E17"/>
				<stop  offset="0.581" style="stop-color:#AC0E17"/>
				<stop  offset="0.6727" style="stop-color:#B00E17"/>
				<stop  offset="0.7612" style="stop-color:#BB0E17"/>
				<stop  offset="0.8485" style="stop-color:#CF0E17"/>
				<stop  offset="0.9344" style="stop-color:#EA0E17"/>
				<stop  offset="0.9881" style="stop-color:#FF0E17"/>
			</linearGradient>
			<path style="fill:url(#SVGID_00000096049773953354915230000008232307071456744592_);" d="M420.189,257.92l-2.39,12.81l0,0
				c0,0-0.999,1.996-7.884,3.436c-8.557,1.792-11.286,1.003-11.286,1.003l2.264-12.178l0,0c3.418,0.508,14.668-0.18,19.163-4.356
				C420.084,258.61,420.162,257.942,420.189,257.92C420.293,257.837,420.189,257.92,420.189,257.92z"/>
			
				<linearGradient id="SVGID_00000060001939760571494580000005352730807540127891_" gradientUnits="userSpaceOnUse" x1="422.285" y1="244.0939" x2="403.5127" y2="240.6714">
				<stop  offset="0.0177" style="stop-color:#E00E17"/>
				<stop  offset="0.581" style="stop-color:#AC0E17"/>
				<stop  offset="0.6727" style="stop-color:#B00E17"/>
				<stop  offset="0.7612" style="stop-color:#BB0E17"/>
				<stop  offset="0.8485" style="stop-color:#CF0E17"/>
				<stop  offset="0.9344" style="stop-color:#EA0E17"/>
				<stop  offset="0.9881" style="stop-color:#FF0E17"/>
			</linearGradient>
			<path style="fill:url(#SVGID_00000060001939760571494580000005352730807540127891_);" d="M424.689,233.961l-2.39,12.81l0,0
				c0,0-0.999,1.996-7.884,3.436c-8.557,1.792-11.286,1.003-11.286,1.003l2.265-12.178l0,0c3.418,0.508,14.668-0.18,19.162-4.357
				C424.584,234.652,424.662,233.984,424.689,233.961C424.793,233.878,424.689,233.961,424.689,233.961z"/>
			
				<linearGradient id="SVGID_00000040556902927614248080000005341803934803734954_" gradientUnits="userSpaceOnUse" x1="426.66" y1="220.2189" x2="407.8877" y2="216.7964">
				<stop  offset="0.0177" style="stop-color:#E00E17"/>
				<stop  offset="0.581" style="stop-color:#AC0E17"/>
				<stop  offset="0.6727" style="stop-color:#B00E17"/>
				<stop  offset="0.7612" style="stop-color:#BB0E17"/>
				<stop  offset="0.8485" style="stop-color:#CF0E17"/>
				<stop  offset="0.9344" style="stop-color:#EA0E17"/>
				<stop  offset="0.9881" style="stop-color:#FF0E17"/>
			</linearGradient>
			<path style="fill:url(#SVGID_00000040556902927614248080000005341803934803734954_);" d="M429.064,210.086l-2.39,12.81l0,0
				c0,0-0.999,1.996-7.884,3.436c-8.557,1.792-11.286,1.003-11.286,1.003l2.265-12.178l0,0c3.418,0.508,14.668-0.18,19.162-4.357
				C428.959,210.777,429.037,210.109,429.064,210.086C429.168,210.003,429.064,210.086,429.064,210.086z"/>
			
				<linearGradient id="SVGID_00000145016993467152154640000010549531457752087180_" gradientUnits="userSpaceOnUse" x1="431.035" y1="196.3439" x2="412.2627" y2="192.9214">
				<stop  offset="0.0177" style="stop-color:#E00E17"/>
				<stop  offset="0.581" style="stop-color:#AC0E17"/>
				<stop  offset="0.6727" style="stop-color:#B00E17"/>
				<stop  offset="0.7612" style="stop-color:#BB0E17"/>
				<stop  offset="0.8485" style="stop-color:#CF0E17"/>
				<stop  offset="0.9344" style="stop-color:#EA0E17"/>
				<stop  offset="0.9881" style="stop-color:#FF0E17"/>
			</linearGradient>
			<path style="fill:url(#SVGID_00000145016993467152154640000010549531457752087180_);" d="M433.439,186.211l-2.39,12.81l0,0
				c0,0-0.999,1.996-7.884,3.436c-8.557,1.792-11.286,1.003-11.286,1.003l2.265-12.178l0,0c3.418,0.508,14.668-0.18,19.162-4.357
				C433.334,186.902,433.412,186.234,433.439,186.211C433.543,186.128,433.439,186.211,433.439,186.211z"/>
			
				<linearGradient id="SVGID_00000075864775645145544280000005371272841279369656_" gradientUnits="userSpaceOnUse" x1="435.41" y1="172.4689" x2="416.6377" y2="169.0464">
				<stop  offset="0.0177" style="stop-color:#E00E17"/>
				<stop  offset="0.581" style="stop-color:#AC0E17"/>
				<stop  offset="0.6727" style="stop-color:#B00E17"/>
				<stop  offset="0.7612" style="stop-color:#BB0E17"/>
				<stop  offset="0.8485" style="stop-color:#CF0E17"/>
				<stop  offset="0.9344" style="stop-color:#EA0E17"/>
				<stop  offset="0.9881" style="stop-color:#FF0E17"/>
			</linearGradient>
			<path style="fill:url(#SVGID_00000075864775645145544280000005371272841279369656_);" d="M437.814,162.336l-2.39,12.81l0,0
				c0,0-0.999,1.996-7.884,3.436c-8.557,1.792-11.286,1.003-11.286,1.003l2.265-12.178l0,0c3.418,0.508,14.668-0.18,19.162-4.357
				C437.709,163.027,437.787,162.359,437.814,162.336C437.918,162.253,437.814,162.336,437.814,162.336z"/>
			
				<linearGradient id="SVGID_00000169548039193896640340000010346828199687946173_" gradientUnits="userSpaceOnUse" x1="439.9307" y1="148.9675" x2="421.1964" y2="145.552">
				<stop  offset="0.0177" style="stop-color:#E00E17"/>
				<stop  offset="0.581" style="stop-color:#AC0E17"/>
				<stop  offset="0.6727" style="stop-color:#B00E17"/>
				<stop  offset="0.7612" style="stop-color:#BB0E17"/>
				<stop  offset="0.8485" style="stop-color:#CF0E17"/>
				<stop  offset="0.9344" style="stop-color:#EA0E17"/>
				<stop  offset="0.9881" style="stop-color:#FF0E17"/>
			</linearGradient>
			<path style="fill:url(#SVGID_00000169548039193896640340000010346828199687946173_);" d="M440.05,151.271L440.05,151.271
				c0,0-0.999,1.996-7.884,3.436c-8.557,1.792-11.286,1.003-11.286,1.003l2.265-12.178l0,0c3.418,0.508,14.668-0.18,19.162-4.357
				C442.334,139.152,440.05,151.271,440.05,151.271z"/>
			
				<linearGradient id="SVGID_00000162334594648814583440000010846770725307159992_" gradientUnits="userSpaceOnUse" x1="444.3995" y1="125.0925" x2="425.6651" y2="121.677">
				<stop  offset="0.0177" style="stop-color:#E00E17"/>
				<stop  offset="0.581" style="stop-color:#AC0E17"/>
				<stop  offset="0.6727" style="stop-color:#B00E17"/>
				<stop  offset="0.7612" style="stop-color:#BB0E17"/>
				<stop  offset="0.8485" style="stop-color:#CF0E17"/>
				<stop  offset="0.9344" style="stop-color:#EA0E17"/>
				<stop  offset="0.9881" style="stop-color:#FF0E17"/>
			</linearGradient>
			<path style="fill:url(#SVGID_00000162334594648814583440000010846770725307159992_);" d="M444.519,127.396L444.519,127.396
				c0,0-0.999,1.996-7.884,3.436c-8.557,1.792-11.286,1.003-11.286,1.003l2.265-12.178l0,0c3.418,0.508,14.668-0.18,19.162-4.356
				C446.803,115.277,444.519,127.396,444.519,127.396z"/>
			
				<linearGradient id="SVGID_00000027605194821741307030000007479456185952918664_" gradientUnits="userSpaceOnUse" x1="403.196" y1="171.3887" x2="431.2717" y2="171.8466" gradientTransform="matrix(0.9869 0.1616 -0.1441 0.88 35.2011 -22.0956)">
				<stop  offset="0.1858" style="stop-color:#FFFFFF;stop-opacity:0"/>
				<stop  offset="0.6587" style="stop-color:#FFFFFF;stop-opacity:0.3446"/>
				<stop  offset="0.7347" style="stop-color:#FFFFFF;stop-opacity:0.4"/>
				<stop  offset="0.8083" style="stop-color:#FDFCFC;stop-opacity:0.289"/>
				<stop  offset="0.8531" style="stop-color:#F4F4F4;stop-opacity:0.2214"/>
				<stop  offset="0.8902" style="stop-color:#E6E6E6;stop-opacity:0.1655"/>
				<stop  offset="0.9231" style="stop-color:#D2D2D1;stop-opacity:0.1159"/>
				<stop  offset="0.9532" style="stop-color:#B8B8B7;stop-opacity:0.0705"/>
				<stop  offset="0.9809" style="stop-color:#999897;stop-opacity:0.0288"/>
				<stop  offset="1" style="stop-color:#7F7E7C;stop-opacity:0"/>
			</linearGradient>
			<path style="fill:url(#SVGID_00000027605194821741307030000007479456185952918664_);" d="M448.125,107.563L415.3,284.17
				c-2.273,3.307-12.394,0.618-18.35,1.08l32.811-177.875L448.125,107.563z"/>
			
				<linearGradient id="SVGID_00000088841148444398218200000000405544235098081676_" gradientUnits="userSpaceOnUse" x1="429.7617" y1="107.6878" x2="448.125" y2="107.6878">
				<stop  offset="0" style="stop-color:#FAFAFA"/>
				<stop  offset="0.0976" style="stop-color:#F6F6F6"/>
				<stop  offset="0.6195" style="stop-color:#E4E4E4"/>
				<stop  offset="1" style="stop-color:#DEDEDE"/>
			</linearGradient>
			<path style="fill:url(#SVGID_00000088841148444398218200000000405544235098081676_);" d="M448.125,107.688
				c0,1.031-4.111,1.867-9.182,1.867c-5.071,0-9.182-0.836-9.182-1.867c0-1.031,4.11-1.867,9.182-1.867
				C444.014,105.821,448.125,106.657,448.125,107.688z"/>
		</g>
	</g>
</g>
</svg>
