<?xml version="1.0" encoding="utf-8"?>
<!-- Generator: Adobe Illustrator 27.5.0, SVG Export Plug-In . SVG Version: 6.00 Build 0)  -->
<svg version="1.1" xmlns="http://www.w3.org/2000/svg" xmlns:xlink="http://www.w3.org/1999/xlink" x="0px" y="0px"
	 viewBox="0 0 3710 3710" style="enable-background:new 0 0 3710 3710;" xml:space="preserve">
<g id="Background">
	<g>
		<g>
			<rect style="fill:#FFFFFF;" width="3710" height="3710"/>
		</g>
	</g>
</g>
<g id="Illustration">
	<g>
		<path style="fill:#F4F7FA;" d="M2361.424,514.718c-211.6-47.207-431.599-69.833-646.704-55.41
			c-190.651,12.783-406.759,47.673-560.179,172.648c-73.114,59.558-160.306,166.577-184.221,260.989
			c-0.003,0.011-125.886,496.951-377.648,603.44c-251.766,106.489-426.603,1923.907,1482.619,1746.425
			c0,0,1121.373-46.507,1188.893-1386.112c16.311-323.606,7.198-679.362-188.2-949.951
			c-149.734-207.354-359.526-299.551-600.6-364.062C2437.723,532.607,2399.711,523.26,2361.424,514.718z"/>
		<g>
			<g>
				<linearGradient id="SVGID_1_" gradientUnits="userSpaceOnUse" x1="1132.9658" y1="3069.4717" x2="1206.5452" y2="3069.4717">
					<stop  offset="0" style="stop-color:#444B8C"/>
					<stop  offset="0.9964" style="stop-color:#26264F"/>
				</linearGradient>
				<path style="fill:url(#SVGID_1_);" d="M1132.966,2962.694c3.098,62.928,6.2,125.97,9.309,189.125
					c0.368,7.475,6.525,14.906,14.051,16.917c8.683,2.32,17.409,4.651,26.179,6.995c7.664,2.048,14.002-2.146,14.381-9.529
					c3.214-62.592,6.433-125.299,9.659-188.121C1181.672,2972.879,1157.147,2967.751,1132.966,2962.694z"/>
				
					<linearGradient id="SVGID_00000008120227399000528720000008864561951358577594_" gradientUnits="userSpaceOnUse" x1="1126.9355" y1="2701.3291" x2="1285.1156" y2="3309.3357">
					<stop  offset="0" style="stop-color:#444B8C"/>
					<stop  offset="0.9964" style="stop-color:#26264F"/>
				</linearGradient>
				<path style="fill:url(#SVGID_00000008120227399000528720000008864561951358577594_);" d="M1170.599,2955.061
					c3.72,69.454,7.436,138.871,11.152,208.249c0.439,8.2,7.769,13.904,16.684,12.975c10.222-1.065,20.429-2.129,30.62-3.191
					c8.851-0.922,16.133-8.129,16.567-16.371c3.679-69.772,7.354-139.506,11.029-209.201
					C1228.089,2950.023,1199.405,2952.536,1170.599,2955.061z"/>
			</g>
			
				<linearGradient id="SVGID_00000023980835984297111980000006191345217761500312_" gradientUnits="userSpaceOnUse" x1="1151.4261" y1="3036.0693" x2="1256.6505" y2="3036.0693">
				<stop  offset="0" style="stop-color:#444B8C"/>
				<stop  offset="0.9964" style="stop-color:#26264F"/>
			</linearGradient>
			<path style="fill:url(#SVGID_00000023980835984297111980000006191345217761500312_);" d="M1151.426,2905.362
				c4.549,84.929,9.093,169.812,13.637,254.648c0.537,10.027,9.501,17.002,20.401,15.865c12.5-1.303,24.98-2.604,37.442-3.902
				c10.823-1.128,19.728-9.941,20.259-20.019c4.498-85.318,8.992-170.589,13.486-255.813
				C1221.725,2899.202,1186.65,2902.276,1151.426,2905.362z"/>
			<g>
				
					<linearGradient id="SVGID_00000096029798698520692330000003175805369077158062_" gradientUnits="userSpaceOnUse" x1="622.2036" y1="2954.6257" x2="695.783" y2="2954.6257">
					<stop  offset="0" style="stop-color:#444B8C"/>
					<stop  offset="0.9964" style="stop-color:#26264F"/>
				</linearGradient>
				<path style="fill:url(#SVGID_00000096029798698520692330000003175805369077158062_);" d="M622.204,2847.848
					c3.098,62.928,6.2,125.97,9.31,189.125c0.368,7.474,6.525,14.906,14.051,16.917c8.683,2.32,17.409,4.651,26.179,6.995
					c7.664,2.048,14.002-2.146,14.381-9.529c3.214-62.592,6.433-125.299,9.659-188.121
					C670.91,2858.033,646.385,2852.905,622.204,2847.848z"/>
				
					<linearGradient id="SVGID_00000160169025679854340560000010369445304629216425_" gradientUnits="userSpaceOnUse" x1="616.1733" y1="2586.4834" x2="774.3533" y2="3194.4897">
					<stop  offset="0" style="stop-color:#444B8C"/>
					<stop  offset="0.9964" style="stop-color:#26264F"/>
				</linearGradient>
				<path style="fill:url(#SVGID_00000160169025679854340560000010369445304629216425_);" d="M659.837,2840.215
					c3.72,69.454,7.436,138.871,11.152,208.248c0.439,8.2,7.769,13.904,16.684,12.975c10.222-1.065,20.429-2.129,30.62-3.191
					c8.851-0.923,16.133-8.13,16.567-16.371c3.679-69.772,7.354-139.506,11.029-209.201
					C717.327,2835.177,688.643,2837.69,659.837,2840.215z"/>
			</g>
			<g>
				
					<linearGradient id="SVGID_00000046321852683740214130000002363774329359055777_" gradientUnits="userSpaceOnUse" x1="2245.1582" y1="2954.6257" x2="2318.7373" y2="2954.6257">
					<stop  offset="0" style="stop-color:#444B8C"/>
					<stop  offset="0.9964" style="stop-color:#26264F"/>
				</linearGradient>
				<path style="fill:url(#SVGID_00000046321852683740214130000002363774329359055777_);" d="M2245.158,2847.848
					c3.098,62.928,6.2,125.97,9.309,189.125c0.368,7.474,6.525,14.906,14.051,16.917c8.683,2.32,17.409,4.651,26.179,6.995
					c7.664,2.048,14.002-2.146,14.381-9.529c3.214-62.592,6.433-125.299,9.659-188.121
					C2293.864,2858.033,2269.34,2852.905,2245.158,2847.848z"/>
				
					<linearGradient id="SVGID_00000070841414002432259250000013481685948193373867_" gradientUnits="userSpaceOnUse" x1="2239.1277" y1="2586.4834" x2="2397.3079" y2="3194.4897">
					<stop  offset="0" style="stop-color:#444B8C"/>
					<stop  offset="0.9964" style="stop-color:#26264F"/>
				</linearGradient>
				<path style="fill:url(#SVGID_00000070841414002432259250000013481685948193373867_);" d="M2282.791,2840.215
					c3.72,69.454,7.436,138.871,11.152,208.248c0.439,8.2,7.77,13.904,16.684,12.975c10.222-1.065,20.429-2.129,30.62-3.191
					c8.851-0.923,16.133-8.13,16.567-16.371c3.679-69.772,7.354-139.506,11.029-209.201
					C2340.281,2835.177,2311.597,2837.69,2282.791,2840.215z"/>
			</g>
			
				<linearGradient id="SVGID_00000168098845378890606500000015906998625779291806_" gradientUnits="userSpaceOnUse" x1="575.6341" y1="1790.7063" x2="1095.3542" y2="1790.7063">
				<stop  offset="0" style="stop-color:#444B8C"/>
				<stop  offset="0.9964" style="stop-color:#26264F"/>
			</linearGradient>
			<polygon style="fill:url(#SVGID_00000168098845378890606500000015906998625779291806_);" points="1095.354,3049.479 
				575.634,2913.262 575.634,699.292 1095.354,531.934 			"/>
			
				<linearGradient id="SVGID_00000003067877349812457040000017459734694449514674_" gradientUnits="userSpaceOnUse" x1="575.6341" y1="2872.6663" x2="1095.3542" y2="2872.6663">
				<stop  offset="0" style="stop-color:#AA80F9"/>
				<stop  offset="0.9964" style="stop-color:#6165D7"/>
			</linearGradient>
			<polygon style="opacity:0.4;fill:url(#SVGID_00000003067877349812457040000017459734694449514674_);" points="1095.354,2943.699 
				575.634,2820.238 575.634,2801.633 1095.354,2922.543 			"/>
			<g>
				
					<linearGradient id="SVGID_00000127017227542592915630000007819916120193394622_" gradientUnits="userSpaceOnUse" x1="1095.3542" y1="1790.7063" x2="2411.9785" y2="1790.7063">
					<stop  offset="0" style="stop-color:#AA80F9"/>
					<stop  offset="0.9964" style="stop-color:#6165D7"/>
				</linearGradient>
				<polygon style="fill:url(#SVGID_00000127017227542592915630000007819916120193394622_);" points="2411.979,2922.951 
					1095.354,3049.479 1095.354,531.934 2411.979,605.627 				"/>
				
					<linearGradient id="SVGID_00000072249010968302999810000018178360889396307097_" gradientUnits="userSpaceOnUse" x1="1181.9742" y1="1299.5363" x2="2360.0063" y2="1299.5363">
					<stop  offset="0" style="stop-color:#444B8C"/>
					<stop  offset="0.9964" style="stop-color:#26264F"/>
				</linearGradient>
				<path style="fill:url(#SVGID_00000072249010968302999810000018178360889396307097_);" d="M1249.676,1935.752
					c-37.393,1.087-67.702-26.362-67.702-61.173V723.182c0-34.81,30.309-61.617,67.702-59.806l1051.822,51.005
					c32.607,1.58,58.509,29.176,58.509,61.495v1068.972c0,32.318-25.901,59.369-58.509,60.317L1249.676,1935.752z"/>
				<path style="fill:#FFFFFF;" d="M2332.288,774.551v1070.965c0,17.001-13.619,31.152-30.758,31.62l-1052.6,28.692
					c-19.612,0.534-35.773-13.781-35.773-32.022V724.713c0-18.242,16.285-32.27,35.897-31.356l1052.281,49.026
					C2318.475,743.182,2332.288,757.55,2332.288,774.551z"/>
				
					<linearGradient id="SVGID_00000163785756758852460330000012744299615184177815_" gradientUnits="userSpaceOnUse" x1="1968.4839" y1="2194.4082" x2="2332.2881" y2="2194.4082">
					<stop  offset="0" style="stop-color:#444B8C"/>
					<stop  offset="0.9964" style="stop-color:#26264F"/>
				</linearGradient>
				<path style="fill:url(#SVGID_00000163785756758852460330000012744299615184177815_);" d="M2324.777,2010.788l-347.441,12.476
					c-4.469,0.161-8.852,3.808-8.852,8.156v339.192c0,4.347,4.499,7.669,8.968,7.407l346.893-20.33
					c4.271-0.25,7.943-3.901,7.943-8.148v-331.356C2332.288,2013.938,2329.048,2010.635,2324.777,2010.788z"/>
				<g>
					
						<linearGradient id="SVGID_00000162339153561232908580000013593229732982321582_" gradientUnits="userSpaceOnUse" x1="1206.2278" y1="2643.0505" x2="2318.4287" y2="2643.0505">
						<stop  offset="0" style="stop-color:#444B8C"/>
						<stop  offset="0.9964" style="stop-color:#26264F"/>
					</linearGradient>
					<polygon style="fill:url(#SVGID_00000162339153561232908580000013593229732982321582_);" points="2318.429,2713.757 
						1206.228,2804.678 1206.228,2555.513 2318.429,2481.423 					"/>
					
						<linearGradient id="SVGID_00000019677409417504917950000004161223305841674624_" gradientUnits="userSpaceOnUse" x1="1206.2278" y1="2711.6311" x2="2318.4287" y2="2711.6311">
						<stop  offset="0" style="stop-color:#444B8C"/>
						<stop  offset="0.9964" style="stop-color:#26264F"/>
					</linearGradient>
					<polygon style="opacity:0.4;fill:url(#SVGID_00000019677409417504917950000004161223305841674624_);" points="
						2318.429,2713.757 1206.228,2804.678 1206.228,2702.611 2318.429,2618.584 					"/>
				</g>
				
					<linearGradient id="SVGID_00000124163323013339754120000013344052816705169795_" gradientUnits="userSpaceOnUse" x1="1095.3542" y1="2874.905" x2="2411.9785" y2="2874.905">
					<stop  offset="0" style="stop-color:#444B8C"/>
					<stop  offset="0.9964" style="stop-color:#26264F"/>
				</linearGradient>
				<polygon style="fill:url(#SVGID_00000124163323013339754120000013344052816705169795_);" points="2411.979,2825.584 
					1095.354,2943.699 1095.354,2922.543 2411.979,2806.111 				"/>
				<g>
					
						<linearGradient id="SVGID_00000043427168983586715270000006077972518957615761_" gradientUnits="userSpaceOnUse" x1="2011.3517" y1="2125.5266" x2="2114.1848" y2="2125.5266">
						<stop  offset="0" style="stop-color:#AA80F9"/>
						<stop  offset="0.9964" style="stop-color:#6165D7"/>
					</linearGradient>
					<path style="fill:url(#SVGID_00000043427168983586715270000006077972518957615761_);" d="M2114.185,2123.328
						c0,27.671-22.903,51.157-51.247,52.46c-28.448,1.308-51.586-20.208-51.586-48.063s23.138-51.35,51.586-52.474
						C2091.282,2074.13,2114.185,2095.656,2114.185,2123.328z"/>
					<g>
						
							<linearGradient id="SVGID_00000146500703631771623630000010453645706766778777_" gradientUnits="userSpaceOnUse" x1="2194.7202" y1="2117.7371" x2="2295.1655" y2="2117.7371">
							<stop  offset="0" style="stop-color:#AA80F9"/>
							<stop  offset="0.9964" style="stop-color:#6165D7"/>
						</linearGradient>
						<path style="fill:url(#SVGID_00000146500703631771623630000010453645706766778777_);" d="M2295.166,2115.59
							c0,27.349-22.372,50.549-50.059,51.822c-27.787,1.278-50.386-19.999-50.386-47.527c0-27.528,22.599-50.738,50.386-51.836
							C2272.794,2066.954,2295.166,2088.24,2295.166,2115.59z"/>
						
							<linearGradient id="SVGID_00000031891492673519680420000008795252044755449233_" gradientUnits="userSpaceOnUse" x1="2214.4846" y1="2113.5103" x2="2273.3865" y2="2113.5103">
							<stop  offset="0" style="stop-color:#444B8C"/>
							<stop  offset="0.9964" style="stop-color:#26264F"/>
						</linearGradient>
						<path style="fill:url(#SVGID_00000031891492673519680420000008795252044755449233_);" d="M2273.386,2112.635
							c0,2.066-0.227,3.824-2.313,3.913l-53.873,2.35c-2.101,0.09-2.717-1.52-2.717-3.595v-0.939c0-2.075,1.348-3.824,3.449-3.913
							l53.319-2.327c2.086-0.088,2.134,1.509,2.134,3.576V2112.635z"/>
					</g>
					<g>
						
							<linearGradient id="SVGID_00000155850219797664017470000009330884495577457543_" gradientUnits="userSpaceOnUse" x1="2037.7799" y1="2129.0801" x2="2058.5686" y2="2129.0801">
							<stop  offset="0" style="stop-color:#444B8C"/>
							<stop  offset="0.9964" style="stop-color:#26264F"/>
						</linearGradient>
						<path style="fill:url(#SVGID_00000155850219797664017470000009330884495577457543_);" d="M2058.569,2128.765
							c0,6.189-5.377,11.424-11.716,11.701l1.028,0.013c-6.345,0.277-10.1-4.526-10.1-10.725v-0.356
							c0-6.199,3.634-11.442,9.979-11.71l-0.15-0.009c6.34-0.268,10.96,4.54,10.96,10.729V2128.765z"/>
						
							<linearGradient id="SVGID_00000067917998509650997210000000890835340991890340_" gradientUnits="userSpaceOnUse" x1="2044.7095" y1="2127.8274" x2="2100.1462" y2="2127.8274">
							<stop  offset="0" style="stop-color:#444B8C"/>
							<stop  offset="0.9964" style="stop-color:#26264F"/>
						</linearGradient>
						<path style="fill:url(#SVGID_00000067917998509650997210000000890835340991890340_);" d="M2100.146,2127.099
							c0,2.833-0.146,5.243-3.037,5.369l-47.37,2.072c-2.91,0.126-5.03-2.066-5.03-4.91v-1.097c0-2.843,3.219-5.253,6.129-5.377
							l45.841-2.042c2.891-0.123,3.467,2.059,3.467,4.892V2127.099z"/>
					</g>
				</g>
				
					<linearGradient id="SVGID_00000081607518610741613780000013247341917774964383_" gradientUnits="userSpaceOnUse" x1="1999.6671" y1="2277.6563" x2="2138.259" y2="2277.6563">
					<stop  offset="0" style="stop-color:#AA80F9"/>
					<stop  offset="0.9964" style="stop-color:#6165D7"/>
				</linearGradient>
				<path style="fill:url(#SVGID_00000081607518610741613780000013247341917774964383_);" d="M2130.801,2210.417l-123.327,5.977
					c-4.452,0.216-7.807,3.902-7.807,8.241v112.851c0,4.339,3.591,7.658,8.043,7.406l123.102-6.995
					c4.38-0.248,7.446-3.933,7.446-8.233v-111.844C2138.259,2213.519,2135.181,2210.205,2130.801,2210.417z"/>
				
					<linearGradient id="SVGID_00000055701839714841499540000007976492371383965865_" gradientUnits="userSpaceOnUse" x1="1213.1573" y1="1068.6133" x2="2332.2881" y2="1068.6133">
					<stop  offset="0" style="stop-color:#AA80F9"/>
					<stop  offset="0.9964" style="stop-color:#6165D7"/>
				</linearGradient>
				<polygon style="opacity:0.3;fill:url(#SVGID_00000055701839714841499540000007976492371383965865_);" points="2332.288,1118.49 
					1213.157,1093.743 1213.157,1018.736 2332.288,1048.584 				"/>
				
					<linearGradient id="SVGID_00000095298621550910616910000011315175623854027181_" gradientUnits="userSpaceOnUse" x1="1213.1573" y1="1470.2728" x2="2332.2881" y2="1470.2728">
					<stop  offset="0" style="stop-color:#AA80F9"/>
					<stop  offset="0.9964" style="stop-color:#6165D7"/>
				</linearGradient>
				<polygon style="opacity:0.3;fill:url(#SVGID_00000095298621550910616910000011315175623854027181_);" points="
					2332.288,1504.373 1213.157,1507.776 1213.157,1432.77 2332.288,1434.467 				"/>
				
					<linearGradient id="SVGID_00000084521770101214802350000003530073823134062994_" gradientUnits="userSpaceOnUse" x1="1213.1573" y1="1856.5883" x2="2332.2881" y2="1856.5883">
					<stop  offset="0" style="stop-color:#AA80F9"/>
					<stop  offset="0.9964" style="stop-color:#6165D7"/>
				</linearGradient>
				<polygon style="opacity:0.3;fill:url(#SVGID_00000084521770101214802350000003530073823134062994_);" points="
					2332.288,1876.275 1213.157,1906.808 1213.157,1831.802 2332.288,1806.369 				"/>
				<g>
					<path style="fill:#EAEDF3;" d="M1447.698,999.537c-0.628,8.218-0.822,15.63-0.822,21.818c0.047,4.87-2.032,9.502-5.662,12.866
						c-3.682,3.318-8.671,5.147-13.86,5.013l-79.58-2.055c-5.243-0.135-10.243-2.234-13.97-5.767
						c-3.68-3.58-5.792-8.356-5.741-13.26c0-6.188-0.197-13.711-0.885-22.027c-1.817-23.523,15.254-73.253,6.084-107.92
						c-5.348-20.126-1.227-46.739,4.562-66.584c4.215-14.399,9.361-25.228,12.445-27.482c7.34-5.42,7.941-35.025,7.941-35.025
						l24.722,0.486v-0.137l3.465,0.177l3.464,0.085v0.091l25.911,1.75c0,0,1.738,29.614,9.018,35.609
						c3.057,2.493,8.119,13.675,12.285,28.319c5.811,20.162,9.861,46.888,4.587,66.498
						C1432.605,925.832,1449.488,976.295,1447.698,999.537z"/>
					
						<linearGradient id="SVGID_00000141418809290868185440000010087074754479414444_" gradientUnits="userSpaceOnUse" x1="1327.042" y1="930.8864" x2="1447.8322" y2="930.8864">
						<stop  offset="0" style="stop-color:#FF9085"/>
						<stop  offset="1" style="stop-color:#FB6FBB"/>
					</linearGradient>
					<path style="fill:url(#SVGID_00000141418809290868185440000010087074754479414444_);" d="M1447.698,999.537
						c-0.628,8.218-0.822,15.63-0.822,21.818c0.047,4.87-2.032,9.502-5.662,12.866c-3.682,3.318-8.671,5.147-13.86,5.013
						l-79.58-2.055c-5.243-0.135-10.243-2.234-13.97-5.767c-3.68-3.58-5.792-8.356-5.741-13.26c0-6.188-0.197-13.711-0.885-22.027
						c-1.817-23.523,15.254-72.798,6.084-107.465c-5.348-20.126-1.227-48.483,4.562-66.13l99.223,3.866
						c5.811,17.977,9.875,46.436,4.601,66.046C1432.591,926.284,1449.488,976.295,1447.698,999.537z"/>
					
						<linearGradient id="SVGID_00000033361831031615318580000001082480586587743150_" gradientUnits="userSpaceOnUse" x1="1348.2845" y1="748.6377" x2="1417.5806" y2="748.6377">
						<stop  offset="0" style="stop-color:#FF9085"/>
						<stop  offset="1" style="stop-color:#FB6FBB"/>
					</linearGradient>
					<path style="fill:url(#SVGID_00000033361831031615318580000001082480586587743150_);" d="M1417.581,738.056
						c0-2.291,0.026-4.21-2.414-4.319l-63.217-2.81c-2.46-0.11-3.664,1.712-3.664,4.013v24.399c0,2.301,2.207,4.219,4.667,4.324
						l62.108,2.685c2.44,0.104,2.521-1.711,2.521-4.002V738.056z"/>
				</g>
				<g>
					<path style="fill:#EAEDF3;" d="M1732.842,1007.609c-0.606,8.074-0.793,15.356-0.793,21.435
						c0.046,4.785-1.961,9.336-5.464,12.642c-3.553,3.262-8.368,5.06-13.376,4.931l-76.796-1.984
						c-5.059-0.131-9.884-2.19-13.479-5.659c-3.551-3.514-5.588-8.206-5.54-13.022c0-6.078-0.19-13.468-0.854-21.636
						c-1.754-23.105,14.719-71.964,5.871-106.012c-5.161-19.766-1.183-45.911,4.402-65.409c4.067-14.147,9.032-24.788,12.008-27.005
						c7.083-5.329,9.485-34.355,9.485-34.355l25.671,0.515v-0.135l1.732,0.11l1.732,0.02v0.09l24.799,1.705
						c0,0,1.573,29.094,8.599,34.978c2.951,2.447,7.783,13.429,11.804,27.813c5.609,19.803,9.491,46.058,4.401,65.326
						C1718.301,935.209,1734.569,984.775,1732.842,1007.609z"/>
					
						<linearGradient id="SVGID_00000005226859655313390050000017770179260172815292_" gradientUnits="userSpaceOnUse" x1="1616.407" y1="940.2073" x2="1732.9709" y2="940.2073">
						<stop  offset="0.0036" style="stop-color:#E38DDD"/>
						<stop  offset="1" style="stop-color:#9571F6"/>
					</linearGradient>
					<path style="fill:url(#SVGID_00000005226859655313390050000017770179260172815292_);" d="M1732.842,1007.609
						c-0.606,8.074-0.793,15.356-0.793,21.435c0.046,4.785-1.961,9.336-5.464,12.642c-3.553,3.262-8.368,5.06-13.376,4.931
						l-76.796-1.984c-5.059-0.131-9.884-2.19-13.479-5.659c-3.551-3.514-5.588-8.206-5.54-13.022c0-6.078-0.19-13.468-0.854-21.636
						c-1.754-23.105,14.719-71.517,5.871-105.565c-5.161-19.766-1.183-47.623,4.402-64.962l95.751,3.731
						c5.609,17.657,9.531,45.613,4.441,64.881C1718.261,935.653,1734.569,984.775,1732.842,1007.609z"/>
					
						<linearGradient id="SVGID_00000052789320383588808710000009270077160104241075_" gradientUnits="userSpaceOnUse" x1="1642.7927" y1="761.2803" x2="1708.6239" y2="761.2803">
						<stop  offset="0.0036" style="stop-color:#E38DDD"/>
						<stop  offset="1" style="stop-color:#9571F6"/>
					</linearGradient>
					<path style="fill:url(#SVGID_00000052789320383588808710000009270077160104241075_);" d="M1708.624,750.907
						c0-2.25-1.341-4.167-3.696-4.272l-59.794-2.737c-2.374-0.106-2.342,1.659-2.342,3.919v23.964c0,2.26,0.251,4.152,2.625,4.253
						l60.346,2.628c2.354,0.1,2.86-1.646,2.86-3.896V750.907z"/>
				</g>
				<g>
					<path style="fill:#EAEDF3;" d="M2020.984,1015.766c-0.585,7.928-0.765,15.078-0.765,21.048
						c0.044,4.698-1.891,9.168-5.269,12.416c-3.426,3.204-8.068,4.973-12.896,4.848l-74.033-1.912
						c-4.877-0.126-9.527-2.146-12.993-5.55c-3.423-3.449-5.386-8.054-5.34-12.783c0-5.967-0.183-13.222-0.823-21.241
						c-1.69-22.683,14.188-70.662,5.659-104.085c-4.974-19.403-1.141-45.074,4.243-64.22c3.92-13.892,8.706-24.343,11.575-26.522
						c6.828-5.238,7.8-33.829,7.8-33.829l23.412,0.394v-0.132l1.733,0.173l1.732,0.085v0.088l25.184,1.68
						c0,0,2.155,28.577,8.929,34.35c2.845,2.401,7.823,13.187,11.699,27.308c5.408,19.441,9.311,45.221,4.403,64.144
						C2006.805,944.681,2022.65,993.344,2020.984,1015.766z"/>
					
						<linearGradient id="SVGID_00000065776275968470981120000005237099167903813791_" gradientUnits="userSpaceOnUse" x1="1908.7388" y1="949.6248" x2="2021.109" y2="949.6248">
						<stop  offset="0" style="stop-color:#FF9085"/>
						<stop  offset="1" style="stop-color:#FB6FBB"/>
					</linearGradient>
					<path style="fill:url(#SVGID_00000065776275968470981120000005237099167903813791_);" d="M2020.984,1015.766
						c-0.585,7.928-0.765,15.078-0.765,21.048c0.044,4.698-1.891,9.168-5.269,12.416c-3.426,3.204-8.068,4.973-12.896,4.848
						l-74.033-1.912c-4.877-0.126-9.527-2.146-12.993-5.55c-3.423-3.449-5.386-8.054-5.34-12.783c0-5.967-0.183-13.222-0.823-21.241
						c-1.69-22.683,14.188-70.223,5.659-103.646c-4.974-19.403-1.141-46.755,4.243-63.782l92.306,3.596
						c5.407,17.334,9.189,44.781,4.281,63.704C2006.927,945.12,2022.65,993.344,2020.984,1015.766z"/>
					
						<linearGradient id="SVGID_00000031915213100031315430000007633359697513545857_" gradientUnits="userSpaceOnUse" x1="1930.3711" y1="773.8372" x2="1996.2023" y2="773.8372">
						<stop  offset="0" style="stop-color:#FF9085"/>
						<stop  offset="1" style="stop-color:#FB6FBB"/>
					</linearGradient>
					<path style="fill:url(#SVGID_00000031915213100031315430000007633359697513545857_);" d="M1996.202,763.584
						c0-2.21-1.596-4.065-3.867-4.166l-58.683-2.616c-2.289-0.102-3.281,1.654-3.281,3.874v23.531c0,2.219,1.115,4.067,3.404,4.164
						l58.93,2.504c2.271,0.097,3.498-1.65,3.498-3.859V763.584z"/>
				</g>
				<g>
					<path style="fill:#EAEDF3;" d="M2286.486,1023.282c-0.565,7.794-0.739,14.823-0.739,20.691
						c0.042,4.618-1.827,9.013-5.091,12.208c-3.31,3.151-7.796,4.892-12.462,4.771l-71.532-1.848
						c-4.712-0.122-9.205-2.105-12.553-5.449c-3.307-3.388-5.204-7.914-5.159-12.562c0-5.865-0.177-12.996-0.795-20.878
						c-1.633-22.295,13.707-69.462,5.467-102.309c-4.806-19.068-1.102-44.303,4.1-63.126c3.788-13.657,8.411-23.933,11.183-26.077
						c6.597-5.153,8.914-33.175,8.914-33.175l23.991,0.453v-0.13v0.107v0.021v0.087l24.634,1.613c0,0,2.232,28.08,8.778,33.75
						c2.749,2.358,7.634,12.952,11.38,26.831c5.225,19.108,9.034,44.445,4.292,63.049
						C2272.747,953.414,2288.095,1001.24,2286.486,1023.282z"/>
					
						<linearGradient id="SVGID_00000056404452877008428150000016296764093153511830_" gradientUnits="userSpaceOnUse" x1="2178.0317" y1="958.3008" x2="2286.6062" y2="958.3008">
						<stop  offset="0.0036" style="stop-color:#E38DDD"/>
						<stop  offset="1" style="stop-color:#9571F6"/>
					</linearGradient>
					<path style="fill:url(#SVGID_00000056404452877008428150000016296764093153511830_);" d="M2286.486,1023.282
						c-0.565,7.794-0.739,14.823-0.739,20.691c0.042,4.618-1.827,9.013-5.091,12.208c-3.31,3.151-7.796,4.892-12.462,4.771
						l-71.532-1.848c-4.712-0.122-9.205-2.105-12.553-5.449c-3.307-3.388-5.204-7.914-5.159-12.562
						c0-5.865-0.177-12.996-0.795-20.878c-1.633-22.295,13.707-69.03,5.467-101.877c-4.806-19.068-1.102-45.956,4.1-62.694
						l89.188,3.475c5.225,17.036,8.88,44.015,4.137,62.62C2272.902,953.843,2288.095,1001.24,2286.486,1023.282z"/>
					
						<linearGradient id="SVGID_00000097469639959963189300000016628817920739107221_" gradientUnits="userSpaceOnUse" x1="2197.1606" y1="785.5349" x2="2262.9919" y2="785.5349">
						<stop  offset="0.0036" style="stop-color:#E38DDD"/>
						<stop  offset="1" style="stop-color:#9571F6"/>
					</linearGradient>
					<path style="fill:url(#SVGID_00000097469639959963189300000016628817920739107221_);" d="M2262.992,775.453
						c0-2.172-0.784-3.977-2.977-4.075l-58.186-2.574c-2.21-0.099-4.669,1.581-4.669,3.763v23.127c0,2.181,2.956,4.051,5.167,4.145
						l57.106,2.429c2.194,0.094,3.558-1.613,3.558-3.785V775.453z"/>
				</g>
				<g>
					<path style="fill:#EAEDF3;" d="M1447.698,1824.713c-0.628,8.25-0.822,15.672-0.822,21.86c0.047,4.868-2.032,9.606-5.662,13.154
						c-3.682,3.506-8.671,5.588-13.86,5.718l-79.58,1.995c-5.243,0.131-10.243-1.713-13.97-5.056
						c-3.68-3.392-5.792-8.062-5.741-12.968c0-6.188-0.197-13.7-0.885-21.982c-1.817-23.43,15.254-74.029,6.084-108.23
						c-5.348-19.854-1.227-46.677,4.562-66.817c4.215-14.613,9.361-25.704,12.445-28.116c7.34-5.794,7.941-35.448,7.941-35.448
						l24.722-0.792v-0.137l3.465,0.017l3.464-0.074v0.091l25.911,0.434c0,0,1.738,29.527,9.018,35.151
						c3.057,2.337,8.119,13.262,12.285,27.695c5.811,19.866,9.861,46.387,4.587,66.265
						C1432.605,1751.776,1449.488,1801.38,1447.698,1824.713z"/>
					
						<linearGradient id="SVGID_00000028319141029034266800000011754966929117082752_" gradientUnits="userSpaceOnUse" x1="1327.042" y1="1759.781" x2="1447.8322" y2="1759.781">
						<stop  offset="0" style="stop-color:#FF9085"/>
						<stop  offset="1" style="stop-color:#FB6FBB"/>
					</linearGradient>
					<path style="fill:url(#SVGID_00000028319141029034266800000011754966929117082752_);" d="M1447.698,1824.713
						c-0.628,8.25-0.822,15.672-0.822,21.86c0.047,4.868-2.032,9.606-5.662,13.154c-3.682,3.506-8.671,5.588-13.86,5.718
						l-79.58,1.995c-5.243,0.131-10.243-1.713-13.97-5.056c-3.68-3.392-5.792-8.062-5.741-12.968c0-6.188-0.197-13.7-0.885-21.982
						c-1.817-23.43,15.254-73.574,6.084-107.775c-5.348-19.854-1.227-48.42,4.562-66.362l99.223-1.184
						c5.811,17.682,9.875,45.934,4.601,65.812C1432.591,1752.229,1449.488,1801.38,1447.698,1824.713z"/>
					
						<linearGradient id="SVGID_00000127014564444408671440000018322643593916783268_" gradientUnits="userSpaceOnUse" x1="1348.2845" y1="1577.0575" x2="1417.5806" y2="1577.0575">
						<stop  offset="0" style="stop-color:#FF9085"/>
						<stop  offset="1" style="stop-color:#FB6FBB"/>
					</linearGradient>
					<path style="fill:url(#SVGID_00000127014564444408671440000018322643593916783268_);" d="M1417.581,1564.579
						c0-2.291,0.026-4.118-2.414-4.103l-63.217,0.432c-2.46,0.016-3.664,1.924-3.664,4.225v24.399c0,2.301,2.207,4.129,4.667,4.109
						l62.108-0.558c2.44-0.02,2.521-1.921,2.521-4.212V1564.579z"/>
				</g>
				<g>
					<path style="fill:#EAEDF3;" d="M1732.842,1818.274c-0.606,8.105-0.793,15.396-0.793,21.475
						c0.046,4.782-1.961,9.436-5.464,12.921c-3.553,3.443-8.368,5.486-13.376,5.612l-76.796,1.925
						c-5.059,0.127-9.884-1.687-13.479-4.973c-3.551-3.334-5.588-7.921-5.54-12.74c0-6.078-0.19-13.458-0.854-21.593
						c-1.754-23.016,14.719-72.713,5.871-106.311c-5.161-19.504-1.183-45.85,4.402-65.633c4.067-14.354,9.032-25.247,12.008-27.616
						c7.083-5.69,9.485-34.821,9.485-34.821l25.671-0.775v-0.135l1.732,0.032l1.732-0.057v0.09l24.799,0.416
						c0,0,1.573,29,8.599,34.527c2.951,2.297,7.783,13.026,11.804,27.206c5.609,19.518,9.491,45.571,4.401,65.099
						C1718.301,1746.617,1734.569,1795.351,1732.842,1818.274z"/>
					
						<linearGradient id="SVGID_00000072991900231502337070000017641868173631243959_" gradientUnits="userSpaceOnUse" x1="1616.407" y1="1754.4604" x2="1732.9709" y2="1754.4604">
						<stop  offset="0.0036" style="stop-color:#E38DDD"/>
						<stop  offset="1" style="stop-color:#9571F6"/>
					</linearGradient>
					<path style="fill:url(#SVGID_00000072991900231502337070000017641868173631243959_);" d="M1732.842,1818.274
						c-0.606,8.105-0.793,15.396-0.793,21.475c0.046,4.782-1.961,9.436-5.464,12.921c-3.553,3.443-8.368,5.486-13.376,5.612
						l-76.796,1.925c-5.059,0.127-9.884-1.687-13.479-4.973c-3.551-3.334-5.588-7.921-5.54-12.74c0-6.078-0.19-13.458-0.854-21.593
						c-1.754-23.016,14.719-72.266,5.871-105.864c-5.161-19.504-1.183-47.563,4.402-65.186l95.751-1.142
						c5.609,17.372,9.531,45.128,4.441,64.655C1718.261,1747.06,1734.569,1795.351,1732.842,1818.274z"/>
					
						<linearGradient id="SVGID_00000057135334779072999000000003629994961873009843_" gradientUnits="userSpaceOnUse" x1="1642.7927" y1="1574.9574" x2="1708.6239" y2="1574.9574">
						<stop  offset="0.0036" style="stop-color:#E38DDD"/>
						<stop  offset="1" style="stop-color:#9571F6"/>
					</linearGradient>
					<path style="fill:url(#SVGID_00000057135334779072999000000003629994961873009843_);" d="M1708.624,1562.741
						c0-2.25-1.341-4.068-3.696-4.053l-59.794,0.4c-2.374,0.015-2.342,1.871-2.342,4.131v23.964c0,2.26,0.251,4.062,2.625,4.042
						l60.346-0.514c2.354-0.02,2.86-1.862,2.86-4.112V1562.741z"/>
				</g>
				<g>
					<path style="fill:#EAEDF3;" d="M2020.984,1811.767c-0.585,7.958-0.765,15.117-0.765,21.087
						c0.044,4.696-1.891,9.265-5.269,12.684c-3.426,3.379-8.068,5.383-12.896,5.504l-74.033,1.856
						c-4.877,0.122-9.527-1.661-12.993-4.888c-3.423-3.275-5.386-7.78-5.34-12.511c0-5.967-0.183-13.213-0.823-21.2
						c-1.69-22.597,14.188-71.384,5.659-104.373c-4.974-19.15-1.141-45.016,4.243-64.436c3.92-14.092,8.706-24.786,11.575-27.111
						c6.828-5.585,7.8-34.21,7.8-34.21l23.412-0.781v-0.132l1.733,0.022l1.732-0.066v0.088l25.184,0.445
						c0,0,2.155,28.492,8.929,33.919c2.845,2.256,7.823,12.8,11.699,26.724c5.408,19.166,9.311,44.753,4.403,63.926
						C2006.805,1741.397,2022.65,1789.259,2020.984,1811.767z"/>
					
						<linearGradient id="SVGID_00000002353246984162327250000000116541458379623604_" gradientUnits="userSpaceOnUse" x1="1908.7388" y1="1749.0847" x2="2021.109" y2="1749.0847">
						<stop  offset="0" style="stop-color:#FF9085"/>
						<stop  offset="1" style="stop-color:#FB6FBB"/>
					</linearGradient>
					<path style="fill:url(#SVGID_00000002353246984162327250000000116541458379623604_);" d="M2020.984,1811.767
						c-0.585,7.958-0.765,15.117-0.765,21.087c0.044,4.696-1.891,9.265-5.269,12.684c-3.426,3.379-8.068,5.383-12.896,5.504
						l-74.033,1.856c-4.877,0.122-9.527-1.661-12.993-4.888c-3.423-3.275-5.386-7.78-5.34-12.511c0-5.967-0.183-13.213-0.823-21.2
						c-1.69-22.597,14.188-70.945,5.659-103.934c-4.974-19.15-1.141-46.697,4.243-63.998l92.306-1.101
						c5.407,17.059,9.189,44.314,4.281,63.486C2006.927,1741.836,2022.65,1789.259,2020.984,1811.767z"/>
					
						<linearGradient id="SVGID_00000045597418626337175160000016758019883687601799_" gradientUnits="userSpaceOnUse" x1="1930.3711" y1="1572.8527" x2="1996.2023" y2="1572.8527">
						<stop  offset="0" style="stop-color:#FF9085"/>
						<stop  offset="1" style="stop-color:#FB6FBB"/>
					</linearGradient>
					<path style="fill:url(#SVGID_00000045597418626337175160000016758019883687601799_);" d="M1996.202,1560.833
						c0-2.21-1.596-3.977-3.867-3.963l-58.683,0.401c-2.289,0.014-3.281,1.852-3.281,4.071v23.531c0,2.219,1.115,3.983,3.404,3.964
						l58.93-0.515c2.271-0.019,3.498-1.848,3.498-4.057V1560.833z"/>
				</g>
				<g>
					<path style="fill:#EAEDF3;" d="M2286.486,1805.771c-0.565,7.823-0.739,14.86-0.739,20.728
						c0.042,4.616-1.827,9.106-5.091,12.467c-3.31,3.32-7.796,5.288-12.462,5.405l-71.532,1.793
						c-4.712,0.118-9.205-1.636-12.553-4.81c-3.307-3.22-5.204-7.649-5.159-12.299c0-5.865-0.177-12.987-0.795-20.838
						c-1.633-22.212,13.707-70.159,5.467-102.587c-4.806-18.824-1.102-44.247,4.1-63.334c3.788-13.85,8.411-24.361,11.183-26.646
						c6.597-5.489,8.914-33.607,8.914-33.607l23.991-0.746v-0.13v0.034v-0.053v0.087l24.634,0.411c0,0,2.232,27.992,8.778,33.329
						c2.749,2.218,7.634,12.577,11.38,26.265c5.225,18.842,9.034,43.991,4.292,62.837
						C2272.747,1736.595,2288.095,1783.646,2286.486,1805.771z"/>
					
						<linearGradient id="SVGID_00000007393226497148590650000003293700105126481815_" gradientUnits="userSpaceOnUse" x1="2178.0317" y1="1744.1322" x2="2286.6062" y2="1744.1322">
						<stop  offset="0.0036" style="stop-color:#E38DDD"/>
						<stop  offset="1" style="stop-color:#9571F6"/>
					</linearGradient>
					<path style="fill:url(#SVGID_00000007393226497148590650000003293700105126481815_);" d="M2286.486,1805.771
						c-0.565,7.823-0.739,14.86-0.739,20.728c0.042,4.616-1.827,9.106-5.091,12.467c-3.31,3.32-7.796,5.288-12.462,5.405
						l-71.532,1.793c-4.712,0.118-9.205-1.636-12.553-4.81c-3.307-3.22-5.204-7.649-5.159-12.299c0-5.865-0.177-12.987-0.795-20.838
						c-1.633-22.212,13.707-69.728,5.467-102.155c-4.806-18.824-1.102-45.899,4.1-62.903l89.188-1.064
						c5.225,16.77,8.88,43.563,4.137,62.409C2272.902,1737.023,2288.095,1783.646,2286.486,1805.771z"/>
					
						<linearGradient id="SVGID_00000120556518082012214440000015922389453862232764_" gradientUnits="userSpaceOnUse" x1="2197.1606" y1="1570.8661" x2="2262.9919" y2="1570.8661">
						<stop  offset="0.0036" style="stop-color:#E38DDD"/>
						<stop  offset="1" style="stop-color:#9571F6"/>
					</linearGradient>
					<path style="fill:url(#SVGID_00000120556518082012214440000015922389453862232764_);" d="M2262.992,1559.058
						c0-2.172-0.784-3.898-2.977-3.884l-58.186,0.355c-2.21,0.014-4.669,1.788-4.669,3.969v23.127c0,2.181,2.956,3.951,5.167,3.933
						l57.106-0.491c2.194-0.018,3.558-1.808,3.558-3.98V1559.058z"/>
				</g>
				<g>
					<path style="fill:#EAEDF3;" d="M1447.416,1229.044c-50.893-0.72-102.102-1.445-153.639-2.174
						c6.347-8.864,12.688-15.947,19.025-23.589c38.816,0.606,77.452,1.209,115.901,1.81
						C1434.945,1212.868,1441.182,1220.079,1447.416,1229.044z"/>
					<path style="fill:#EAEDF3;" d="M1447.416,1409.462c-50.893-0.154-102.102-0.309-153.639-0.465
						c6.347,8.973,12.688,17.939,19.025,23.915c38.816,0.061,77.452,0.121,115.901,0.182
						C1434.945,1427.184,1441.182,1418.319,1447.416,1409.462z"/>
					
						<linearGradient id="SVGID_00000054238894010742562680000010887018858289252490_" gradientUnits="userSpaceOnUse" x1="1296.3126" y1="1318.1976" x2="1445.299" y2="1318.1976">
						<stop  offset="0" style="stop-color:#FFC444"/>
						<stop  offset="0.9964" style="stop-color:#F36F56"/>
					</linearGradient>
					<polygon style="fill:url(#SVGID_00000054238894010742562680000010887018858289252490_);" points="1445.299,1409.512 
						1296.313,1409.003 1296.313,1226.884 1445.299,1229.092 					"/>
				</g>
				<g>
					<path style="fill:#EAEDF3;" d="M1749.834,1233.324c-49.01-0.694-98.318-1.392-147.936-2.094
						c6.11-8.699,12.215-15.65,18.316-23.15c37.371,0.583,74.573,1.164,111.598,1.742
						C1737.824,1217.453,1743.831,1224.529,1749.834,1233.324z"/>
					<path style="fill:#EAEDF3;" d="M1749.834,1410.377c-49.01-0.148-98.318-0.298-147.936-0.448
						c6.11,8.804,12.215,17.601,18.316,23.465c37.371,0.059,74.573,0.117,111.598,0.175
						C1737.824,1427.769,1743.831,1419.07,1749.834,1410.377z"/>
					
						<linearGradient id="SVGID_00000048478445182357350550000018142528083882364078_" gradientUnits="userSpaceOnUse" x1="1604.6799" y1="1320.8378" x2="1750.2015" y2="1320.8378">
						<stop  offset="0" style="stop-color:#FF9085"/>
						<stop  offset="1" style="stop-color:#FB6FBB"/>
					</linearGradient>
					<polygon style="fill:url(#SVGID_00000048478445182357350550000018142528083882364078_);" points="1750.202,1410.382 
						1604.68,1409.981 1604.68,1231.294 1750.202,1233.323 					"/>
				</g>
				<g>
					<path style="fill:#EAEDF3;" d="M2020.721,1237.158c-47.353-0.67-94.989-1.344-142.919-2.023
						c5.902-8.551,11.799-15.385,17.693-22.757c36.101,0.564,72.041,1.125,107.814,1.683
						C2009.118,1221.561,2014.921,1228.514,2020.721,1237.158z"/>
					<path style="fill:#EAEDF3;" d="M2020.721,1411.197c-47.353-0.143-94.989-0.287-142.919-0.432
						c5.902,8.652,11.799,17.298,17.693,23.061c36.101,0.057,72.041,0.113,107.814,0.169
						C2009.118,1428.293,2014.921,1419.742,2020.721,1411.197z"/>
					
						<linearGradient id="SVGID_00000078045317166344946470000016683672602732109231_" gradientUnits="userSpaceOnUse" x1="1878.399" y1="1323.1786" x2="2023.9207" y2="1323.1786">
						<stop  offset="0" style="stop-color:#FFC444"/>
						<stop  offset="0.9964" style="stop-color:#F36F56"/>
					</linearGradient>
					<polygon style="fill:url(#SVGID_00000078045317166344946470000016683672602732109231_);" points="2023.921,1411.187 
						1878.399,1410.79 1878.399,1235.17 2023.921,1237.14 					"/>
				</g>
				<g>
					<path style="fill:#EAEDF3;" d="M2302.318,1241.144c-45.66-0.646-91.589-1.296-137.797-1.95
						c5.69-8.397,11.375-15.108,17.056-22.349c34.804,0.543,69.457,1.084,103.95,1.623
						C2291.128,1225.83,2296.725,1232.657,2302.318,1241.144z"/>
					<path style="fill:#EAEDF3;" d="M2302.318,1412.05c-45.66-0.138-91.589-0.277-137.797-0.417
						c5.69,8.495,11.375,16.983,17.056,22.642c34.804,0.055,69.457,0.109,103.95,0.163
						C2291.128,1428.838,2296.725,1420.441,2302.318,1412.05z"/>
					
						<linearGradient id="SVGID_00000129898982901684591500000000849599275334153119_" gradientUnits="userSpaceOnUse" x1="2165.9775" y1="1325.6469" x2="2304.5696" y2="1325.6469">
						<stop  offset="0" style="stop-color:#FF9085"/>
						<stop  offset="1" style="stop-color:#FB6FBB"/>
					</linearGradient>
					<polygon style="fill:url(#SVGID_00000129898982901684591500000000849599275334153119_);" points="2304.57,1412.06 
						2165.978,1411.664 2165.978,1239.234 2304.57,1241.149 					"/>
				</g>
				<g>
					<g>
						
							<linearGradient id="SVGID_00000010279323117237055230000013738772859082561968_" gradientUnits="userSpaceOnUse" x1="1303.4917" y1="1011.4288" x2="1467.2015" y2="1011.4288">
							<stop  offset="0" style="stop-color:#444B8C"/>
							<stop  offset="0.9964" style="stop-color:#26264F"/>
						</linearGradient>
						<path style="fill:url(#SVGID_00000010279323117237055230000013738772859082561968_);" d="M1385.757,1088.137
							c-45.258-1.03-82.266-36.452-82.266-78.957s37.008-75.893,82.266-74.437c45.009,1.448,81.444,36.855,81.444,78.934
							C1467.202,1055.756,1430.767,1089.161,1385.757,1088.137z M1385.757,943.65c-39.991-1.265-72.67,28.247-72.67,65.794
							c0,37.547,32.679,68.854,72.67,69.786c39.795,0.927,72.028-28.597,72.028-65.811
							C1457.785,976.205,1425.552,944.909,1385.757,943.65z"/>
					</g>
					<g>
						
							<linearGradient id="SVGID_00000017500737226311952290000007320057530309788837_" gradientUnits="userSpaceOnUse" x1="1595.8298" y1="1019.3799" x2="1753.769" y2="1019.3799">
							<stop  offset="0" style="stop-color:#444B8C"/>
							<stop  offset="0.9964" style="stop-color:#26264F"/>
						</linearGradient>
						<path style="fill:url(#SVGID_00000017500737226311952290000007320057530309788837_);" d="M1675.189,1094.724
							c-43.661-0.994-79.359-35.768-79.359-77.513s35.698-74.558,79.359-73.153c43.425,1.397,78.58,36.157,78.58,77.491
							S1718.614,1095.712,1675.189,1094.724z M1675.189,952.806c-38.579-1.22-70.103,27.783-70.103,64.659
							c0,36.876,31.523,67.611,70.103,68.51c38.394,0.895,69.495-28.12,69.495-64.676S1713.583,954.021,1675.189,952.806z"/>
					</g>
					<g>
						
							<linearGradient id="SVGID_00000168830053283311161290000012945821561272629419_" gradientUnits="userSpaceOnUse" x1="1898.7338" y1="1027.62" x2="2050.8018" y2="1027.62">
							<stop  offset="0" style="stop-color:#444B8C"/>
							<stop  offset="0.9964" style="stop-color:#26264F"/>
						</linearGradient>
						<path style="fill:url(#SVGID_00000168830053283311161290000012945821561272629419_);" d="M1975.136,1101.55
							c-42.036-0.957-76.402-35.061-76.402-76.018c0-40.958,34.366-73.174,76.402-71.821c41.813,1.346,75.666,35.436,75.666,75.998
							C2050.802,1070.271,2016.949,1102.501,1975.136,1101.55z M1975.136,962.295c-37.144-1.175-67.491,27.3-67.491,63.481
							c0,36.181,30.347,66.324,67.491,67.189c36.969,0.862,66.917-27.625,66.917-63.497
							C2042.052,993.596,2012.104,963.464,1975.136,962.295z"/>
					</g>
					<g>
						
							<linearGradient id="SVGID_00000103252027749383378160000010021118502031247276_" gradientUnits="userSpaceOnUse" x1="2158.8706" y1="1034.6978" x2="2305.9846" y2="1034.6978">
							<stop  offset="0" style="stop-color:#444B8C"/>
							<stop  offset="0.9964" style="stop-color:#26264F"/>
						</linearGradient>
						<path style="fill:url(#SVGID_00000103252027749383378160000010021118502031247276_);" d="M2232.778,1107.413
							c-40.664-0.925-73.907-34.454-73.907-74.736c0-40.282,33.243-71.984,73.907-70.675c40.452,1.302,73.207,34.817,73.207,74.716
							C2305.985,1076.618,2273.23,1108.334,2232.778,1107.413z M2232.778,970.445c-35.932-1.137-65.288,26.884-65.288,62.469
							s29.355,65.218,65.288,66.056c35.765,0.833,64.741-27.198,64.741-62.484C2297.519,1001.2,2268.543,971.577,2232.778,970.445z"
							/>
					</g>
				</g>
				<g>
					<g>
						
							<linearGradient id="SVGID_00000115482400390533217400000014676153415545763501_" gradientUnits="userSpaceOnUse" x1="1303.4917" y1="1421.1501" x2="1467.2015" y2="1421.1501">
							<stop  offset="0" style="stop-color:#444B8C"/>
							<stop  offset="0.9964" style="stop-color:#26264F"/>
						</linearGradient>
						<path style="fill:url(#SVGID_00000115482400390533217400000014676153415545763501_);" d="M1385.757,1497.848
							c-45.258,0.109-82.266-34.382-82.266-76.886c0-42.504,37.008-76.825,82.266-76.508c45.009,0.315,81.444,34.805,81.444,76.884
							C1467.202,1463.417,1430.767,1497.739,1385.757,1497.848z M1385.757,1353.361c-39.991-0.258-72.67,30.077-72.67,67.623
							c0,37.547,32.679,68.032,72.67,67.957c39.795-0.074,72.028-30.41,72.028-67.625
							C1457.785,1384.102,1425.552,1353.618,1385.757,1353.361z"/>
					</g>
					<g>
						
							<linearGradient id="SVGID_00000176754454617330220610000013245505749822470821_" gradientUnits="userSpaceOnUse" x1="1595.8298" y1="1421.8149" x2="1753.769" y2="1421.8149">
							<stop  offset="0" style="stop-color:#444B8C"/>
							<stop  offset="0.9964" style="stop-color:#26264F"/>
						</linearGradient>
						<path style="fill:url(#SVGID_00000176754454617330220610000013245505749822470821_);" d="M1675.189,1497.149
							c-43.661,0.105-79.359-33.771-79.359-75.515c0-41.745,35.698-75.457,79.359-75.151c43.425,0.304,78.58,34.179,78.58,75.514
							C1753.769,1463.331,1718.614,1497.044,1675.189,1497.149z M1675.189,1355.231c-38.579-0.249-70.103,29.548-70.103,66.424
							c0,36.876,31.523,66.818,70.103,66.746c38.394-0.072,69.495-29.87,69.495-66.425
							C1744.683,1385.42,1713.583,1355.479,1675.189,1355.231z"/>
					</g>
					<g>
						
							<linearGradient id="SVGID_00000167359392886212386610000012580743438633673135_" gradientUnits="userSpaceOnUse" x1="1898.7338" y1="1422.504" x2="2050.8018" y2="1422.504">
							<stop  offset="0" style="stop-color:#444B8C"/>
							<stop  offset="0.9964" style="stop-color:#26264F"/>
						</linearGradient>
						<path style="fill:url(#SVGID_00000167359392886212386610000012580743438633673135_);" d="M1975.136,1496.424
							c-42.036,0.102-76.402-33.138-76.402-74.095s34.366-74.039,76.402-73.744c41.813,0.293,75.666,33.531,75.666,74.093
							S2016.949,1496.323,1975.136,1496.424z M1975.136,1357.17c-37.144-0.24-67.491,28.999-67.491,65.18
							c0,36.181,30.347,65.56,67.491,65.49c36.969-0.069,66.917-29.309,66.917-65.182
							C2042.052,1386.786,2012.104,1357.408,1975.136,1357.17z"/>
					</g>
					<g>
						
							<linearGradient id="SVGID_00000033361627293160450260000010811104248925075892_" gradientUnits="userSpaceOnUse" x1="2158.8706" y1="1423.0958" x2="2305.9846" y2="1423.0958">
							<stop  offset="0" style="stop-color:#444B8C"/>
							<stop  offset="0.9964" style="stop-color:#26264F"/>
						</linearGradient>
						<path style="fill:url(#SVGID_00000033361627293160450260000010811104248925075892_);" d="M2232.778,1495.802
							c-40.664,0.098-73.907-32.594-73.907-72.875c0-40.282,33.243-72.821,73.907-72.536c40.452,0.284,73.207,32.974,73.207,72.874
							S2273.23,1495.704,2232.778,1495.802z M2232.778,1358.834c-35.932-0.232-65.288,28.528-65.288,64.112
							s29.355,64.479,65.288,64.412c35.765-0.067,64.741-28.828,64.741-64.114
							C2297.519,1387.96,2268.543,1359.066,2232.778,1358.834z"/>
					</g>
				</g>
				<g>
					<g>
						
							<linearGradient id="SVGID_00000096024896533915342270000007546543812590627727_" gradientUnits="userSpaceOnUse" x1="1303.4917" y1="1816.0264" x2="1467.2015" y2="1816.0264">
							<stop  offset="0" style="stop-color:#444B8C"/>
							<stop  offset="0.9964" style="stop-color:#26264F"/>
						</linearGradient>
						<path style="fill:url(#SVGID_00000096024896533915342270000007546543812590627727_);" d="M1385.757,1892.714
							c-45.258,1.207-82.266-32.386-82.266-74.89c0-42.504,37.008-77.723,82.266-78.504c45.009-0.776,81.444,32.829,81.444,74.908
							C1467.202,1856.307,1430.767,1891.513,1385.757,1892.714z M1385.757,1748.227c-39.991,0.712-72.67,31.84-72.67,69.386
							c0,37.547,32.679,67.239,72.67,66.194c39.795-1.04,72.028-32.158,72.028-69.372
							C1457.785,1777.221,1425.552,1747.519,1385.757,1748.227z"/>
					</g>
					<g>
						
							<linearGradient id="SVGID_00000128483692053581467110000001606669683207726988_" gradientUnits="userSpaceOnUse" x1="1595.8298" y1="1809.6691" x2="1753.769" y2="1809.6691">
							<stop  offset="0" style="stop-color:#444B8C"/>
							<stop  offset="0.9964" style="stop-color:#26264F"/>
						</linearGradient>
						<path style="fill:url(#SVGID_00000128483692053581467110000001606669683207726988_);" d="M1675.189,1884.993
							c-43.661,1.165-79.359-31.845-79.359-73.59s35.698-76.323,79.359-77.076c43.425-0.749,78.58,32.273,78.58,73.607
							S1718.614,1883.835,1675.189,1884.993z M1675.189,1743.076c-38.579,0.687-70.103,31.248-70.103,68.124
							c0,36.876,31.523,66.053,70.103,65.045c38.394-1.003,69.495-31.555,69.495-68.111S1713.583,1742.392,1675.189,1743.076z"/>
					</g>
					<g>
						
							<linearGradient id="SVGID_00000070096867468395156520000004148096663319924114_" gradientUnits="userSpaceOnUse" x1="1898.7338" y1="1803.0808" x2="2050.8018" y2="1803.0808">
							<stop  offset="0" style="stop-color:#444B8C"/>
							<stop  offset="0.9964" style="stop-color:#26264F"/>
						</linearGradient>
						<path style="fill:url(#SVGID_00000070096867468395156520000004148096663319924114_);" d="M1975.136,1876.992
							c-42.036,1.121-76.402-31.284-76.402-72.241c0-40.958,34.366-74.873,76.402-75.598c41.813-0.721,75.666,31.695,75.666,72.258
							S2016.949,1875.877,1975.136,1876.992z M1975.136,1737.737c-37.144,0.661-67.491,30.636-67.491,66.818
							c0,36.181,30.347,64.823,67.491,63.853c36.969-0.966,66.917-30.932,66.917-66.805
							C2042.052,1765.73,2012.104,1737.079,1975.136,1737.737z"/>
					</g>
					<g>
						
							<linearGradient id="SVGID_00000062186449572231425830000004149981639710579330_" gradientUnits="userSpaceOnUse" x1="2158.8706" y1="1797.4218" x2="2305.9846" y2="1797.4218">
							<stop  offset="0" style="stop-color:#444B8C"/>
							<stop  offset="0.9964" style="stop-color:#26264F"/>
						</linearGradient>
						<path style="fill:url(#SVGID_00000062186449572231425830000004149981639710579330_);" d="M2232.778,1870.119
							c-40.664,1.085-73.907-30.801-73.907-71.082c0-40.282,33.243-73.627,73.907-74.329c40.452-0.698,73.207,31.198,73.207,71.098
							S2273.23,1869.04,2232.778,1870.119z M2232.778,1733.152c-35.932,0.64-65.288,30.112-65.288,65.696
							c0,35.584,29.355,63.767,65.288,62.828c35.765-0.935,64.741-30.398,64.741-65.684S2268.543,1732.515,2232.778,1733.152z"/>
					</g>
				</g>
				<g>
					<g>
						
							<linearGradient id="SVGID_00000091008711488000304160000006980779116950919586_" gradientUnits="userSpaceOnUse" x1="1296.3126" y1="1045.1371" x2="1455.6934" y2="1045.1371">
							<stop  offset="0" style="stop-color:#AA80F9"/>
							<stop  offset="0.9964" style="stop-color:#6165D7"/>
						</linearGradient>
						<path style="fill:url(#SVGID_00000091008711488000304160000006980779116950919586_);" d="M1455.693,1071.606
							c0,11.911-11.579,21.308-24.263,21.022l-112.069-2.544c-12.881-0.29-23.048-10.287-23.048-22.315v-48.997
							c0-12.028,9.51-21.486,22.391-21.122l113.199,3.195c12.685,0.358,23.79,10.33,23.79,22.24V1071.606z"/>
						<path style="fill:#FFFFFF;" d="M1434.905,1022.467c0-5.298-1.775-9.683-7.415-9.838l-111.558-3.086
							c-5.723-0.157-9.224,4.055-9.224,9.396v49.272c0,5.342,4.901,9.788,10.624,9.921l110.03,2.593
							c5.64,0.131,7.544-4.087,7.544-9.385V1022.467z"/>
					</g>
					<g>
						
							<linearGradient id="SVGID_00000054262025164805402970000010722405017603273617_" gradientUnits="userSpaceOnUse" x1="1597.7502" y1="1052.733" x2="1750.2015" y2="1052.733">
							<stop  offset="0" style="stop-color:#AA80F9"/>
							<stop  offset="0.9964" style="stop-color:#6165D7"/>
						</linearGradient>
						<path style="fill:url(#SVGID_00000054262025164805402970000010722405017603273617_);" d="M1750.202,1078.63
							c0,11.693-10.384,20.946-22.609,20.67l-107.816-2.412c-12.411-0.28-22.026-10.048-22.026-21.853v-48.092
							c0-11.805,9.372-21.124,21.783-20.774l108.409,3.041c12.225,0.345,22.26,10.091,22.26,21.784V1078.63z"/>
						<path style="fill:#FFFFFF;" d="M1739.807,1030.518c0-5.201-5.755-9.543-11.191-9.692l-109.54-2.957
							c-5.514-0.151-10.931,4.002-10.931,9.245v48.362c0,5.243,4.741,9.57,10.255,9.698l110.08,2.518
							c5.436,0.127,11.327-3.997,11.327-9.198V1030.518z"/>
					</g>
					<g>
						
							<linearGradient id="SVGID_00000021092975106967151170000002962780432162131356_" gradientUnits="userSpaceOnUse" x1="1888.7935" y1="1060.0432" x2="2037.7799" y2="1060.0432">
							<stop  offset="0" style="stop-color:#AA80F9"/>
							<stop  offset="0.9964" style="stop-color:#6165D7"/>
						</linearGradient>
						<path style="fill:url(#SVGID_00000021092975106967151170000002962780432162131356_);" d="M2037.78,1085.443
							c0,11.484-11.058,20.576-22.848,20.31l-104.433-2.339c-11.966-0.27-21.706-9.871-21.706-21.462v-47.222
							c0-11.592,8.983-20.731,20.949-20.394l105.554,2.938c11.79,0.332,22.484,9.905,22.484,21.388V1085.443z"/>
						<path style="fill:#FFFFFF;" d="M2023.921,1038.187c0-5.108-4.677-9.361-9.919-9.505l-104.951-2.855
							c-5.316-0.146-9.863,3.93-9.863,9.078v47.487c0,5.148,4.333,9.403,9.649,9.526l105.154,2.424
							c5.242,0.122,9.93-3.933,9.93-9.041V1038.187z"/>
					</g>
					<g>
						
							<linearGradient id="SVGID_00000105417928740991140200000015503535671889232566_" gradientUnits="userSpaceOnUse" x1="2169.4424" y1="1067.1116" x2="2311.4993" y2="1067.1116">
							<stop  offset="0" style="stop-color:#AA80F9"/>
							<stop  offset="0.9964" style="stop-color:#6165D7"/>
						</linearGradient>
						<path style="fill:url(#SVGID_00000105417928740991140200000015503535671889232566_);" d="M2311.499,1092.048
							c0,11.281-9.854,20.203-21.231,19.946l-100.325-2.26c-11.544-0.26-20.5-9.69-20.5-21.075v-46.381
							c0-11.385,8.634-20.371,20.178-20.046l101.015,2.847c11.377,0.321,20.864,9.732,20.864,21.013V1092.048z"/>
						<path style="fill:#FFFFFF;" d="M2301.105,1045.618c0-5.018-5.186-9.202-10.244-9.341l-101.387-2.748
							c-5.129-0.141-9.637,3.871-9.637,8.927v46.643c0,5.056,3.964,9.224,9.093,9.343l102.027,2.341
							c5.059,0.118,10.148-3.865,10.148-8.882V1045.618z"/>
					</g>
				</g>
				<g>
					<g>
						
							<linearGradient id="SVGID_00000021799078389149778600000002914564332902297006_" gradientUnits="userSpaceOnUse" x1="1296.3126" y1="1446.3436" x2="1455.6934" y2="1446.3436">
							<stop  offset="0" style="stop-color:#AA80F9"/>
							<stop  offset="0.9964" style="stop-color:#6165D7"/>
						</linearGradient>
						<path style="fill:url(#SVGID_00000021799078389149778600000002914564332902297006_);" d="M1455.693,1470.742
							c0,11.911-11.579,21.566-24.263,21.592l-112.069,0.225c-12.881,0.027-23.048-9.71-23.048-21.738v-48.997
							c0-12.028,9.51-21.743,22.391-21.697l113.199,0.423c12.685,0.045,23.79,9.759,23.79,21.67V1470.742z"/>
						<path style="fill:#FFFFFF;" d="M1434.905,1421.936c0-5.298-1.775-9.577-7.415-9.593l-111.558-0.313
							c-5.723-0.016-9.224,4.308-9.224,9.65v49.272c0,5.341,4.901,9.672,10.624,9.664l110.03-0.177
							c5.64-0.008,7.544-4.333,7.544-9.631V1421.936z"/>
					</g>
					<g>
						
							<linearGradient id="SVGID_00000075868959756355520720000003520343637675411347_" gradientUnits="userSpaceOnUse" x1="1597.7502" y1="1446.5874" x2="1750.2015" y2="1446.5874">
							<stop  offset="0" style="stop-color:#AA80F9"/>
							<stop  offset="0.9964" style="stop-color:#6165D7"/>
						</linearGradient>
						<path style="fill:url(#SVGID_00000075868959756355520720000003520343637675411347_);" d="M1750.202,1470.482
							c0,11.693-10.384,21.19-22.609,21.216l-107.816,0.249c-12.411,0.026-22.026-9.5-22.026-21.305v-48.092
							c0-11.805,9.372-21.366,21.783-21.322l108.409,0.377c12.225,0.044,22.26,9.548,22.26,21.242V1470.482z"/>
						<path style="fill:#FFFFFF;" d="M1739.807,1422.668c0-5.201-5.755-9.433-11.191-9.449l-109.54-0.288
							c-5.514-0.016-10.931,4.243-10.931,9.486v48.362c0,5.243,4.741,9.465,10.255,9.457l110.08-0.154
							c5.436-0.007,11.327-4.237,11.327-9.438V1422.668z"/>
					</g>
					<g>
						
							<linearGradient id="SVGID_00000004520766174557602130000003672006195221622180_" gradientUnits="userSpaceOnUse" x1="1888.7935" y1="1446.7911" x2="2037.7799" y2="1446.7911">
							<stop  offset="0" style="stop-color:#AA80F9"/>
							<stop  offset="0.9964" style="stop-color:#6165D7"/>
						</linearGradient>
						<path style="fill:url(#SVGID_00000004520766174557602130000003672006195221622180_);" d="M2037.78,1470.265
							c0,11.484-11.058,20.811-22.848,20.836l-104.433,0.229c-11.966,0.025-21.706-9.34-21.706-20.931v-47.222
							c0-11.592,8.983-20.968,20.949-20.925l105.554,0.368c11.79,0.042,22.484,9.38,22.484,20.864V1470.265z"/>
						<path style="fill:#FFFFFF;" d="M2023.921,1423.299c0-5.108-4.677-9.257-9.919-9.272l-104.951-0.28
							c-5.316-0.015-9.863,4.163-9.863,9.311v47.487c0,5.148,4.333,9.3,9.649,9.293l105.154-0.152
							c5.242-0.007,9.93-4.164,9.93-9.272V1423.299z"/>
					</g>
					<g>
						
							<linearGradient id="SVGID_00000087398835511781953320000016560971636903992725_" gradientUnits="userSpaceOnUse" x1="2169.4424" y1="1447.0059" x2="2311.4993" y2="1447.0059">
							<stop  offset="0" style="stop-color:#AA80F9"/>
							<stop  offset="0.9964" style="stop-color:#6165D7"/>
						</linearGradient>
						<path style="fill:url(#SVGID_00000087398835511781953320000016560971636903992725_);" d="M2311.499,1470.081
							c0,11.281-9.854,20.432-21.231,20.456l-100.325,0.219c-11.544,0.024-20.5-9.177-20.5-20.562v-46.381
							c0-11.385,8.634-20.598,20.178-20.557l101.015,0.365c11.377,0.041,20.864,9.224,20.864,20.505V1470.081z"/>
						<path style="fill:#FFFFFF;" d="M2301.105,1423.933c0-5.017-5.186-9.1-10.244-9.114l-101.387-0.265
							c-5.129-0.015-9.637,4.095-9.637,9.151v46.643c0,5.056,3.964,9.127,9.093,9.12l102.027-0.145
							c5.059-0.007,10.148-4.088,10.148-9.106V1423.933z"/>
					</g>
				</g>
				<g>
					<g>
						
							<linearGradient id="SVGID_00000171704187370489458200000008782978708036661122_" gradientUnits="userSpaceOnUse" x1="1296.3126" y1="1847.6479" x2="1455.6934" y2="1847.6479">
							<stop  offset="0" style="stop-color:#AA80F9"/>
							<stop  offset="0.9964" style="stop-color:#6165D7"/>
						</linearGradient>
						<path style="fill:url(#SVGID_00000171704187370489458200000008782978708036661122_);" d="M1455.693,1869.878
							c0,11.911-11.579,21.824-24.263,22.163l-112.069,2.994c-12.881,0.344-23.048-9.134-23.048-21.161v-48.997
							c0-12.027,9.51-22,22.391-22.271l113.199-2.349c12.685-0.267,23.79,9.189,23.79,21.1V1869.878z"/>
						<path style="fill:#FFFFFF;" d="M1434.905,1821.405c0-5.298-1.775-9.471-7.415-9.349l-111.558,2.46
							c-5.723,0.125-9.224,4.562-9.224,9.903v49.272c0,5.342,4.901,9.556,10.624,9.407l110.03-2.946
							c5.64-0.146,7.544-4.579,7.544-9.877V1821.405z"/>
					</g>
					<g>
						
							<linearGradient id="SVGID_00000091700611250265461680000003780786169924302229_" gradientUnits="userSpaceOnUse" x1="1597.7502" y1="1840.5039" x2="1750.2015" y2="1840.5039">
							<stop  offset="0" style="stop-color:#AA80F9"/>
							<stop  offset="0.9964" style="stop-color:#6165D7"/>
						</linearGradient>
						<path style="fill:url(#SVGID_00000091700611250265461680000003780786169924302229_);" d="M1750.202,1862.334
							c0,11.693-10.384,21.435-22.609,21.761l-107.816,2.91c-12.411,0.332-22.026-8.952-22.026-20.757v-48.092
							c0-11.805,9.372-21.608,21.783-21.87l108.409-2.287c12.225-0.257,22.26,9.006,22.26,20.699V1862.334z"/>
						<path style="fill:#FFFFFF;" d="M1739.807,1814.818c0-5.201-5.755-9.324-11.191-9.206l-109.54,2.382
							c-5.514,0.12-10.931,4.484-10.931,9.727v48.362c0,5.243,4.741,9.36,10.255,9.217l110.08-2.827
							c5.436-0.141,11.327-4.478,11.327-9.679V1814.818z"/>
					</g>
					<g>
						
							<linearGradient id="SVGID_00000111901215436865994570000014330912453697362358_" gradientUnits="userSpaceOnUse" x1="1888.7935" y1="1833.6075" x2="2037.7799" y2="1833.6075">
							<stop  offset="0" style="stop-color:#AA80F9"/>
							<stop  offset="0.9964" style="stop-color:#6165D7"/>
						</linearGradient>
						<path style="fill:url(#SVGID_00000111901215436865994570000014330912453697362358_);" d="M2037.78,1855.087
							c0,11.484-11.058,21.047-22.848,21.361l-104.433,2.798c-11.966,0.319-21.706-8.809-21.706-20.4v-47.222
							c0-11.592,8.983-21.204,20.949-21.456l105.554-2.202c11.79-0.248,22.484,8.856,22.484,20.34V1855.087z"/>
						<path style="fill:#FFFFFF;" d="M2023.921,1808.41c0-5.108-4.677-9.153-9.919-9.039l-104.951,2.294
							c-5.316,0.116-9.863,4.397-9.863,9.545v47.487c0,5.148,4.333,9.197,9.649,9.059l105.154-2.728
							c5.242-0.136,9.93-4.395,9.93-9.503V1808.41z"/>
					</g>
					<g>
						
							<linearGradient id="SVGID_00000005266771211856735710000010477172101147279250_" gradientUnits="userSpaceOnUse" x1="2169.4424" y1="1826.9717" x2="2311.4993" y2="1826.9717">
							<stop  offset="0" style="stop-color:#AA80F9"/>
							<stop  offset="0.9964" style="stop-color:#6165D7"/>
						</linearGradient>
						<path style="fill:url(#SVGID_00000005266771211856735710000010477172101147279250_);" d="M2311.499,1848.115
							c0,11.281-9.854,20.662-21.231,20.966l-100.325,2.698c-11.544,0.308-20.5-8.664-20.5-20.049v-46.381
							c0-11.385,8.634-20.826,20.178-21.069l101.015-2.117c11.377-0.24,20.864,8.716,20.864,19.997V1848.115z"/>
						<path style="fill:#FFFFFF;" d="M2301.105,1802.249c0-5.017-5.186-8.998-10.244-8.888l-101.387,2.218
							c-5.129,0.112-9.637,4.319-9.637,9.375v46.643c0,5.056,3.964,9.029,9.093,8.896l102.027-2.631
							c5.059-0.131,10.148-4.312,10.148-9.329V1802.249z"/>
					</g>
				</g>
				<g>
					
						<linearGradient id="SVGID_00000126317211286834791220000001818454674926738843_" gradientUnits="userSpaceOnUse" x1="1568.4583" y1="1839.6781" x2="1472.1096" y2="3275.2715">
						<stop  offset="0.0036" style="stop-color:#E38DDD"/>
						<stop  offset="1" style="stop-color:#9571F6"/>
					</linearGradient>
					<path style="fill:url(#SVGID_00000126317211286834791220000001818454674926738843_);" d="M1878.399,2052.811v224.563
						c0,14.309-12.018,26.549-26.862,27.343l-608.924,32.569c-16.04,0.858-29.456-10.535-29.456-25.446v-234.019
						c0-14.911,13.412-27.476,29.451-28.053l608.736-21.907C1866.189,2027.327,1878.399,2038.503,1878.399,2052.811z"/>
					
						<linearGradient id="SVGID_00000088852438252619414410000002278921346461781401_" gradientUnits="userSpaceOnUse" x1="1562.236" y1="1932.3909" x2="1483.1527" y2="3110.7292">
						<stop  offset="0.0036" style="stop-color:#E38DDD"/>
						<stop  offset="1" style="stop-color:#9571F6"/>
					</linearGradient>
					<path style="opacity:0.3;fill:url(#SVGID_00000088852438252619414410000002278921346461781401_);" d="M1878.399,2259.928
						v17.447c0,14.309-12.018,26.549-26.862,27.343l-608.924,32.569c-16.04,0.858-29.456-10.535-29.456-25.446v-234.019
						c0-14.911,13.412-27.476,29.451-28.053l0.772-0.023c9.634,17.941,19.899,36.317,21.09,38.036
						c67.798,98.464,189.781,76.504,297.703,77.443c98.875,0.826,230.464,8.678,302.693,74.578
						C1866.895,2241.662,1871.469,2249.678,1878.399,2259.928z"/>
				</g>
				<path style="opacity:0.7;fill:#FFFFFF;" d="M2332.288,1712.247v133.269c0,17.001-13.619,31.152-30.758,31.62l-1052.6,28.692
					c-19.612,0.534-35.773-13.781-35.773-32.022V724.713c0-18.242,16.285-32.27,35.897-31.356l15.222,0.696
					c5.883,35.317,13.335,70.31,22,104.49c32.553,128.695,71.99,262.849,154.767,363.808
					c80.165,97.739,188.669,136.388,298.007,167.713c165.619,47.44,315.125,95.361,448.81,209.762
					C2242.51,1586.596,2290.71,1645.431,2332.288,1712.247z"/>
			</g>
		</g>
		<g>
			<g>
				
					<linearGradient id="SVGID_00000148654573718308661880000007492665909599993017_" gradientUnits="userSpaceOnUse" x1="-2543.8721" y1="1015.3826" x2="-2163.865" y2="1015.3826" gradientTransform="matrix(-0.9849 -0.1731 -0.1731 0.9849 902.5731 392.2828)">
					<stop  offset="0" style="stop-color:#FF9085"/>
					<stop  offset="1" style="stop-color:#FB6FBB"/>
				</linearGradient>
				<path style="fill:url(#SVGID_00000148654573718308661880000007492665909599993017_);" d="M3195.916,1967.474
					c35.385-70.702,29.872-108.285,16.875-129.726c-35.429-58.441-143.024-24.255-194.705-87.537
					c-32.044-39.238-27.287-97.209-16.876-142.974c-8.101,0.576-16.204,1.152-24.305,1.729
					c-87.681,55.857-136.202,148.549-119.548,225.005C2880.619,1940.764,3033.896,2028.987,3195.916,1967.474z"/>
				
					<linearGradient id="SVGID_00000169524769021313934940000004186216951021253787_" gradientUnits="userSpaceOnUse" x1="-1202.0122" y1="1534.8297" x2="-1259.4861" y2="1712.4762" gradientTransform="matrix(-0.9998 0.0191 0.0191 0.9998 1734.3044 -44.0664)">
					<stop  offset="0" style="stop-color:#FCB148"/>
					<stop  offset="0.0521" style="stop-color:#FDBA46"/>
					<stop  offset="0.1424" style="stop-color:#FFC244"/>
					<stop  offset="0.3183" style="stop-color:#FFC444"/>
					<stop  offset="0.4849" style="stop-color:#FDB946"/>
					<stop  offset="0.7754" style="stop-color:#F99C4D"/>
					<stop  offset="0.8658" style="stop-color:#F8924F"/>
					<stop  offset="1" style="stop-color:#F8924F"/>
				</linearGradient>
				<path style="fill:url(#SVGID_00000169524769021313934940000004186216951021253787_);" d="M3002.364,1612.261
					c2.277-4.636,1.962-24.714,5.613-28.242c5.99-5.785,3.859-7.513,11.167-11.504c3.75-2.046,7.367-5.119,8.031-9.504
					c1.46-9.647-13.758-52.987-13.758-52.987s-15.997,9.871-10.926,18.88c5.071,9.008,8.531,18.789,0.464,24.332
					c-8.067,5.541-13.361,14.348-16.446,24.104c-3.086,9.756-3.037,39.385-3.037,39.385S2996.908,1623.368,3002.364,1612.261z"/>
			</g>
			<g>
				
					<linearGradient id="SVGID_00000037688603311535548970000011301366036820258207_" gradientUnits="userSpaceOnUse" x1="2465.3108" y1="1510.7955" x2="2039.3141" y2="1647.5107">
					<stop  offset="0" style="stop-color:#FCB148"/>
					<stop  offset="0.0521" style="stop-color:#FDBA46"/>
					<stop  offset="0.1424" style="stop-color:#FFC244"/>
					<stop  offset="0.3183" style="stop-color:#FFC444"/>
					<stop  offset="0.4849" style="stop-color:#FDB946"/>
					<stop  offset="0.7754" style="stop-color:#F99C4D"/>
					<stop  offset="0.8658" style="stop-color:#F8924F"/>
					<stop  offset="1" style="stop-color:#F8924F"/>
				</linearGradient>
				<path style="fill:url(#SVGID_00000037688603311535548970000011301366036820258207_);" d="M2955.724,1495.338
					c0,197.625-154.531,353.087-352.039,347.022c-205.547-6.312-378.419-183.833-378.419-396.268
					c0-212.434,172.872-366.646,378.419-345.243C2801.193,1121.416,2955.724,1297.713,2955.724,1495.338z"/>
				
					<linearGradient id="SVGID_00000124163695097138502700000015802989847279617933_" gradientUnits="userSpaceOnUse" x1="2809.9172" y1="1086.7584" x2="2429.6135" y2="1925.7794">
					<stop  offset="0" style="stop-color:#FFDB44"/>
					<stop  offset="1" style="stop-color:#FEEF06"/>
				</linearGradient>
				<path style="fill:url(#SVGID_00000124163695097138502700000015802989847279617933_);" d="M3009.094,1478.298
					c0,197.625-154.531,353.087-352.039,347.021c-205.548-6.312-378.42-183.832-378.42-396.267
					c0-212.435,172.872-366.646,378.42-345.243C2854.563,1104.375,3009.094,1280.673,3009.094,1478.298z"/>
				
					<linearGradient id="SVGID_00000055665967634874445630000000692715203605828241_" gradientUnits="userSpaceOnUse" x1="2739.9602" y1="1972.6727" x2="2666.5798" y2="1571.7982">
					<stop  offset="0" style="stop-color:#FCB148"/>
					<stop  offset="0.0521" style="stop-color:#FDBA46"/>
					<stop  offset="0.1424" style="stop-color:#FFC244"/>
					<stop  offset="0.3183" style="stop-color:#FFC444"/>
					<stop  offset="0.4849" style="stop-color:#FDB946"/>
					<stop  offset="0.7754" style="stop-color:#F99C4D"/>
					<stop  offset="0.8658" style="stop-color:#F8924F"/>
					<stop  offset="1" style="stop-color:#F8924F"/>
				</linearGradient>
				<path style="fill:url(#SVGID_00000055665967634874445630000000692715203605828241_);" d="M2993.592,1477.253
					c0,188.923-147.858,337.287-336.536,331.178c-196.002-6.347-360.566-175.762-360.566-378.174s164.564-349.639,360.566-329.557
					C2845.734,1120.03,2993.592,1288.33,2993.592,1477.253z"/>
				
					<linearGradient id="SVGID_00000008137793056722678930000006523695232795621549_" gradientUnits="userSpaceOnUse" x1="2584.3799" y1="1323.813" x2="2886.7903" y2="1965.7726">
					<stop  offset="0" style="stop-color:#FCB148"/>
					<stop  offset="0.0521" style="stop-color:#FDBA46"/>
					<stop  offset="0.1424" style="stop-color:#FFC244"/>
					<stop  offset="0.3183" style="stop-color:#FFC444"/>
					<stop  offset="0.4849" style="stop-color:#FDB946"/>
					<stop  offset="0.7754" style="stop-color:#F99C4D"/>
					<stop  offset="0.8658" style="stop-color:#F8924F"/>
					<stop  offset="1" style="stop-color:#F8924F"/>
				</linearGradient>
				<path style="fill:url(#SVGID_00000008137793056722678930000006523695232795621549_);" d="M2982.489,1476.504
					c0,182.69-143.071,325.985-325.433,319.863c-189.195-6.352-347.851-169.98-347.851-365.253s158.655-337.509,347.851-318.351
					C2839.418,1131.229,2982.489,1293.815,2982.489,1476.504z"/>
				<g>
					
						<linearGradient id="SVGID_00000164506659393309117770000018311498237069946788_" gradientUnits="userSpaceOnUse" x1="2572.3315" y1="1185.6718" x2="2724.394" y2="1755.5745">
						<stop  offset="0" style="stop-color:#FFDB44"/>
						<stop  offset="1" style="stop-color:#FEEF06"/>
					</linearGradient>
					<path style="fill:url(#SVGID_00000164506659393309117770000018311498237069946788_);" d="M2655.188,1174.914L2655.188,1174.914
						c9.705,0.923,17.559,9.659,17.559,19.514v33.636c19.404,2.167,38.836,5.54,58.296,10.113
						c14.348,3.372,28.599,7.386,42.755,12.04c8.482,2.789,14.261,11.353,13.396,20.185l-4.131,42.178
						c-1.096,11.19-12.158,17.762-22.572,13.119c-9.324-4.158-18.885-7.72-28.683-10.685c-17.098-5.173-35.128-8.546-54.102-10.11
						l-4.961-0.408v96.329c50.623,14.163,87.802,33.217,111.828,57.183c23.911,23.851,35.823,53.576,35.823,89.261
						c0,38.59-13.171,69.491-39.617,92.796c-26.588,23.429-63.865,36.606-112.069,39.459v37.125c0,9.86-7.86,17.54-17.573,17.154
						l-0.311-0.012c-9.732-0.387-17.635-8.722-17.635-18.616v-36.622l-7.823-0.353c-22.598-1.02-44.244-3.325-64.925-6.922
						c-15.316-2.664-30.272-6.103-44.866-10.319c-8.826-2.549-14.885-10.957-14.075-19.989l4.861-54.219
						c1.05-11.721,12.824-18.542,23.97-14.145c12.991,5.125,26.145,9.441,39.459,12.952c20.748,5.472,41.778,8.981,63.086,10.539
						l0.313-107.154c-48.593-12.024-84.974-29.833-108.876-53.423c-24.014-23.701-36.063-54.032-36.063-90.911
						c0-38.165,13.065-67.624,39.097-88.299c25.9-20.571,62.718-30.804,110.217-30.779v-34.388
						C2637.568,1181.255,2645.464,1173.989,2655.188,1174.914z M2637.568,1303.499c-15.018,1.093-26.729,5.217-35.111,12.379
						c-8.396,7.174-12.599,16.815-12.599,28.916c0,11.463,3.888,21.045,11.655,28.737c7.755,7.68,19.783,13.812,36.055,18.393
						V1303.499z M2668.712,1497.531v98.264c16.326,0.032,28.844-3.865,37.583-11.682c8.724-7.804,13.081-18.826,13.081-33.078
						c0-12.995-4.049-23.771-12.156-32.341C2699.1,1510.11,2686.276,1503.057,2668.712,1497.531z"/>
				</g>
				
					<linearGradient id="SVGID_00000057832839256430684490000016114642900613309630_" gradientUnits="userSpaceOnUse" x1="2495.4119" y1="1365.3574" x2="2797.2119" y2="2006.0217">
					<stop  offset="0" style="stop-color:#FCB148"/>
					<stop  offset="0.0521" style="stop-color:#FDBA46"/>
					<stop  offset="0.1424" style="stop-color:#FFC244"/>
					<stop  offset="0.3183" style="stop-color:#FFC444"/>
					<stop  offset="0.4849" style="stop-color:#FDB946"/>
					<stop  offset="0.7754" style="stop-color:#F99C4D"/>
					<stop  offset="0.8658" style="stop-color:#F8924F"/>
					<stop  offset="1" style="stop-color:#F8924F"/>
				</linearGradient>
				<path style="opacity:0.3;fill:url(#SVGID_00000057832839256430684490000016114642900613309630_);" d="M2598.164,1521.242
					c10.995-108.596,110.799-154.568,97.775-254.46c-8.028-61.567-54.692-113.453-106.748-153.965
					c-157.893,16.559-279.987,147.299-279.987,318.297c0,195.274,158.656,358.901,347.85,365.253
					c18.369,0.616,36.31-0.338,53.755-2.625C2635.673,1718.974,2588.718,1614.539,2598.164,1521.242z"/>
			</g>
			<path style="fill:#26264F;" d="M3102.196,3079.308l1.638,19.768c0.355,4.286-2.339,8.215-6.482,9.369
				c-14.591,4.062-48.873,12.263-75.656,8.252c-34.976-5.236,56.722-37.389,56.722-37.389H3102.196z"/>
			
				<linearGradient id="SVGID_00000183929807735821769510000009345248850786317961_" gradientUnits="userSpaceOnUse" x1="-1431.5402" y1="3197.0061" x2="-1429.7592" y2="2839.0671" gradientTransform="matrix(-1 0 0 1 1650.3068 0)">
				<stop  offset="0" style="stop-color:#FFC444"/>
				<stop  offset="0.9964" style="stop-color:#F36F56"/>
			</linearGradient>
			<path style="fill:url(#SVGID_00000183929807735821769510000009345248850786317961_);" d="M3097.919,3041.894l4.277,37.415
				c0,0-14.795,10.026-23.778,0l-18.26-33.998L3097.919,3041.894z"/>
			<path style="fill:#26264F;" d="M2642.13,3099.289l-6.063,22.367c-1.856,5.974-7.142,10.212-13.377,10.73
				c-21.833,1.811-72.466,4.829-94.929-3.729c-29.062-11.071,85.229-32.682,85.229-32.682L2642.13,3099.289z"/>
			
				<linearGradient id="SVGID_00000106853269109664357610000007301219478383506569_" gradientUnits="userSpaceOnUse" x1="-980.4434" y1="3190.5115" x2="-978.7997" y2="2860.2031" gradientTransform="matrix(-1 0 0 1 1650.3068 0)">
				<stop  offset="0" style="stop-color:#FFC444"/>
				<stop  offset="0.9964" style="stop-color:#F36F56"/>
			</linearGradient>
			<path style="fill:url(#SVGID_00000106853269109664357610000007301219478383506569_);" d="M2652.915,3069.598l-10.785,26.709
				c0,0-18.313,10.72-34.604,2.147l8.897-32.745L2652.915,3069.598z"/>
			
				<linearGradient id="SVGID_00000024709414837090439050000007405024945911453593_" gradientUnits="userSpaceOnUse" x1="-1404.7616" y1="2318.251" x2="-1316.0209" y2="3123.4844" gradientTransform="matrix(-1 0 0 1 1650.3068 0)">
				<stop  offset="0" style="stop-color:#311944"/>
				<stop  offset="1" style="stop-color:#893976"/>
			</linearGradient>
			<path style="fill:url(#SVGID_00000024709414837090439050000007405024945911453593_);" d="M3076.008,2302.395
				c11.782,22.172,26.355,55.911,31.439,98.49c7.932,66.433-14.692,91.982-30.39,185.703c-9.992,59.648-20.458,122.133-5.66,197.546
				c12.505,63.737,31.635,78.501,39.121,142.726c6.526,55.988-1.171,103.465-9.038,135.574c-13.421,0.545-26.841,1.097-40.262,1.643
				c-43.978-58.71-93.643-141.436-125.511-247.989c-9.99-33.399-5.414-26.293-21.567-366.616
				c-1.743-36.718-3.832-79.714,24.65-111.746C2978.119,2293.497,3049.973,2299.16,3076.008,2302.395z"/>
			
				<linearGradient id="SVGID_00000181085358550444642310000005116413962986443185_" gradientUnits="userSpaceOnUse" x1="-1286.1208" y1="2789.9143" x2="-1038.5258" y2="2564.2305" gradientTransform="matrix(-1 0 0 1 1650.3068 0)">
				<stop  offset="0" style="stop-color:#311944"/>
				<stop  offset="1" style="stop-color:#893976"/>
			</linearGradient>
			<path style="fill:url(#SVGID_00000181085358550444642310000005116413962986443185_);" d="M3022.325,2283.772
				c34.199,24.939,35.861,82.019,28.484,118.32c-11.792,58.036-49.872,78.629-199.86,234.534
				c-21.49,22.339-34.174,35.929-47.657,57.76c-39.306,63.647-39.477,123.115-44.829,164.275
				c-7.115,54.724-30.383,130.914-103.34,220.649c-6.353,1.624-17.346,3.505-30.483,0.924c-7.806-1.534-14.09-4.192-18.624-6.573
				c-2.4-89.703,4.458-222.164,51.491-373.582c53.702-172.883,137.165-297.692,196.104-372.49
				C2914.528,2271.216,2985.136,2256.651,3022.325,2283.772z"/>
			<g>
				
					<linearGradient id="SVGID_00000111886644338228054500000003981635672942340782_" gradientUnits="userSpaceOnUse" x1="-706.6001" y1="1588.2562" x2="-538.2239" y2="1800.0948" gradientTransform="matrix(0.9506 0.3105 -0.3105 0.9506 4260.8442 395.1405)">
					<stop  offset="0" style="stop-color:#FFC444"/>
					<stop  offset="0.9964" style="stop-color:#F36F56"/>
				</linearGradient>
				<path style="fill:url(#SVGID_00000111886644338228054500000003981635672942340782_);" d="M3109.108,1751.57
					c-3.326-14.989,4.672-28.258,6.432-31.116c7.365-11.962,9.171-13.552,12.479-15.512l4.584-2.49c0,0,0.263-0.089,0.538-0.17
					c2.901-0.855,12.614-0.614,14.554-0.085c6.202,1.686,11.47,27.62,7.566,63.657c0.184,1.393,0.359,2.795,0.524,4.209
					c0.183,1.573,0.352,3.137,0.507,4.692c1.272,12.772,9.179,23.943,20.734,29.532c22.066,10.673,24.648,15.483,24.06,17.785
					c-1.534,6.007-27.247,5.128-45.76,1.944c-40.373-6.945-64.84,6.512-62.311-0.614c1.1-3.102,22.791-13.841,32.33-34.842
					c-2.375,5.229,2.003-11.309,3.005-16.964C3125.888,1770.14,3111.557,1762.613,3109.108,1751.57z"/>
				<path style="fill:#26264F;" d="M3120.164,1691.467c-0.582,11.2,4.033,23.449,6.615,25.519c0.332,0.268,2.201,1.92,3.811,4.655
					c0.219,0.372,0.406,0.804,0.565,1.358c2.063,7.191-9.616,14.875-7.625,18.154c1.445,2.379,9.24-0.264,10.036,1.765
					c0.751,1.91-5.798,5.416-4.951,7.701c0.639,1.725,4.624,0.4,6.94,3.115c1.155,1.353,0.739,2.352,1.821,6.352
					c0.612,2.262,1.504,4.75,2.226,6.146c3.507,6.788,14.333,9.796,16.588,7.281c0.627-0.701,0.157-1.345,0.893-3.772
					c0,0,0.682-2.25,2.414-4.799c2.476-3.642,8.097-6.033,13.839-9.704c10.633-6.799,13.76-12.922,14.71-14.997
					c0.339-0.739,0.555-1.298,0.711-1.703c3.115-8.105,3.797-20.228,0.499-27.889c-5.526-12.833-19.876-7.679-30.668-20.687
					c-12.453-15.008-3.487-34.087-10.554-36.64C3140.245,1650.51,3121.24,1670.76,3120.164,1691.467z"/>
				
					<linearGradient id="SVGID_00000066493306135360802240000005545969023594746775_" gradientUnits="userSpaceOnUse" x1="-698.8618" y1="1582.105" x2="-530.4858" y2="1793.9434" gradientTransform="matrix(0.9506 0.3105 -0.3105 0.9506 4260.8442 395.1405)">
					<stop  offset="0" style="stop-color:#FFC444"/>
					<stop  offset="0.9964" style="stop-color:#F36F56"/>
				</linearGradient>
				<path style="fill:url(#SVGID_00000066493306135360802240000005545969023594746775_);" d="M3127.7,1738.745
					c2.953-3.619,7.58,0.191,7.338,5.071c-0.241,4.881-5.249,9.692-9.782,8.475
					C3120.723,1751.074,3123.727,1743.616,3127.7,1738.745z"/>
				<path style="fill:#26264F;" d="M3130.377,1730.706l-6.824,7.931c0,0-7.425,9.768-11.125,3.988
					c-3.023-4.723-3.876-4.669-4.088-4.49c-0.041,0.034-0.053,0.088-0.062,0.085c-0.057-0.018,0.605-2.234,1.197-4.182
					c-1.829,2.34-4.382,6.157-6.091,11.389c-1.66,5.081-3.437,10.523-0.821,15.988c0.152,0.316,3.045,6.14,8.956,7.837
					c0,0,2.324,0.668,12.367-0.532c0,0-10.435-8.489-10.498-10.372c-0.169-5.12,7.051-7.484,12.875-17.641
					C3128.51,1736.789,3129.709,1733.191,3130.377,1730.706z"/>
			</g>
			
				<linearGradient id="SVGID_00000045613372316494197790000007691297267238378380_" gradientUnits="userSpaceOnUse" x1="-1274.2479" y1="1778.3617" x2="-1691.8738" y2="2635.282" gradientTransform="matrix(-0.9999 0.0145 0.0145 0.9999 1535.7474 2.6561)">
				<stop  offset="0" style="stop-color:#FF9085"/>
				<stop  offset="1" style="stop-color:#FB6FBB"/>
			</linearGradient>
			<path style="fill:url(#SVGID_00000045613372316494197790000007691297267238378380_);" d="M2945.026,1869.859
				c23.457-19.929,61.259-46.698,113.47-63.911c53.703-17.701,71.012-24.778,166.057,19.695
				c33.915,15.869,7.599,166.612-11.157,229.422c-28.623,95.861,2.989,106.096-30.993,238.928
				c-20.289,79.304-39.019,104.821-59.031,121.912c-46.238,39.487-105.979,39.684-126.868,39.754
				c-70.114,0.233-92.798-32.854-167.305-39.501c-5.429-0.484-15.263-1.198-24.141-8.002c-23.797-18.24-18.073-63.065-14.528-86.641
				c23.76-158.01,74.274-277.666,74.274-277.666C2884.23,1997.837,2910.726,1938.354,2945.026,1869.859z"/>
			
				<linearGradient id="SVGID_00000061460379128195834870000008439134424882444935_" gradientUnits="userSpaceOnUse" x1="-1594.2224" y1="1965.5415" x2="-1213.9318" y2="2578.9138" gradientTransform="matrix(-0.9999 0.0145 0.0145 0.9999 1535.7474 2.6561)">
				<stop  offset="0" style="stop-color:#FF9085"/>
				<stop  offset="1" style="stop-color:#FB6FBB"/>
			</linearGradient>
			<path style="opacity:0.4;fill:url(#SVGID_00000061460379128195834870000008439134424882444935_);" d="M2790.531,2321.517
				c23.76-158.014,74.273-277.666,74.273-277.666c16.29-38.589,37.627-86.742,64.294-141.646
				c89.412,82.308,103.835,124.918,93.403,148.5c-15.027,33.964-82.474,30.49-90.493,69.019
				c-8.606,41.352,63.46,72.356,53.682,115.032c-8.171,35.667-63.335,35.091-67.486,67.486
				c-3.928,30.658,41.236,64.233,78.222,76.689c59.055,19.891,112.379-8.969,125.769-16.872
				c26.855-15.853,45.099-37.14,57.491-57.846c-19.251,71.23-37.199,95.363-56.315,111.689
				c-46.238,39.489-105.979,39.686-126.868,39.758c-70.115,0.234-92.798-32.856-167.305-39.5c-5.428-0.485-15.262-1.198-24.14-8.004
				C2781.262,2389.913,2786.987,2345.093,2790.531,2321.517z"/>
			
				<linearGradient id="SVGID_00000054970340828976444890000003055075629325605507_" gradientUnits="userSpaceOnUse" x1="-1449.427" y1="2323.1731" x2="-1360.6868" y2="3128.4031" gradientTransform="matrix(-1 0 0 1 1650.3068 0)">
				<stop  offset="0" style="stop-color:#311944"/>
				<stop  offset="1" style="stop-color:#893976"/>
			</linearGradient>
			<path style="opacity:0.3;fill:url(#SVGID_00000054970340828976444890000003055075629325605507_);" d="M2967.548,2816.211
				c-18.112-63.236,48.594-96.141,37.249-192.822c-5.208-44.376-21.078-52.914-15.338-78.88
				c9.05-40.942,59.022-67.261,116.756-84.606c-5.727,33.399-18.915,65.529-29.158,126.684
				c-9.992,59.648-20.458,122.133-5.66,197.546c12.505,63.737,31.635,78.501,39.121,142.726c2.784,23.879,2.887,46.083,1.586,66.337
				c-7.666-19.529-18.189-40.32-32.809-60.861C3028.983,2861.66,2981.992,2866.641,2967.548,2816.211z"/>
			
				<linearGradient id="SVGID_00000132074884572190920210000018323783963921650317_" gradientUnits="userSpaceOnUse" x1="-1224.6981" y1="-131.6311" x2="-1309.5653" y2="34.0134" gradientTransform="matrix(-0.6652 -0.7467 -0.7467 0.6652 1602.7551 949.9679)">
				<stop  offset="0" style="stop-color:#FFC444"/>
				<stop  offset="0.9964" style="stop-color:#F36F56"/>
			</linearGradient>
			<path style="fill:url(#SVGID_00000132074884572190920210000018323783963921650317_);" d="M2527.847,1836.859
				c0,0-7.302-11.961-5.022-21.595c2.279-9.635,4.493-19.344,2.027-25.77c-2.466-6.426-9.117,9.275-11.871,17.159
				c-2.754,7.884-12.637,10.171-26.738-4.424c-14.101-14.594-23.629-26.526-23.629-26.526s-20.482,25.344,34.418,68.911
				c0,0,21.125,8.448,25.417,16.607c4.291,8.158,2.697,3.028,2.697,3.028l15.5-12.021L2527.847,1836.859z"/>
			
				<linearGradient id="SVGID_00000129176911331186252550000009250558502540003985_" gradientUnits="userSpaceOnUse" x1="-1211.7502" y1="1898.7555" x2="-1629.3757" y2="2755.675" gradientTransform="matrix(-1 0 0 1 1650.3068 0)">
				<stop  offset="0" style="stop-color:#FF9085"/>
				<stop  offset="1" style="stop-color:#FB6FBB"/>
			</linearGradient>
			<path style="fill:url(#SVGID_00000129176911331186252550000009250558502540003985_);" d="M3165.456,1827.149
				c-31.313-48.534-148.407-25.614-208.812-13.79c-103.675,20.294-125.52,52.456-202.904,63.038
				c-50.682,6.93-127.413,4.908-228.511-45.308c-3.284,17.073-6.566,34.146-9.85,51.218
				c36.135,40.612,105.031,106.572,210.783,145.775c39.715,14.722,230.265,85.361,356.557-13.79
				C3146.525,1964.198,3193.708,1870.938,3165.456,1827.149z"/>
		</g>
		<g>
			<g>
				
					<linearGradient id="SVGID_00000176020574101315398860000014342826807491857798_" gradientUnits="userSpaceOnUse" x1="179.3359" y1="2121.6838" x2="-158.6368" y2="4738.2305" gradientTransform="matrix(-1 0 0 1 858.0522 0)">
					<stop  offset="0" style="stop-color:#FF9085"/>
					<stop  offset="1" style="stop-color:#FB6FBB"/>
				</linearGradient>
				<path style="fill:url(#SVGID_00000176020574101315398860000014342826807491857798_);" d="M839.934,3223.503
					c-131.261-16.864-297.687-61.176-364.528-186.123c-15.902-29.726-31.857-87.469,8.277-109.214
					c36.687-19.876,84.13,1.118,111.397,26.984c20.048,19.017,35.693,61.463,58.22,74.886c32.969,19.645,50.719-33.959,50.026-56.08
					c-1.551-49.461-62.392-69.709-102.827-80.449c-67.117-17.827-145.261-33.108-141.056-108.743
					c4.205-75.635,77.95-121.002,134.682-87.916c46.741,27.267,40.161,85.461,72.1,120.377
					c28.374,31.019,38.247-19.329,36.353-44.012c-4.116-53.617-51.258-92.396-85.945-128.325
					c-39.218-40.622-82.547-122.35-40.743-176.061c24.056-30.908,85.166-38.147,121.284-32.933
					c176.798,25.527,59.563,254.325,91.708,279.852c32.145,25.527,62.559-19.159,62.479-87.106
					c-0.08-67.947,10.32-118.056,81.228-96.311c70.908,21.745,84.406,199.223,3.44,267.428
					c-80.966,68.205,5.082,142.62,26.819,93.74c15.692-35.294,29.488-127.721,74.84-137.859
					c75.568-16.86,74.448,137.444,52.7,173.357c-30.487,50.343-99.422,61.28-137.92,104.713
					c-11.184,12.618-36.434,43.867-26.625,62.311c13.68,25.722,51.846-1.795,65.868-13.716
					c31.525-26.801,75.157-117.884,119.568-57.396C1166.113,3099.597,1074.405,3210.32,839.934,3223.503z"/>
				<g style="opacity:0.8;">
					<path style="fill:#FFFFFF;" d="M821.027,3209.806c3.084,0,5.612-2.239,5.669-5.335c0.052-2.68,3.704-271.633-113.799-591.643
						c-1.082-2.94-4.345-4.389-7.281-3.312c-2.942,1.08-4.45,4.367-3.37,7.309c116.779,318.035,113.158,584.759,113.108,587.417
						c-0.059,3.133,2.432,5.563,5.564,5.563C820.955,3209.806,820.992,3209.806,821.027,3209.806z"/>
				</g>
			</g>
			
				<linearGradient id="SVGID_00000137126571692578656400000010616333028898205615_" gradientUnits="userSpaceOnUse" x1="-23.0265" y1="2517.5879" x2="-241.1921" y2="4206.6011" gradientTransform="matrix(-1 0 0 1 858.0522 0)">
				<stop  offset="0" style="stop-color:#FFDB44"/>
				<stop  offset="1" style="stop-color:#FEEF06"/>
			</linearGradient>
			<path style="fill:url(#SVGID_00000137126571692578656400000010616333028898205615_);" d="M772.752,3108.391
				c21.277-18.104,66.483,10.208,85.247,20.979c10.882,6.247,25.775,15.83,38.87,10.269c13.752-5.841,12.785-20.277,4.469-30.507
				c-14.889-18.315-43.46-23.348-64.222-32.275c-22.303-9.589-42.783-22.644-53.781-45.154c-8.769-17.948-10.772-44.479-0.9-62.156
				c27.32-48.919,67.092-10.744,89.33,18.435c10.791,14.159,34.958,38.549,53.278,21.854c19.489-17.761,2.764-49.428-12.355-63.391
				c-19.76-18.249-43.679-30.931-65.197-46.795c-19.403-14.303-39.33-34.795-26.413-60.153
				c9.979-19.589,35.095-30.431,56.541-28.771c49.585,3.838,57.313,76.234,89.968,104.031c11.545,9.828,37.792,17.642,51.564,7.998
				c14.014-9.836,4.905-32.328-0.138-44.602c-14.949-36.38-122.216-158.35-33.317-173.665c22.375-3.855,53.211,3.189,70.792,17.414
				c33.168,26.837,50.77,79.99,59.506,120.326c13.742,63.448,12.963,133.92-2.376,197.022
				c-33.904,139.458-113.587,184.252-113.587,184.252c-34.462,11.344-77.556,16.937-113.282,9.374
				c-41.996-8.889-92.221-39.977-112.989-78.762C767.039,3141.567,759.571,3119.605,772.752,3108.391z"/>
		</g>
	</g>
</g>
</svg>
